<?xml version="1.0" standalone="no"?><!DOCTYPE svg PUBLIC "-//W3C//DTD SVG 1.1//EN"
        "http://www.w3.org/Graphics/SVG/1.1/DTD/svg11.dtd">
<svg class="icon" width="200px" height="200.00px" viewBox="0 0 1024 1024" version="1.1"
     xmlns="http://www.w3.org/2000/svg">
    <path fill="#ffffff"
          d="M256 768H104.96c-6.656 0-11.776-0.32-15.424-0.96a35.2 35.2 0 0 1-9.536-3.008 34.304 34.304 0 0 1-12.032-12.032 34.88 34.88 0 0 1-2.944-9.536A92.608 92.608 0 0 1 64 727.04V379.072a236.8 236.8 0 0 1 3.456-46.976c2.368-10.688 5.504-19.712 9.536-27.008 8.64-15.36 20.672-27.392 36.032-36.032 7.296-4.032 16.32-7.168 26.944-9.536A236.8 236.8 0 0 1 187.008 256H256V64h512v192h68.992a236.8 236.8 0 0 1 47.04 3.456c10.624 2.368 19.648 5.504 26.944 9.536 15.36 8.64 27.392 20.672 36.032 36.032 4.032 7.296 7.168 16.32 9.472 26.944 2.368 10.688 3.52 26.368 3.52 47.04v348.032c0 6.656-0.32 11.776-0.96 15.488a35.2 35.2 0 0 1-3.008 9.472 34.368 34.368 0 0 1-12.032 12.032 34.816 34.816 0 0 1-9.536 2.944 92.8 92.8 0 0 1-15.488 1.024H768v192H256v-192z m64-192v320h384V576H320z m-64 128V512h512v192h128V379.008c0-14.016-0.32-24-0.96-30.016a33.344 33.344 0 0 0-4.544-14.528 29.632 29.632 0 0 0-8.96-8.96 33.408 33.408 0 0 0-14.528-4.48A312.576 312.576 0 0 0 836.992 320H187.008c-14.08 0-24.064 0.32-30.08 1.024a33.408 33.408 0 0 0-14.464 4.48 29.632 29.632 0 0 0-8.96 8.96 33.408 33.408 0 0 0-4.544 14.528c-0.64 6.016-1.024 16-1.024 30.016V704H256z m64-448h384V128H320v128zM256 384h64v64H256V384z m128 0h64v64H384V384z"/>
</svg>