<?xml version="1.0" standalone="no"?><!DOCTYPE svg PUBLIC "-//W3C//DTD SVG 1.1//EN"
        "http://www.w3.org/Graphics/SVG/1.1/DTD/svg11.dtd">
<svg class="icon" width="200px" height="200.00px" viewBox="0 0 1024 1024" version="1.1"
     xmlns="http://www.w3.org/2000/svg">
    <path fill="#ffffff"
          d="M508.288 730.944l228.032 120.064c2.624 0.64 4.992 0.32 7.04-1.024 1.92-1.28 2.56-3.328 1.92-6.016l-42.944-254.016 184-180.032c1.92-1.92 2.624-4.16 1.984-6.464-0.64-2.304-2.304-3.84-4.992-4.48l-254.976-37.056-114.048-230.976c-1.28-2.688-3.328-3.968-6.016-3.968s-4.672 1.28-6.016 3.968l-113.984 231.04-255.04 36.992c-2.688 0.64-4.352 2.112-4.992 4.48-0.64 2.368 0 4.48 2.048 6.464L314.24 590.016l-44.032 254.016c0 2.688 1.024 4.672 3.008 6.016a8.32 8.32 0 0 0 7.04 0.96l227.968-119.936z m-197.952 176a69.824 69.824 0 0 1-38.528 8.576 69.376 69.376 0 0 1-35.968-13.504 69.12 69.12 0 0 1-24-30.528 72.384 72.384 0 0 1-4.48-38.528l37.952-220.992-160-155.968a64.832 64.832 0 0 1-19.456-33.536 70.976 70.976 0 0 1 1.984-38.976 68.992 68.992 0 0 1 56.512-47.488l222.08-32 98.944-200.96a64.64 64.64 0 0 1 26.048-29.056c11.328-6.592 23.68-9.984 36.992-9.984 13.312 0 25.6 3.328 36.992 10.048 11.328 6.656 19.968 16.32 25.984 28.928l99.008 201.024 222.08 32c13.248 1.984 25.088 7.168 35.456 15.488 10.24 8.32 17.472 19.008 21.504 32 3.968 12.992 4.48 26.048 1.472 39.04a65.152 65.152 0 0 1-19.456 33.472l-160 156.032 38.016 220.928c1.92 13.376 0.448 26.24-4.48 38.528a69.504 69.504 0 0 1-24.064 30.464c-11.008 8.064-23.04 12.544-35.968 13.568a75.136 75.136 0 0 1-38.528-7.488l-198.016-105.024-198.08 103.936z"/>
</svg>