<?xml version="1.0" standalone="no"?><!DOCTYPE svg PUBLIC "-//W3C//DTD SVG 1.1//EN"
        "http://www.w3.org/Graphics/SVG/1.1/DTD/svg11.dtd">
<svg class="icon" width="200px" height="200.00px" viewBox="0 0 1024 1024" version="1.1"
     xmlns="http://www.w3.org/2000/svg">
    <path fill="#ffffff"
          d="M422.016 601.984a32.448 32.448 0 0 0-45.504 1.536 30.336 30.336 0 0 0-9.472 22.016c0 8.32 2.944 15.808 8.96 22.464a29.76 29.76 0 0 0 31.04 8 29.888 29.888 0 0 0 22.464-22.464 33.152 33.152 0 0 0-7.488-31.488zM384 512a31.168 31.168 0 0 0-8.96-23.04 31.168 31.168 0 0 0-23.04-8.96 31.168 31.168 0 0 0-23.04 8.96A31.168 31.168 0 0 0 320 512c0 9.344 3.008 17.024 8.96 23.04 6.016 5.952 13.696 8.96 23.04 8.96a31.168 31.168 0 0 0 23.04-8.96A31.168 31.168 0 0 0 384 512z m6.528-82.496a33.152 33.152 0 0 0 31.488-7.488 32.512 32.512 0 0 0-1.536-45.504 30.336 30.336 0 0 0-21.952-9.472 32.832 32.832 0 0 0-22.528 8.96 29.76 29.76 0 0 0-8 31.04c3.392 11.968 10.88 19.456 22.528 22.464z m242.944 0a28.8 28.8 0 0 0 22.016-22.016 33.152 33.152 0 0 0-7.488-31.488 32.832 32.832 0 0 0-22.464-8.96c-8.32 0-15.68 3.136-22.016 9.472a32.512 32.512 0 0 0-1.536 45.504c9.344 8 19.84 10.496 31.488 7.488zM512 640a31.168 31.168 0 0 0-23.04 8.96 31.168 31.168 0 0 0-8.96 23.04c0 9.344 3.008 17.024 8.96 23.04 6.016 5.952 13.696 8.96 23.04 8.96a31.168 31.168 0 0 0 23.04-8.96 31.168 31.168 0 0 0 8.96-23.04 31.168 31.168 0 0 0-8.96-23.04A31.168 31.168 0 0 0 512 640z m183.04-151.04a31.168 31.168 0 0 0-23.04-8.96 31.168 31.168 0 0 0-23.04 8.96A31.168 31.168 0 0 0 640 512c0 9.344 3.008 17.024 8.96 23.04 6.016 5.952 13.696 8.96 23.04 8.96a31.168 31.168 0 0 0 23.04-8.96A31.168 31.168 0 0 0 704 512a31.168 31.168 0 0 0-8.96-23.04z"/>
    <path fill="#ffffff"
          d="M832 512c-1.984-90.688-33.152-166.144-93.44-226.56a318.592 318.592 0 0 0-66.56-51.2V64h-320v170.24a318.08 318.08 0 0 0-66.56 51.2C225.216 345.92 194.048 421.376 192 512c1.984 90.688 33.152 166.144 93.44 226.56 20.48 20.352 42.688 37.44 66.56 51.2V960h320v-170.24c23.872-13.76 46.08-30.848 66.56-51.2 60.288-60.416 91.456-135.872 93.44-226.56zM416 128h192v78.72A357.76 357.76 0 0 0 512 192a357.312 357.312 0 0 0-96 14.72V128z m192 768h-192v-78.72c29.824 9.088 61.824 13.952 96 14.72a357.248 357.248 0 0 0 96-14.72V896zM512 768c-72.64-1.984-132.992-27.008-180.992-75.008S258.048 584.64 256 512c1.984-72.64 27.008-132.992 75.008-180.992S439.36 258.048 512 256c72.64 1.984 132.992 27.008 180.992 75.008S765.952 439.36 768 512c-1.984 72.64-27.008 132.992-75.008 180.992S584.64 765.952 512 768z"/>
    <path fill="#ffffff"
          d="M512 320a31.168 31.168 0 0 0-23.04 8.96 31.168 31.168 0 0 0-8.96 23.04c0 9.344 3.008 17.024 8.96 23.04 6.016 5.952 13.696 8.96 23.04 8.96a31.168 31.168 0 0 0 23.04-8.96 31.168 31.168 0 0 0 8.96-23.04 31.168 31.168 0 0 0-8.96-23.04A31.168 31.168 0 0 0 512 320z m112.96 273.472a31.616 31.616 0 0 0-23.04 8.512 33.28 33.28 0 0 0-7.424 31.488c3.008 11.712 10.496 19.2 22.464 22.528 12.032 3.328 22.4 0.64 31.04-8a32.832 32.832 0 0 0 8.96-22.4c0-8.32-3.136-15.744-9.472-22.08a32.512 32.512 0 0 0-22.528-10.048z"/>
</svg>