<?xml version="1.0" standalone="no"?><!DOCTYPE svg PUBLIC "-//W3C//DTD SVG 1.1//EN"
        "http://www.w3.org/Graphics/SVG/1.1/DTD/svg11.dtd">
<svg class="icon" width="200px" height="200.00px" viewBox="0 0 1024 1024" version="1.1"
     xmlns="http://www.w3.org/2000/svg">
    <path fill="#ffffff"
          d="M96 616.96a31.168 31.168 0 0 0-23.04 9.024 31.168 31.168 0 0 0-8.96 23.04c0 9.344 3.008 16.96 8.96 22.976 6.016 6.016 13.696 8.96 23.04 8.96h787.008a28.8 28.8 0 0 0 17.472-5.44 35.52 35.52 0 0 0 11.52-14.528 29.568 29.568 0 0 0 1.984-18.496 32.256 32.256 0 0 0-8.96-16.512l-296.96-296.96A30.528 30.528 0 0 0 585.536 320a30.528 30.528 0 0 0-22.464 8.96 31.104 31.104 0 0 0-10.048 22.528c0 8.32 3.328 15.808 9.984 22.464l243.008 243.008H96z"/>
</svg>