<?xml version="1.0" standalone="no"?><!DOCTYPE svg PUBLIC "-//W3C//DTD SVG 1.1//EN"
        "http://www.w3.org/Graphics/SVG/1.1/DTD/svg11.dtd">
<svg class="icon" width="200px" height="200.00px" viewBox="0 0 1024 1024" version="1.1"
     xmlns="http://www.w3.org/2000/svg">
    <path fill="#ffffff"
          d="M512 960A448 448 0 1 1 512 64a448 448 0 0 1 0 896z m0-64A384 384 0 1 0 512 127.936 384 384 0 0 0 512 896z"/>
    <path fill="#ffffff"
          d="M186.816 268.288c16-16.384 31.616-31.744 46.976-46.08 17.472 30.656 39.808 58.112 65.92 81.28l-32.448 56.448a385.984 385.984 0 0 1-80.448-91.648z m653.696-5.312a385.984 385.984 0 0 1-83.84 96.96l-32.448-56.384c27.52-24.448 50.688-53.504 68.48-85.76 15.552 14.08 31.488 29.12 47.808 45.184zM465.92 445.248l11.136-63.104c23.168 2.56 46.528 2.56 69.76 0l11.136 63.104c-30.592 3.648-61.44 3.648-92.032 0z m-62.72-12.8A381.824 381.824 0 0 1 320 396.544l32-55.424c19.776 11.456 40.704 20.736 62.464 27.712l-11.2 63.488v0.128z m300.8-35.84c-26.24 15.232-54.272 27.264-83.328 35.84l-11.2-63.552a320 320 0 0 0 62.464-27.712l32 55.424z m-520.768 364.8a385.92 385.92 0 0 1 83.968-97.28l32.512 56.32c-26.88 23.936-49.92 52.352-67.52 84.032-16-13.44-32.32-27.712-48.96-43.072z m657.536 0.128c-16 14.72-32.384 29.12-49.024 43.072a321.536 321.536 0 0 0-67.584-84.16l32.512-56.32c33.216 27.456 61.696 60.352 84.096 97.408zM465.92 578.752c30.528-3.648 61.44-3.648 92.032 0l-11.136 63.104a323.712 323.712 0 0 0-69.76 0l-11.136-63.104z m-62.72 12.8l11.2 63.552c-21.76 7.04-42.688 16.256-62.464 27.712l-32-55.424c26.24-15.232 54.208-27.264 83.328-35.84H403.2z m300.8 35.84l-32 55.424a318.272 318.272 0 0 0-62.528-27.712l11.2-63.488c29.44 8.64 57.28 20.736 83.2 35.776H704z"/>
</svg>