<?xml version="1.0" standalone="no"?><!DOCTYPE svg PUBLIC "-//W3C//DTD SVG 1.1//EN"
        "http://www.w3.org/Graphics/SVG/1.1/DTD/svg11.dtd">
<svg class="icon" width="200px" height="200.00px" viewBox="0 0 1024 1024" version="1.1"
     xmlns="http://www.w3.org/2000/svg">
    <path fill="#ffffff"
          d="M368 833.024a45.504 45.504 0 0 0-33.472 13.44 45.504 45.504 0 0 0-13.504 33.536c0 13.312 4.48 24.512 13.44 33.472 9.024 9.024 20.224 13.824 33.536 14.528a49.344 49.344 0 0 0 33.472-14.528c9.024-8.96 13.504-20.16 13.504-33.472a45.504 45.504 0 0 0-13.44-33.472 45.504 45.504 0 0 0-33.536-13.504zM807.04 640a31.36 31.36 0 0 0 30.976-24l112-448a33.024 33.024 0 0 0-6.528-27.52A29.44 29.44 0 0 0 919.04 128H96a31.232 31.232 0 0 0-23.04 8.96 31.232 31.232 0 0 0-8.96 23.04c0 9.28 3.008 17.024 8.96 23.04 6.016 5.952 13.76 8.96 23.04 8.96H192v576h672a31.232 31.232 0 0 0 23.04-8.96 31.232 31.232 0 0 0 8.96-23.04 31.232 31.232 0 0 0-8.96-23.04 31.232 31.232 0 0 0-23.04-8.96H256v-64h551.04zM256 192h622.016l-96 384H256V192z m432 641.024a45.504 45.504 0 0 0-33.472 13.44 45.504 45.504 0 0 0-13.504 33.536c0 13.312 4.48 24.512 13.44 33.472a49.28 49.28 0 0 0 33.536 14.528 49.28 49.28 0 0 0 33.472-14.528 45.504 45.504 0 0 0 13.504-33.472 45.504 45.504 0 0 0-13.44-33.472 45.504 45.504 0 0 0-33.536-13.504z"/>
</svg>