<?xml version="1.0" standalone="no"?><!DOCTYPE svg PUBLIC "-//W3C//DTD SVG 1.1//EN"
        "http://www.w3.org/Graphics/SVG/1.1/DTD/svg11.dtd">
<svg class="icon" width="200px" height="200.00px" viewBox="0 0 1024 1024" version="1.1"
     xmlns="http://www.w3.org/2000/svg">
    <path fill="#ffffff"
          d="M224 480h640c9.344 0 17.024 3.008 23.04 8.96 5.952 6.016 8.96 13.696 8.96 23.04a31.168 31.168 0 0 1-8.96 23.04 31.168 31.168 0 0 1-23.04 8.96h-640a31.168 31.168 0 0 1-23.04-8.96A31.168 31.168 0 0 1 192 512c0-9.344 3.008-17.024 8.96-23.04a31.168 31.168 0 0 1 23.04-8.96z m12.992 32l265.984 264.96c6.016 6.72 9.024 14.4 9.024 23.04a30.72 30.72 0 0 1-9.536 22.464A30.72 30.72 0 0 1 480 832a33.408 33.408 0 0 1-23.04-8.96l-288-288A33.408 33.408 0 0 1 160 512c0-8.64 3.008-16.32 8.96-23.04l288-288A33.408 33.408 0 0 1 480 192a30.72 30.72 0 0 1 22.464 9.472A30.72 30.72 0 0 1 512 224a33.408 33.408 0 0 1-8.96 23.04L236.928 512z"/>
</svg>