<?xml version="1.0" standalone="no"?><!DOCTYPE svg PUBLIC "-//W3C//DTD SVG 1.1//EN"
        "http://www.w3.org/Graphics/SVG/1.1/DTD/svg11.dtd">
<svg class="icon" width="200px" height="200.00px" viewBox="0 0 1024 1024" version="1.1"
     xmlns="http://www.w3.org/2000/svg">
    <path fill="#ffffff"
          d="M384 96c0-9.344 3.008-17.024 8.96-23.04A31.168 31.168 0 0 1 416 64c9.344 0 17.024 3.008 23.04 8.96 5.952 6.016 8.96 13.696 8.96 23.04v787.008a28.8 28.8 0 0 1-5.504 17.472 35.52 35.52 0 0 1-14.528 11.52 29.568 29.568 0 0 1-18.496 1.984 32.256 32.256 0 0 1-16.512-8.96L96 608.064a30.528 30.528 0 0 1-8.96-22.528c0-8.96 2.944-16.512 8.96-22.464a31.104 31.104 0 0 1 22.464-10.048c8.32 0 15.872 3.328 22.528 9.984L384 806.08V96z m192 44.992a28.8 28.8 0 0 1 5.504-17.472 35.52 35.52 0 0 1 14.464-11.52 29.568 29.568 0 0 1 18.56-2.048c6.272 1.344 11.776 4.352 16.448 9.024l296.96 296.96c6.08 6.016 9.024 13.504 9.024 22.528 0 8.96-2.944 16.512-8.96 22.464a31.104 31.104 0 0 1-22.528 10.048 31.104 31.104 0 0 1-22.464-10.048L640 217.984v709.952a31.168 31.168 0 0 1-8.96 23.04 31.168 31.168 0 0 1-23.04 8.96 31.168 31.168 0 0 1-23.04-8.96 31.168 31.168 0 0 1-8.96-23.04V141.056z"/>
</svg>