<?xml version="1.0" standalone="no"?><!DOCTYPE svg PUBLIC "-//W3C//DTD SVG 1.1//EN"
        "http://www.w3.org/Graphics/SVG/1.1/DTD/svg11.dtd">
<svg class="icon" width="200px" height="200.00px" viewBox="0 0 1024 1024" version="1.1"
     xmlns="http://www.w3.org/2000/svg">
    <path fill="#ffffff"
          d="M325.504 148.992a32.256 32.256 0 0 0-8.96 22.016 28.8 28.8 0 0 0 8.96 20.992L637.44 512l-312 320a28.8 28.8 0 0 0 0 41.984 28.8 28.8 0 0 0 20.992 8.96 30.592 30.592 0 0 0 20.992-7.936l331.008-340.992a29.952 29.952 0 0 0 8.96-22.016 29.952 29.952 0 0 0-8.96-22.016L367.488 148.992a30.592 30.592 0 0 0-20.992-8 30.592 30.592 0 0 0-20.992 8z"/>
</svg>