<?xml version="1.0" standalone="no"?><!DOCTYPE svg PUBLIC "-//W3C//DTD SVG 1.1//EN"
        "http://www.w3.org/Graphics/SVG/1.1/DTD/svg11.dtd">
<svg class="icon" width="200px" height="200.00px" viewBox="0 0 1024 1024" version="1.1"
     xmlns="http://www.w3.org/2000/svg">
    <path fill="#ffffff"
          d="M512 512c54.656-1.344 100.032-20.032 136-56S702.656 374.72 704 320c-1.344-54.656-20.032-100.032-56-136S566.72 129.344 512 128c-54.656 1.344-100.032 20.032-136 56S321.344 265.28 320 320c1.344 54.656 20.032 100.032 56 136S457.28 510.656 512 512z m0 64c-72.64-1.984-132.992-27.008-180.992-75.008S258.048 392.64 256 320c1.984-72.64 27.008-132.992 75.008-180.992S439.36 66.048 512 64c72.64 1.984 132.992 27.008 180.992 75.008S765.952 247.36 768 320c-1.984 72.64-27.008 132.992-75.008 180.992S584.64 573.952 512 576z m320 320v-96c-0.64-27.328-9.984-49.984-28.032-68.032-17.92-17.92-40.64-27.328-67.968-27.968h-448c-27.328 0.64-49.984 9.984-68.032 28.032-17.92 17.92-27.328 40.64-27.968 67.968V896a31.168 31.168 0 0 1-8.96 23.04 31.168 31.168 0 0 1-23.04 8.96 31.168 31.168 0 0 1-23.04-8.96A31.168 31.168 0 0 1 128 896v-96c1.344-45.312 17.024-83.008 47.04-112.96 29.952-30.08 67.648-45.696 112.96-47.04h448c45.312 1.344 83.008 17.024 112.96 47.04 30.08 29.952 45.696 67.648 47.04 112.96V896a31.168 31.168 0 0 1-8.96 23.04 31.168 31.168 0 0 1-23.04 8.96 31.168 31.168 0 0 1-23.04-8.96A31.168 31.168 0 0 1 832 896z"/>
</svg>