<?xml version="1.0" standalone="no"?><!DOCTYPE svg PUBLIC "-//W3C//DTD SVG 1.1//EN"
        "http://www.w3.org/Graphics/SVG/1.1/DTD/svg11.dtd">
<svg class="icon" width="200px" height="200.00px" viewBox="0 0 1024 1024" version="1.1"
     xmlns="http://www.w3.org/2000/svg">
    <path fill="#ffffff"
          d="M192 128v704h384V128H192z m-32-64h448c9.344 0 17.024 3.008 23.04 8.96 5.952 6.016 8.96 13.696 8.96 23.04v768a31.168 31.168 0 0 1-8.96 23.04 31.168 31.168 0 0 1-23.04 8.96h-448a31.168 31.168 0 0 1-23.04-8.96 31.168 31.168 0 0 1-8.96-23.04v-768c0-9.344 3.008-17.024 8.96-23.04A31.168 31.168 0 0 1 160 64zM256 256h256v64H256V256z m0 192h256v64H256V448z m0 192h256v64H256v-64z m384-128h128v64h-128V512z m0 128h128v64h-128v-64z m-576 192h896v64H64v-64z m576-448v448h192V384h-192z m-32-64h256c9.344 0 17.024 3.008 23.04 8.96 5.952 6.016 8.96 13.696 8.96 23.04v512a31.168 31.168 0 0 1-8.96 23.04 31.168 31.168 0 0 1-23.04 8.96h-256a31.168 31.168 0 0 1-23.04-8.96 31.168 31.168 0 0 1-8.96-23.04v-512c0-9.344 3.008-17.024 8.96-23.04A31.168 31.168 0 0 1 608 320z"/>
</svg>