<?xml version="1.0" standalone="no"?><!DOCTYPE svg PUBLIC "-//W3C//DTD SVG 1.1//EN"
        "http://www.w3.org/Graphics/SVG/1.1/DTD/svg11.dtd">
<svg class="icon" width="200px" height="200.00px" viewBox="0 0 1024 1024" version="1.1"
     xmlns="http://www.w3.org/2000/svg">
    <path fill="#ffffff"
          d="M128 384v512h768V192h-128v32a31.168 31.168 0 0 1-8.96 23.04 31.168 31.168 0 0 1-23.04 8.96 31.168 31.168 0 0 1-23.04-8.96 31.168 31.168 0 0 1-8.96-23.04V192H320v32a31.168 31.168 0 0 1-8.96 23.04 31.168 31.168 0 0 1-23.04 8.96 31.168 31.168 0 0 1-23.04-8.96A31.168 31.168 0 0 1 256 224V192H128v128h768v64H128z m192-256h384v-32c0-9.344 3.008-17.024 8.96-23.04A31.168 31.168 0 0 1 736 64c9.344 0 17.024 3.008 23.04 8.96 5.952 6.016 8.96 13.696 8.96 23.04V128h160c9.344 0 17.024 3.008 23.04 8.96 5.952 6.016 8.96 13.696 8.96 23.04v768a31.168 31.168 0 0 1-8.96 23.04 31.168 31.168 0 0 1-23.04 8.96h-832a31.168 31.168 0 0 1-23.04-8.96 31.168 31.168 0 0 1-8.96-23.04v-768c0-9.344 3.008-17.024 8.96-23.04A31.168 31.168 0 0 1 96 128H256v-32c0-9.344 3.008-17.024 8.96-23.04A31.168 31.168 0 0 1 288 64c9.344 0 17.024 3.008 23.04 8.96 5.952 6.016 8.96 13.696 8.96 23.04V128z"/>
</svg>