<?xml version="1.0" standalone="no"?><!DOCTYPE svg PUBLIC "-//W3C//DTD SVG 1.1//EN"
        "http://www.w3.org/Graphics/SVG/1.1/DTD/svg11.dtd">
<svg class="icon" width="200px" height="200.00px" viewBox="0 0 1024 1024" version="1.1"
     xmlns="http://www.w3.org/2000/svg">
    <path fill="#ffffff"
          d="M250.048 417.024l318.976 43.008 40 309.952 236.032-590.976-595.008 238.016zM120.96 464a28.928 28.928 0 0 1-18.56-8.512 32 32 0 0 1-8.96-19.008 30.592 30.592 0 0 1 19.52-33.472l777.984-311.04a28.352 28.352 0 0 1 18.048-1.984 32 32 0 0 1 16 8.96c4.608 4.672 7.68 9.984 8.96 16a28.096 28.096 0 0 1-1.984 18.048L622.016 908.992a31.616 31.616 0 0 1-34.048 19.456 31.104 31.104 0 0 1-18.496-8.96 29.248 29.248 0 0 1-8.512-18.56l-48.96-384-391.04-52.928z"/>
</svg>