<?xml version="1.0" standalone="no"?><!DOCTYPE svg PUBLIC "-//W3C//DTD SVG 1.1//EN"
        "http://www.w3.org/Graphics/SVG/1.1/DTD/svg11.dtd">
<svg class="icon" width="200px" height="200.00px" viewBox="0 0 1024 1024" version="1.1"
     xmlns="http://www.w3.org/2000/svg">
    <path fill="#ffffff"
          d="M288 671.36v64.128a239.808 239.808 0 0 1-167.68-394.112 240.32 240.32 0 0 1 142.912-81.984 256.128 256.128 0 0 1 487.872-30.976 256 256 0 0 1-15.104 505.6v-64.768a192 192 0 0 0 3.328-377.92l-35.2-6.592-12.8-33.408a192.064 192.064 0 0 0-365.952 23.232l-9.92 40.896-41.472 7.04a176.32 176.32 0 0 0-146.24 173.568A175.872 175.872 0 0 0 288 671.296v0.064z"/>
    <path fill="#ffffff"
          d="M416 736a32 32 0 0 1-27.776-47.872l128-224a32 32 0 1 1 55.552 31.744L471.168 672H608a32 32 0 0 1 27.776 47.872l-128 224a32 32 0 1 1-55.68-31.744L552.96 736H416z"/>
</svg>