<?xml version="1.0" standalone="no"?><!DOCTYPE svg PUBLIC "-//W3C//DTD SVG 1.1//EN"
        "http://www.w3.org/Graphics/SVG/1.1/DTD/svg11.dtd">
<svg class="icon" width="200px" height="200.00px" viewBox="0 0 1024 1024" version="1.1"
     xmlns="http://www.w3.org/2000/svg">
    <path fill="#ffffff"
          d="M512 896A384 384 0 1 0 512 127.936 384 384 0 0 0 512 896z m0 64A448 448 0 1 1 512 64a448 448 0 0 1 0 896z"/>
    <path fill="#ffffff" d="M192 512a320 320 0 1 1 640 0 32 32 0 0 1-64 0 256 256 0 1 0-512 0 32 32 0 1 1-64 0z"/>
    <path fill="#ffffff"
          d="M570.432 627.84a96 96 0 1 1-60.864-19.84l60.992-187.776a32 32 0 1 1 60.8 19.776l-60.928 187.776v0.064z m-68.352 106.624a32 32 0 1 0 19.84-60.8 32 32 0 0 0-19.84 60.8z"/>
</svg>