<?xml version="1.0" standalone="no"?><!DOCTYPE svg PUBLIC "-//W3C//DTD SVG 1.1//EN"
        "http://www.w3.org/Graphics/SVG/1.1/DTD/svg11.dtd">
<svg class="icon" width="200px" height="200.00px" viewBox="0 0 1024 1024" version="1.1"
     xmlns="http://www.w3.org/2000/svg">
    <path fill="#ffffff"
          d="M452.992 148.992a30.592 30.592 0 0 1 20.992-8c8 0 14.976 2.688 20.992 8l331.008 340.992c6.016 6.016 8.96 13.312 8.96 22.016 0 8.704-2.944 16-8.96 22.016l-331.008 340.992a30.592 30.592 0 0 1-20.992 8 28.8 28.8 0 0 1-20.992-8.96 28.8 28.8 0 0 1 0-41.984l312-320-312-320a28.8 28.8 0 0 1-8.96-21.056c0-8 2.944-15.36 8.96-22.016z m-256 0a30.592 30.592 0 0 1 20.992-8c8 0 14.976 2.688 20.992 8l331.008 340.992c6.016 6.016 8.96 13.312 8.96 22.016 0 8.704-2.944 16-8.96 22.016l-331.008 340.992a30.592 30.592 0 0 1-20.992 8 28.8 28.8 0 0 1-20.992-8.96 28.8 28.8 0 0 1 0-41.984l312-320-312-320a28.8 28.8 0 0 1-8.96-21.056c0-8 2.944-15.36 8.96-22.016z"/>
</svg>