<?xml version="1.0" standalone="no"?><!DOCTYPE svg PUBLIC "-//W3C//DTD SVG 1.1//EN"
        "http://www.w3.org/Graphics/SVG/1.1/DTD/svg11.dtd">
<svg class="icon" width="200px" height="200.00px" viewBox="0 0 1024 1024" version="1.1"
     xmlns="http://www.w3.org/2000/svg">
    <path fill="#ffffff"
          d="M806.016 320L640 153.984V320h166.016zM832 384H576V128H192v768h640V384zM160 64H640l256 256v608a31.168 31.168 0 0 1-8.96 23.04 31.168 31.168 0 0 1-23.04 8.96h-704a31.168 31.168 0 0 1-23.04-8.96 31.168 31.168 0 0 1-8.96-23.04v-832c0-9.344 3.008-17.024 8.96-23.04A31.168 31.168 0 0 1 160 64z m308.992 545.984L377.984 520l46.016-46.016 89.984 91.008 91.008-91.008 45.056 46.016L560 609.984l89.984 91.008-44.992 45.056-90.944-90.048-90.048 89.984-46.016-44.992 91.008-90.944z"/>
</svg>