<?xml version="1.0" standalone="no"?><!DOCTYPE svg PUBLIC "-//W3C//DTD SVG 1.1//EN"
        "http://www.w3.org/Graphics/SVG/1.1/DTD/svg11.dtd">
<svg class="icon" width="200px" height="200.00px" viewBox="0 0 1024 1024" version="1.1"
     xmlns="http://www.w3.org/2000/svg">
    <path fill="#ffffff"
          d="M451.392 73.152v64c-98.56 19.776-176.832 67.072-234.88 141.952-58.176 74.88-84.224 162.56-78.336 263.168 10.496 99.84 50.752 181.952 120.64 246.4 69.952 64.384 155.136 97.92 255.616 100.48 94.592-1.92 176-31.808 244.288-89.6 68.352-57.856 111.36-133.12 129.088-225.728h63.04c-19.712 116.992-73.088 210.24-160.064 279.872-87.04 69.632-189.632 101.824-307.84 96.64-117.568-11.2-214.4-57.664-290.56-139.52-76.224-81.792-115.968-181.76-119.232-300.096 1.92-112.32 37.76-208.768 107.328-289.28C250.112 141.056 340.48 91.52 451.392 73.216z m133.76 73.152v292.544h292.544c-8.32-79.424-39.296-145.984-92.928-199.616-53.632-53.632-120.192-84.608-199.68-92.928zM512 73.984a417.472 417.472 0 0 1 172.352 25.152c55.168 20.416 103.936 51.84 146.304 94.144a402.368 402.368 0 0 1 94.208 146.368c20.48 55.168 28.8 112.64 25.152 172.352H512V73.984z"/>
</svg>