<?xml version="1.0" standalone="no"?><!DOCTYPE svg PUBLIC "-//W3C//DTD SVG 1.1//EN"
        "http://www.w3.org/Graphics/SVG/1.1/DTD/svg11.dtd">
<svg class="icon" width="200px" height="200.00px" viewBox="0 0 1024 1024" version="1.1"
     xmlns="http://www.w3.org/2000/svg">
    <path fill="#ffffff"
          d="M922.496 229.504c-24.32-24.32-54.464-36.864-90.496-37.504h-128V128a64.768 64.768 0 0 0-64-64H384a64.768 64.768 0 0 0-64 64v64H192c-35.968 0.64-66.176 13.184-90.496 37.504-24.32 24.32-36.864 54.464-37.504 90.496v448c0.64 35.968 13.184 66.176 37.504 90.496 24.32 24.32 54.464 36.864 90.496 37.504h640c35.968-0.64 66.176-13.184 90.496-37.504 24.32-24.32 36.864-54.464 37.504-90.496V320c-0.64-35.968-13.184-66.176-37.504-90.496zM384 128h256v64H384V128zM256 832H192a64.768 64.768 0 0 1-64-64V448h128v384z m448 0H320V448h384v384z m192-64a64.768 64.768 0 0 1-64 64h-64V448h128v320z m0-384H128V320a64.832 64.832 0 0 1 64-64h640a64.832 64.832 0 0 1 64 64v64z"/>
</svg>