<?xml version="1.0" standalone="no"?><!DOCTYPE svg PUBLIC "-//W3C//DTD SVG 1.1//EN"
        "http://www.w3.org/Graphics/SVG/1.1/DTD/svg11.dtd">
<svg class="icon" width="200px" height="200.00px" viewBox="0 0 1024 1024" version="1.1"
     xmlns="http://www.w3.org/2000/svg">
    <path fill="#ffffff"
          d="M625.024 64l222.016 128-43.008 75.008c14.656 17.344 27.968 36.352 39.936 56.96 12.032 20.672 22.016 41.984 30.08 64H960v256h-86.08a385.088 385.088 0 0 1-70.016 121.024l43.072 75.008-222.08 128-42.944-75.008a380.48 380.48 0 0 1-140.032 0l-43.008 75.008-222.016-128 43.008-75.008a380.8 380.8 0 0 1-40.512-57.472 406.272 406.272 0 0 1-29.504-63.488H63.936v-256h86.016a385.152 385.152 0 0 1 70.016-121.024L176.96 192l222.016-128 43.008 75.008a380.416 380.416 0 0 1 140.032 0L625.024 64z m23.936 87.04l-11.968 19.968-22.016 39.04-44.992-8.064a308.352 308.352 0 0 0-115.968 0l-44.992 8-34.048-58.944-110.016 64 33.024 59.008-28.992 33.984a324.032 324.032 0 0 0-58.048 100.992l-14.976 43.008H127.936v128h67.008l16 43.008c6.656 19.328 14.72 36.992 24 52.992 9.344 16 20.672 32 34.048 48l28.992 33.984-33.024 59.072 110.016 64 34.048-59.008 44.992 7.936a308.288 308.288 0 0 0 115.968 0l44.992-7.936 33.984 58.944 110.08-64-33.024-58.944 28.992-34.048c25.344-30.72 44.672-64.32 57.984-100.992l15.04-43.008h68.032v-128h-67.008l-16-43.008a273.6 273.6 0 0 0-24.064-52.48 373.184 373.184 0 0 0-33.984-48.512l-28.992-34.048 33.024-59.008-110.08-64zM512 292.032c63.36 1.28 116.16 23.168 158.464 65.472 42.368 42.304 64.192 95.168 65.536 158.464-1.344 63.36-23.168 116.224-65.536 158.528-42.24 42.304-95.104 64.128-158.464 65.536-63.36-1.408-116.16-23.232-158.464-65.536C311.168 632.192 289.28 579.328 288 516.032c1.344-63.36 23.168-116.224 65.536-158.528C395.776 315.2 448.64 293.312 512 291.968z m0 64c-45.312 1.28-83.008 16.96-112.96 46.976-30.08 30.016-45.696 67.648-47.04 113.024 1.344 45.312 17.024 82.944 47.04 112.96 29.952 30.016 67.648 45.632 112.96 47.04 45.312-1.408 83.008-17.024 113.024-47.04 29.952-30.016 45.632-67.648 46.976-112.96-1.344-45.376-17.024-83.008-46.976-113.024-30.08-30.016-67.712-45.632-113.024-46.976z"/>
</svg>