<?xml version="1.0" standalone="no"?><!DOCTYPE svg PUBLIC "-//W3C//DTD SVG 1.1//EN"
        "http://www.w3.org/Graphics/SVG/1.1/DTD/svg11.dtd">
<svg class="icon" width="200px" height="200.00px" viewBox="0 0 1024 1024" version="1.1"
     xmlns="http://www.w3.org/2000/svg">
    <path fill="#ffffff"
          d="M224 768v96a64.832 64.832 0 0 0 64 64h448a64.832 64.832 0 0 0 64-64V768h-576z m0-64h576V160a64.768 64.768 0 0 0-64-64h-448a64.768 64.768 0 0 0-64 64V704z m32 288c-27.328-0.64-49.984-9.984-68.032-28.032-17.92-17.92-27.328-40.64-27.968-67.968V128c0.64-27.328 9.984-49.984 28.032-68.032C205.952 42.048 228.608 32.64 256 32h512c27.328 0.64 49.984 9.984 68.032 28.032 17.92 17.92 27.328 40.64 27.968 67.968v768c-0.64 27.328-9.984 49.984-28.032 68.032-17.92 17.92-40.64 27.328-67.968 27.968H256z m304-144a49.152 49.152 0 0 1-14.464 33.536 45.44 45.44 0 0 1-33.536 13.44 45.44 45.44 0 0 1-33.536-13.44 45.44 45.44 0 0 1-13.44-33.536 45.44 45.44 0 0 1 13.44-33.536 45.44 45.44 0 0 1 33.536-13.44 45.44 45.44 0 0 1 33.536 13.44c8.96 9.024 13.824 20.224 14.464 33.536z"/>
</svg>