<?xml version="1.0" standalone="no"?><!DOCTYPE svg PUBLIC "-//W3C//DTD SVG 1.1//EN"
        "http://www.w3.org/Graphics/SVG/1.1/DTD/svg11.dtd">
<svg class="icon" width="200px" height="200.00px" viewBox="0 0 1024 1024" version="1.1"
     xmlns="http://www.w3.org/2000/svg">
    <path fill="#ffffff"
          d="M160 832h704c9.344 0 17.024 3.008 23.04 8.96 5.952 6.016 8.96 13.696 8.96 23.04a31.168 31.168 0 0 1-8.96 23.04 31.168 31.168 0 0 1-23.04 8.96h-704a31.168 31.168 0 0 1-23.04-8.96 31.168 31.168 0 0 1-8.96-23.04c0-9.344 3.008-17.024 8.96-23.04A31.168 31.168 0 0 1 160 832z m384-254.016l236.032-235.968 45.952 44.992L508.992 704 192.128 387.008l44.992-44.992L480 585.024v-456.96h64v449.984z"/>
</svg>