<?xml version="1.0" standalone="no"?><!DOCTYPE svg PUBLIC "-//W3C//DTD SVG 1.1//EN"
        "http://www.w3.org/Graphics/SVG/1.1/DTD/svg11.dtd">
<svg class="icon" width="200px" height="200.00px" viewBox="0 0 1024 1024" version="1.1"
     xmlns="http://www.w3.org/2000/svg">
    <path fill="#ffffff"
          d="M488.96 311.04l-339.968 356.928a32.256 32.256 0 0 0-8.96 22.016c0 8 2.944 15.36 8.96 22.016v1.024c6.016 5.952 13.184 8.96 21.504 8.96 8.32 0 15.488-3.008 21.504-8.96l320-336 320 336c6.016 5.952 13.184 8.96 21.504 8.96 8.32 0 15.488-3.008 21.504-8.96v-1.024a32.256 32.256 0 0 0 8.96-22.016 32.256 32.256 0 0 0-8.96-22.016L534.976 311.04A31.168 31.168 0 0 0 512 302.08a31.168 31.168 0 0 0-23.04 8.96z"/>
</svg>