<?xml version="1.0" standalone="no"?><!DOCTYPE svg PUBLIC "-//W3C//DTD SVG 1.1//EN"
        "http://www.w3.org/Graphics/SVG/1.1/DTD/svg11.dtd">
<svg class="icon" width="200px" height="200.00px" viewBox="0 0 1024 1024" version="1.1"
     xmlns="http://www.w3.org/2000/svg">
    <path fill="#ffffff"
          d="M399.488 849.472a225.024 225.024 0 1 0 0-449.92 225.024 225.024 0 0 0 0 449.92z m0 56.32a281.216 281.216 0 1 1 177.984-499.072l232.192-232.192h-157.056c-18.752 0-28.16-9.408-28.16-28.16 0-18.752 9.408-28.16 28.16-28.16h225.024c18.752 0 28.16 9.408 28.16 28.16v225.024c0 18.752-9.408 28.16-28.16 28.16-18.752 0-28.16-9.408-28.16-28.16V214.336L617.216 446.464a281.28 281.28 0 0 1-217.728 459.264z"/>
</svg>