<?xml version="1.0" standalone="no"?><!DOCTYPE svg PUBLIC "-//W3C//DTD SVG 1.1//EN"
        "http://www.w3.org/Graphics/SVG/1.1/DTD/svg11.dtd">
<svg class="icon" width="200px" height="200.00px" viewBox="0 0 1024 1024" version="1.1"
     xmlns="http://www.w3.org/2000/svg">
    <path fill="#ffffff"
          d="M149.76 331.776a254.848 254.848 0 0 1 180.224-74.624h364.096a254.848 254.848 0 1 1 0 509.696h-364.16A254.848 254.848 0 0 1 149.76 331.776z m544.32-147.456h-364.16a327.68 327.68 0 0 0 0 655.36h364.16a327.68 327.68 0 1 0 0-655.36z m77.184 404.928a109.248 109.248 0 1 1-154.432-154.496 109.248 109.248 0 0 1 154.432 154.496z m-205.952 51.456a182.08 182.08 0 1 0 257.472-257.472 182.08 182.08 0 0 0-257.472 257.472z"/>
</svg>