<?xml version="1.0" standalone="no"?><!DOCTYPE svg PUBLIC "-//W3C//DTD SVG 1.1//EN"
        "http://www.w3.org/Graphics/SVG/1.1/DTD/svg11.dtd">
<svg class="icon" width="200px" height="200.00px" viewBox="0 0 1024 1024" version="1.1"
     xmlns="http://www.w3.org/2000/svg">
    <path fill="#ffffff"
          d="M480 256c9.344 0 17.024 3.008 23.04 8.96 5.952 6.016 8.96 13.696 8.96 23.04V512h224c21.312 0 32 10.688 32 32 0 21.312-10.688 32-32 32H479.808C458.688 575.936 448 565.312 448 544.192V288c0-9.344 3.008-17.024 8.96-23.04A31.168 31.168 0 0 1 480 256z"/>
    <path fill="#ffffff"
          d="M195.52 828.48C279.808 912.832 385.28 956.672 512 960c126.72-3.328 232.192-47.168 316.48-131.52C912.832 744.192 956.672 638.72 960 512c-3.328-126.72-47.168-232.192-131.52-316.48C744.192 111.168 638.72 67.328 512 64c-126.72 3.328-232.192 47.168-316.48 131.52C111.168 279.808 67.328 385.28 64 512c3.328 126.72 47.168 232.192 131.52 316.48z m587.968-44.992C711.168 855.808 620.672 893.312 512 896c-108.672-2.688-199.168-40.192-271.488-112.512S130.688 620.672 128 512c2.688-108.672 40.192-199.168 112.512-271.488S403.328 130.688 512 128c108.672 2.688 199.168 40.192 271.488 112.512S893.312 403.328 896 512c-2.688 108.672-40.192 199.168-112.512 271.488z"/>
</svg>