<?xml version="1.0" standalone="no"?><!DOCTYPE svg PUBLIC "-//W3C//DTD SVG 1.1//EN"
        "http://www.w3.org/Graphics/SVG/1.1/DTD/svg11.dtd">
<svg class="icon" width="200px" height="200.00px" viewBox="0 0 1024 1024" version="1.1"
     xmlns="http://www.w3.org/2000/svg">
    <path fill="#ffffff"
          d="M224 448a31.168 31.168 0 0 0-23.04 8.96 31.168 31.168 0 0 0-8.96 23.04v384c0 9.344 3.008 17.024 8.96 23.04 6.016 5.952 13.696 8.96 23.04 8.96h576a31.168 31.168 0 0 0 23.04-8.96 31.168 31.168 0 0 0 8.96-23.04v-384a31.168 31.168 0 0 0-8.96-23.04 31.168 31.168 0 0 0-23.04-8.96h-576z m0-64h576c27.328 0.64 49.984 9.984 68.032 28.032 17.92 17.92 27.328 40.64 27.968 67.968v384c-0.64 27.328-9.984 49.984-28.032 68.032-17.92 17.92-40.64 27.328-67.968 27.968h-576c-27.328-0.64-49.984-9.984-68.032-28.032-17.92-17.92-27.328-40.64-27.968-67.968v-384c0.64-27.328 9.984-49.984 28.032-68.032 17.92-17.92 40.64-27.328 67.968-27.968zM512 544c9.344 0 17.024 3.008 23.04 8.96 5.952 6.016 8.96 13.696 8.96 23.04v192a31.168 31.168 0 0 1-8.96 23.04 31.168 31.168 0 0 1-23.04 8.96 31.168 31.168 0 0 1-23.04-8.96 31.168 31.168 0 0 1-8.96-23.04V576c0-9.344 3.008-17.024 8.96-23.04A31.168 31.168 0 0 1 512 544zM704 384V320c-1.344-54.656-20.032-100.032-56-136S566.72 129.344 512 128c-54.656 1.344-100.032 20.032-136 56S321.344 265.28 320 320v64h384zM512 64c72.64 1.984 132.992 27.008 180.992 75.008S765.952 247.36 768 320v128H256V320c1.984-72.64 27.008-132.992 75.008-180.992S439.36 66.048 512 64z"/>
</svg>