<?xml version="1.0" standalone="no"?><!DOCTYPE svg PUBLIC "-//W3C//DTD SVG 1.1//EN"
        "http://www.w3.org/Graphics/SVG/1.1/DTD/svg11.dtd">
<svg class="icon" width="200px" height="200.00px" viewBox="0 0 1024 1024" version="1.1"
     xmlns="http://www.w3.org/2000/svg">
    <path fill="#ffffff"
          d="M82.56 640a448 448 0 1 1 858.88 0h-67.2a384 384 0 1 0-724.288 0H82.56zM32 704h960c21.312 0 32 10.688 32 32 0 21.312-10.688 32-32 32H32c-21.312 0-32-10.688-32-32 0-21.312 10.688-32 32-32z m256 128h448c21.312 0 32 10.688 32 32 0 21.312-10.688 32-32 32h-448c-21.312 0-32-10.688-32-32 0-21.312 10.688-32 32-32z"/>
</svg>