<?xml version="1.0" standalone="no"?><!DOCTYPE svg PUBLIC "-//W3C//DTD SVG 1.1//EN"
        "http://www.w3.org/Graphics/SVG/1.1/DTD/svg11.dtd">
<svg class="icon" width="200px" height="200.00px" viewBox="0 0 1024 1024" version="1.1"
     xmlns="http://www.w3.org/2000/svg">
    <path fill="#ffffff"
          d="M224 448a31.168 31.168 0 0 0-23.04 8.96 31.168 31.168 0 0 0-8.96 23.04v384c0 9.344 3.008 17.024 8.96 23.04 6.016 5.952 13.696 8.96 23.04 8.96h576a31.168 31.168 0 0 0 23.04-8.96 31.168 31.168 0 0 0 8.96-23.04v-384a31.168 31.168 0 0 0-8.96-23.04 31.168 31.168 0 0 0-23.04-8.96h-576z m0-64h576c27.328 0.64 49.984 9.984 68.032 27.968 17.92 18.048 27.328 40.704 27.968 68.032v384c-0.64 27.328-9.984 49.984-28.032 68.032-17.92 17.92-40.64 27.328-67.968 27.968h-576c-27.328-0.64-49.984-9.984-68.032-28.032-17.92-17.92-27.328-40.64-27.968-67.968v-384c0.64-27.328 9.984-49.984 28.032-68.032 17.92-17.92 40.64-27.328 67.968-27.968zM512 544c9.344 0 17.024 3.008 23.04 8.96 5.952 6.016 8.96 13.696 8.96 23.04v192a31.168 31.168 0 0 1-8.96 23.04 31.168 31.168 0 0 1-23.04 8.96 31.168 31.168 0 0 1-23.04-8.96 31.168 31.168 0 0 1-8.96-23.04V576c0-9.344 3.008-17.024 8.96-23.04A31.168 31.168 0 0 1 512 544z m177.984-295.04c-17.92-43.328-46.656-75.648-86.016-96.96a192 192 0 0 0-128-20.032c-45.952 9.344-83.264 31.232-112 65.536C335.36 231.808 320.64 272.64 320 320v64h352l96 38.016V448H256V320c1.344-62.656 20.864-116.992 58.496-163.008 37.632-45.952 87.488-75.648 149.504-88.96 61.312-10.688 118.144-1.664 170.496 27.008 52.352 28.672 90.88 72 115.52 129.984l-60.032 23.936z"/>
</svg>