<?xml version="1.0" standalone="no"?><!DOCTYPE svg PUBLIC "-//W3C//DTD SVG 1.1//EN"
        "http://www.w3.org/Graphics/SVG/1.1/DTD/svg11.dtd">
<svg class="icon" width="200px" height="200.00px" viewBox="0 0 1024 1024" version="1.1"
     xmlns="http://www.w3.org/2000/svg">
    <path fill="#ffffff"
          d="M768.32 794.88c-57.664 52.032-123.136 84.032-196.352 96a381.44 381.44 0 0 1-215.296-27.008c-70.272-32-125.76-79.36-166.528-141.952C149.376 659.264 128.64 589.312 128 512h63.616c0.64 67.328 19.072 127.616 55.168 180.928 36.16 53.312 85.376 92.288 147.712 116.928 62.272 24 124.8 28.672 187.392 14.016 62.72-14.72 116.864-46.656 162.56-96h-92.416a30.912 30.912 0 0 1-31.872-31.424c0-8.96 3.008-16.512 8.96-22.528a34.688 34.688 0 0 1 22.912-9.984h148.096c8.64 0.64 15.936 3.968 21.888 9.984a33.856 33.856 0 0 1 9.984 22.016v148.928a34.816 34.816 0 0 1-9.984 23.04 30.336 30.336 0 0 1-22.4 8.96 30.336 30.336 0 0 1-22.336-8.96 31.104 31.104 0 0 1-8.96-23.04v-49.92zM279.552 296.064h92.416a30.912 30.912 0 0 1 31.872 31.488c0 8.96-3.008 16.512-8.96 22.464a34.688 34.688 0 0 1-22.912 10.048H223.872a33.536 33.536 0 0 1-21.888-10.048A33.856 33.856 0 0 1 192 328V179.072a34.816 34.816 0 0 1 9.984-22.976 30.336 30.336 0 0 1 22.4-8.96c8.896 0 16.32 2.944 22.336 8.96 5.952 6.016 8.96 13.632 8.96 23.04v49.92c57.6-51.968 123.072-83.968 196.352-95.936 73.216-11.968 145.28-2.944 216.256 27.008 70.272 32 125.632 79.36 166.08 141.952 40.384 62.656 60.928 132.608 61.632 209.92h-63.616c-0.64-67.328-19.072-127.616-55.168-180.928-36.16-53.312-85.376-92.288-147.712-116.928-62.272-24-124.8-28.672-187.392-14.016-62.72 14.72-116.864 46.592-162.56 95.936z"/>
</svg>