<?xml version="1.0" standalone="no"?><!DOCTYPE svg PUBLIC "-//W3C//DTD SVG 1.1//EN"
        "http://www.w3.org/Graphics/SVG/1.1/DTD/svg11.dtd">
<svg class="icon" width="200px" height="200.00px" viewBox="0 0 1024 1024" version="1.1"
     xmlns="http://www.w3.org/2000/svg">
    <path fill="#ffffff"
          d="M512 896A384 384 0 1 0 512 127.936 384 384 0 0 0 512 896z m0 64A448 448 0 1 1 512 64a448 448 0 0 1 0 896z"/>
    <path fill="#ffffff"
          d="M298.944 548.48a32 32 0 0 1 45.248-45.312L457.344 616.32l248.96-248.96a32 32 0 0 1 45.184 45.312L480 684.16a32 32 0 0 1-45.248 0L298.88 548.48z"/>
</svg>