<?xml version="1.0" standalone="no"?><!DOCTYPE svg PUBLIC "-//W3C//DTD SVG 1.1//EN"
        "http://www.w3.org/Graphics/SVG/1.1/DTD/svg11.dtd">
<svg class="icon" width="200px" height="200.00px" viewBox="0 0 1024 1024" version="1.1"
     xmlns="http://www.w3.org/2000/svg">
    <path fill="#ffffff"
          d="M128 224v512a64.832 64.832 0 0 0 64 64h640a64.832 64.832 0 0 0 64-64v-512H128z m0-64h768a64.832 64.832 0 0 1 64 64v512c-0.64 36.032-13.184 66.176-37.504 90.496-24.32 24.32-54.528 36.8-90.496 37.504H192c-36.032-0.64-66.176-13.184-90.496-37.504-24.32-24.32-36.8-54.528-37.504-90.496v-512a64.768 64.768 0 0 1 64-64z m776 64l-247.04 283.008a196.928 196.928 0 0 1-65.472 48c-24.96 11.328-51.52 16.96-79.488 16.96-27.968 0-54.464-5.632-79.488-16.96a196.928 196.928 0 0 1-65.536-48L120 224h784z m-699.008 0L416 465.024c12.032 13.952 26.368 24.64 43.008 32 16.64 7.296 34.304 10.944 52.992 10.944 18.688 0 36.352-3.648 52.992-10.944 16.64-7.36 30.976-18.048 43.008-32L819.008 224H204.992z"/>
</svg>