<?xml version="1.0" standalone="no"?><!DOCTYPE svg PUBLIC "-//W3C//DTD SVG 1.1//EN"
        "http://www.w3.org/Graphics/SVG/1.1/DTD/svg11.dtd">
<svg class="icon" width="200px" height="200.00px" viewBox="0 0 1024 1024" version="1.1"
     xmlns="http://www.w3.org/2000/svg">
    <path fill="#ffffff"
          d="M813.184 180.736a60.224 60.224 0 0 1 60.16 60.16v481.92a60.224 60.224 0 0 1-60.16 60.224H210.816a60.224 60.224 0 0 1-60.224-60.16v-481.92a60.224 60.224 0 0 1 60.224-60.224h602.368z m0-60.288H210.816a120.448 120.448 0 0 0-120.448 120.512v481.92a120.448 120.448 0 0 0 120.448 120.448h602.368a120.512 120.512 0 0 0 120.448-120.512v-481.92a120.448 120.448 0 0 0-120.448-120.448z m-120.512 180.736a30.08 30.08 0 0 0-30.08 30.08v301.184a30.08 30.08 0 1 0 60.224 0V331.264a30.08 30.08 0 0 0-30.08-30.08z m-361.408 0a30.08 30.08 0 0 0-30.08 30.08v301.184a30.08 30.08 0 1 0 60.16 0V331.264a30.08 30.08 0 0 0-30.08-30.08zM512 361.408a30.08 30.08 0 0 0-30.08 30.08v30.144a30.08 30.08 0 0 0 60.16 0v-30.08a30.08 30.08 0 0 0-30.08-30.08zM512 512a30.08 30.08 0 0 0-30.08 30.08v30.144a30.08 30.08 0 1 0 60.16 0v-30.08A30.08 30.08 0 0 0 512 512z"/>
</svg>