<?xml version="1.0" standalone="no"?><!DOCTYPE svg PUBLIC "-//W3C//DTD SVG 1.1//EN"
        "http://www.w3.org/Graphics/SVG/1.1/DTD/svg11.dtd">
<svg class="icon" width="200px" height="200.00px" viewBox="0 0 1024 1024" version="1.1"
     xmlns="http://www.w3.org/2000/svg">
    <path fill="#ffffff"
          d="M529.024 148.992a30.592 30.592 0 0 1 20.992-8 28.8 28.8 0 0 1 20.992 8.96 28.8 28.8 0 0 1 0 41.984L259.008 512l312 320c5.952 6.016 8.96 13.184 8.96 21.504 0 8.32-3.008 15.36-8.96 21.056a29.76 29.76 0 0 1-20.992 8.512 30.4 30.4 0 0 1-20.992-8.064L198.016 534.08a32.832 32.832 0 0 1-8.96-22.528 29.44 29.44 0 0 1 8.96-21.504l331.008-340.992z m256 0a30.592 30.592 0 0 1 20.992-8 28.8 28.8 0 0 1 20.992 8.96 28.8 28.8 0 0 1 8.96 21.056 28.8 28.8 0 0 1-8.96 20.928L515.008 512l312 320c5.952 6.016 8.96 13.184 8.96 21.504 0 8.32-3.008 15.36-8.96 21.056a29.76 29.76 0 0 1-20.992 8.512 30.4 30.4 0 0 1-20.992-8.064L454.016 534.08a32.832 32.832 0 0 1-8.96-22.528 29.44 29.44 0 0 1 8.96-21.504l331.008-340.992z"/>
</svg>