<?xml version="1.0" standalone="no"?><!DOCTYPE svg PUBLIC "-//W3C//DTD SVG 1.1//EN"
        "http://www.w3.org/Graphics/SVG/1.1/DTD/svg11.dtd">
<svg class="icon" width="200px" height="200.00px" viewBox="0 0 1024 1024" version="1.1"
     xmlns="http://www.w3.org/2000/svg">
    <path fill="#ffffff"
          d="M273.088 477.888h477.824V409.6H273.088v68.288z m0 68.224v51.2A187.712 187.712 0 0 0 460.8 785.088h102.4a187.776 187.776 0 0 0 187.712-187.776v-51.2H273.088z m-34.176-204.8h546.176a34.112 34.112 0 0 1 34.112 34.176v221.824a256 256 0 0 1-256 256H460.8a256 256 0 0 1-256-256V375.488a34.112 34.112 0 0 1 34.112-34.176zM512 34.112a34.112 34.112 0 0 1 34.112 34.176v170.624a34.112 34.112 0 1 1-68.224 0V68.288A34.112 34.112 0 0 1 512 34.112zM375.488 102.4a34.112 34.112 0 0 1 34.112 34.112v102.4a34.112 34.112 0 0 1-68.288 0v-102.4a34.112 34.112 0 0 1 34.176-34.112z m273.024 0a34.112 34.112 0 0 1 34.176 34.112v102.4a34.112 34.112 0 0 1-68.288 0v-102.4a34.112 34.112 0 0 1 34.112-34.112zM170.688 921.664h682.624a34.112 34.112 0 1 1 0 68.288H170.688a34.112 34.112 0 0 1 0-68.288z"/>
</svg>