<?xml version="1.0" standalone="no"?><!DOCTYPE svg PUBLIC "-//W3C//DTD SVG 1.1//EN"
        "http://www.w3.org/Graphics/SVG/1.1/DTD/svg11.dtd">
<svg class="icon" width="200px" height="200.00px" viewBox="0 0 1024 1024" version="1.1"
     xmlns="http://www.w3.org/2000/svg">
    <path fill="#ffffff"
          d="M800 416c-1.984-81.344-30.208-149.12-84.48-203.52C661.12 158.272 593.28 130.048 512 128c-81.344 1.984-149.12 30.144-203.52 84.48-54.272 54.4-82.432 122.24-84.48 203.52 0 59.328 23.808 127.168 71.488 203.52 47.68 76.288 119.808 160.832 216.512 253.44 96.64-92.608 168.832-177.152 216.512-253.44 47.68-76.352 71.488-144.192 71.488-203.52zM512 960c-234.688-213.312-352-394.688-352-544 2.688-100.032 36.992-183.04 103.04-248.96C328.96 101.056 412.032 66.688 512 64c100.032 2.688 183.04 36.992 248.96 103.04 65.984 65.92 100.352 148.992 103.04 248.96 0 149.312-117.312 330.688-352 544z m0-448c27.328-0.64 49.984-9.984 68.032-28.032 17.92-17.92 26.944-40.64 26.944-67.968 0-27.328-8.96-49.984-26.944-68.032-18.048-17.92-40.704-26.944-68.032-26.944-27.328 0-49.984 8.96-68.032 26.944-17.92 18.048-26.944 40.704-26.944 68.032 0 27.328 8.96 49.984 26.944 68.032 18.048 17.92 40.704 27.328 68.032 27.968z m0 64c-45.312-1.344-83.008-17.024-113.024-47.04-29.952-29.952-45.632-67.648-46.976-112.96 1.344-45.312 17.024-83.008 46.976-113.024C429.056 273.024 466.688 257.344 512 256c45.312 1.344 83.008 17.024 112.96 46.976 30.08 30.08 45.696 67.712 47.04 113.024-1.344 45.312-17.024 83.008-47.04 112.96C595.008 559.104 557.312 574.72 512 576z"/>
</svg>