<?xml version="1.0" standalone="no"?><!DOCTYPE svg PUBLIC "-//W3C//DTD SVG 1.1//EN"
        "http://www.w3.org/Graphics/SVG/1.1/DTD/svg11.dtd">
<svg class="icon" width="200px" height="200.00px" viewBox="0 0 1024 1024" version="1.1"
     xmlns="http://www.w3.org/2000/svg">
    <path fill="#ffffff"
          d="M192 128v768h640V128H192z m-32-64h704a32 32 0 0 1 32 32v832a32 32 0 0 1-32 32h-704a32 32 0 0 1-32-32v-832a32 32 0 0 1 32-32z"/>
    <path fill="#ffffff"
          d="M672 128h64v768h-64V128z m-576 64h128c21.312 0 32 10.688 32 32 0 21.312-10.688 32-32 32h-128c-21.312 0-32-10.688-32-32 0-21.312 10.688-32 32-32z m0 192h128c21.312 0 32 10.688 32 32 0 21.312-10.688 32-32 32h-128c-21.312 0-32-10.688-32-32 0-21.312 10.688-32 32-32z m0 192h128c21.312 0 32 10.688 32 32 0 21.312-10.688 32-32 32h-128c-21.312 0-32-10.688-32-32 0-21.312 10.688-32 32-32z m0 192h128c21.312 0 32 10.688 32 32 0 21.312-10.688 32-32 32h-128c-21.312 0-32-10.688-32-32 0-21.312 10.688-32 32-32z"/>
</svg>