<?xml version="1.0" standalone="no"?><!DOCTYPE svg PUBLIC "-//W3C//DTD SVG 1.1//EN"
        "http://www.w3.org/Graphics/SVG/1.1/DTD/svg11.dtd">
<svg class="icon" width="200px" height="200.00px" viewBox="0 0 1024 1024" version="1.1"
     xmlns="http://www.w3.org/2000/svg">
    <path fill="#ffffff"
          d="M882.688 616.96c9.344 0 17.024 3.008 23.04 9.024 5.952 6.016 8.96 13.632 8.96 23.04a31.168 31.168 0 0 1-8.96 22.976 31.168 31.168 0 0 1-23.04 8.96H95.68a28.8 28.8 0 0 1-17.536-5.44 35.456 35.456 0 0 1-11.456-14.528 29.568 29.568 0 0 1-2.048-18.496 32.256 32.256 0 0 1 9.024-16.512l296.96-296.96A30.528 30.528 0 0 1 393.152 320c8.96 0 16.512 3.008 22.464 8.96a31.104 31.104 0 0 1 10.048 22.528c0 8.32-3.328 15.808-10.048 22.464L172.608 616.96h710.08z"/>
</svg>