<?xml version="1.0" standalone="no"?><!DOCTYPE svg PUBLIC "-//W3C//DTD SVG 1.1//EN"
        "http://www.w3.org/Graphics/SVG/1.1/DTD/svg11.dtd">
<svg class="icon" width="200px" height="200.00px" viewBox="0 0 1024 1024" version="1.1"
     xmlns="http://www.w3.org/2000/svg">
    <path fill="#ffffff" d="M480 512h64v320h-64V512z"/>
    <path fill="#ffffff"
          d="M192 896h640a64 64 0 0 0-64-64H256a64 64 0 0 0-64 64z m64-128h512a128 128 0 0 1 128 128v64H128v-64a128 128 0 0 1 128-128z m256-256a192 192 0 1 0 0-384 192 192 0 0 0 0 384z m0 64a256 256 0 1 1 0-512 256 256 0 0 1 0 512z"/>
</svg>