<?xml version="1.0" standalone="no"?><!DOCTYPE svg PUBLIC "-//W3C//DTD SVG 1.1//EN"
        "http://www.w3.org/Graphics/SVG/1.1/DTD/svg11.dtd">
<svg class="icon" width="200px" height="200.00px" viewBox="0 0 1024 1024" version="1.1"
     xmlns="http://www.w3.org/2000/svg">
    <path fill="#ffffff"
          d="M224 160a64 64 0 0 0-64 64v576a64 64 0 0 0 64 64h576a64 64 0 0 0 64-64v-576a64 64 0 0 0-64-64h-576z m0-64h576a128 128 0 0 1 128 128v576a128 128 0 0 1-128 128h-576a128 128 0 0 1-128-128v-576a128 128 0 0 1 128-128z"/>
    <path fill="#ffffff"
          d="M384 416a64 64 0 1 0 0-128 64 64 0 0 0 0 128z m0 64a128 128 0 1 1 0-256 128 128 0 0 1 0 256z"/>
    <path fill="#ffffff"
          d="M480 320h256c21.312 0 32 10.688 32 32 0 21.312-10.688 32-32 32h-256c-21.312 0-32-10.688-32-32 0-21.312 10.688-32 32-32z m160 416a64 64 0 1 0 0-128 64 64 0 0 0 0 128z m0 64a128 128 0 1 1 0-256 128 128 0 0 1 0 256z"/>
    <path fill="#ffffff"
          d="M288 640h256c21.312 0 32 10.688 32 32 0 21.312-10.688 32-32 32h-256c-21.312 0-32-10.688-32-32 0-21.312 10.688-32 32-32z"/>
</svg>