<?xml version="1.0" standalone="no"?><!DOCTYPE svg PUBLIC "-//W3C//DTD SVG 1.1//EN"
        "http://www.w3.org/Graphics/SVG/1.1/DTD/svg11.dtd">
<svg class="icon" width="200px" height="200.00px" viewBox="0 0 1024 1024" version="1.1"
     xmlns="http://www.w3.org/2000/svg">
    <path fill="#ffffff"
          d="M160 224v576h704v-576h-704z m-32-64h768c9.344 0 17.024 3.008 23.04 8.96 5.952 6.016 8.96 13.696 8.96 23.04v640a31.168 31.168 0 0 1-8.96 23.04 31.168 31.168 0 0 1-23.04 8.96H128a31.168 31.168 0 0 1-23.04-8.96 31.168 31.168 0 0 1-8.96-23.04V192c0-9.344 3.008-17.024 8.96-23.04A31.168 31.168 0 0 1 128 160z m256 128c42.688 0 64 21.312 64 64s-21.312 64-64 64-64-21.312-64-64 21.312-64 64-64z m-199.04 524.992l-49.984-39.04 216-217.984c16-20.672 37.12-32.64 63.488-36.032 26.304-3.328 49.856 2.688 70.464 18.048l125.056 100.992a32.256 32.256 0 0 0 23.488 6.464 33.792 33.792 0 0 0 21.44-11.456l216-270.016 50.048 40-216 270.016c-16.64 20.672-38.144 32.32-64.512 35.008a95.36 95.36 0 0 1-70.464-20.032L445.952 589.056a32.256 32.256 0 0 0-23.488-6.464 28.992 28.992 0 0 0-20.48 12.48l-216.96 217.984z"/>
</svg>