<?xml version="1.0" standalone="no"?><!DOCTYPE svg PUBLIC "-//W3C//DTD SVG 1.1//EN"
        "http://www.w3.org/Graphics/SVG/1.1/DTD/svg11.dtd">
<svg class="icon" width="200px" height="200.00px" viewBox="0 0 1024 1024" version="1.1"
     xmlns="http://www.w3.org/2000/svg">
    <path fill="#ffffff"
          d="M768 768H256V256h512v512z m64 0V224a32 32 0 0 0-32-32H256V96a32 32 0 1 0-64 0V192H96a32 32 0 1 0 0 64H192v544a32 32 0 0 0 32 32H768v96a32 32 0 0 0 64 0V832h96a32 32 0 0 0 0-64H832z"/>
</svg>