<?xml version="1.0" standalone="no"?><!DOCTYPE svg PUBLIC "-//W3C//DTD SVG 1.1//EN"
        "http://www.w3.org/Graphics/SVG/1.1/DTD/svg11.dtd">
<svg class="icon" width="200px" height="200.00px" viewBox="0 0 1024 1024" version="1.1"
     xmlns="http://www.w3.org/2000/svg">
    <path d="M0 51.2a51.2 51.2 0 0 1 51.2-51.2h350.2336a51.2 51.2 0 0 1 47.0784 31.0272L473.6 89.6H972.8a51.2 51.2 0 0 1 51.2 51.2v537.6a51.2 51.2 0 0 1-51.2 51.2H51.2a51.2 51.2 0 0 1-51.2-51.2V51.2z"
          fill="#FFA000"/>
    <path d="M140.8 172.8h742.4c34.1248 0 51.2 17.0752 51.2 51.2v460.8c0 34.1248-17.0752 51.2-51.2 51.2h-742.4c-34.1248 0-51.2-17.0752-51.2-51.2v-460.8c0-34.1248 17.0752-51.2 51.2-51.2z"
          fill="#FFFFFF"/>
    <path d="M51.2 307.2h921.6c34.1248 0 51.2 19.9168 51.2 59.7248v597.3504C1024 1004.0832 1006.9248 1024 972.8 1024H51.2c-34.1248 0-51.2-19.9168-51.2-59.7248V366.9248C0 327.1168 17.0752 307.2 51.2 307.2z"
          fill="#FFBF37"/>
</svg>