<?xml version="1.0" standalone="no"?><!DOCTYPE svg PUBLIC "-//W3C//DTD SVG 1.1//EN"
        "http://www.w3.org/Graphics/SVG/1.1/DTD/svg11.dtd">
<svg class="icon" width="200px" height="200.00px" viewBox="0 0 1024 1024" version="1.1"
     xmlns="http://www.w3.org/2000/svg">
    <path fill="#bfbfbf"
          d="M456 474.688H82.688A18.688 18.688 0 0 1 64 456V82.688C64 72.32 72.32 64 82.688 64h373.312c10.304 0 18.688 8.32 18.688 18.688v373.312c0 10.304-8.32 18.688-18.688 18.688z m18.688 466.624V568a18.688 18.688 0 0 0-18.688-18.688H82.688A18.688 18.688 0 0 0 64 568v373.312c0 10.24 8.32 18.688 18.688 18.688h373.312c10.304 0 18.688-8.32 18.688-18.688z m410.624-802.624H624V400h261.312V138.688zM941.312 64c10.304 0 18.688 8.32 18.688 18.688v373.312c0 10.304-8.32 18.688-18.688 18.688H568a18.688 18.688 0 0 1-18.688-18.688V82.688c0-10.304 8.32-18.688 18.688-18.688h373.312zM960 941.312V568a18.688 18.688 0 0 0-18.688-18.688H568a18.688 18.688 0 0 0-18.688 18.688v373.312c0 10.24 8.448 18.688 18.688 18.688h373.312c10.304 0 18.688-8.32 18.688-18.688z"
          opacity=".6"/>
</svg>