<?xml version="1.0" standalone="no"?><!DOCTYPE svg PUBLIC "-//W3C//DTD SVG 1.1//EN"
        "http://www.w3.org/Graphics/SVG/1.1/DTD/svg11.dtd">
<svg class="icon" width="200px" height="200.00px" viewBox="0 0 1024 1024" version="1.1"
     xmlns="http://www.w3.org/2000/svg">
    <path d="M51.2 0h921.6a51.2 51.2 0 0 1 51.2 51.2v921.6a51.2 51.2 0 0 1-51.2 51.2H51.2a51.2 51.2 0 0 1-51.2-51.2V51.2a51.2 51.2 0 0 1 51.2-51.2z"
          fill="#A8BDE3"/>
    <path d="M404.9152 592.128c0-34.048-19.712-50.176-35.1232-57.344 12.9024-6.0928 31.5392-24.3712 31.5392-52.6848 0-43.7248-29.0304-71.68-78.848-71.68H219.9808V665.6h106.8032c45.5168 0 78.1312-25.8048 78.1312-73.472z m-49.8176-2.5088c0 17.2032-10.752 31.5392-33.3312 31.5392h-51.968v-62.72h51.968c22.5792 0 33.3312 13.9776 33.3312 31.1808z m-3.584-105.3696c0 17.5616-11.8272 29.3888-32.9728 29.3888h-48.7424v-58.7776h48.7424c21.1456 0 32.9728 11.8272 32.9728 29.3888zM652.928 665.6l-93.184-255.1808h-39.0656L427.8528 665.6h51.968l15.4112-45.1584h90.6752L600.96 665.6h51.968z m-80.2816-87.0912h-63.4368l32.256-92.8256 31.1808 92.8256zM848.6144 454.8608v-44.4416h-183.1424v44.4416h66.6624V665.6h49.8176v-210.7392z"
          fill="#FFFFFF"/>
</svg>