<?xml version="1.0" standalone="no"?><!DOCTYPE svg PUBLIC "-//W3C//DTD SVG 1.1//EN"
        "http://www.w3.org/Graphics/SVG/1.1/DTD/svg11.dtd">
<svg class="icon" width="200px" height="200.00px" viewBox="0 0 1024 1024" version="1.1"
     xmlns="http://www.w3.org/2000/svg">
    <path d="M656.687407 303.312593a64 64 0 0 1 64 64v353.374814h-16.687407V335.303111h-400.687407v-32.009481H656.687407z m65.687704-191.317334c104.732444 0 189.62963 84.897185 189.62963 189.62963v343.22963a75.851852 75.851852 0 0 1-75.851852 75.851851H784.687407V367.312593a128 128 0 0 0-128-128H303.29363V187.828148a75.851852 75.851852 0 0 1 75.851851-75.851852h343.22963z"
          fill="#0CCA8A" fill-opacity=".5"/>
    <path d="M644.835556 303.312593a75.851852 75.851852 0 0 1 75.851851 75.851851v456.988445a75.851852 75.851852 0 0 1-75.851851 75.851852H187.847111a75.851852 75.851852 0 0 1-75.851852-75.851852v-457.007408a75.851852 75.851852 0 0 1 75.851852-75.851851h457.007408z m-40.277334 167.518814a31.990519 31.990519 0 0 0-45.188741 2.370371l-186.842074 207.454815-99.479703-93.487408-2.085926-1.801481a32.009481 32.009481 0 0 0-41.737482 48.45037l111.388445 104.675556 2.275555 2.010074a47.995259 47.995259 0 0 0 65.573926-4.114963l198.466371-220.34963 1.744592-2.142815a32.009481 32.009481 0 0 0-4.114963-43.064889z"
          fill="#0CCA8A"/>
</svg>