<?xml version="1.0" standalone="no"?><!DOCTYPE svg PUBLIC "-//W3C//DTD SVG 1.1//EN"
        "http://www.w3.org/Graphics/SVG/1.1/DTD/svg11.dtd">
<svg class="icon" width="200px" height="200.00px" viewBox="0 0 1024 1024" version="1.1"
     xmlns="http://www.w3.org/2000/svg">
    <path d="M51.2 0h921.6a51.2 51.2 0 0 1 51.2 51.2v921.6a51.2 51.2 0 0 1-51.2 51.2H51.2a51.2 51.2 0 0 1-51.2-51.2V51.2a51.2 51.2 0 0 1 51.2-51.2z"
          fill="#E64264"/>
    <path d="M542.6176 256c0 117.6832 100.3008 243.9168 225.3824 286.0288l-21.4016 91.648c-146.7392-21.1968-298.4192 42.0608-435.4048 134.3232L256 691.7632c50.8416-41.0624 99.584-110.7712 135.68-192.1792 36.0192-81.1008 57.344-169.0112 57.344-243.584h93.5936z m-49.792 153.6A1294.3872 1294.3872 0 0 1 409.6 614.4c66.3552-26.9312 134.8608-48.0256 204.8-60.9024A701.696 701.696 0 0 1 492.8256 409.6z"
          fill="#FFFFFF"/>
</svg>