<?xml version="1.0" standalone="no"?><!DOCTYPE svg PUBLIC "-//W3C//DTD SVG 1.1//EN"
        "http://www.w3.org/Graphics/SVG/1.1/DTD/svg11.dtd">
<svg class="icon" width="200px" height="200.00px" viewBox="0 0 1024 1024" version="1.1"
     xmlns="http://www.w3.org/2000/svg">
    <path d="M51.2 0h921.6a51.2 51.2 0 0 1 51.2 51.2v921.6a51.2 51.2 0 0 1-51.2 51.2H51.2a51.2 51.2 0 0 1-51.2-51.2V51.2a51.2 51.2 0 0 1 51.2-51.2z"
          fill="#4876FF"/>
    <path d="M382.976 665.6v-44.4416h-118.272v-62.0032h100.7104v-44.4416H264.704v-59.8528h118.272v-44.4416H214.8864V665.6zM614.8608 489.984c0-43.3664-31.5392-79.5648-84.224-79.5648h-98.9184V665.6h49.8176v-96.0512h49.1008c52.6848 0 84.224-36.1984 84.224-79.5648z m-49.8176 0c0 20.7872-14.336 34.7648-36.9152 34.7648h-46.592v-69.888h46.592c22.5792 0 36.9152 14.336 36.9152 35.1232zM821.6576 590.336c0-22.5792-6.0928-41.216-19.712-54.1184-10.752-10.0352-25.4464-16.4864-48.7424-19.712l-30.1056-4.3008c-10.3936-1.4336-18.6368-5.376-23.6544-10.0352a24.6272 24.6272 0 0 1-7.5264-18.2784c0-17.5616 12.9024-32.256 39.424-32.256 16.8448 0 36.1984 2.1504 52.3264 17.5616l31.5392-31.1808c-21.8624-21.1456-47.3088-29.7472-82.432-29.7472-55.1936 0-88.8832 31.8976-88.8832 77.4144 0 21.504 6.0928 37.9904 18.2784 50.176 11.4688 11.1104 27.5968 17.92 49.4592 21.1456l30.8224 4.3008c11.8272 1.792 17.5616 4.3008 22.5792 8.96 5.376 5.0176 7.8848 12.544 7.8848 21.504 0 20.4288-15.7696 31.5392-45.1584 31.5392-23.6544 0-45.5168-5.376-61.6448-21.504l-32.256 32.256c25.088 25.4464 54.4768 33.6896 93.184 33.6896 53.4016 0 94.6176-27.9552 94.6176-77.4144z"
          fill="#FFFFFF"/>
</svg>