<?xml version="1.0" standalone="no"?><!DOCTYPE svg PUBLIC "-//W3C//DTD SVG 1.1//EN"
        "http://www.w3.org/Graphics/SVG/1.1/DTD/svg11.dtd">
<svg class="icon" width="200px" height="200.00px" viewBox="0 0 1024 1024" version="1.1"
     xmlns="http://www.w3.org/2000/svg">
    <path fill="#bfbfbf"
          d="M836.152889 175.995259a75.851852 75.851852 0 0 1 75.851852 75.851852v424.296296a75.851852 75.851852 0 0 1-75.851852 75.851852H612.788148l-69.726815 99.612445a37.925926 37.925926 0 0 1-6.674963 7.30074l-2.654814 2.029037a37.925926 37.925926 0 0 1-50.915556-6.845629l-1.896296-2.465185-69.726815-99.631408H187.847111a75.851852 75.851852 0 0 1-75.851852-75.851852V251.847111a75.851852 75.851852 0 0 1 75.851852-75.851852h648.305778zM512 415.990519A47.995259 47.995259 0 1 0 512 512a47.995259 47.995259 0 0 0 0-96.009481z m-192 0a47.995259 47.995259 0 1 0 0 96.009481 47.995259 47.995259 0 0 0 0-96.009481z m384 0a47.995259 47.995259 0 1 0 0 96.009481 47.995259 47.995259 0 0 0 0-96.009481z"/>
</svg>