<?xml version="1.0" standalone="no"?><!DOCTYPE svg PUBLIC "-//W3C//DTD SVG 1.1//EN"
        "http://www.w3.org/Graphics/SVG/1.1/DTD/svg11.dtd">
<svg class="icon" width="200px" height="200.00px" viewBox="0 0 1024 1024" version="1.1"
     xmlns="http://www.w3.org/2000/svg">
    <path d="M51.2 0h921.6a51.2 51.2 0 0 1 51.2 51.2v921.6a51.2 51.2 0 0 1-51.2 51.2H51.2a51.2 51.2 0 0 1-51.2-51.2V51.2a51.2 51.2 0 0 1 51.2-51.2z"
          fill="#A971EB"/>
    <path d="M703.744 269.696a24.576 24.576 0 0 0-22.9376-13.5936h-39.936a25.2928 25.2928 0 0 0-24.6272 13.1584l-59.0592 86.2464 51.84 70.912 90.4704-129.536c6.3744-7.68 8.064-18.2784 4.2496-27.1872M392.3712 267.9808a29.2864 29.2864 0 0 0-25.088-11.8784h-39.0656a24.064 24.064 0 0 0-22.528 12.7232 26.112 26.112 0 0 0 2.56 27.1872l144.4352 200.5248-166.0928 231.936a25.344 25.344 0 0 0-2.1248 26.752 24.832 24.832 0 0 0 22.528 12.7488h39.936c9.728 0 19.0976-5.12 23.7568-13.5936l186.0864-256.5888-164.4032-229.8112zM724.1216 735.2576l-100.6592-138.0608-44.1856 61.184 79.4368 106.1888 2.1248 0.8448c2.9696 1.28 6.8096 2.1248 10.1888 2.1248h33.9968a21.632 21.632 0 0 0 19.0976-9.7536c3.4048-7.2192 3.84-15.7184 0-22.528"
          fill="#FFFFFF"/>
</svg>