<?xml version="1.0" standalone="no"?><!DOCTYPE svg PUBLIC "-//W3C//DTD SVG 1.1//EN"
        "http://www.w3.org/Graphics/SVG/1.1/DTD/svg11.dtd">
<svg class="icon" width="200px" height="200.00px" viewBox="0 0 1024 1024" version="1.1"
     xmlns="http://www.w3.org/2000/svg">
    <path d="M624.014222 832a111.995259 111.995259 0 0 1-224.009481 0z" fill="#FFA500" fill-opacity=".5"/>
    <path d="M480.009481 80.004741m32.009482 0l-0.018963 0q32.009481 0 32.009481 32.009481l0 31.990519q0 32.009481-32.009481 32.009481l0.018963 0q-32.009481 0-32.009482-32.009481l0-31.990519q0-32.009481 32.009482-32.009481Z"
          fill="#FFA500" fill-opacity=".5"/>
    <path d="M520.00237 128c163.479704 0 296.011852 132.532148 296.011852 296.011852v264.00237h8.002371a40.011852 40.011852 0 0 1 0 79.985778H200.00237a40.011852 40.011852 0 0 1 0-79.985778h24.007111V423.992889c0-163.479704 132.532148-296.011852 296.011852-296.011852z m-67.318518 170.742519a24.007111 24.007111 0 0 0-33.943704 33.943703l51.313778 51.313778h-46.042074a24.007111 24.007111 0 1 0 0 48.014222l63.981037-0.018963v32.009482h-63.981037a24.007111 24.007111 0 1 0 0 47.995259h63.981037V592.004741a24.007111 24.007111 0 1 0 48.014222 0v-80.023704l64 0.018963a24.007111 24.007111 0 1 0 0-47.995259h-64.018963v-32.009482h64.018963a24.007111 24.007111 0 1 0 0-47.976296l-46.08-0.018963 51.332741-51.313778 1.744592-1.953185a24.007111 24.007111 0 0 0-35.688296-31.990518l-56.566518 56.566518-1.744593 1.953185-0.967111 1.365334a24.139852 24.139852 0 0 0-2.768593-3.318519z"
          fill="#FEA917"/>
</svg>