<?xml version="1.0" standalone="no"?><!DOCTYPE svg PUBLIC "-//W3C//DTD SVG 1.1//EN"
        "http://www.w3.org/Graphics/SVG/1.1/DTD/svg11.dtd">
<svg class="icon" width="200px" height="200.00px" viewBox="0 0 1024 1024" version="1.1"
     xmlns="http://www.w3.org/2000/svg">
    <path d="M51.2 0h921.6a51.2 51.2 0 0 1 51.2 51.2v921.6a51.2 51.2 0 0 1-51.2 51.2H51.2a51.2 51.2 0 0 1-51.2-51.2V51.2a51.2 51.2 0 0 1 51.2-51.2z"
          fill="#A8BDE3"/>
    <path d="M392.832 665.6l-93.184-255.1808h-39.0656L167.7568 665.6h51.968l15.4112-45.1584h90.6752L340.864 665.6h51.968z m-80.2816-87.0912H249.1136l32.256-92.8256 31.1808 92.8256zM607.5136 489.984c0-43.3664-31.5392-79.5648-84.224-79.5648h-98.9184V665.6h49.8176v-96.0512h49.1008c52.6848 0 84.224-36.1984 84.224-79.5648z m-49.8176 0c0 20.7872-14.336 34.7648-36.9152 34.7648h-46.592v-69.888h46.592c22.5792 0 36.9152 14.336 36.9152 35.1232zM855.8848 665.6l-90.6752-153.7536 84.5824-101.4272h-60.5696l-89.9584 111.104v-111.104h-49.8176V665.6h49.8176v-76.6976l32.9728-39.424L797.824 665.6z"
          fill="#FFFFFF"/>
</svg>