<?xml version="1.0" standalone="no"?><!DOCTYPE svg PUBLIC "-//W3C//DTD SVG 1.1//EN"
        "http://www.w3.org/Graphics/SVG/1.1/DTD/svg11.dtd">
<svg class="icon" width="200px" height="200.00px" viewBox="0 0 1024 1024" version="1.1"
     xmlns="http://www.w3.org/2000/svg">
    <path fill="#bfbfbf"
          d="M510.08 64a446.08 446.08 0 1 0 0 892.224A446.08 446.08 0 0 0 510.08 64zM366.08 667.328h-47.744V305.92h47.808v361.344H366.08z m373.376-109.76c-6.4 21.248-14.72 38.784-24.64 52.608-8.96 12.8-20.096 23.936-32.896 32.832-11.904 8-26.24 14.016-43.136 18.112a247.232 247.232 0 0 1-58.048 6.144H450.304V306.048H574.72c28.16 0 49.536 1.728 64.384 5.12 20.608 4.8 38.336 13.44 52.928 25.92 19.072 16.064 33.344 36.672 42.752 61.76 9.472 25.024 14.208 53.632 14.208 85.888 0 27.392-3.2 51.712-9.6 72.96v-0.128zM635.904 356.096c-12.8-4.928-33.472-7.424-61.888-7.424H498.112v276.032h77.12c23.808 0 42.496-2.176 56.064-6.656a80 80 0 0 0 32.448-18.752c11.328-11.328 20.16-26.56 26.496-45.696 6.272-19.2 9.472-42.368 9.472-69.632 0-37.76-6.208-66.816-18.56-87.104-12.416-20.288-27.52-33.92-45.248-40.768z"
          opacity=".6"/>
</svg>