<?xml version="1.0" standalone="no"?><!DOCTYPE svg PUBLIC "-//W3C//DTD SVG 1.1//EN"
        "http://www.w3.org/Graphics/SVG/1.1/DTD/svg11.dtd">
<svg class="icon" width="200px" height="200.00px" viewBox="0 0 1024 1024" version="1.1"
     xmlns="http://www.w3.org/2000/svg">
    <path d="M804.143407 192a75.851852 75.851852 0 0 1 75.851852 75.851852V692.148148a75.851852 75.851852 0 0 1-75.851852 75.851852H379.847111a75.851852 75.851852 0 0 1-75.851852-75.851852V267.851852a75.851852 75.851852 0 0 1 75.851852-75.851852h424.296296z m-84.138666 144.004741c-17.673481 0-32.009481 14.317037-32.009482 31.990518V592.023704a32.009481 32.009481 0 0 0 64 0V367.995259c0-17.673481-14.317037-31.990519-31.990518-31.990518z"
          fill="#FD6112"/>
    <path d="M128 128l3.602963 0.056889a96.009481 96.009481 0 0 1 92.406518 95.952592v561.588149a80.099556 80.099556 0 0 1 62.388149 62.388148h641.611851l2.370371 0.094815a32.009481 32.009481 0 0 1-2.370371 63.905185H272.004741a80.004741 80.004741 0 1 1-112.033185-111.995259l0.037925-575.981038-0.094814-2.389333a32.009481 32.009481 0 0 0-31.914667-29.620148H71.016296l-2.389333-0.094815a32.009481 32.009481 0 0 1 2.389333-63.905185H128z"
          fill="#FD6112" fill-opacity=".5"/>
</svg>