<?xml version="1.0" standalone="no"?><!DOCTYPE svg PUBLIC "-//W3C//DTD SVG 1.1//EN"
        "http://www.w3.org/Graphics/SVG/1.1/DTD/svg11.dtd">
<svg class="icon" width="200px" height="200.00px" viewBox="0 0 1024 1024" version="1.1"
     xmlns="http://www.w3.org/2000/svg">
    <path d="M624.014222 832a111.995259 111.995259 0 0 1-224.009481 0z" fill="#FD6112" fill-opacity=".5"/>
    <path d="M480.009481 80.004741m32.009482 0l-0.018963 0q32.009481 0 32.009481 32.009481l0 31.990519q0 32.009481-32.009481 32.009481l0.018963 0q-32.009481 0-32.009482-32.009481l0-31.990519q0-32.009481 32.009482-32.009481Z"
          fill="#FF5050" fill-opacity=".5"/>
    <path d="M520.00237 128c163.479704 0 296.011852 132.532148 296.011852 296.011852v264.00237h8.002371a40.011852 40.011852 0 0 1 0 79.985778H200.00237a40.011852 40.011852 0 0 1 0-79.985778h24.007111V423.992889c0-163.479704 132.532148-296.011852 296.011852-296.011852z m174.876445 200.229926a32.009481 32.009481 0 0 0-45.207704 2.37037l-170.135704 188.909037-89.618963-84.195555-2.085925-1.820445a32.009481 32.009481 0 0 0-41.718519 48.450371l101.527704 95.402666 2.275555 2.010074a47.995259 47.995259 0 0 0 65.573926-4.114963l181.741037-201.822814 1.763556-2.123852a32.009481 32.009481 0 0 0-4.114963-43.064889z"
          fill="#FD6112"/>
</svg>