<?xml version="1.0" standalone="no"?><!DOCTYPE svg PUBLIC "-//W3C//DTD SVG 1.1//EN"
        "http://www.w3.org/Graphics/SVG/1.1/DTD/svg11.dtd">
<svg class="icon" width="200px" height="200.00px" viewBox="0 0 1024 1024" version="1.1"
     xmlns="http://www.w3.org/2000/svg">
    <path d="M51.2 0h921.6a51.2 51.2 0 0 1 51.2 51.2v921.6a51.2 51.2 0 0 1-51.2 51.2H51.2a51.2 51.2 0 0 1-51.2-51.2V51.2a51.2 51.2 0 0 1 51.2-51.2z"
          fill="#E64264"/>
    <path d="M669.696 466.432c0-68.1472-49.5616-125.0304-132.352-125.0304h-155.4432V742.4h78.2848v-150.9376h77.1584c82.7904 0 132.352-56.8832 132.352-125.0304z m-78.2848 0c0 32.6656-22.528 54.6304-58.0096 54.6304h-73.216v-109.824h73.216c35.4816 0 58.0096 22.528 58.0096 55.1936z"
          fill="#FFFFFF"/>
</svg>