<?xml version="1.0" standalone="no"?><!DOCTYPE svg PUBLIC "-//W3C//DTD SVG 1.1//EN"
        "http://www.w3.org/Graphics/SVG/1.1/DTD/svg11.dtd">
<svg class="icon" width="200px" height="200.00px" viewBox="0 0 1024 1024" version="1.1"
     xmlns="http://www.w3.org/2000/svg">
    <path d="M51.2 0h921.6a51.2 51.2 0 0 1 51.2 51.2v921.6a51.2 51.2 0 0 1-51.2 51.2H51.2a51.2 51.2 0 0 1-51.2-51.2V51.2a51.2 51.2 0 0 1 51.2-51.2z"
          fill="#7B83D5"/>
    <path d="M409.6 307.2a76.8 76.8 0 1 1 149.248 25.6H716.8a25.6 25.6 0 0 1 25.6 25.6v80.0256a25.6 25.6 0 0 1-32 24.8064 76.8 76.8 0 1 0 0 148.7616 25.6 25.6 0 0 1 32 24.7808V716.8a25.6 25.6 0 0 1-25.6 25.6H307.2a25.6 25.6 0 0 1-25.6-25.6V358.4a25.6 25.6 0 0 1 25.6-25.6h106.752c-2.816-8.0128-4.352-16.64-4.352-25.6z"
          fill="#FFFFFF"/>
</svg>