<?xml version="1.0" standalone="no"?><!DOCTYPE svg PUBLIC "-//W3C//DTD SVG 1.1//EN"
        "http://www.w3.org/Graphics/SVG/1.1/DTD/svg11.dtd">
<svg class="icon" width="200px" height="200.00px" viewBox="0 0 1024 1024" version="1.1"
     xmlns="http://www.w3.org/2000/svg">
    <path d="M51.2 0h921.6a51.2 51.2 0 0 1 51.2 51.2v921.6a51.2 51.2 0 0 1-51.2 51.2H51.2a51.2 51.2 0 0 1-51.2-51.2V51.2a51.2 51.2 0 0 1 51.2-51.2z"
          fill="#340100"/>
    <path d="M586.4192 691.2l-119.808-328.0896h-50.2272L297.0368 691.2h66.816l19.8144-58.0608h116.5824L519.6032 691.2h66.816z m-103.2192-111.9744h-81.5616l41.472-119.3472 40.0896 119.3472zM691.0208 691.2V363.1104h-64.0512V691.2z"
          fill="#FF9A00"/>
</svg>