<?xml version="1.0" standalone="no"?><!DOCTYPE svg PUBLIC "-//W3C//DTD SVG 1.1//EN"
        "http://www.w3.org/Graphics/SVG/1.1/DTD/svg11.dtd">
<svg class="icon" width="200px" height="200.00px" viewBox="0 0 1024 1024" version="1.1"
     xmlns="http://www.w3.org/2000/svg">
    <path d="M51.2 0h921.6a51.2 51.2 0 0 1 51.2 51.2v921.6a51.2 51.2 0 0 1-51.2 51.2H51.2a51.2 51.2 0 0 1-51.2-51.2V51.2a51.2 51.2 0 0 1 51.2-51.2z"
          fill="#001F37"/>
    <path d="M370.9952 455.424c0-51.5072-37.4272-94.464-99.968-94.464H153.6v302.8992h59.136v-114.0224h58.2912c62.5408 0 99.968-42.9568 99.968-94.4384z m-59.136 0c0 24.6528-17.024 41.2416-43.8272 41.2416H212.736v-82.944h55.296c26.8032 0 43.8272 16.9984 43.8272 41.6768zM624.64 574.5152c0-26.8032-7.2192-48.896-23.3984-64.256-12.7488-11.8784-30.208-19.5584-57.856-23.3728l-35.7376-5.12c-12.3392-1.6896-22.1184-6.3744-28.0832-11.904a29.2352 29.2352 0 0 1-8.9344-21.6832c0-20.864 15.3344-38.2976 46.8224-38.2976 19.968 0 42.9568 2.56 62.1056 20.8384L616.96 393.728C591.0528 368.64 560.8448 358.4 519.168 358.4c-65.536 0-105.4976 37.888-105.4976 91.904 0 25.5232 7.2192 45.0816 21.6832 59.5456 13.6192 13.184 32.768 21.2736 58.7008 25.088l36.608 5.12c14.0288 2.1248 20.8384 5.12 26.8032 10.6496 6.3744 5.9392 9.344 14.8736 9.344 25.5232 0 24.2432-18.688 37.4272-53.6064 37.4272-28.0832 0-54.016-6.3744-73.1648-25.5232l-38.2976 38.2976c29.7984 30.208 64.6656 39.9872 110.6176 39.9872 63.3856 0 112.3072-33.1776 112.3072-91.904zM875.3152 511.1296c0-45.5168 3.4048-87.2192-30.6176-121.2416-19.9936-19.9936-48.512-28.928-80-28.928h-109.312v302.8992h109.312c31.488 0 60.0064-8.9344 80-28.928 34.048-34.048 30.6176-78.2848 30.6176-123.8016z m-59.136 0c0 45.952-1.6896 67.6608-12.7488 81.2544-10.24 12.3392-23.808 18.7392-44.2624 18.7392H714.496V413.696h44.672c20.4288 0 34.048 6.4 44.2624 18.7392 11.0592 13.5936 12.7488 32.768 12.7488 78.6944z"
          fill="#33ABFF"/>
</svg>