<?xml version="1.0" standalone="no"?><!DOCTYPE svg PUBLIC "-//W3C//DTD SVG 1.1//EN"
        "http://www.w3.org/Graphics/SVG/1.1/DTD/svg11.dtd">
<svg class="icon" width="200px" height="200.00px" viewBox="0 0 1024 1024" version="1.1"
     xmlns="http://www.w3.org/2000/svg">
    <path d="M51.2 0h921.6a51.2 51.2 0 0 1 51.2 51.2v921.6a51.2 51.2 0 0 1-51.2 51.2H51.2a51.2 51.2 0 0 1-51.2-51.2V51.2a51.2 51.2 0 0 1 51.2-51.2z"
          fill="#FFBF37"/>
    <path d="M350.8992 592.128c0-34.048-19.712-50.176-35.1232-57.344 12.9024-6.0928 31.5392-24.3712 31.5392-52.6848 0-43.7248-29.0304-71.68-78.848-71.68H165.9648V665.6h106.8032c45.5168 0 78.1312-25.8048 78.1312-73.472z m-49.8176-2.5088c0 17.2032-10.752 31.5392-33.3312 31.5392h-51.968v-62.72h51.968c22.5792 0 33.3312 13.9776 33.3312 31.1808z m-3.584-105.3696c0 17.5616-11.8272 29.3888-32.9728 29.3888H215.7824v-58.7776h48.7424c21.1456 0 32.9728 11.8272 32.9728 29.3888zM632.96 665.6v-255.1808h-49.1008l-66.304 137.984-66.6624-137.984h-49.1008V665.6h49.8176v-148.736l49.1008 96.768h33.6896l48.7424-96.768V665.6zM875.5968 489.984c0-43.3664-31.5392-79.5648-84.224-79.5648h-98.9184V665.6h49.8176v-96.0512h49.1008c52.6848 0 84.224-36.1984 84.224-79.5648z m-49.8176 0c0 20.7872-14.336 34.7648-36.9152 34.7648h-46.592v-69.888h46.592c22.5792 0 36.9152 14.336 36.9152 35.1232z"
          fill="#FFFFFF"/>
</svg>