<?xml version="1.0" standalone="no"?><!DOCTYPE svg PUBLIC "-//W3C//DTD SVG 1.1//EN"
        "http://www.w3.org/Graphics/SVG/1.1/DTD/svg11.dtd">
<svg class="icon" width="200px" height="200.00px" viewBox="0 0 1024 1024" version="1.1"
     xmlns="http://www.w3.org/2000/svg">
    <path d="M51.2 0h921.6a51.2 51.2 0 0 1 51.2 51.2v921.6a51.2 51.2 0 0 1-51.2 51.2H51.2a51.2 51.2 0 0 1-51.2-51.2V51.2a51.2 51.2 0 0 1 51.2-51.2z"
          fill="#7B83D5"/>
    <path d="M420.864 665.6v-255.1808h-49.1008l-66.304 137.984-66.6624-137.984H189.696V665.6h49.8176v-148.736l49.1008 96.768h33.6896l48.7424-96.768V665.6zM660.2752 538.0096c0-44.0832 0.3584-75.9808-25.4464-101.7856-17.92-17.92-39.7824-27.9552-68.8128-27.9552-29.0304 0-51.2512 10.0352-69.1712 27.9552-25.8048 25.8048-25.088 57.7024-25.088 101.7856s-0.7168 75.9808 25.088 101.7856c17.92 17.92 40.1408 27.9552 69.1712 27.9552s50.8928-10.0352 68.8128-27.9552c25.8048-25.8048 25.4464-57.7024 25.4464-101.7856z m-49.8176 0c0 49.1008-2.8672 60.928-12.544 71.68-7.168 8.2432-18.2784 13.6192-31.8976 13.6192s-25.088-5.376-32.256-13.6192c-9.6768-10.752-12.1856-22.5792-12.1856-71.68 0-49.1008 2.5088-60.928 12.1856-71.68 7.168-8.2432 18.6368-13.6192 32.256-13.6192s24.7296 5.376 31.8976 13.6192c9.6768 10.752 12.544 22.5792 12.544 71.68zM888.576 410.4192h-51.968l-51.2512 166.2976-51.2512-166.2976H682.496L766.72 665.6h37.2736z"
          fill="#FFFFFF"/>
</svg>