<?xml version="1.0" standalone="no"?><!DOCTYPE svg PUBLIC "-//W3C//DTD SVG 1.1//EN"
        "http://www.w3.org/Graphics/SVG/1.1/DTD/svg11.dtd">
<svg class="icon" width="200px" height="200.00px" viewBox="0 0 1024 1024" version="1.1"
     xmlns="http://www.w3.org/2000/svg">
    <path d="M852.138667 192a75.851852 75.851852 0 0 1 75.851852 75.851852v487.841185a75.96563 75.96563 0 0 1-75.851852 75.889778h-6.33363a136.040296 136.040296 0 0 0-267.662222 0.132741l-100.314074 0.037925a136.040296 136.040296 0 0 0-267.719111 0.18963H171.84237a75.794963 75.794963 0 0 1-75.851851-75.794963V523.662222a75.851852 75.851852 0 0 1 40.030814-66.88237l162.702223-87.134815a75.851852 75.851852 0 0 0 40.049777-66.863407V267.851852a75.851852 75.851852 0 0 1 75.851852-75.851852h437.513482z m-109.283556 168.220444a32.009481 32.009481 0 0 0-45.188741 2.370371l-170.154666 188.909037-89.618963-84.195556-2.085926-1.820444a32.009481 32.009481 0 0 0-41.718519 48.45037l101.527704 95.42163 2.275556 2.010074a47.995259 47.995259 0 0 0 65.573925-4.133926l181.76-201.822815 1.744593-2.123852a32.009481 32.009481 0 0 0-4.114963-43.064889z"
          fill="#0CCA8A"/>
    <path d="M343.988148 856.007111m-72.00237 0a72.00237 72.00237 0 1 0 144.004741 0 72.00237 72.00237 0 1 0-144.004741 0Z"
          fill="#0CCA8A" fill-opacity=".5"/>
    <path d="M711.983407 856.007111m-72.00237 0a72.00237 72.00237 0 1 0 144.004741 0 72.00237 72.00237 0 1 0-144.004741 0Z"
          fill="#0CCA8A" fill-opacity=".5"/>
</svg>