<?xml version="1.0" standalone="no"?><!DOCTYPE svg PUBLIC "-//W3C//DTD SVG 1.1//EN"
        "http://www.w3.org/Graphics/SVG/1.1/DTD/svg11.dtd">
<svg class="icon" width="200px" height="200.00px" viewBox="0 0 1024 1024" version="1.1"
     xmlns="http://www.w3.org/2000/svg">
    <path d="M51.2 0h921.6a51.2 51.2 0 0 1 51.2 51.2v921.6a51.2 51.2 0 0 1-51.2 51.2H51.2a51.2 51.2 0 0 1-51.2-51.2V51.2a51.2 51.2 0 0 1 51.2-51.2z"
          fill="#A971EB"/>
    <path d="M357.248 665.6l-56.9856-110.0288c24.7296-8.96 46.592-31.1808 46.592-67.0208 0-42.6496-30.8224-78.1312-82.7904-78.1312H164.0704V665.6h49.8176v-101.7856h35.84L299.5456 665.6h57.7024z m-60.2112-177.0496c0 19.712-14.336 33.6896-36.1984 33.6896H213.888v-67.3792h46.9504c21.8624 0 36.1984 13.9776 36.1984 33.6896zM595.584 665.6l-93.184-255.1808h-39.0656L370.5088 665.6h51.968l15.4112-45.1584h90.6752L543.616 665.6h51.968z m-80.2816-87.0912h-63.4368l32.256-92.8256 31.1808 92.8256zM913.1264 410.4192h-51.968l-39.7824 160.9216-46.592-160.9216h-37.2736l-46.592 160.9216-39.424-160.9216h-51.968L667.6224 665.6h41.5744l46.9504-154.8288L803.0976 665.6h41.5744z"
          fill="#FFFFFF"/>
</svg>