<?xml version="1.0" standalone="no"?><!DOCTYPE svg PUBLIC "-//W3C//DTD SVG 1.1//EN"
        "http://www.w3.org/Graphics/SVG/1.1/DTD/svg11.dtd">
<svg class="icon" width="200px" height="200.00px" viewBox="0 0 1024 1024" version="1.1"
     xmlns="http://www.w3.org/2000/svg">
    <path d="M51.2 0h921.6a51.2 51.2 0 0 1 51.2 51.2v921.6a51.2 51.2 0 0 1-51.2 51.2H51.2a51.2 51.2 0 0 1-51.2-51.2V51.2a51.2 51.2 0 0 1 51.2-51.2z"
          fill="#00AE83"/>
    <path d="M321.8432 640v-218.7264h-42.7008v89.3952H205.1072v-89.3952H162.4064V640h42.7008v-91.5456h74.0352V640zM498.176 459.3664v-38.0928h-156.9792v38.0928h57.1392V640h42.7008v-180.6336zM715.6736 640v-218.7264h-42.0864l-56.832 118.272-57.1392-118.272h-42.0864V640h42.7008v-127.488l42.0864 82.944h28.8768l41.7792-82.944V640zM893.2352 640v-38.0928h-99.2256v-180.6336h-42.7008V640z"
          fill="#FFFFFF"/>
</svg>