<?xml version="1.0" standalone="no"?><!DOCTYPE svg PUBLIC "-//W3C//DTD SVG 1.1//EN"
        "http://www.w3.org/Graphics/SVG/1.1/DTD/svg11.dtd">
<svg class="icon" width="200px" height="200.00px" viewBox="0 0 1024 1024" version="1.1"
     xmlns="http://www.w3.org/2000/svg">
    <path d="M814.592 716.174222v103.973926a75.851852 75.851852 0 0 1-75.851852 75.851852H269.255111a75.851852 75.851852 0 0 1-75.851852-75.851852v-103.973926h621.226667zM602.074074 144.004741v136.666074a75.851852 75.851852 0 0 0 72.078222 75.757037l3.792593 0.094815h136.647111v98.076444H193.384296V219.856593a75.851852 75.851852 0 0 1 75.851852-75.851852H602.074074z"
          fill="#FD6112"/>
    <path d="M128 503.656296m37.925926 0l676.143407 0q37.925926 0 37.925926 37.925926l0 87.627852q0 37.925926-37.925926 37.925926l-676.143407 0q-37.925926 0-37.925926-37.925926l0-87.627852q0-37.925926 37.925926-37.925926Z"
          fill="#FD6112" fill-opacity=".5"/>
    <path d="M602.074074 144.004741l212.536889 212.517926H677.925926a75.851852 75.851852 0 0 1-75.851852-75.851852V144.004741z"
          fill="#FF5050" fill-opacity=".5"/>
</svg>