<?xml version="1.0" standalone="no"?><!DOCTYPE svg PUBLIC "-//W3C//DTD SVG 1.1//EN"
        "http://www.w3.org/Graphics/SVG/1.1/DTD/svg11.dtd">
<svg class="icon" width="200px" height="200.00px" viewBox="0 0 1024 1024" version="1.1"
     xmlns="http://www.w3.org/2000/svg">
    <path fill="#bfbfbf"
          d="M800.192 127.744a48.064 48.064 0 0 0-48.128-48H271.936a48.32 48.32 0 0 0-48.128 48h-48.256a95.936 95.936 0 0 0-95.808 96.064v624.448a95.808 95.808 0 0 0 95.808 96h672.896a96 96 0 0 0 95.808-96V223.744a95.808 95.808 0 0 0-95.808-96h-48.256zM415.936 367.872V416h192.128a144.192 144.192 0 0 1 144.064 144.064 144.256 144.256 0 0 1-144.064 144.128H463.936a48 48 0 1 1 0-96.064H608A48 48 0 0 0 608 512h-192v48l-144.064-96 144.064-96.128z m288.448-240.128a48 48 0 0 1 0 96.064H319.616a47.808 47.808 0 0 1-47.744-48 48.128 48.128 0 0 1 47.744-48h384.768z"
          opacity=".6"/>
    <path fill="#bfbfbf" d="M79.744 128H192v816.32H79.744zM832 128h112.256v816.32H832z" opacity=".6"/>
</svg>