<?xml version="1.0" standalone="no"?><!DOCTYPE svg PUBLIC "-//W3C//DTD SVG 1.1//EN"
        "http://www.w3.org/Graphics/SVG/1.1/DTD/svg11.dtd">
<svg class="icon" width="200px" height="200.00px" viewBox="0 0 1024 1024" version="1.1"
     xmlns="http://www.w3.org/2000/svg">
    <path fill="#bfbfbf"
          d="M512 144.004741c201.064296 0 366.023111 128.758519 382.634667 292.731259 1.289481 7.793778 1.934222 16.877037 1.934222 27.268741 0 19.721481-2.351407 39.442963-7.054222 59.183407l-0.663704 2.578963a285.601185 285.601185 0 0 1-39.10163 90.605037c-54.821926 89.258667-157.88563 178.517333-309.153185 267.757037a18.962963 18.962963 0 0 1-28.596148-16.308148v-83.816296c-212.081778 0-384-143.265185-384-320S299.918222 144.004741 512 144.004741z m0 415.990518a32.009481 32.009481 0 1 0 0 64 32.009481 32.009481 0 0 0 0-64z m0-287.990518c-17.673481 0-32.009481 14.317037-32.009481 31.990518v176.014222a32.009481 32.009481 0 0 0 64 0V303.976296c0-17.673481-14.317037-31.990519-31.990519-31.990518z"/>
</svg>