<?xml version="1.0" standalone="no"?><!DOCTYPE svg PUBLIC "-//W3C//DTD SVG 1.1//EN"
        "http://www.w3.org/Graphics/SVG/1.1/DTD/svg11.dtd">
<svg class="icon" width="200px" height="200.00px" viewBox="0 0 1024 1024" version="1.1"
     xmlns="http://www.w3.org/2000/svg">
    <path d="M783.985778 543.990519v164.16237a75.851852 75.851852 0 0 1-75.851852 75.851852H315.866074a75.851852 75.851852 0 0 1-75.851852-75.851852v-164.16237h543.990519z m-75.851852-303.976297a75.851852 75.851852 0 0 1 75.851852 75.851852v164.124445H239.995259v-164.143408a75.851852 75.851852 0 0 1 75.851852-75.851852h392.305778z"
          fill="#0CCA8A"/>
    <path d="M804.143407 112.715852a107.140741 107.140741 0 0 1 107.064889 103.025778l0.075852 4.114963v116.148148a31.288889 31.288889 0 0 1-62.464 2.69274l-0.113778-2.69274v-116.148148a44.562963 44.562963 0 0 0-41.509926-44.468149l-3.034074-0.094814H687.976296a31.288889 31.288889 0 0 1-2.69274-62.464l2.69274-0.113778h116.148148zM804.143407 911.284148a107.140741 107.140741 0 0 0 107.064889-103.025778l0.075852-4.114963v-116.148148a31.288889 31.288889 0 0 0-62.464-2.69274l-0.113778 2.69274v116.148148a44.562963 44.562963 0 0 1-41.509926 44.468149l-3.034074 0.094814H687.976296a31.288889 31.288889 0 0 0-2.69274 62.464l2.69274 0.113778h116.148148zM219.856593 112.715852a107.140741 107.140741 0 0 0-107.064889 103.025778l-0.075852 4.114963v116.148148a31.288889 31.288889 0 0 0 62.464 2.69274l0.113778-2.69274v-116.148148a44.562963 44.562963 0 0 1 41.509926-44.468149l3.034074-0.094814h116.167111a31.288889 31.288889 0 0 0 2.69274-62.464l-2.69274-0.113778h-116.148148zM219.856593 911.284148a107.140741 107.140741 0 0 1-107.064889-103.025778l-0.075852-4.114963v-116.148148a31.288889 31.288889 0 0 1 62.464-2.69274l0.113778 2.69274v116.148148a44.562963 44.562963 0 0 0 41.509926 44.468149l3.034074 0.094814h116.167111a31.288889 31.288889 0 0 1 2.69274 62.464l-2.69274 0.113778h-116.148148z"
          fill="#0CCA8A" fill-opacity=".5"/>
</svg>