<?xml version="1.0" standalone="no"?><!DOCTYPE svg PUBLIC "-//W3C//DTD SVG 1.1//EN"
        "http://www.w3.org/Graphics/SVG/1.1/DTD/svg11.dtd">
<svg class="icon" width="200px" height="200.00px" viewBox="0 0 1024 1024" version="1.1"
     xmlns="http://www.w3.org/2000/svg">
    <path d="M128.02368 128h768v768H128.02368z" fill="#2E58FB" opacity=".6"/>
    <path d="M320.02368 320h384v384H320.02368z" fill="#FFFFFF" opacity=".6"/>
    <path d="M512.02368 0c18.368 0 34.048 13.056 37.376 31.104l0.64 6.848V151.68a37.952 37.952 0 0 1-75.328 6.848l-0.576-6.848V37.952c0-20.992 16.96-37.952 37.952-37.952z m113.792 0c18.304 0 34.048 13.056 37.312 31.104l0.64 6.848V151.68a37.952 37.952 0 0 1-75.264 6.848l-0.64-6.848V37.952c0-20.992 17.024-37.952 37.952-37.952zM398.29568 0c18.304 0 33.984 13.056 37.312 31.104l0.64 6.848V151.68a37.952 37.952 0 0 1-75.264 6.848l-0.64-6.848V37.952A37.952 37.952 0 0 1 398.29568 0zM512.02368 834.304c18.304 0 33.984 13.056 37.312 31.104l0.64 6.848v113.728a37.952 37.952 0 0 1-75.328 6.848l-0.576-6.848V872.32c0-20.992 16.96-37.952 37.952-37.952z m113.728 0c18.304 0 34.048 13.056 37.312 31.104l0.64 6.848v113.728a37.952 37.952 0 0 1-75.264 6.848l-0.64-6.848V872.32c0-20.992 17.024-37.952 37.952-37.952z m-227.52 0c18.304 0 33.984 13.056 37.312 31.104l0.64 6.848v113.728a37.952 37.952 0 0 1-75.264 6.848l-0.64-6.848V872.32a37.952 37.952 0 0 1 37.952-37.952zM1024.02368 512a37.952 37.952 0 0 1-31.104 37.376l-6.848 0.576H872.34368a37.952 37.952 0 0 1-6.848-75.264l6.848-0.64h113.728c20.992 0 37.952 17.024 37.952 37.952z m0 113.792a37.952 37.952 0 0 1-31.104 37.312l-6.848 0.64H872.34368a37.952 37.952 0 0 1-6.848-75.264l6.848-0.64h113.728c20.992 0 37.952 17.024 37.952 37.952z m0-227.52a37.952 37.952 0 0 1-31.104 37.312l-6.848 0.64H872.34368a37.952 37.952 0 0 1-6.848-75.264l6.848-0.64h113.728a37.952 37.952 0 0 1 37.952 37.952zM189.71968 511.936a37.952 37.952 0 0 1-31.104 37.376l-6.848 0.576H38.03968a37.952 37.952 0 0 1-6.848-75.264l6.848-0.64H151.70368c20.992 0 37.952 17.024 37.952 37.952z m0 113.792a37.952 37.952 0 0 1-31.104 37.312l-6.848 0.64H38.03968a37.952 37.952 0 0 1-6.848-75.264l6.848-0.64H151.70368c20.992 0 37.952 17.024 37.952 37.952z m0-227.52a37.952 37.952 0 0 1-31.104 37.312l-6.848 0.64H38.03968a37.952 37.952 0 0 1-6.848-75.264l6.848-0.64H151.70368a37.952 37.952 0 0 1 37.952 37.952z"
          fill="#2E58FB" opacity=".5"/>
</svg>