<?xml version="1.0" standalone="no"?><!DOCTYPE svg PUBLIC "-//W3C//DTD SVG 1.1//EN"
        "http://www.w3.org/Graphics/SVG/1.1/DTD/svg11.dtd">
<svg class="icon" width="200px" height="200.00px" viewBox="0 0 1024 1024" version="1.1"
     xmlns="http://www.w3.org/2000/svg">
    <path d="M51.2 0h921.6a51.2 51.2 0 0 1 51.2 51.2v921.6a51.2 51.2 0 0 1-51.2 51.2H51.2a51.2 51.2 0 0 1-51.2-51.2V51.2a51.2 51.2 0 0 1 51.2-51.2z"
          fill="#7B83D5"/>
    <path d="M819.2 512l-144.8192 144.8192-36.1984-36.1984L746.8032 512l-108.6208-108.6208 36.1984-36.1984L819.2 512z m-542.0032 0l108.6208 108.6208-36.1984 36.1984L204.8 512l144.8192-144.8192 36.1984 36.1984L277.1968 512z m178.176 230.4H400.896l167.7312-460.8h54.4768l-167.7312 460.8z"
          fill="#FFFFFF"/>
</svg>