<?xml version="1.0" standalone="no"?><!DOCTYPE svg PUBLIC "-//W3C//DTD SVG 1.1//EN"
        "http://www.w3.org/Graphics/SVG/1.1/DTD/svg11.dtd">
<svg class="icon" width="200px" height="200.00px" viewBox="0 0 1024 1024" version="1.1"
     xmlns="http://www.w3.org/2000/svg">
    <path d="M51.2 0h921.6a51.2 51.2 0 0 1 51.2 51.2v921.6a51.2 51.2 0 0 1-51.2 51.2H51.2a51.2 51.2 0 0 1-51.2-51.2V51.2a51.2 51.2 0 0 1 51.2-51.2z"
          fill="#4876FF"/>
    <path d="M417.7408 665.6v-255.1808H368.64l-66.304 137.984-66.6624-137.984H186.5728V665.6h49.8176v-148.736l49.1008 96.768h33.6896l48.7424-96.768V665.6zM660.3776 489.984c0-43.3664-31.5392-79.5648-84.224-79.5648h-98.9184V665.6h49.8176v-96.0512h49.1008c52.6848 0 84.224-36.1984 84.224-79.5648z m-49.8176 0c0 20.7872-14.336 34.7648-36.9152 34.7648h-46.592v-69.888h46.592c22.5792 0 36.9152 14.336 36.9152 35.1232zM849.9712 591.7696c0-30.8224-14.6944-48.384-32.9728-58.0608 16.8448-8.96 29.3888-24.7296 29.3888-52.3264 0-43.008-32.6144-73.1136-77.7728-73.1136-43.008 0-77.056 27.2384-78.1312 72.7552h46.592c1.0752-19.3536 13.9776-30.8224 31.5392-30.8224 16.8448 0 31.1808 11.1104 31.1808 32.6144 0 17.92-9.6768 31.8976-32.256 31.8976h-6.8096v40.4992h6.8096c22.9376 0 35.84 13.9776 35.84 35.1232 0 22.9376-14.336 35.4816-34.4064 35.4816-18.2784 0-34.048-10.3936-34.7648-33.3312h-46.592c0.7168 53.4016 39.7824 75.264 81.3568 75.264 43.7248 0 80.9984-25.088 80.9984-75.9808z"
          fill="#FFFFFF"/>
</svg>