<?xml version="1.0" standalone="no"?><!DOCTYPE svg PUBLIC "-//W3C//DTD SVG 1.1//EN"
        "http://www.w3.org/Graphics/SVG/1.1/DTD/svg11.dtd">
<svg class="icon" width="200px" height="200.00px" viewBox="0 0 1024 1024" version="1.1"
     xmlns="http://www.w3.org/2000/svg">
    <path d="M112.658963 273.73037c1.232593 1.289481 2.522074 2.522074 3.887407 3.735704l310.423704 275.911111a128 128 0 0 0 170.059852 0l310.423704-275.911111c1.365333-1.21363 2.654815-2.446222 3.868444-3.716741 0.455111 3.299556 0.682667 6.674963 0.682667 10.10726v444.378074a75.851852 75.851852 0 0 1-75.851852 75.851852H187.847111a75.851852 75.851852 0 0 1-75.851852-75.851852V283.856593c0-2.541037 0.132741-5.044148 0.37926-7.528297z"
          fill="#279CFF"/>
    <path d="M562.384593 476.918519L864.938667 208.023704H159.061333L461.615407 476.918519a75.851852 75.851852 0 0 0 100.769186 0z"
          fill="#279CFF" fill-opacity=".5"/>
</svg>