<?xml version="1.0" standalone="no"?><!DOCTYPE svg PUBLIC "-//W3C//DTD SVG 1.1//EN"
        "http://www.w3.org/Graphics/SVG/1.1/DTD/svg11.dtd">
<svg class="icon" width="200px" height="200.00px" viewBox="0 0 1024 1024" version="1.1"
     xmlns="http://www.w3.org/2000/svg">
    <path d="M51.2 0h921.6a51.2 51.2 0 0 1 51.2 51.2v921.6a51.2 51.2 0 0 1-51.2 51.2H51.2a51.2 51.2 0 0 1-51.2-51.2V51.2a51.2 51.2 0 0 1 51.2-51.2z"
          fill="#4876FF"/>
    <path d="M358.4 726.8608V307.2512a25.6 25.6 0 0 1 39.168-21.7088l335.6928 209.792a25.6 25.6 0 0 1 0 43.4176L397.568 748.5696a25.6 25.6 0 0 1-39.168-21.7088z"
          fill="#FFFFFF"/>
</svg>