<?xml version="1.0" standalone="no"?><!DOCTYPE svg PUBLIC "-//W3C//DTD SVG 1.1//EN"
        "http://www.w3.org/Graphics/SVG/1.1/DTD/svg11.dtd">
<svg class="icon" width="200px" height="200.00px" viewBox="0 0 1024 1024" version="1.1"
     xmlns="http://www.w3.org/2000/svg">
    <path d="M512 208.004741c167.898074 0 303.995259 136.097185 303.995259 303.995259S679.898074 815.995259 512 815.995259 208.004741 679.898074 208.004741 512 344.101926 208.004741 512 208.004741z m-59.316148 154.737778a24.007111 24.007111 0 0 0-33.943704 33.943703l51.313778 51.294815-46.061037 0.018963a24.007111 24.007111 0 1 0 0 47.995259h64v31.990519h-64a24.007111 24.007111 0 1 0 0 48.014222h64v80.004741a24.007111 24.007111 0 1 0 48.014222 0l-0.018963-80.023704 64.018963 0.018963a24.007111 24.007111 0 1 0 0-47.995259h-64.018963v-32.028445l64.018963 0.018963a24.007111 24.007111 0 1 0 0-47.995259h-46.08l51.332741-51.313778 1.744592-1.953185a24.007111 24.007111 0 0 0-35.688296-31.990518l-56.566518 56.566518-1.744593 1.953185-0.986074 1.365334a24.139852 24.139852 0 0 0-2.768593-3.318519z"
          fill="#FEA917"/>
    <path d="M960 512C960 264.571259 759.428741 64 512 64S64 264.571259 64 512a32.009481 32.009481 0 0 0 64 0C128 299.918222 299.918222 128 512 128S896 299.918222 896 512 724.081778 896 512 896c-63.279407 0-124.302222-15.303111-179.01037-44.183704a32.009481 32.009481 0 0 0-29.866667 56.604445A446.14163 446.14163 0 0 0 512 960c247.428741 0 448-200.571259 448-448zM111.160889 603.780741l58.083555-77.444741a18.962963 18.962963 0 0 0-15.17037-30.340741H37.925926a18.962963 18.962963 0 0 0-15.17037 30.340741l58.083555 77.444741a18.962963 18.962963 0 0 0 30.340741 0z"
          fill="#FFA500" fill-opacity=".5"/>
</svg>