<?xml version="1.0" standalone="no"?><!DOCTYPE svg PUBLIC "-//W3C//DTD SVG 1.1//EN"
        "http://www.w3.org/Graphics/SVG/1.1/DTD/svg11.dtd">
<svg class="icon" width="200px" height="200.00px" viewBox="0 0 1024 1024" version="1.1"
     xmlns="http://www.w3.org/2000/svg">
    <path d="M51.2 0h921.6a51.2 51.2 0 0 1 51.2 51.2v921.6a51.2 51.2 0 0 1-51.2 51.2H51.2a51.2 51.2 0 0 1-51.2-51.2V51.2a51.2 51.2 0 0 1 51.2-51.2z"
          fill="#00AE83"/>
    <path d="M370.7904 489.984c0-43.3664-31.5392-79.5648-84.224-79.5648H187.648V665.6h49.8176v-96.0512h49.1008c52.6848 0 84.224-36.1984 84.224-79.5648z m-49.8176 0c0 20.7872-14.336 34.7648-36.9152 34.7648h-46.592v-69.888h46.592c22.5792 0 36.9152 14.336 36.9152 35.1232zM608.0512 665.6v-255.1808h-49.8176v156.2624l-101.0688-156.2624h-44.4416V665.6h49.8176v-156.6208L563.6096 665.6zM849.2544 560.9472v-37.2736h-96.4096v41.5744h46.9504v9.6768c0 13.9776-3.9424 25.4464-11.4688 34.048-8.96 9.6768-20.7872 14.336-35.4816 14.336-13.6192 0-24.3712-4.3008-31.8976-13.2608-10.0352-11.8272-12.1856-21.8624-12.1856-72.0384 0-50.5344 2.8672-59.8528 12.1856-71.68 7.8848-8.96 18.6368-13.6192 31.8976-13.6192 24.7296 0 39.7824 12.544 45.8752 37.2736h50.176c-6.8096-44.4416-37.9904-81.7152-96.0512-81.7152-27.2384 0-50.176 9.3184-68.8128 27.9552-11.1104 11.1104-17.92 23.6544-20.7872 38.3488-2.8672 14.336-4.3008 35.4816-4.3008 63.4368 0 27.9552 1.4336 49.1008 4.3008 63.4368 2.8672 14.336 9.6768 27.2384 20.7872 38.3488 18.6368 18.6368 41.5744 27.9552 68.8128 27.9552 28.672 0 52.3264-8.96 72.0384-29.0304 17.5616-18.6368 24.3712-40.4992 24.3712-77.7728z"
          fill="#FFFFFF"/>
</svg>