<?xml version="1.0" standalone="no"?><!DOCTYPE svg PUBLIC "-//W3C//DTD SVG 1.1//EN"
        "http://www.w3.org/Graphics/SVG/1.1/DTD/svg11.dtd">
<svg class="icon" width="200px" height="200.00px" viewBox="0 0 1024 1024" version="1.1"
     xmlns="http://www.w3.org/2000/svg">
    <path d="M820.148148 175.995259a75.851852 75.851852 0 0 1 75.851852 75.851852v392.305778a75.851852 75.851852 0 0 1-75.851852 75.851852H203.851852a75.851852 75.851852 0 0 1-75.851852-75.851852V251.847111a75.851852 75.851852 0 0 1 75.851852-75.851852h616.296296zM452.683852 298.742519a24.007111 24.007111 0 0 0-33.943704 33.943703l51.313778 51.294815h-46.061037a24.007111 24.007111 0 1 0 0 48.014222h64v31.990519h-64a24.007111 24.007111 0 1 0 0 48.014222h64v79.985778a24.007111 24.007111 0 1 0 48.014222 0l-0.018963-80.004741h64.018963a24.007111 24.007111 0 1 0 0-47.976296h-64.018963v-32.028445l64.018963 0.018963a24.007111 24.007111 0 1 0 0-47.995259h-46.08l51.332741-51.313778 1.744592-1.953185a24.007111 24.007111 0 0 0-35.688296-31.990518l-56.566518 56.566518-1.744593 1.953185-0.986074 1.365334a24.139852 24.139852 0 0 0-2.768593-3.318519z"
          fill="#FD6112"/>
    <path d="M272.004741 784.004741m32.009481 0l415.990519 0q32.009481 0 32.009481 32.009481l0-0.018963q0 32.009481-32.009481 32.009482l-415.990519 0q-32.009481 0-32.009481-32.009482l0 0.018963q0-32.009481 32.009481-32.009481Z"
          fill="#FD6112" fill-opacity=".5"/>
</svg>