<?xml version="1.0" standalone="no"?><!DOCTYPE svg PUBLIC "-//W3C//DTD SVG 1.1//EN"
        "http://www.w3.org/Graphics/SVG/1.1/DTD/svg11.dtd">
<svg class="icon" width="200px" height="200.00px" viewBox="0 0 1024 1024" version="1.1"
     xmlns="http://www.w3.org/2000/svg">
    <path fill="#bfbfbf"
          d="M710.144 85.12S529.664 7.04 385.664 151.04l-27.2 27.2-16.448-16.512a23.68 23.68 0 0 0-33.024 0L161.472 308.864a23.68 23.68 0 0 0 0 32.96l16.512 16.512-31.232 30.72c-137.216 136.832-62.4 320.448-62.4 320.448l222.464-222.4 16.448 16.512c8.96 8.96 24.064 8.96 33.024 0L503.808 356.48a23.68 23.68 0 0 0 0-33.024l-16.064-16 222.4-222.4z m126.08 862.4l111.488-110.976a27.968 27.968 0 0 0 0-39.232L546.112 396.224 395.904 546.368l401.6 401.152a27.456 27.456 0 0 0 38.784 0z"
          opacity=".6"/>
</svg>