<?xml version="1.0" standalone="no"?><!DOCTYPE svg PUBLIC "-//W3C//DTD SVG 1.1//EN"
        "http://www.w3.org/Graphics/SVG/1.1/DTD/svg11.dtd">
<svg class="icon" width="200px" height="200.00px" viewBox="0 0 1024 1024" version="1.1"
     xmlns="http://www.w3.org/2000/svg">
    <path d="M0 46.3872C0 20.7872 20.8384 0 46.5408 0h354.8928a51.2 51.2 0 0 1 47.0784 30.9248l25.088 58.368h503.8592c25.7024 0 46.5408 20.736 46.5408 46.3872v544.9728c0 25.6-20.8384 46.3872-46.5408 46.3872H46.5408A46.464 46.464 0 0 1 0 680.6528V46.3872z"
          fill="#FFA000"/>
    <path d="M46.5408 204.8h930.9184C1008.4864 204.8 1024 224.3072 1024 263.3216v702.1568C1024 1004.4928 1008.4864 1024 977.4592 1024H46.5408C15.5136 1024 0 1004.4928 0 965.4784V263.3216C0 224.3072 15.5136 204.8 46.5408 204.8z"
          fill="#FFBF37"/>
</svg>