<?xml version="1.0" standalone="no"?><!DOCTYPE svg PUBLIC "-//W3C//DTD SVG 1.1//EN"
        "http://www.w3.org/Graphics/SVG/1.1/DTD/svg11.dtd">
<svg class="icon" width="200px" height="200.00px" viewBox="0 0 1024 1024" version="1.1"
     xmlns="http://www.w3.org/2000/svg">
    <path d="M51.2 0h921.6a51.2 51.2 0 0 1 51.2 51.2v921.6a51.2 51.2 0 0 1-51.2 51.2H51.2a51.2 51.2 0 0 1-51.2-51.2V51.2a51.2 51.2 0 0 1 51.2-51.2z"
          fill="#1D2129"/>
    <path d="M503.1936 512c0-47.2064 38.4-85.6064 85.6064-85.6064 47.2064 0 85.6064 38.4 85.6064 85.6064 0 47.2064-38.4 85.6064-85.6064 85.6064A85.7088 85.7088 0 0 1 503.1936 512z"
          fill="#1ABCFE"/>
    <path d="M332.8 682.3936c0-47.1808 38.4-85.5808 85.6064-85.5808h84.7872v85.5808c0 47.2064-38.4 85.6064-85.5808 85.6064C370.4064 768 332.8 729.6 332.8 682.3936z"
          fill="#0ACF83"/>
    <path d="M503.1936 256v170.3936H588.8c47.2064 0 85.6064-38.4 85.6064-85.5808 0-47.2064-38.4-84.8128-85.6064-84.8128h-85.6064z"
          fill="#FF7262"/>
    <path d="M332.8 341.6064c0 47.2064 38.4 85.6064 85.6064 85.6064h84.7872V256h-85.5808C370.4064 256 332.8 294.4 332.8 341.6064z"
          fill="#F24E1E"/>
    <path d="M332.8 512c0 47.2064 38.4 85.6064 85.6064 85.6064h84.7872v-171.2128h-85.5808C370.4064 426.3936 332.8 464.7936 332.8 512z"
          fill="#A259FF"/>
</svg>