<?xml version="1.0" standalone="no"?><!DOCTYPE svg PUBLIC "-//W3C//DTD SVG 1.1//EN"
        "http://www.w3.org/Graphics/SVG/1.1/DTD/svg11.dtd">
<svg class="icon" width="200px" height="200.00px" viewBox="0 0 1024 1024" version="1.1"
     xmlns="http://www.w3.org/2000/svg">
    <path d="M51.2 0h921.6a51.2 51.2 0 0 1 51.2 51.2v921.6a51.2 51.2 0 0 1-51.2 51.2H51.2a51.2 51.2 0 0 1-51.2-51.2V51.2a51.2 51.2 0 0 1 51.2-51.2z"
          fill="#FFBF37"/>
    <path d="M608.9728 471.8592l-104.6784 321.5872a18.3296 18.3296 0 0 1-4.5568 0l-104.704-321.6128h213.9392v0.0256z m162.9696 0l-205.4656 253.4144 82.5088-253.4144h122.9568z m-416.9216 0l82.5088 253.3632-205.4656-253.3632h122.9568z m100.224-190.2336L358.4 433.8176H230.4l104.2176-144.3072a19.0208 19.0208 0 0 1 13.1328-7.7568l2.304-0.128h105.216z m48.4352 0l96.8704 152.192H403.456L500.352 281.6h3.328z m150.3232 0c6.0928 0 11.8272 2.944 15.4112 7.8848l104.192 144.2816h-128L548.7616 281.6h105.2416z"
          fill="#FFFFFF"/>
</svg>