<?xml version="1.0" standalone="no"?><!DOCTYPE svg PUBLIC "-//W3C//DTD SVG 1.1//EN"
        "http://www.w3.org/Graphics/SVG/1.1/DTD/svg11.dtd">
<svg class="icon" width="200px" height="200.00px" viewBox="0 0 1024 1024" version="1.1"
     xmlns="http://www.w3.org/2000/svg">
    <path d="M472.784593 96.009481c103.954963 0 188.22637 84.271407 188.22637 188.226371a188.055704 188.055704 0 0 1-83.702519 156.577185c22.565926 6.826667 44.22163 15.777185 64.663704 26.661926-106.913185 31.838815-184.888889 130.88237-184.888889 248.13037 0 55.48563 17.464889 106.894222 47.198815 149.029926H111.995259V786.204444c0-162.910815 107.975111-300.600889 256.265482-345.41037a187.979852 187.979852 0 0 1-83.702519-156.558222c0-103.954963 84.271407-188.245333 188.226371-188.245333z"
          fill="#279CFF"/>
    <path d="M715.927704 519.528296c108.278519 0 196.077037 87.798519 196.077037 196.077037s-87.798519 196.077037-196.077037 196.077037c-108.297481 0-196.077037-87.798519-196.077037-196.077037s87.779556-196.077037 196.077037-196.077037z m117.76 128.530963l-185.306074 185.325037a135.755852 135.755852 0 0 0 185.325037-185.325037z m-117.76-68.190815a135.755852 135.755852 0 0 0-111.938371 212.555852l188.738371-188.757333a135.111111 135.111111 0 0 0-76.8-23.798519z"
          fill="#279CFF" fill-opacity=".5"/>
</svg>