<?xml version="1.0" standalone="no"?><!DOCTYPE svg PUBLIC "-//W3C//DTD SVG 1.1//EN"
        "http://www.w3.org/Graphics/SVG/1.1/DTD/svg11.dtd">
<svg class="icon" width="200px" height="200.00px" viewBox="0 0 1024 1024" version="1.1"
     xmlns="http://www.w3.org/2000/svg">
    <path d="M51.2 0h921.6a51.2 51.2 0 0 1 51.2 51.2v921.6a51.2 51.2 0 0 1-51.2 51.2H51.2a51.2 51.2 0 0 1-51.2-51.2V51.2a51.2 51.2 0 0 1 51.2-51.2z"
          fill="#A971EB"/>
    <path d="M382.4384 590.336c0-22.5792-6.0928-41.216-19.712-54.1184-10.752-10.0352-25.4464-16.4864-48.7424-19.712l-30.1056-4.3008c-10.3936-1.4336-18.6368-5.376-23.6544-10.0352a24.6272 24.6272 0 0 1-7.5264-18.2784c0-17.5616 12.9024-32.256 39.424-32.256 16.8448 0 36.1984 2.1504 52.3264 17.5616l31.5392-31.1808c-21.8624-21.1456-47.3088-29.7472-82.432-29.7472-55.1936 0-88.8832 31.8976-88.8832 77.4144 0 21.504 6.0928 37.9904 18.2784 50.176 11.4688 11.1104 27.5968 17.92 49.4592 21.1456l30.8224 4.3008c11.8272 1.792 17.5616 4.3008 22.5792 8.96 5.376 5.0176 7.8848 12.544 7.8848 21.504 0 20.4288-15.7696 31.5392-45.1584 31.5392-23.6544 0-45.5168-5.376-61.6448-21.504l-32.256 32.256c25.088 25.4464 54.4768 33.6896 93.184 33.6896 53.4016 0 94.6176-27.9552 94.6176-77.4144zM606.7968 410.4192h-51.968l-51.2512 166.2976-51.2512-166.2976h-51.6096L484.9408 665.6h37.2736zM819.328 560.9472v-37.2736h-96.4096v41.5744h46.9504v9.6768c0 13.9776-3.9424 25.4464-11.4688 34.048-8.96 9.6768-20.7872 14.336-35.4816 14.336-13.6192 0-24.3712-4.3008-31.8976-13.2608-10.0352-11.8272-12.1856-21.8624-12.1856-72.0384 0-50.5344 2.8672-59.8528 12.1856-71.68 7.8848-8.96 18.6368-13.6192 31.8976-13.6192 24.7296 0 39.7824 12.544 45.8752 37.2736h50.176c-6.8096-44.4416-37.9904-81.7152-96.0512-81.7152-27.2384 0-50.176 9.3184-68.8128 27.9552-11.1104 11.1104-17.92 23.6544-20.7872 38.3488-2.8672 14.336-4.3008 35.4816-4.3008 63.4368 0 27.9552 1.4336 49.1008 4.3008 63.4368 2.8672 14.336 9.6768 27.2384 20.7872 38.3488 18.6368 18.6368 41.5744 27.9552 68.8128 27.9552 28.672 0 52.3264-8.96 72.0384-29.0304 17.5616-18.6368 24.3712-40.4992 24.3712-77.7728z"
          fill="#FFFFFF"/>
</svg>