<?xml version="1.0" standalone="no"?><!DOCTYPE svg PUBLIC "-//W3C//DTD SVG 1.1//EN"
        "http://www.w3.org/Graphics/SVG/1.1/DTD/svg11.dtd">
<svg class="icon" width="200px" height="200.00px" viewBox="0 0 1024 1024" version="1.1"
     xmlns="http://www.w3.org/2000/svg">
    <path fill="#bfbfbf"
          d="M651.605333 119.087407a415.762963 415.762963 0 0 1 137.898667 82.071704 166.437926 166.437926 0 0 0 129.744593 224.786963c5.745778 27.477333 8.741926 55.940741 8.741926 85.143704 0 29.165037-2.996148 57.647407-8.722963 85.124741a166.418963 166.418963 0 0 0-129.763556 224.768 415.364741 415.364741 0 0 1-147.531852 85.390222A166.020741 166.020741 0 0 0 512 843.870815a166.096593 166.096593 0 0 0-129.972148 62.482963 415.194074 415.194074 0 0 1-147.531852-85.371259A166.437926 166.437926 0 0 0 104.751407 596.195556a416.199111 416.199111 0 0 1-8.760888-85.124741c0-29.165037 3.015111-57.647407 8.722962-85.143704a166.418963 166.418963 0 0 0 129.782519-224.749037 415.516444 415.516444 0 0 1 137.898667-82.10963 166.229333 166.229333 0 0 0 139.605333 75.851852c57.438815 0 108.088889-29.108148 137.974519-73.367703l1.630814-2.465186zM512 377.931852a133.12 133.12 0 1 0 0 266.24 133.12 133.12 0 0 0 0-266.24z"/>
</svg>