<?xml version="1.0" standalone="no"?><!DOCTYPE svg PUBLIC "-//W3C//DTD SVG 1.1//EN"
        "http://www.w3.org/Graphics/SVG/1.1/DTD/svg11.dtd">
<svg class="icon" width="200px" height="200.00px" viewBox="0 0 1024 1024" version="1.1"
     xmlns="http://www.w3.org/2000/svg">
    <path fill="#bfbfbf"
          d="M537.182815 125.534815a56.888889 56.888889 0 0 1 25.827555 25.827555l81.540741 165.167408a56.888889 56.888889 0 0 0 42.81837 31.137185l182.290963 26.491259a56.888889 56.888889 0 0 1 31.516445 97.033482l-131.90637 128.568889a56.888889 56.888889 0 0 0-16.346075 50.346666l31.137186 181.551408a56.888889 56.888889 0 0 1-82.545778 59.979852l-163.043556-85.712593a56.888889 56.888889 0 0 0-52.944592 0l-163.043556 85.712593a56.888889 56.888889 0 0 1-82.545778-59.979852l31.137186-181.551408a56.888889 56.888889 0 0 0-16.346075-50.346666l-131.90637-128.568889a56.888889 56.888889 0 0 1 31.516445-97.033482l182.290963-26.491259a56.888889 56.888889 0 0 0 42.837333-31.118222l81.521778-165.167408a56.888889 56.888889 0 0 1 76.193185-25.846518zM512 367.995259a175.995259 175.995259 0 0 0-175.995259 176.014222 32.009481 32.009481 0 0 0 64 0A111.995259 111.995259 0 0 1 512 431.976296a32.009481 32.009481 0 0 0 0-64z"/>
</svg>