<?xml version="1.0" standalone="no"?><!DOCTYPE svg PUBLIC "-//W3C//DTD SVG 1.1//EN"
        "http://www.w3.org/Graphics/SVG/1.1/DTD/svg11.dtd">
<svg class="icon" width="200px" height="200.00px" viewBox="0 0 1024 1024" version="1.1"
     xmlns="http://www.w3.org/2000/svg">
    <path d="M51.2 0h921.6a51.2 51.2 0 0 1 51.2 51.2v921.6a51.2 51.2 0 0 1-51.2 51.2H51.2a51.2 51.2 0 0 1-51.2-51.2V51.2a51.2 51.2 0 0 1 51.2-51.2z"
          fill="#A971EB"/>
    <path d="M457.9584 665.6l-93.184-255.1808h-39.0656L232.8832 665.6h51.968l15.4112-45.1584h90.6752L405.9904 665.6h51.968z m-80.2816-87.0912h-63.4368l32.256-92.8256 31.1808 92.8256zM672.2816 410.4192h-51.968l-51.2512 166.2976-51.2512-166.2976h-51.6096L550.4256 665.6h37.2736zM770.8416 665.6v-255.1808h-49.8176V665.6z"
          fill="#FFFFFF"/>
</svg>