<?xml version="1.0" standalone="no"?><!DOCTYPE svg PUBLIC "-//W3C//DTD SVG 1.1//EN"
        "http://www.w3.org/Graphics/SVG/1.1/DTD/svg11.dtd">
<svg class="icon" width="200px" height="200.00px" viewBox="0 0 1024 1024" version="1.1"
     xmlns="http://www.w3.org/2000/svg">
    <path d="M395.851852 144.004741h232.296296a75.851852 75.851852 0 0 1 75.851852 75.851852v52.148148h-384v-52.148148a75.851852 75.851852 0 0 1 75.851852-75.851852z"
          fill="#279CFF" fill-opacity=".5"/>
    <path d="M628.148148 559.995259a75.851852 75.851852 0 0 1 75.851852 75.851852v200.305778a75.851852 75.851852 0 0 1-75.851852 75.851852h-232.296296a75.851852 75.851852 0 0 1-75.851852-75.851852V635.828148a75.851852 75.851852 0 0 1 75.851852-75.851852h232.296296z m208.004741-287.990518a75.851852 75.851852 0 0 1 75.851852 75.851852v296.296296a75.851852 75.851852 0 0 1-75.851852 75.851852h-68.171852l0.018963-72.305778a151.703704 151.703704 0 0 0-146.962963-151.627852l-4.740741-0.075852h-208.592592a151.703704 151.703704 0 0 0-151.627852 146.981926l-0.075852 4.740741v72.286815H187.828148a75.851852 75.851852 0 0 1-75.851852-75.851852V347.856593a75.851852 75.851852 0 0 1 75.851852-75.851852h648.305778z"
          fill="#279CFF"/>
</svg>