<?xml version="1.0" standalone="no"?><!DOCTYPE svg PUBLIC "-//W3C//DTD SVG 1.1//EN"
        "http://www.w3.org/Graphics/SVG/1.1/DTD/svg11.dtd">
<svg class="icon" width="200px" height="200.00px" viewBox="0 0 1024 1024" version="1.1"
     xmlns="http://www.w3.org/2000/svg">
    <path fill="#bfbfbf"
          d="M512 960A448 448 0 1 1 512 64a448 448 0 0 1 0 896z m126.784-567.808A591.68 591.68 0 0 1 515.584 212.48a591.552 591.552 0 0 1-123.2 179.648 591.744 591.744 0 0 1-179.776 123.328c67.008 29.632 128 71.424 179.648 123.328a590.08 590.08 0 0 1 123.328 179.648 593.408 593.408 0 0 1 302.976-302.976A591.744 591.744 0 0 1 638.72 392.128z m-62.08 183.68c-21.504 21.504-41.6 44.288-59.968 68.48-18.56-24.064-38.592-46.976-60.032-68.48a680.96 680.96 0 0 0-68.48-59.968c24.064-18.496 46.912-38.4 68.48-60.032 21.568-21.44 41.6-44.352 60.032-68.48a682.944 682.944 0 0 0 128.512 128.448c-24 18.56-46.848 38.464-68.544 60.032z"
          opacity=".6"/>
</svg>