<?xml version="1.0" standalone="no"?><!DOCTYPE svg PUBLIC "-//W3C//DTD SVG 1.1//EN"
        "http://www.w3.org/Graphics/SVG/1.1/DTD/svg11.dtd">
<svg class="icon" width="200px" height="200.00px" viewBox="0 0 1024 1024" version="1.1"
     xmlns="http://www.w3.org/2000/svg">
    <path d="M51.2 0h921.6a51.2 51.2 0 0 1 51.2 51.2v921.6a51.2 51.2 0 0 1-51.2 51.2H51.2a51.2 51.2 0 0 1-51.2-51.2V51.2a51.2 51.2 0 0 1 51.2-51.2z"
          fill="#E64264"/>
    <path d="M399.8208 587.1104h-50.5344c-5.376 21.8624-18.9952 36.1984-43.008 36.1984-13.6192 0-24.3712-4.3008-31.8976-13.2608-10.3936-11.1104-12.544-22.5792-12.544-72.0384s2.1504-60.928 12.544-72.0384c7.5264-8.96 18.2784-13.2608 31.8976-13.2608 24.0128 0 37.632 14.336 43.008 36.1984h50.5344c-8.6016-51.968-44.8-80.64-93.9008-80.64-27.2384 0-50.176 9.3184-68.8128 27.9552-11.1104 11.1104-17.92 23.6544-20.7872 38.3488-2.8672 14.336-4.3008 35.4816-4.3008 63.4368 0 27.9552 1.4336 49.1008 4.3008 63.4368 2.8672 14.336 9.6768 27.2384 20.7872 38.3488 18.6368 18.6368 41.5744 27.9552 68.8128 27.9552 48.7424 0 85.2992-28.672 93.9008-80.64zM607.6928 590.336c0-22.5792-6.0928-41.216-19.712-54.1184-10.752-10.0352-25.4464-16.4864-48.7424-19.712l-30.1056-4.3008c-10.3936-1.4336-18.6368-5.376-23.6544-10.0352a24.6272 24.6272 0 0 1-7.5264-18.2784c0-17.5616 12.9024-32.256 39.424-32.256 16.8448 0 36.1984 2.1504 52.3264 17.5616l31.5392-31.1808c-21.8624-21.1456-47.3088-29.7472-82.432-29.7472-55.1936 0-88.8832 31.8976-88.8832 77.4144 0 21.504 6.0928 37.9904 18.2784 50.176 11.4688 11.1104 27.5968 17.92 49.4592 21.1456l30.8224 4.3008c11.8272 1.792 17.5616 4.3008 22.5792 8.96 5.376 5.0176 7.8848 12.544 7.8848 21.504 0 20.4288-15.7696 31.5392-45.1584 31.5392-23.6544 0-45.5168-5.376-61.6448-21.504l-32.256 32.256c25.088 25.4464 54.4768 33.6896 93.184 33.6896 53.4016 0 94.6176-27.9552 94.6176-77.4144zM832.0512 410.4192h-51.968l-51.2512 166.2976-51.2512-166.2976h-51.6096L710.1952 665.6h37.2736z"
          fill="#FFFFFF"/>
</svg>