<?xml version="1.0" standalone="no"?><!DOCTYPE svg PUBLIC "-//W3C//DTD SVG 1.1//EN"
        "http://www.w3.org/Graphics/SVG/1.1/DTD/svg11.dtd">
<svg class="icon" width="200px" height="200.00px" viewBox="0 0 1024 1024" version="1.1"
     xmlns="http://www.w3.org/2000/svg">
    <path fill="#bfbfbf"
          d="M836.736 671.808c-39.552 0-74.368 19.584-95.936 49.344L615.424 656.64c10.176-21.952 16.32-46.08 16.32-71.808 0-29.248-8-56.32-20.992-80.32l73.28-30.208c6.464 11.008 14.4 21.44 24.832 30.08a118.4 118.4 0 0 0 167.04-13.696 118.4 118.4 0 0 0-13.696-167.04 118.4 118.4 0 0 0-167.04 13.76c-25.6 30.08-33.216 69.312-24.384 105.024l-79.744 32.96a169.92 169.92 0 0 0-112.896-59.648V299.392a118.208 118.208 0 0 0-17.28-235.328 118.336 118.336 0 1 0-17.28 235.392v116.288a170.304 170.304 0 0 0-153.536 169.088c0 42.496 16 80.96 41.792 110.848l-51.584 26.56a118.464 118.464 0 1 0 20.8 67.2c0-12.544-2.432-24.576-6.08-35.968l63.296-32.576c28.672 21.696 63.936 34.944 102.528 34.944 56.192 0 105.6-27.52 136.768-69.44l127.616 65.6c-4.224 12.16-7.04 24.896-7.04 38.464a118.464 118.464 0 1 0 237.12 0 118.592 118.592 0 0 0-118.528-118.656z"
          opacity=".6"/>
</svg>