<?xml version="1.0" standalone="no"?><!DOCTYPE svg PUBLIC "-//W3C//DTD SVG 1.1//EN"
        "http://www.w3.org/Graphics/SVG/1.1/DTD/svg11.dtd">
<svg class="icon" width="200px" height="200.00px" viewBox="0 0 1024 1024" version="1.1"
     xmlns="http://www.w3.org/2000/svg">
    <path fill="#bfbfbf"
          d="M853.504 414.272a349.76 349.76 0 1 0-451.52 334.72l101.76 101.76 101.76-101.76a349.888 349.888 0 0 0 248-334.72zM503.744 295.744a118.528 118.528 0 1 1 0 237.12 118.528 118.528 0 0 1 0-237.12zM128.32 940.8c0 20.16 71.552 38.72 187.712 48.832 116.16 10.048 259.264 10.048 375.424 0 116.16-10.112 187.712-28.672 187.712-48.832 0-31.04-168.064-56.32-375.424-56.32-207.36 0-375.424 25.28-375.424 56.32z"
          opacity=".6"/>
</svg>