<?xml version="1.0" standalone="no"?><!DOCTYPE svg PUBLIC "-//W3C//DTD SVG 1.1//EN"
        "http://www.w3.org/Graphics/SVG/1.1/DTD/svg11.dtd">
<svg class="icon" width="200px" height="200.00px" viewBox="0 0 1024 1024" version="1.1"
     xmlns="http://www.w3.org/2000/svg">
    <path d="M217.41037 208.801185c15.094519 0 27.989333 10.486519 31.232 24.993185l0.455111 2.446223 11.377778 83.740444h211.493926l0.037926 152.007111 0.037926 2.351408 0.208593 4.74074a96.009481 96.009481 0 0 0 95.762963 88.917334l3.584-0.075852a96.009481 96.009481 0 0 0 92.406518-95.93363l-0.037926-152.007111h179.712a75.851852 75.851852 0 0 1 75.434667 83.854222l-36.503704 344.310519a75.851852 75.851852 0 0 1-75.415704 67.849481H312.794074a75.851852 75.851852 0 0 1-75.434667-67.849481L203.320889 426.932148l-15.701333-137.955555a18.962963 18.962963 0 0 0-19.000889-16.820149l-71.698963 0.644741c-16.877037 0-30.701037-13.046519-31.914667-29.620148l-0.094815-2.389333c0-16.877037 13.065481-30.682074 29.620148-31.895704l2.389334-0.094815H217.41037z"
          fill="#FEA917"/>
    <path d="M375.99763 919.988148m-55.99763 0a55.99763 55.99763 0 1 0 111.995259 0 55.99763 55.99763 0 1 0-111.995259 0Z"
          fill="#FF9214" fill-opacity=".5"/>
    <path d="M759.99763 919.988148m-55.99763 0a55.99763 55.99763 0 1 0 111.995259 0 55.99763 55.99763 0 1 0-111.995259 0Z"
          fill="#FF9214" fill-opacity=".5"/>
    <path d="M589.12237 55.959704l1.991111 1.896296 130.313482 136.00237a31.990519 31.990519 0 0 1-44.22163 46.193778l-1.991111-1.915259-75.226074-78.506667v312.357926a32.009481 32.009481 0 0 1-63.905185 2.389333l-0.075852-2.389333-0.018963-317.76237-90.017185 85.029926a32.009481 32.009481 0 0 1-43.254519 0.64474l-1.972148-1.934222a32.009481 32.009481 0 0 1-0.64474-43.254518l1.934222-1.972148L546.019556 56.718222A32.009481 32.009481 0 0 1 589.12237 55.959704z"
          fill="#FFA500" fill-opacity=".5"/>
</svg>