<?xml version="1.0" standalone="no"?><!DOCTYPE svg PUBLIC "-//W3C//DTD SVG 1.1//EN"
        "http://www.w3.org/Graphics/SVG/1.1/DTD/svg11.dtd">
<svg class="icon" width="200px" height="200.00px" viewBox="0 0 1024 1024" version="1.1"
     xmlns="http://www.w3.org/2000/svg">
    <path d="M51.2 0h921.6a51.2 51.2 0 0 1 51.2 51.2v921.6a51.2 51.2 0 0 1-51.2 51.2H51.2a51.2 51.2 0 0 1-51.2-51.2V51.2a51.2 51.2 0 0 1 51.2-51.2z"
          fill="#4876FF"/>
    <path d="M417.7408 665.6v-255.1808H368.64l-66.304 137.984-66.6624-137.984H186.5728V665.6h49.8176v-148.736l49.1008 96.768h33.6896l48.7424-96.768V665.6zM660.3776 489.984c0-43.3664-31.5392-79.5648-84.224-79.5648h-98.9184V665.6h49.8176v-96.0512h49.1008c52.6848 0 84.224-36.1984 84.224-79.5648z m-49.8176 0c0 20.7872-14.336 34.7648-36.9152 34.7648h-46.592v-69.888h46.592c22.5792 0 36.9152 14.336 36.9152 35.1232zM856.064 629.4016v-44.0832h-23.296v-47.6672h-44.8v47.6672h-53.4016l87.4496-174.8992h-50.8928l-87.4496 174.8992v44.0832h104.2944V665.6h44.8v-36.1984z"
          fill="#FFFFFF"/>
</svg>