<?xml version="1.0" standalone="no"?><!DOCTYPE svg PUBLIC "-//W3C//DTD SVG 1.1//EN"
        "http://www.w3.org/Graphics/SVG/1.1/DTD/svg11.dtd">
<svg class="icon" width="200px" height="200.00px" viewBox="0 0 1024 1024" version="1.1"
     xmlns="http://www.w3.org/2000/svg">
    <path fill="#bfbfbf"
          d="M960 64v896H64V64h896z m-249.6 280h-59.008v49.664c-32.64 1.408-63.872 13.44-88.96 34.368a116.288 116.288 0 0 0-40 91.392A99.2 99.2 0 0 0 606.72 621.696l44.16 11.2c19.84 4.48 39.488 9.152 59.072 14.208l3.072 0.896c19.2 4.096 37.44 12.096 53.504 23.488a40.064 40.064 0 0 1 12.608 33.088 66.112 66.112 0 0 1-69.184 68.864 287.104 287.104 0 0 1-59.008-0.896 105.408 105.408 0 0 1-49.152-19.136 91.264 91.264 0 0 1-29.632-76.928h-61.632a273.28 273.28 0 0 0 3.072 43.264c5.376 32.832 23.168 62.272 49.728 82.24 25.664 18.688 56.128 29.696 87.744 31.808v52.48h59.072v-52.224c41.28-1.28 80.32-19.2 108.16-49.728 19.2-22.848 29.696-51.712 29.632-81.6a109.12 109.12 0 0 0-92.736-105.856 713.088 713.088 0 0 1-149.76-45.44 38.336 38.336 0 0 1-13.696-32.704v-8.256a60.48 60.48 0 0 1 59.328-56.32c19.648-2.368 39.552-1.792 59.072 1.856 23.296 2.368 43.904 16.448 54.656 37.312 4.736 13.376 7.04 27.52 6.784 41.728h62.4v-9.92a132.352 132.352 0 0 0-16.32-66.752 118.72 118.72 0 0 0-51.328-47.872 177.472 177.472 0 0 0-56-16.064v-50.432z m-310.4 0h-224v56h224v-56zM512 176H176v56H512V176z"
          opacity=".6"/>
</svg>