<?xml version="1.0" standalone="no"?><!DOCTYPE svg PUBLIC "-//W3C//DTD SVG 1.1//EN"
        "http://www.w3.org/Graphics/SVG/1.1/DTD/svg11.dtd">
<svg class="icon" width="200px" height="200.00px" viewBox="0 0 1024 1024" version="1.1"
     xmlns="http://www.w3.org/2000/svg">
    <path d="M820.148148 175.995259a75.851852 75.851852 0 0 1 75.851852 75.851852v392.305778a75.851852 75.851852 0 0 1-75.851852 75.851852H203.851852a75.851852 75.851852 0 0 1-75.851852-75.851852V251.847111a75.851852 75.851852 0 0 1 75.851852-75.851852h616.296296z m-43.994074 144.023704a31.990519 31.990519 0 0 0-45.150815-3.147852l-150.774518 131.147852-93.639111-93.354667-2.066963-1.896296a32.009481 32.009481 0 0 0-41.946074 0.777481l-182.044445 163.972741-1.972148 1.934222a32.009481 32.009481 0 0 0-0.379259 43.273482l1.934222 1.972148a32.009481 32.009481 0 0 0 43.254518 0.379259l159.478519-143.68237 93.297778 93.013333 2.029037 1.877334c11.946667 10.012444 29.582222 10.012444 41.566815-0.37926l173.264592-150.755555 2.010074-1.896296c11.434667-11.794963 12.117333-30.606222 1.137778-43.235556z"
          fill="#0CCA8A"/>
    <path d="M272.004741 784.004741m32.009481 0l415.990519 0q32.009481 0 32.009481 32.009481l0-0.018963q0 32.009481-32.009481 32.009482l-415.990519 0q-32.009481 0-32.009481-32.009482l0 0.018963q0-32.009481 32.009481-32.009481Z"
          fill="#0CCA8A" fill-opacity=".5"/>
</svg>