<?xml version="1.0" standalone="no"?><!DOCTYPE svg PUBLIC "-//W3C//DTD SVG 1.1//EN"
        "http://www.w3.org/Graphics/SVG/1.1/DTD/svg11.dtd">
<svg class="icon" width="200px" height="200.00px" viewBox="0 0 1024 1024" version="1.1"
     xmlns="http://www.w3.org/2000/svg">
    <path d="M511.968 247.744h-0.032H512h-0.032z m0 0a310.992 310.992 0 0 0-304.256 314.608A310.912 310.912 0 0 0 512 880a310.944 310.944 0 0 0 304.224-317.648 311.008 311.008 0 0 0-304.256-314.608zM334.144 645.472c11.92-7.632 26.336-1.68 33.792 8.896l0.928 1.232a225.424 225.424 0 0 0 31.2 31.44l3.52 2.848 0.64 0.512c11.488 8.576 23.84 15.968 36.832 22.048l3.968 1.872 1.568 0.672c12 4.8 24.512 8.352 37.28 10.56l4.272 0.752c0.736 0 1.52 0.128 2.256 0.256l1.168 0.176c14.24 1.472 28.576 1.408 42.8-0.192a194.288 194.288 0 0 0 32.8-7.76c4.592-1.6 9.12-3.328 13.6-5.216l3.92-1.808a212.064 212.064 0 0 0 36.096-21.984l0.688-0.56 1.28-1.072c0.64-0.496 1.248-1.008 1.824-1.536a224.976 224.976 0 0 0 26.592-25.968l5.088-6.336c8-11.312 21.12-15.536 33.792-8.832 11.008 5.84 16.288 23.248 8.832 33.808a227.424 227.424 0 0 1-41.008 43.6 237.712 237.712 0 0 1-90.4 47.216 221.12 221.12 0 0 1-121.824-3.104 239.184 239.184 0 0 1-120.32-87.712c-8.032-11.312-1.632-27.088 8.8-33.808z"
          fill="#F66462"/>
    <path d="M512 144a406.176 406.176 0 0 1 386.672 303.104c57.6 4.608 74.368 57.664 74.368 115.248 0 57.6-16.16 115.248-74.368 119.84a42.672 42.672 0 0 1-43.856-57.648v-4.048c2.976-19.072 4.48-38.32 4.592-57.648A353.76 353.76 0 0 0 513.6 198.672h-1.6a353.76 353.76 0 0 0-345.808 363.68c0.08 21.968 2.032 43.904 5.84 65.536l0.064 0.64 0.496 1.488a42.672 42.672 0 0 1-45.664 51.616c-59.824-3.968-75.968-54.112-75.968-119.28 0-57.6 16.16-115.248 74.352-115.248A406.24 406.24 0 0 1 512 144z"
          fill="#FFA4A4"/>
</svg>