<?xml version="1.0" standalone="no"?><!DOCTYPE svg PUBLIC "-//W3C//DTD SVG 1.1//EN"
        "http://www.w3.org/Graphics/SVG/1.1/DTD/svg11.dtd">
<svg class="icon" width="200px" height="200.00px" viewBox="0 0 1024 1024" version="1.1"
     xmlns="http://www.w3.org/2000/svg">
    <path d="M896 560a239.968 239.968 0 0 0-361.712-25.712A240 240 0 0 0 560 896H213.344C166.256 896 128 855.68 128 805.904V218.096C128 168.416 166.256 128 213.344 128h597.312C857.744 128 896 168.416 896 218.096V560zM684.704 286.496A32.576 32.576 0 0 0 704 256.976a33.104 33.104 0 0 0-33.6-32.64 33.136 33.136 0 0 0-33.6 32.64c0 11.04 5.664 20.832 14.304 26.736-12.96 68.208-74.688 120.048-148.704 120.048s-135.696-51.84-148.656-120.096A32.368 32.368 0 0 0 368 256.976a33.104 33.104 0 0 0-33.6-32.64 33.136 33.136 0 0 0-33.6 32.64 32.64 32.64 0 0 0 19.344 29.568c14.544 84.912 90.72 149.856 182.256 149.856 91.584 0 167.76-64.944 182.304-149.904z"
          fill="#FD9F55"/>
    <path d="M568.24 839.76a192 192 0 1 0 271.52-271.52 192 192 0 0 0-271.52 271.52zM782.368 662.24l10.4-10.416c5.744-5.744 12.544-1.888 10.8 8.528a51.936 51.936 0 0 1-41.248 42.992c-6.928 1.392-14.08 1.344-21.008-0.128l-87.248 87.152a28.48 28.48 0 0 1-48.56-20.176c0.016-7.552 3.04-14.768 8.384-20.096l87.248-87.168a52 52 0 0 1 42.944-62.352c10.368-1.6 14.176 5.152 8.432 10.88l-10.4 10.4a28.48 28.48 0 0 0 20.064 48.688c7.568 0.016 14.832-2.976 20.192-8.304z m-146.592 117.328a9.504 9.504 0 0 0 4.864-16 9.504 9.504 0 1 0-4.864 16z m28.128-93.216l-32.72-32.864-14.096-7.296-16.768-23.472 13.408-13.392 23.6 16.848 7.28 14.064 32.72 32.672-13.424 13.44z m75.776 35.872a4.752 4.752 0 0 1 1.536 1.04l47.472 47.504a18.96 18.96 0 1 1-26.832 26.72l-47.488-47.424a4.752 4.752 0 0 1 0-6.688l20.16-20.112a4.752 4.752 0 0 1 5.152-1.04z"
          fill="#FECC87"/>
</svg>