<?xml version="1.0" standalone="no"?><!DOCTYPE svg PUBLIC "-//W3C//DTD SVG 1.1//EN"
        "http://www.w3.org/Graphics/SVG/1.1/DTD/svg11.dtd">
<svg class="icon" width="200px" height="200.00px" viewBox="0 0 1024 1024" version="1.1"
     xmlns="http://www.w3.org/2000/svg">
    <path d="M298.544 808.528h175.152a265.792 265.792 0 0 0 59.952 68.192H297.248c-42.448 0-78.464-34.736-78.464-78.464V640h-61.76C132.576 640 112 619.408 112 594.976v-222.56c0-24.448 20.576-45.04 45.024-45.04h37.312v-95.2c0-46.32 38.592-84.912 84.896-84.912h398.816c46.304 0 84.912 38.592 84.912 84.912v93.92h36c24.448 0 45.04 20.576 42.464 46.304v76.752a262.4 262.4 0 0 0-142.48-41.888c-123.2 0-226.992 84.768-255.872 199.28H298.56c-5.152 0-10.288 5.152-10.288 10.288V798.24c0 5.152 5.136 10.288 10.288 10.288z m-86.192-380.8a31.84 31.84 0 0 0 32.16 32.176c18 0 32.16-14.144 32.16-32.16s-14.144-32.176-32.16-32.176a31.84 31.84 0 0 0-32.16 32.16z m459.264-189.12H285.68v64.336h385.92v-64.32z"
          fill="#42B4FA"/>
    <path d="M330.704 708.176c0-19.28 15.44-34.72 34.72-34.72h69.696c0.192 23.488 3.52 46.848 9.92 69.456H365.44a34.592 34.592 0 0 1-34.72-34.72z"
          fill="#42B4FA"/>
    <path d="M708.736 467.904c-112.032 0-203.28 90.992-203.28 203.264 0 112.032 90.992 203.264 203.28 203.264C820.768 874.432 912 783.44 912 671.168c0-112.032-90.992-203.264-203.264-203.264zM673.92 764.96c-2.56-0.96-4.96-2.56-7.04-4.64l-68.48-68.64c-2.08-1.92-3.68-4.32-4.8-6.88-0.96-2.72-1.6-5.44-1.6-8.32a21.552 21.552 0 0 1 21.6-21.76c5.76 0 11.36 2.4 15.36 6.4l52.32 52.32 116.96-115.2c2.08-1.92 4.32-3.68 7.04-4.64 2.72-0.96 5.44-1.6 8.32-1.6s5.6 0.64 8.32 1.6c2.72 0.96 4.96 2.56 7.04 4.64 1.92 2.08 3.52 4.48 4.64 7.04 1.12 2.72 1.6 5.44 1.6 8.32s-0.48 5.76-1.6 8.32c-0.96 2.56-2.56 4.96-4.64 7.04l-131.36 131.36c-2.08 1.92-4.32 3.52-7.04 4.64-2.72 1.12-5.44 1.6-8.32 1.6s-5.76-0.64-8.32-1.6z"
          fill="#92DBFF"/>
</svg>