<?xml version="1.0" standalone="no"?><!DOCTYPE svg PUBLIC "-//W3C//DTD SVG 1.1//EN"
        "http://www.w3.org/Graphics/SVG/1.1/DTD/svg11.dtd">
<svg class="icon" width="200px" height="200.00px" viewBox="0 0 1024 1024" version="1.1"
     xmlns="http://www.w3.org/2000/svg">
    <path d="M197.824 459.648h418.896v436.368h-401.44a17.456 17.456 0 0 1-17.456-17.44V459.632z" fill="#FDBA54"/>
    <path d="M791.28 896.016h-122.192V459.648h139.632V878.56a17.44 17.44 0 0 1-17.44 17.456zM517.296 305.504L681.328 141.472c8.224-8.224 16.464-8.224 24.688 0l51.552 51.568c8.224 8.224 8.224 16.448 0 24.672L593.536 381.76c-8.224 8.224-16.448 8.224-24.688 0l-51.552-51.552c-8.224-8.224-8.224-16.464 0-24.688z"
          fill="#FFDE8D"/>
    <path d="M475.936 381.76L311.904 217.728c-8.224-8.224-8.224-16.448 0-24.688l52.688-52.688c8.224-8.224 16.448-8.224 24.688 0L553.28 304.384c8.24 8.224 8.24 16.464 0 24.688l-52.688 52.688c-8.224 8.224-16.448 8.224-24.672 0z"
          fill="#FDBA54"/>
    <path d="M145.44 302.56h733.12c11.616 0 17.44 5.808 17.44 17.44v69.824c0 11.632-5.824 17.44-17.44 17.44H145.44c-11.616 0-17.44-5.808-17.44-17.44V320c0-11.632 5.824-17.44 17.44-17.44z"
          fill="#FDBA54"/>
</svg>