<?xml version="1.0" standalone="no"?><!DOCTYPE svg PUBLIC "-//W3C//DTD SVG 1.1//EN"
        "http://www.w3.org/Graphics/SVG/1.1/DTD/svg11.dtd">
<svg class="icon" width="200px" height="200.00px" viewBox="0 0 1024 1024" version="1.1"
     xmlns="http://www.w3.org/2000/svg">
    <path fill="#cdcdcd"
          d="M122.453333 243.2s-34.133333 173.226667 221.866667 429.226667a65.493333 65.493333 0 0 1 5.546667 5.333333 65.493333 65.493333 0 0 1 5.333333 5.546667c256 256 429.226667 221.866667 429.226667 221.866666a88.533333 88.533333 0 0 0 40.32-15.36 325.546667 325.546667 0 0 0 64-72.106666c24.106667-39.893333-21.333333-100.053333-47.786667-126.293334-52.906667-53.12-101.546667-64-123.093333-48.64-9.6 6.613333-48 48-48 48a55.466667 55.466667 0 0 1-33.066667 13.866667s-66.986667 0-192-121.813333-121.813333-192-121.813333-192a55.466667 55.466667 0 0 1 13.866666-33.066667L384 310.186667c17.92-22.613333-11.733333-78.72-48.64-123.093334a123.946667 123.946667 0 0 0-78.506667-52.266666c-46.933333-8.96-132.693333 54.613333-134.4 108.373333z"/>
</svg>