<?xml version="1.0" standalone="no"?><!DOCTYPE svg PUBLIC "-//W3C//DTD SVG 1.1//EN"
        "http://www.w3.org/Graphics/SVG/1.1/DTD/svg11.dtd">
<svg class="icon" width="200px" height="200.00px" viewBox="0 0 1024 1024" version="1.1"
     xmlns="http://www.w3.org/2000/svg">
    <path d="M177.312 730.608l258.816-258.384 38.816 38.8-263.68 263.12c-12.32-13.968-23.904-28.4-33.952-43.52zM112.4 493.456l172.464-172.112 38.752 38.608-207.68 207.296a400.896 400.896 0 0 1-3.52-73.792z m135.76 317.472l564.256-563.04c138.24 156.896 132.64 395.808-17.44 545.6-150.16 149.776-389.6 155.344-546.816 17.44zM125.712 406.496a397.36 397.36 0 0 1 85.568-158.624l36.784 36.624-122.352 122z m3.312 221.216L360.48 396.752l38.752 38.816L151.04 683.296a396.496 396.496 0 0 1-22-55.584z"
          fill="#FDBA54"/>
    <path d="M775.52 211.088c-150.656-132.112-376.704-132.112-527.44 0L511.808 474.24 775.52 211.088z" fill="#FFDE8D"/>
</svg>