<?xml version="1.0" standalone="no"?><!DOCTYPE svg PUBLIC "-//W3C//DTD SVG 1.1//EN"
        "http://www.w3.org/Graphics/SVG/1.1/DTD/svg11.dtd">
<svg class="icon" width="200px" height="200.00px" viewBox="0 0 1024 1024" version="1.1"
     xmlns="http://www.w3.org/2000/svg">
    <path d="M296 155.936c0-21.616-4-39.296-29.296-39.296h-8a120.448 120.448 0 0 1 33.296 74.88h4V155.936z"
          fill="#A0ACBF"/>
    <path d="M705.648 112H224.768a130.448 130.448 0 0 0-49.568 9.632 122.144 122.144 0 0 1 74.88 112.816v552.128a120.448 120.448 0 0 0 106.176 119.472 149.76 149.76 0 0 0 130.144-133.152h342.112V234.464A122.8 122.8 0 0 0 705.648 112z"
          fill="#42B4FA"/>
    <path d="M249.424 223.12a8 8 0 0 1 0-2.64 103.312 103.312 0 0 0-2.64-14.624 31.04 31.04 0 0 0 0-5.344 111.472 111.472 0 0 0-6.352-17.616c-3.2-6.256-6.88-12.272-10.976-17.984l-3.36-4a99.616 99.616 0 0 0-8.96-10.976h-1.664a121.168 121.168 0 0 0-40.288-28.304 139.424 139.424 0 0 0-78.88 135.136h153.76v-22.304c0-3.648-0.336-7.648-0.64-11.344zM828.512 772.896H486.4a150.08 150.08 0 0 1-130.144 133.152c4.768 0.32 9.552 0.32 14.32 0h420A148.768 148.768 0 0 0 928 772.896h-99.488z"
          fill="#92DBFF"/>
    <path d="M486.048 359.52l62.896 122.448 62.56-122.464h52.56l-77.52 140.128h52.912v24.624h-66.8v33.28h66.56v24.96h-66.56v61.92h-47.264V584.16h-66.56v-24.96h66.56v-33.312h-66.56V501.28h52.576l-78.224-141.424 52.864-0.352z"
          fill="#FFFFFF"/>
</svg>