<?xml version="1.0" standalone="no"?><!DOCTYPE svg PUBLIC "-//W3C//DTD SVG 1.1//EN"
        "http://www.w3.org/Graphics/SVG/1.1/DTD/svg11.dtd">
<svg class="icon" width="200px" height="200.00px" viewBox="0 0 1024 1024" version="1.1"
     xmlns="http://www.w3.org/2000/svg">
    <path d="M613.65 811H429.47a61.46 61.46 0 0 1-61.4-61.4v-46a30.7 30.7 0 0 1 61.4 0v46h184.18v-46a30.7 30.7 0 1 1 61.4 0v46a61.46 61.46 0 0 1-61.4 61.4zM598.3 911.13H444.82a30.7 30.7 0 1 1 0-61.4H598.3a30.7 30.7 0 1 1 0 61.4z m0 0"
          fill="#333333"/>
    <path d="M644.37 732.74a30.7 30.7 0 0 1-12.31-58.83c92.78-40.55 150.43-132.21 150.43-239.24 0-143.88-117-260.93-260.93-260.93S260.63 290.8 260.63 434.68c0 107 57.65 198.68 150.43 239.23a30.7 30.7 0 0 1-24.58 56.26C271 679.7 199.24 566.47 199.24 434.68c0-177.74 144.6-322.33 322.32-322.33s322.32 144.59 322.32 322.33c0 131.79-71.75 245-187.24 295.49a30.68 30.68 0 0 1-12.27 2.57z m0 0"
          fill="#333333"/>
    <path d="M406.45 412h-54.53a20.83 20.83 0 0 1-20.65-23.57A176.89 176.89 0 0 1 482.65 237a20.83 20.83 0 0 1 23.56 20.66v54.54a99.88 99.88 0 0 0-99.76 99.8z m0 0"
          fill="#3CE4D6"/>
</svg>