<?xml version="1.0" standalone="no"?><!DOCTYPE svg PUBLIC "-//W3C//DTD SVG 1.1//EN"
        "http://www.w3.org/Graphics/SVG/1.1/DTD/svg11.dtd">
<svg class="icon" width="200px" height="200.00px" viewBox="0 0 1024 1024" version="1.1"
     xmlns="http://www.w3.org/2000/svg">
    <path d="M396.14 936.42a30 30 0 0 1-30-30V171.25a30 30 0 0 1 60 0v735.17a30 30 0 0 1-30 30zM204.5 767.57a30 30 0 0 1-30-30V340.11a30 30 0 0 1 60 0v397.46a30 30 0 0 1-30 30zM587.78 767.57a30 30 0 0 1-30-30V340.11a30 30 0 0 1 60 0v397.46a30 30 0 0 1-30 30z"
          fill="#333333"/>
    <path d="M837.14 349.73a29.86 29.86 0 0 1-16.59-5L489.62 124.58a30 30 0 1 1 33.22-50l330.94 220.16a30 30 0 0 1-16.64 55z"
          fill="#3CE4D6"/>
    <path d="M837.14 349.73a30 30 0 0 1-29.38-24.1l-23.7-117.85A30 30 0 1 1 842.88 196l23.7 117.85a30.05 30.05 0 0 1-29.44 35.92z"
          fill="#3CE4D6"/>
    <path d="M719.29 373.43a30 30 0 0 1-5.88-59.43l117.85-23.7a30 30 0 0 1 11.82 58.82l-117.84 23.7a30.33 30.33 0 0 1-5.95 0.61z"
          fill="#3CE4D6"/>
    <path d="M779.42 670.2a30 30 0 0 1-30-30V437.47a30 30 0 1 1 60 0V640.2a30 30 0 0 1-30 30z" fill="#333333"/>
</svg>