<?xml version="1.0" standalone="no"?><!DOCTYPE svg PUBLIC "-//W3C//DTD SVG 1.1//EN"
        "http://www.w3.org/Graphics/SVG/1.1/DTD/svg11.dtd">
<svg class="icon" width="200px" height="200.00px" viewBox="0 0 1024 1024" version="1.1"
     xmlns="http://www.w3.org/2000/svg">
    <path d="M536.416 688.672h-102.08v-74.176h117.248v56.64c15.952-17.568 33.488-22.352 66.992-17.568 0-31.904 0-66.992 0.8-85.344 2.4-83.744 47.04-97.296 73.376-97.296h0.8c48.64 0.8 80.56 51.84 82.144 98.896 0 5.6 1.6 17.552 3.2 29.52 4.784 3.184 3.2 2.4 13.552 7.968 17.552-2.4 42.272-2.4 64.608 15.152 3.2 0 6.384 0.8 8.768 0.8v-322.24c0-7.968 0-15.952-0.8-22.32v-28.72a64 64 0 0 0-63.792-63.808H725.44V127.952a14.304 14.304 0 0 0-14.368-14.352h-52.64a14.304 14.304 0 0 0-14.352 14.352v58.24H333.824v-59.84a12.592 12.592 0 0 0-12.752-12.752h-55.84a12.592 12.592 0 0 0-12.768 12.752v60.624h-76.56a64 64 0 0 0-63.808 63.808v491.328a68.592 68.592 0 0 0 68.592 68.592H570.72l-14.352-14.352c-32.704-31.904-40.688-75.776-19.952-107.68z m15.152-153.936h-116.448v-74.176h117.248v74.176h-0.8z m0-153.936h-116.448v-74.192h117.248V380.8h-0.8z m198.608 0H624.96v-74.192h125.216V380.8zM353.76 688.672h-126.016v-74.176h125.232v74.176h0.8z m0-153.936h-126.016v-74.176h125.232v74.176h0.8z m0-153.936h-126.016v-74.192h125.232V380.8h0.8z"
          fill="#51D9C2"/>
    <path d="M904.112 697.44c-7.168-11.168-19.136-19.136-31.104-16.752-6.384 1.6-19.136 0.8-29.504-8.768-10.368-9.568-21.536-7.968-36.688-5.584-5.6 0.8-10.368 0-22.336-5.584-12.768-6.384-18.352-1.6-29.52 4-2.4 1.584-14.352 4.768-20.736-0.8-7.168-5.6-15.152-75.776-15.152-90.944-0.8-22.32-14.352-44.656-27.12-45.456-12.752 0-16.752 13.552-18.336 43.072-0.8 27.12-1.6 102.08 0.8 133.2l1.6 39.088-19.152-10.368c-11.168-7.184-27.92-15.152-27.92-15.152-18.336-8.784-34.288-9.584-45.456 1.6-7.2 7.968-3.2 24.704 10.368 38.272 15.952 15.152 21.536 21.536 31.104 31.904 28.704 31.904 47.04 66.208 77.36 98.112C718.272 904.032 739.808 912 787.68 912c57.44 0 74.976-31.904 81.36-40.672 9.568-12.768 23.136-39.088 27.12-64.608 4-21.536 10.368-80.56 10.368-80.56 4-15.152 4.8-19.152-2.4-28.72z"
          fill="#B5F2EC"/>
</svg>