<?xml version="1.0" standalone="no"?><!DOCTYPE svg PUBLIC "-//W3C//DTD SVG 1.1//EN"
        "http://www.w3.org/Graphics/SVG/1.1/DTD/svg11.dtd">
<svg class="icon" width="200px" height="200.00px" viewBox="0 0 1024 1024" version="1.1"
     xmlns="http://www.w3.org/2000/svg">
    <path d="M942.288 699.52c-8.848-64.304-135.296-95.408-173.136-125.248-4.352-3.392-6.88-14.64-6.88-18.4 0-16.48 4.224-22.16 4.224-22.16s67.792-42.928 66.512-150.944c-1.84-45.824-30.432-127.504-118.496-127.504h-4.992c-19.008 0-34.944 3.6-48.576 9.504 18.832 63.088 41.488 178.848-53.776 256.384-37.376 55.728 87.104 88.384 67.776 79.712 112.64 50.608 142.96 89.44 151.232 129.632 6.912 33.504 10.8 54.016 10.8 54.016s84.4-12.896 106.224-29.264c0.944-17.856 3.728-37.152-0.912-55.728z"
          fill="#92DBFF"/>
    <path d="M574.928 576.096c-5.328-4.224-8.4-18.208-8.4-22.88 0-20.48 5.12-27.52 5.12-27.52-0.096 0.064 83.28-45.008 81.648-187.632-2.256-56.944-37.312-158.448-145.376-158.448h-6.144c-113.04 0-143.104 101.504-145.392 158.448-1.536 134.24 81.616 187.632 81.616 187.632s10.096 11.504 10.096 32c0 4.672-8 14.16-13.312 18.416-14.912 11.92-42.288 23.872-72.928 37.264-64.72 28.256-144.064 62.912-151.392 117.136a134.192 134.192 0 0 1-5.36 15.52c-12.8 33.024-29.184 75.216 112.288 93.792 45.44 5.952 107.2 9.472 190.528 9.472 338.528 0 315.52-58.032 298.32-101.488-2.24-5.664-4.384-11.072-5.616-16.064-7.376-54.304-87.536-89.552-152.72-118.208-30.72-13.504-58.112-25.552-72.976-37.44z"
          fill="#42B4FA"/>
    <path d="M398.144 575.52c15.28-9.6 27.04-29.408-1.36-53.648-93.952-135.376-59.744-225.344-45.488-259.216a112.016 112.016 0 0 0-40.992-7.36h-4.864c-89.92 0-113.824 81.76-115.632 127.632-1.216 108.16 64.896 151.152 64.896 151.152s4.128 5.68 4.128 22.192c0 3.76-2.448 15.008-6.688 18.432-11.504 9.312-31.392 18.752-53.584 29.28-48.992 23.248-109.184 51.808-115.104 96.112-3.68 14.992-2.608 30.432-1.6 45.232 0.24 3.568 0.48 7.12 0.656 10.592 20.16 15.488 84.736 28.608 84.736 28.608s5.376-16.288 10.8-43.232c8.048-39.776 61.872-104.192 193.536-153.92 1.376-0.528 2.816-1.04 4.304-1.584 6.368-2.272 13.76-4.928 22.256-10.272z"
          fill="#92DBFF"/>
</svg>