<?xml version="1.0" standalone="no"?><!DOCTYPE svg PUBLIC "-//W3C//DTD SVG 1.1//EN"
        "http://www.w3.org/Graphics/SVG/1.1/DTD/svg11.dtd">
<svg class="icon" width="200px" height="200.00px" viewBox="0 0 1024 1024" version="1.1"
     xmlns="http://www.w3.org/2000/svg">
    <path d="M744.768 149.504C744.768 128.8 727.408 112 705.968 112 684.528 112 667.2 128.8 667.2 149.504v74.992c0 20.704 17.344 37.504 38.784 37.504 21.44 0 38.8-16.8 38.8-37.504V149.504zM550.784 149.504C550.784 128.8 533.408 112 512 112c-21.408 0-38.8 16.8-38.8 37.504v74.992c0 20.704 17.392 37.504 38.8 37.504 21.408 0 38.784-16.8 38.784-37.504V149.504zM356.816 149.504C356.816 128.8 339.472 112 318.032 112c-21.44 0-38.8 16.8-38.8 37.504v74.992c0 20.704 17.36 37.504 38.8 37.504 21.44 0 38.784-16.8 38.784-37.504V149.504z"
          fill="#ADF0EA"/>
    <path d="M848.208 186.992h-64.64v37.504c0 41.44-34.752 75.008-77.6 75.008-42.848 0-77.584-33.568-77.584-75.008v-37.504h-38.8v37.504c0 41.44-34.72 75.008-77.584 75.008-42.848 0-77.584-33.568-77.584-75.008v-37.504h-38.8v37.504c0 41.44-34.72 75.008-77.584 75.008-42.848 0-77.6-33.568-77.6-75.008v-37.504h-64.64c-21.44 0-38.8 16.8-38.8 37.504v650C137.008 895.2 154.368 912 175.808 912h672.416c21.44 0 38.8-16.8 38.8-37.504V224.496c0-20.704-17.36-37.504-38.8-37.504zM350.496 792.16c0 17.568-14.496 31.792-32.32 31.792-17.904 0-32.368-14.224-32.368-31.792v-84.752c0-17.552 14.464-31.776 32.352-31.776 17.84 0 32.336 14.24 32.336 31.776v84.752z m129.408 0c0 17.568-14.48 31.792-32.336 31.792-17.888 0-32.368-14.224-32.368-31.792V622.64c0-17.552 14.48-31.776 32.368-31.776 17.856 0 32.336 14.24 32.336 31.776v169.504z m129.408 0c0 17.568-14.448 31.792-32.336 31.792-17.872 0-32.352-14.224-32.352-31.792V537.872c0-17.568 14.48-31.792 32.352-31.792 17.888 0 32.32 14.24 32.32 31.808v254.256z m129.44 0c0 17.568-14.48 31.792-32.368 31.792-17.856 0-32.352-14.224-32.352-31.792v-339.04c0-17.552 14.496-31.776 32.336-31.776 17.888 0 32.368 14.24 32.368 31.776v339.04z"
          fill="#3DD5BB"/>
</svg>