<?xml version="1.0" standalone="no"?><!DOCTYPE svg PUBLIC "-//W3C//DTD SVG 1.1//EN"
        "http://www.w3.org/Graphics/SVG/1.1/DTD/svg11.dtd">
<svg class="icon" width="200px" height="200.00px" viewBox="0 0 1024 1024" version="1.1"
     xmlns="http://www.w3.org/2000/svg">
    <path d="M511.78 915c-222.44 0-403.39-181-403.39-403.4s181-403.39 403.39-403.39 403.4 181 403.4 403.39S734.22 915 511.78 915z m0-744.73c-188.21 0-341.33 153.12-341.33 341.33s153.12 341.32 341.33 341.32S853.12 699.8 853.12 511.58 700 170.25 511.78 170.25z m0 0"
          fill="#333333"/>
    <path d="M713.91 543.53H310.09a32 32 0 1 1 0-64h403.82a32 32 0 1 1 0 64z" fill="#3CE4D6"/>
    <path d="M512 745.44a32 32 0 0 1-32-32V309.62a32 32 0 0 1 64 0v403.82a32 32 0 0 1-32 32z" fill="#3CE4D6"/>
</svg>