<?xml version="1.0" standalone="no"?><!DOCTYPE svg PUBLIC "-//W3C//DTD SVG 1.1//EN"
        "http://www.w3.org/Graphics/SVG/1.1/DTD/svg11.dtd">
<svg class="icon" width="200px" height="200.00px" viewBox="0 0 1024 1024" version="1.1"
     xmlns="http://www.w3.org/2000/svg">
    <path d="M560.35 730.17h-77.58V575a31 31 0 0 1 31-31h15.51a31 31 0 0 1 31 31z m0 0" fill="#3CE4D6"/>
    <path d="M789.89 865.78H253.35A81.46 81.46 0 0 1 172 784.41V493.79a81.46 81.46 0 0 1 81.37-81.37h536.52a81.46 81.46 0 0 1 81.37 81.37v290.62a81.46 81.46 0 0 1-81.37 81.37zM253.35 472.42A21.4 21.4 0 0 0 232 493.79v290.62a21.4 21.4 0 0 0 21.37 21.37h536.52a21.39 21.39 0 0 0 21.37-21.37V493.79a21.39 21.39 0 0 0-21.37-21.37z"
          fill="#333333"/>
    <path d="M692.4 472.42H350.84v-183c0-94.17 76.61-170.78 170.78-170.78S692.4 195.26 692.4 289.43z m-281.56-60H632.4v-123a110.78 110.78 0 1 0-221.56 0z"
          fill="#333333"/>
</svg>