<?xml version="1.0" standalone="no"?><!DOCTYPE svg PUBLIC "-//W3C//DTD SVG 1.1//EN"
        "http://www.w3.org/Graphics/SVG/1.1/DTD/svg11.dtd">
<svg class="icon" width="200px" height="200.00px" viewBox="0 0 1024 1024" version="1.1"
     xmlns="http://www.w3.org/2000/svg">
    <path d="M671.008 681.04h174.496c19.024 0 34.496 14.8 34.496 33.056v81.712c0 18.224-15.472 33.056-34.496 33.056H671.008v56.416c0 27.632-33.344 43.12-56 25.968l-141.344-124.016c-17.6-13.328-17.52-53.68 0.192-66.912l141.36-113.568c22.656-16.96 55.84-1.52 55.84 26.032v48.256h-0.048z"
          fill="#FECC87"/>
    <path d="M470.272 106.496l-313.28 286.4A39.872 39.872 0 0 0 144 422.32v383.2a79.76 79.76 0 0 0 79.76 79.76h285.12l-58.944-49.44a92.4 92.4 0 0 1-32.544-71.504 92.192 92.192 0 0 1 32.976-71.168l132.832-109.824a81.44 81.44 0 0 1 52.64-19.264c42.656 0 78.08 33.104 84.64 76.24h133.2c7.424 0 14.432 1.36 21.296 3.2V423.2a39.872 39.872 0 0 0-14.032-30.4L522.992 105.52a39.872 39.872 0 0 0-52.768 0.96l0.048 0.032z"
          fill="#FD9F55"/>
</svg>