<?xml version="1.0" standalone="no"?><!DOCTYPE svg PUBLIC "-//W3C//DTD SVG 1.1//EN"
        "http://www.w3.org/Graphics/SVG/1.1/DTD/svg11.dtd">
<svg class="icon" width="200px" height="200.00px" viewBox="0 0 1024 1024" version="1.1"
     xmlns="http://www.w3.org/2000/svg">
    <path d="M912 432a48 48 0 0 0-48-48H160a48 48 0 0 0-48 48v128a48 48 0 0 0 48 48v240a48 48 0 0 0 48 48h608a48 48 0 0 0 48-48V608a48 48 0 0 0 48-48v-128z"
          fill="#42B4FA"/>
    <path d="M490.752 152.448a48 48 0 0 1 55.696 38.8l24.208 135.28 83.216-141.184a48 48 0 0 1 65.728-16.96l110.272 64.992a48 48 0 0 1 16.96 65.728L796.8 384H190.832l-22.384-125.152a48 48 0 0 1 38.8-55.68l283.504-50.72z"
          fill="#92DBFF"/>
    <path d="M284.16 512h230.096c15.664 0 29.744 15.152 29.744 32 0 18.528-14.08 32-29.744 32h-230.08c-7.84 0-15.648-3.36-20.352-11.792-3.12-3.36-4.688-6.72-6.256-10.096-1.568-3.36-1.568-8.432-1.568-11.792 0-3.36 0-8.432 1.568-11.792 1.568-3.36 3.136-6.736 6.256-10.112 4.704-5.056 12.528-8.416 20.352-8.416z"
          fill="#FFFFFF"/>
</svg>