<?xml version="1.0" standalone="no"?><!DOCTYPE svg PUBLIC "-//W3C//DTD SVG 1.1//EN"
        "http://www.w3.org/Graphics/SVG/1.1/DTD/svg11.dtd">
<svg class="icon" width="200px" height="200.00px" viewBox="0 0 1024 1024" version="1.1"
     xmlns="http://www.w3.org/2000/svg">
    <path d="M910.944 702.192l-10.272 59.776a79.68 79.68 0 0 1-18.272 39.008 82.128 82.128 0 0 1-9.872 9.968l-11.568 67.52c-0.912 5.328-2.928 10.4-5.936 14.896a38.928 38.928 0 0 1-39.92 18l-39.168-7.056c-21.44-3.888-35.76-24.88-32-46.928l6.976-39.872-311.392-56.4-6.688 39.872c-3.84 22.08-24.32 36.8-45.824 32.88l-38.88-6.976a38.96 38.96 0 0 1-25.632-16.48 41.04 41.04 0 0 1-6.496-30.352l11.68-67.424a81.376 81.376 0 0 1-10.448-56.112l10.352-59.6c5.472-33.408 30.672-59.728 63.088-65.888l19.664-32.704 34.832-57.936a147.792 147.792 0 0 1 43.2-44.912 139.36 139.36 0 0 1 56.864-21.376 135.744 135.744 0 0 1 41.408 1.552l154.4 27.856a137.152 137.152 0 0 1 85.824 53.216 143.36 143.36 0 0 1 25.52 57.68l13.456 66.56 7.712 37.728c28 17.248 42.832 50.4 37.392 83.504zM448.448 335.056c0 17.968 14.16 32.512 31.632 32.512s31.632-14.544 31.632-32.512c0-17.936-14.16-32.48-31.632-32.48s-31.632 14.544-31.632 32.48z m41.904-60.848h-23.84L439.52 135.152c0-8.288 7.744-15.936 20.272-20.064a67.488 67.488 0 0 1 40.48 0c12.512 4.176 20.208 11.84 20.192 20.112l-30.112 138.992v0.016z"
          fill="#FC5787"/>
    <path d="M288.512 589.376l-10.24 59.872a124.112 124.112 0 0 0 0.752 43.744L238.88 733.44a10.88 10.88 0 0 1-12.704 2.24 11.504 11.504 0 0 1-6.224-11.632l10.736-98.688a12.032 12.032 0 0 0-2.768-8.944 11.36 11.36 0 0 0-8.224-4.032l-96.592-1.056c-10.368-0.192-15.168-13.84-6.784-20.416l75.408-62.208a10.992 10.992 0 0 0 1.024-16.448L125.12 441.44a11.552 11.552 0 0 1-2.128-13.024 10.96 10.96 0 0 1 11.328-6.224l95.936 10.928a11.104 11.104 0 0 0 8.64-2.864 11.776 11.776 0 0 0 3.792-8.448l0.832-99.168a11.392 11.392 0 0 1 7.52-10.752 10.944 10.944 0 0 1 12.352 3.792l60.24 77.68a11.12 11.12 0 0 0 16.576 1.168l68.8-69.664c7.536-7.552 20.064-1.168 18.928 9.664l-7.824 72.096c-3.072 4-5.968 8.16-8.656 12.48l-34.928 57.856-11.664 19.168c-39.696 15.04-68.704 50.496-76.32 93.264z"
          fill="#FFC2D8"/>
    <path d="M382.56 627.008c4.048-24 22.304-37.152 45.552-32.896 23.264 4.16 52.16 46.448 48.288 70.24-4.144 24-38.496 13.648-61.84 9.488-23.328-4.16-36.224-23.04-32-46.832zM774.624 530.928l13.76 66.56-94.72-16.928-216.4-39.472 34.832-57.968c12.848-21.12 36.896-32.16 60.8-27.856l154.288 28.16a59.584 59.584 0 0 1 41.504 30.288c2.784 5.424 4.8 11.216 5.92 17.216zM748.56 713.6c4.128-23.712 45.28-53.408 68.608-49.248 23.248 4.352 35.968 23.024 31.92 47.024-4.048 24-22.4 37.04-45.568 32.688-23.52-4.144-59.2-6.464-54.96-30.464z"
          fill="#FFFFFF"/>
</svg>