<?xml version="1.0" standalone="no"?><!DOCTYPE svg PUBLIC "-//W3C//DTD SVG 1.1//EN"
        "http://www.w3.org/Graphics/SVG/1.1/DTD/svg11.dtd">
<svg class="icon" width="200px" height="200.00px" viewBox="0 0 1024 1024" version="1.1"
     xmlns="http://www.w3.org/2000/svg">
    <path d="M89.6 217.386667m127.786667 0l597.76 0q127.786667 0 127.786666 127.786666l0 469.76q0 127.786667-127.786666 127.786667l-597.76 0q-127.786667 0-127.786667-127.786667l0-469.76q0-127.786667 127.786667-127.786666Z"
          fill="#839BFB"/>
    <path d="M325.76 341.333333a59.093333 59.093333 0 0 1-58.88-58.88V163.2a59.093333 59.093333 0 0 1 117.973333 0v119.253333A59.093333 59.093333 0 0 1 325.76 341.333333z"
          fill="#C0CEF9"/>
    <path d="M325.76 125.653333A37.546667 37.546667 0 0 1 362.666667 163.2v119.253333a37.76 37.76 0 0 1-75.306667 0V163.2a37.546667 37.546667 0 0 1 37.546667-37.546667m0-42.666666a80.426667 80.426667 0 0 0-80.213334 80.213333v119.253333a80.426667 80.426667 0 0 0 160.64 0V163.2a80.426667 80.426667 0 0 0-80.426666-80.213333z"
          fill="#FFFFFF"/>
    <path d="M712.746667 341.333333a59.093333 59.093333 0 0 1-58.88-58.88V163.2a59.093333 59.093333 0 0 1 117.973333 0v119.253333A59.093333 59.093333 0 0 1 712.746667 341.333333z"
          fill="#C0CEF9"/>
    <path d="M712.746667 125.653333a37.546667 37.546667 0 0 1 37.76 37.546667v119.253333a37.76 37.76 0 0 1-75.306667 0V163.2a37.546667 37.546667 0 0 1 37.546667-37.546667m0-42.666666a80.426667 80.426667 0 0 0-80.213334 80.213333v119.253333a80.426667 80.426667 0 0 0 160.64 0V163.2a80.426667 80.426667 0 0 0-80.426666-80.213333z"
          fill="#FFFFFF"/>
    <path d="M299.52 536.32m32 0l362.666667 0q32 0 32 32l0 0q0 32-32 32l-362.666667 0q-32 0-32-32l0 0q0-32 32-32Z"
          fill="#FFFFFF"/>
    <path d="M299.52 685.653333m32 0l362.666667 0q32 0 32 32l0 0q0 32-32 32l-362.666667 0q-32 0-32-32l0 0q0-32 32-32Z"
          fill="#FFFFFF"/>
</svg>