<?xml version="1.0" standalone="no"?><!DOCTYPE svg PUBLIC "-//W3C//DTD SVG 1.1//EN"
        "http://www.w3.org/Graphics/SVG/1.1/DTD/svg11.dtd">
<svg class="icon" width="200px" height="200.00px" viewBox="0 0 1024 1024" version="1.1"
     xmlns="http://www.w3.org/2000/svg">
    <path d="M198.992 626.592l36.56-26.016c58.32-41.696 121.568-67.712 196.432-62.96 70.512 4.448 141.296 5.12 211.904 8.016 46.608 1.936 93.52 3.968 125.152 43.52a523.488 523.488 0 0 1 47.776-27.648c12.768-5.808 16.544-13.152 16.336-26.128-0.672-57.344 0.88-114.8-1.056-172.16a67.52 67.52 0 0 0-17.792-41.568c-64.896-64.8-131.84-127.472-197.392-191.504a60.528 60.528 0 0 0-46.336-17.888c-85.696 0.48-171.28 0-256.96 0.288-69.456 0.384-115.776 46.32-116.16 113.248v378.256c0.288 6.4 0.96 12.768 1.536 22.544z m395.472-439.104l153.68 147.984h-153.68v-147.968z"
          fill="#C7B0FF"/>
    <path d="M895.248 618.848a136.352 136.352 0 0 0-59.28 15.376c-28.912 16.064-55.328 37.152-82.688 56.192-24.864 17.408-51.552 28.928-83.68 27.184-49.024-5.04-98.352-9.488-147.2-15.76-7.152-0.96-13.136-10.256-19.712-15.776 7.632-5.12 14.688-13.536 23.104-14.688 23.792-3.488 48.272-3.488 72.544-5.424 31.232-2.608 62.56-4.928 93.52-9.584 6.88-1.056 12.288-11.2 18.384-17.408a141.856 141.856 0 0 0-19.536-16.912c-5.12-1.936-10.64-2.72-16.16-2.128-67.52-3.104-135.392-2.512-202.624-10.16-87.712-10.064-159.68 17.6-224.176 72.448-15.968 13.44-14.896 21.664-0.288 33.84 36.848 30.56 73.696 61.328 109.472 93.04 13.344 11.616 24.768 12.576 39.952 4.448 29.12-15.76 62.08-22.72 95.072-20.112 47.776 3.392 95.648 6.768 143.52 6.48 24.368 0 53.008-1.92 72.352-13.92 64.4-40.16 125.44-85.312 187.52-128.736 4.256-3.392 7.84-7.456 10.736-12 10.64-14.688 6.88-26.976-10.832-26.4zM330.432 823.696c-33.072-28.432-66.352-57.44-100-85.696-45.856-38.576-36.848-39.072-86.464-2.8-4.944 3.68-10.08 7.152-15.088 10.832-20.992 15.472-22.544 24.176-3.872 41.392a6073.008 6073.008 0 0 0 118.48 106.192c6.384 4.352 13.344 7.936 20.592 10.64 6.576-2.8 12.96-6.192 19.152-9.856 15.68-11.216 31.04-23.12 46.32-34.72 17.712-13.744 17.808-21.28 0.88-35.984z"
          fill="#9076F8"/>
</svg>