<?xml version="1.0" standalone="no"?><!DOCTYPE svg PUBLIC "-//W3C//DTD SVG 1.1//EN"
        "http://www.w3.org/Graphics/SVG/1.1/DTD/svg11.dtd">
<svg class="icon" width="200px" height="200.00px" viewBox="0 0 1024 1024" version="1.1"
     xmlns="http://www.w3.org/2000/svg">
    <path d="M510.32 498.64A196.576 196.576 0 0 0 644.8 311.68c0-108.24-88.56-196.8-196.8-196.8-108.24 0-196.8 88.56-196.8 196.8a196.592 196.592 0 0 0 134.48 186.96C246.272 526.512 120 644.592 120 787.28a114.08 114.08 0 0 0 114.8 114.8h426.4a114.08 114.08 0 0 0 114.8-114.8c0-142.688-126.288-260.768-265.68-288.64z"
          fill="#FD9F55"/>
    <path d="M719.92 541.12c-101.6 0.048-183.92 82.448-183.92 184.048 0 101.6 82.352 183.952 183.952 183.952s184-82.304 184.048-183.92c0-48.816-19.36-95.68-53.888-130.192a183.856 183.856 0 0 0-130.192-53.888z m105.6 136.288l-119.088 119.008a16.64 16.64 0 0 1-23.936 0l-68.496-68.48A16.928 16.928 0 0 1 637.92 704l56.8 56.8 107.2-106.8a16.928 16.928 0 0 1 23.936 23.936l-0.352-0.528z"
          fill="#FECC87"/>
    <path d="M825.52 677.408l-119.088 119.008a16.64 16.64 0 0 1-23.936 0l-68.496-68.48A16.928 16.928 0 0 1 637.92 704l56.8 56.8 107.2-106.8a16.928 16.928 0 0 1 23.936 23.936l-0.352-0.528z"
          fill="#FFFFFF"/>
</svg>