<?xml version="1.0" standalone="no"?><!DOCTYPE svg PUBLIC "-//W3C//DTD SVG 1.1//EN"
        "http://www.w3.org/Graphics/SVG/1.1/DTD/svg11.dtd">
<svg class="icon" width="200px" height="200.00px" viewBox="0 0 1024 1024" version="1.1"
     xmlns="http://www.w3.org/2000/svg">
    <path d="M800 425.6h-20.048a55.952 55.952 0 0 0-8.752-11.92L610.32 252.8C593.616 236.096 564.416 224 540.8 224H310.4c-27.248 0-55.872 18.88-66.64 43.952l-63.712 148.656c-1.264 3.008-0.864 5.936-1.6 8.992H137.6A57.6 57.6 0 0 0 80 483.2v129.6c0 32.832 16.192 62.496 44.48 81.44a28.688 28.688 0 0 0 44.336-18.656A129.44 129.44 0 0 1 296 569.6c66.928 0 122.112 50.624 128.272 117.856A28.8 28.8 0 0 0 452.96 713.6h146.944a28.8 28.8 0 0 0 28.672-26.144A128.496 128.496 0 0 1 756.8 569.6c61.632 0 115.088 43.952 127.072 104.432a28.704 28.704 0 0 0 41.872 19.68c5.296-2.832 9.6-7.264 12.272-12.656 3.872-7.808 5.92-16.4 5.984-25.12V569.6c0-79.36-64.64-144-144-144z m-230.4-132.08l132.016 132.08H483.2v-144h57.6c8.24 0 22.976 6.112 28.8 11.92z m-272.848-2.928c1.664-3.92 9.328-8.992 13.648-8.992h115.2v144H238.864l57.888-135.008z"
          fill="#FD9F55"/>
    <path d="M195.2 699.2a100.8 100.8 0 1 0 201.6 0 100.8 100.8 0 0 0-201.6 0zM656 699.2a100.8 100.8 0 1 0 201.6 0 100.8 100.8 0 0 0-201.6 0z"
          fill="#FECC87"/>
</svg>