<?xml version="1.0" standalone="no"?><!DOCTYPE svg PUBLIC "-//W3C//DTD SVG 1.1//EN"
        "http://www.w3.org/Graphics/SVG/1.1/DTD/svg11.dtd">
<svg class="icon" width="200px" height="200.00px" viewBox="0 0 1024 1024" version="1.1"
     xmlns="http://www.w3.org/2000/svg">
    <path d="M886.048 692.304a43.056 43.056 0 0 0-30-10.752 133.376 133.376 0 0 0-67.616 24.32c-72.144 45.28-112.032 67.904-155.04 68.192a202.768 202.768 0 0 1-76.096-18.112 783.36 783.36 0 0 1-85.44-36.48 79.888 79.888 0 0 1-17.552-11.888l-9.328-9.616 11.312-16.128 5.376-1.712a52.544 52.544 0 0 1 18.672-2.816 367.2 367.2 0 0 1 88.832 19.792c14.144 4.256 27.728 8.208 38.192 11.04 7.088 1.696 14.432 2.56 21.504 2.56a53.824 53.824 0 0 0 59.696-47.536v-0.576c0.288-27.44-25.456-48.096-65.632-58-21.792-5.376-40.176-10.464-57.152-14.992a415.408 415.408 0 0 0-114.304-20.64c-15.264 0-30.832 1.408-46.112 3.68-66.192 9.6-160.128 59.12-263.104 138.624-2.272 1.968-4.816 3.68-7.648 5.36l-6.512 3.968c-3.104 48.096 65.36 150.8 110.336 164.656 2.272-0.848 4.256-1.696 6.512-2.832l2.272-1.12a459.36 459.36 0 0 1 38.752-10.192 425.872 425.872 0 0 1 90.816-10.464c29.152 1.984 57.712 7.92 85.168 18.4a429.04 429.04 0 0 0 134.384 26.016c89.68 0 153.904-48.096 205.68-86.288 14.72-11.6 29.984-22.08 45.824-31.968a85.232 85.232 0 0 0 48.096-68.752c0.576-9.344-3.104-18.672-9.888-25.76z"
          fill="#C7B0FF"/>
    <path d="M451.76 537.824c22.64 0.288 45.28 2.832 67.344 7.92v-46.4h-77.248a21.44 21.44 0 0 1-18.96-10.176 21.44 21.44 0 0 1 0-21.792 20.32 20.32 0 0 1 18.96-10.176h77.52v-37.632h-77.52a21.44 21.44 0 0 1-18.96-10.176 21.44 21.44 0 0 1 0-21.792 20.32 20.32 0 0 1 18.96-10.192h37.344l-37.344-77.232a20.992 20.992 0 0 1 9.344-28h0.56a21.504 21.504 0 0 1 28.288 9.6l46.4 95.92h22.64l46.4-95.904c5.376-10.48 18.096-15.008 28.576-9.92 5.088 2.272 9.056 6.8 10.752 11.888 1.968 5.376 1.696 11.04-0.848 16.128l-37.632 77.248h42.72a21.152 21.152 0 0 1 20.08 21.216c0 11.312-8.768 20.64-20.08 21.216h-77.248v37.632h77.248c11.312 0.56 20.368 9.904 20.08 21.216 0 11.312-8.768 20.64-20.08 21.216h-77.248v56.864l13.024 3.392c15.84 4.528 34.8 9.344 56.016 14.72 55.168 13.008 89.968 48.096 90.24 88.832a75.488 75.488 0 0 1-26.304 56.304 320.384 320.384 0 0 0 164.656-315.168C845.6 275.84 755.328 168.32 631.12 131.84a319.584 319.584 0 0 0-339.2 106.656c-81.2 100.432-93.376 240.208-31.408 353.936 0.56 0.848 0.848 1.696 1.408 2.256a444.848 444.848 0 0 1 139.2-53.184 377.856 377.856 0 0 1 50.64-3.68z"
          fill="#9076F8"/>
</svg>