<?xml version="1.0" standalone="no"?><!DOCTYPE svg PUBLIC "-//W3C//DTD SVG 1.1//EN"
        "http://www.w3.org/Graphics/SVG/1.1/DTD/svg11.dtd">
<svg class="icon" width="200px" height="200.00px" viewBox="0 0 1024 1024" version="1.1"
     xmlns="http://www.w3.org/2000/svg">
    <path d="M574.496 722.496H499.52a37.504 37.504 0 0 1-37.504-37.488V272.48a37.488 37.488 0 0 1 37.504-37.488h74.992a37.488 37.488 0 0 1 37.504 37.488v412.512a37.504 37.504 0 0 1-37.504 37.488zM187.008 760h687.488a37.488 37.488 0 1 1 0 75.008H149.504A37.504 37.504 0 0 1 112 797.488v-600a37.504 37.504 0 1 1 75.008 0V760z m174.992-37.504h-75.008a37.504 37.504 0 0 1-37.488-37.488v-75.008a37.504 37.504 0 0 1 37.504-37.504h74.992a37.504 37.504 0 0 1 37.504 37.504v75.008a37.504 37.504 0 0 1-37.504 37.488z"
          fill="#42B4FA"/>
    <path d="M712 722.496h75.008a37.504 37.504 0 0 0 37.488-37.488V422.48a37.504 37.504 0 0 0-37.488-37.488H712a37.504 37.504 0 0 0-37.504 37.488v262.512a37.504 37.504 0 0 0 37.504 37.488z"
          fill="#92DBFF"/>
</svg>