<?xml version="1.0" standalone="no"?><!DOCTYPE svg PUBLIC "-//W3C//DTD SVG 1.1//EN"
        "http://www.w3.org/Graphics/SVG/1.1/DTD/svg11.dtd">
<svg class="icon" width="200px" height="200.00px" viewBox="0 0 1024 1024" version="1.1"
     xmlns="http://www.w3.org/2000/svg">
    <path d="M785.62 841.17H333.7a64.54 64.54 0 0 1-64.47-64.47V735h60v41.7a4.48 4.48 0 0 0 4.47 4.47h451.92a4.47 4.47 0 0 0 4.47-4.47V324.78a4.48 4.48 0 0 0-4.47-4.48h-41.73v-60h41.73a64.55 64.55 0 0 1 64.47 64.48V776.7a64.54 64.54 0 0 1-64.47 64.47z"
          fill="#333333"/>
    <path d="M709.42 765H257.5a64.54 64.54 0 0 1-64.5-64.5V248.58a64.55 64.55 0 0 1 64.5-64.48h451.92a64.55 64.55 0 0 1 64.47 64.48V700.5a64.54 64.54 0 0 1-64.47 64.5zM257.5 244.1a4.48 4.48 0 0 0-4.47 4.48V700.5a4.47 4.47 0 0 0 4.47 4.5h451.92a4.47 4.47 0 0 0 4.47-4.47V248.58a4.48 4.48 0 0 0-4.47-4.48z"
          fill="#3CE4D6"/>
</svg>