<?xml version="1.0" standalone="no"?><!DOCTYPE svg PUBLIC "-//W3C//DTD SVG 1.1//EN"
        "http://www.w3.org/Graphics/SVG/1.1/DTD/svg11.dtd">
<svg class="icon" width="200px" height="200.00px" viewBox="0 0 1024 1024" version="1.1"
     xmlns="http://www.w3.org/2000/svg">
    <path d="M128 368v400c0 70.4 57.6 128 128 128h512c70.4 0 128-57.6 128-128V368H128z m214.4 240l43.2 43.2c12.8 12.8 14.4 35.2 0 46.4-4.8 4.8-12.8 6.4-19.2 6.4-8 0-14.4-3.2-20.8-8l-62.4-60.8c-14.4-14.4-14.4-36.8 0-51.2l62.4-64c9.6-9.6 24-12.8 35.2-8 19.2 9.6 22.4 33.6 8 48l-46.4 48z m240-105.6l-110.4 276.8c-4.8 11.2-16 19.2-27.2 19.2-3.2 0-8 0-11.2-1.6-14.4-6.4-22.4-22.4-16-38.4L526.4 480c6.4-14.4 22.4-22.4 38.4-16 16 4.8 22.4 22.4 17.6 38.4z m160 126.4l-62.4 64c-9.6 9.6-24 12.8-35.2 8-19.2-9.6-22.4-33.6-8-48l46.4-48-43.2-43.2c-12.8-12.8-14.4-35.2 0-46.4 4.8-4.8 12.8-6.4 19.2-6.4 8 0 14.4 3.2 20.8 8l62.4 60.8c12.8 14.4 12.8 36.8 0 51.2z"
          fill="#42B4FA"/>
    <path d="M768 128H256c-70.4 0-128 57.6-128 128v64h768v-64c0-70.4-57.6-128-128-128z m-256 142.4c-25.6 0-46.4-20.8-46.4-46.4 0-25.6 20.8-46.4 46.4-46.4 25.6 0 46.4 20.8 46.4 46.4 0 25.6-20.8 46.4-46.4 46.4z m140.8 0c-25.6 0-46.4-20.8-46.4-46.4 0-25.6 20.8-46.4 46.4-46.4 25.6 0 46.4 20.8 46.4 46.4 0 25.6-20.8 46.4-46.4 46.4z m139.2 0c-25.6 0-46.4-20.8-46.4-46.4 0-25.6 20.8-46.4 46.4-46.4 25.6 0 46.4 20.8 46.4 46.4 1.6 25.6-20.8 46.4-46.4 46.4z"
          fill="#92DBFF"/>
</svg>