<?xml version="1.0" standalone="no"?><!DOCTYPE svg PUBLIC "-//W3C//DTD SVG 1.1//EN"
        "http://www.w3.org/Graphics/SVG/1.1/DTD/svg11.dtd">
<svg class="icon" width="200px" height="200.00px" viewBox="0 0 1024 1024" version="1.1"
     xmlns="http://www.w3.org/2000/svg">
    <path d="M456.48 602.47l-110.89-124a24.68 24.68 0 0 1 1.94-34.85l38.86-34.75 94.51 105.7 178.35-182.45 37.26 36.44a24.67 24.67 0 0 1 0.4 34.9l-195.56 200a30.71 30.71 0 0 1-44.87-1z m0 0"
          fill="#3CE4D6"/>
    <path d="M510.22 870.9a124.59 124.59 0 0 1-86.4-34.76L286.43 704.75a388.74 388.74 0 0 1-120-280.92V271.92a77.93 77.93 0 0 1 51.7-73.27l266-94.7a78.07 78.07 0 0 1 52.16 0l266.05 94.7A77.93 77.93 0 0 1 854 271.92v151.91a388.63 388.63 0 0 1-120 280.92L596.62 836.14a124.65 124.65 0 0 1-86.4 34.76z m-6-710.42l-266 94.69a17.82 17.82 0 0 0-11.82 16.75v151.91a330.24 330.24 0 0 0 101.5 237.55l137.39 131.4a64.88 64.88 0 0 0 89.86 0l137.38-131.4A330.24 330.24 0 0 0 794 423.83V271.92a17.81 17.81 0 0 0-11.81-16.75l-266.01-94.69a17.8 17.8 0 0 0-11.92 0z"
          fill="#333333"/>
</svg>