<?xml version="1.0" standalone="no"?><!DOCTYPE svg PUBLIC "-//W3C//DTD SVG 1.1//EN"
        "http://www.w3.org/Graphics/SVG/1.1/DTD/svg11.dtd">
<svg class="icon" width="200px" height="200.00px" viewBox="0 0 1024 1024" version="1.1"
     xmlns="http://www.w3.org/2000/svg">
    <path d="M317.312 295.472l125.36-94.336c34.88-25.856 80.128-32.32 120.176-16.8l200.32 74.944a110.304 110.304 0 0 0 40.064 7.76h33.6c9.04 0 18.08 7.744 18.08 16.8v244.24c0 9.04-7.744 18.08-18.08 18.08h-43.952c-6.464 0-12.912 2.592-16.8 6.48l-9.04 7.744c-2.576 2.592-6.464 1.296-7.76-1.28L525.376 277.36c-6.464-7.76-16.8-9.056-24.544-3.872l-107.264 59.44c-21.968 11.632-46.528 12.928-69.792 3.872-11.632-5.168-18.08-19.376-12.928-31.008 1.296-5.168 3.888-7.76 6.464-10.336zM153.2 544.88h37.472l27.136-32.32c23.264-28.416 65.92-32.288 94.336-9.04a72.752 72.752 0 0 1 21.968 33.6c23.264 6.464 40.064 23.264 46.528 46.528 16.8 5.168 31.024 15.52 38.768 31.008a70.08 70.08 0 0 1 37.472 19.392c21.968 21.968 25.856 56.864 9.056 82.72l-3.872 6.448v1.28c18.08 11.648 41.344 7.776 54.272-9.024 6.464-9.056 7.744-19.392 6.464-29.728v-1.28h1.28l2.592 2.56c12.928 12.928 34.88 15.52 50.4 5.184 12.928-9.056 18.08-24.56 15.52-38.768v-1.296h1.28l2.592 2.576c12.912 12.928 33.6 15.52 50.4 5.168 12.912-9.04 19.376-24.544 16.8-38.768h1.28l2.592 2.592c12.928 12.928 32.304 14.208 46.528 6.464 18.08-10.336 24.544-34.896 12.912-52.992-1.28-2.576-2.576-3.872-3.872-6.464l-24.56-27.136-191.264-230.032c-2.576-2.576-5.168-2.576-7.744-1.28l-91.76 50.4c-29.728 15.504-64.608 19.376-95.632 7.744-18.08-6.464-31.008-19.376-37.472-36.176a65.408 65.408 0 0 1 6.464-51.696c2.576-3.872 1.28-9.056-3.872-11.632-1.296-1.28-2.592-1.28-3.888-1.28H149.312a15.712 15.712 0 0 0-18.08 15.488v242.96c3.872 9.04 11.632 16.8 21.968 16.8z m131.808-18.08c-14.208-7.76-32.32-3.888-42.64 9.04l-25.856 31.008c-11.616 14.224-9.04 34.88 3.888 45.232h1.28l3.888 2.576a33.408 33.408 0 0 0 36.176 2.592c1.296-1.28 1.296 0 2.592 1.28v2.592c-2.592 11.632 2.576 24.56 11.632 31.024l2.576 2.576a34.08 34.08 0 0 0 34.896 3.888c1.28-1.296 2.592 0 2.592 1.28v1.296c-1.296 10.336 3.872 21.968 12.912 29.728l2.592 1.28c10.336 7.76 23.264 9.056 34.88 2.592 1.296-1.28 2.592 0 2.592 1.296v1.28c1.28 7.76 6.464 15.52 12.928 20.688l1.28 1.28c14.24 10.352 34.896 9.056 46.528-6.448 1.296-1.28 2.592-2.592 2.592-3.872l3.872-7.76c7.76-14.208 6.464-31.008-6.464-41.36-9.04-9.04-23.264-10.336-36.176-6.448-1.296 0-1.296 0-1.296-1.296v-1.28c1.28-18.112-12.928-32.32-31.024-34.912-3.872 0-9.04 1.296-12.912 2.592-5.168 1.28-3.872-3.872-3.872-3.872 6.448-16.8-1.296-34.896-18.096-42.656-9.056-3.872-19.392-2.576-28.432 1.28-3.872 1.312-2.592-2.56-2.592-2.56 10.336-15.52 5.168-34.896-10.336-43.952zM125.968 778.192h729.808c11.616 0 17.424 5.808 17.424 17.424v35.008c0 11.632-5.808 17.44-17.44 17.44H125.984c-11.616 0-17.44-5.808-17.44-17.44v-35.008c0-11.616 5.824-17.44 17.44-17.44z"
          fill="#FB6F5C"/>
    <path d="M798.096 507.936h-131.2a51.952 51.952 0 0 0-44.944 25.952l-65.584 113.6a51.84 51.84 0 0 0 0 51.92l65.6 113.632a51.968 51.968 0 0 0 44.928 25.968h131.2a51.92 51.92 0 0 0 44.944-25.968l65.488-113.632a52.048 52.048 0 0 0 0-51.92l-65.632-113.6a51.904 51.904 0 0 0-44.8-25.952z"
          fill="#FEAFA0"/>
    <path d="M732.528 776.88a103.504 103.504 0 1 1 0-206.992 103.504 103.504 0 0 1 0 206.992z m0-153.36a49.904 49.904 0 1 0 0 99.808 49.904 49.904 0 0 0 0-99.808z"
          fill="#FFFFFF"/>
</svg>