<?xml version="1.0" standalone="no"?><!DOCTYPE svg PUBLIC "-//W3C//DTD SVG 1.1//EN"
        "http://www.w3.org/Graphics/SVG/1.1/DTD/svg11.dtd">
<svg class="icon" width="200px" height="200.00px" viewBox="0 0 1024 1024" version="1.1"
     xmlns="http://www.w3.org/2000/svg">
    <path d="M309.152 139.744h495.424c60.96 0 91.424 30.48 91.424 91.424v561.648c0 60.96-30.48 91.424-91.424 91.424H309.152c-60.96 0-91.424-30.48-91.424-91.424V231.168c0-60.944 30.48-91.424 91.424-91.424z"
          fill="#FD9F55"/>
    <path d="M285.312 357.52H173.92a45.92 45.92 0 0 1 0-91.84h111.408a45.92 45.92 0 1 1 0 91.84z m0 199.888H173.92a45.92 45.92 0 0 1 0-91.84h111.408a45.92 45.92 0 1 1 0 91.84z m0 199.888H173.92a45.92 45.92 0 0 1 0-91.84h111.408a45.888 45.888 0 0 1 42.416 63.488 45.936 45.936 0 0 1-42.432 28.352z"
          fill="#FECC87"/>
    <path d="M663.952 532.608v-56.224h-55.68l93.184-93.184-39.76-39.76-88.368 88.368-88.352-88.368-39.76 39.76 93.184 93.184h-55.68v56.224h62.496v45.312h-65.952v56.224h65.952v48.368h56.24v-48.368h59.04V577.92h-59.04v-45.312h62.496z"
          fill="#FFFFFF"/>
</svg>