<?xml version="1.0" standalone="no"?><!DOCTYPE svg PUBLIC "-//W3C//DTD SVG 1.1//EN"
        "http://www.w3.org/Graphics/SVG/1.1/DTD/svg11.dtd">
<svg class="icon" width="200px" height="200.00px" viewBox="0 0 1024 1024" version="1.1"
     xmlns="http://www.w3.org/2000/svg">
    <path d="M709.92 153.6a61.712 61.712 0 0 0-43.632-18.08H357.712a61.712 61.712 0 0 0-61.712 61.712V382.4a61.712 61.712 0 0 0 61.712 61.712h120.352v70.96H215.776a52.416 52.416 0 0 0-52.464 52.464v86.4h67.888v-70.976h246.864v70.976h67.872v-70.976h246.8l0.064 70.976h67.888v-86.4a52.416 52.416 0 0 0-52.464-52.464H545.936v-70.96h120.352a61.728 61.728 0 0 0 61.712-61.712V197.232A61.712 61.712 0 0 0 709.92 153.6z"
          fill="#3DD5BB" opacity=".9"/>
    <path d="M860.688 653.92H758.864a49.376 49.376 0 0 0-49.376 49.376v135.76a49.376 49.376 0 0 0 49.376 49.376h135.76A49.376 49.376 0 0 0 944 839.056v-135.76a49.376 49.376 0 0 0-49.376-49.376h-33.936z"
          fill="#ADF0EA" opacity=".9"/>
    <path d="M545.936 653.92h-101.824a49.376 49.376 0 0 0-49.376 49.376v135.76a49.376 49.376 0 0 0 49.376 49.376h135.776a49.376 49.376 0 0 0 49.376-49.376v-135.76a49.376 49.376 0 0 0-49.376-49.376H545.92zM231.2 653.92H129.376A49.376 49.376 0 0 0 80 703.296v135.76a49.376 49.376 0 0 0 49.376 49.376h135.76a49.376 49.376 0 0 0 49.376-49.376v-135.76a49.376 49.376 0 0 0-49.376-49.376H231.2z"
          fill="#3DD5BB" opacity=".9"/>
</svg>