<?xml version="1.0" standalone="no"?><!DOCTYPE svg PUBLIC "-//W3C//DTD SVG 1.1//EN"
        "http://www.w3.org/Graphics/SVG/1.1/DTD/svg11.dtd">
<svg class="icon" width="200px" height="200.00px" viewBox="0 0 1024 1024" version="1.1"
     xmlns="http://www.w3.org/2000/svg">
    <path d="M396.96 558.24l129.488 128.384a14.288 14.288 0 0 0 20.128 0L818.4 419.136a336.848 336.848 0 0 1 36.448 152.864C854.848 759.712 701.312 912 512 912S169.12 759.712 169.12 572 322.688 232 512 232a343.424 343.424 0 0 1 225.024 83.424L536.64 512.48l-46.736-46.4a66 66 0 0 0-92.912 0 64.832 64.832 0 0 0 0 92.16zM634.192 126.272a14.4 14.4 0 0 0-14.4-14.288H387.824c-7.936 0-14.4 6.4-14.4 14.288v48.96a14.4 14.4 0 0 0 14.352 14.288h232a14.4 14.4 0 0 0 14.4-14.272V126.288z"
          fill="#9076F8"/>
    <path d="M825.648 322.064a36.672 36.672 0 0 1-0.272 51.824l-276.64 274a14.288 14.288 0 0 1-20.16 0l-108.352-108.4a36.64 36.64 0 0 1 51.84-51.776l66.72 66.8 235.04-232.8a36.64 36.64 0 0 1 51.84 0.224v0.128z"
          fill="#C7B0FF"/>
</svg>