<?xml version="1.0" standalone="no"?><!DOCTYPE svg PUBLIC "-//W3C//DTD SVG 1.1//EN"
        "http://www.w3.org/Graphics/SVG/1.1/DTD/svg11.dtd">
<svg class="icon" width="200px" height="200.00px" viewBox="0 0 1024 1024" version="1.1"
     xmlns="http://www.w3.org/2000/svg">
    <path d="M562.176 575.168c0 109.712 89.056 199.248 199.264 199.248 33.456 0 64.96-8.352 92.496-23.12v-176.64l-17.216 16.736a11.712 11.712 0 0 0-3.44 10.336l11.808 68.88c1.472 9.36-8.368 16.736-16.736 11.808l-61.984-32.96a10.656 10.656 0 0 0-10.832 0l-61.984 32.96c-8.368 4.432-18.208-2.944-16.736-11.808l11.808-68.88a11.728 11.728 0 0 0-3.44-10.336l-50.672-49.2c-6.896-6.4-3.456-18.192 6.4-19.68l69.36-10.32c3.936-0.496 6.88-2.96 8.864-6.4l30.992-62.976a10.848 10.848 0 0 1 19.68 0l30.992 62.976a13.232 13.232 0 0 0 8.864 6.4l42.8 6.4v-119.568c-27.552-14.752-59.04-22.64-92.496-22.64-108.736-0.48-197.792 88.576-197.792 198.784z"
          fill="#FFA4A4"/>
    <path d="M761.44 824.608c-137.76 0-249.44-111.68-249.44-249.44s111.68-249.44 249.44-249.44c32.96 0 63.968 6.384 92.496 17.696V147.616a40 40 0 0 0-39.84-39.856H209.888a40 40 0 0 0-39.84 39.84v720.32a40 40 0 0 0 39.84 39.84H814.08c22.144 0 40.352-17.712 39.856-39.84V806.4a242.224 242.224 0 0 1-92.48 18.208zM254.176 268.64H544.48a28.56 28.56 0 0 1 0 57.072H254.176a28.56 28.56 0 0 1 0-57.072z m116.608 375.888h-116.592a28.56 28.56 0 0 1 0-57.072h116.592c15.744 0 28.544 12.8 28.544 28.544 0 15.248-12.8 28.528-28.544 28.528z m88.56-160.88H254.192c-15.76 0-28.544-12.8-28.544-28.528 0-15.744 12.8-28.544 28.544-28.544h205.152a28.56 28.56 0 0 1 0 57.072z"
          fill="#F66462"/>
</svg>