<?xml version="1.0" standalone="no"?><!DOCTYPE svg PUBLIC "-//W3C//DTD SVG 1.1//EN"
        "http://www.w3.org/Graphics/SVG/1.1/DTD/svg11.dtd">
<svg class="icon" width="200px" height="200.00px" viewBox="0 0 1024 1024" version="1.1"
     xmlns="http://www.w3.org/2000/svg">
    <path d="M628.48 421.36c-88.704 37.984-150.736 124.912-150.736 226.096 0 73.488 32.736 139.456 84.672 184.624H150.384c-29.92 0-54.384-24.032-54.384-53.44v-357.28h532.48zM277.6 170.72c17.36 0 31.568 13.968 31.568 31.04v32.96H554.72v-32.944c0-17.056 14.224-31.04 31.568-31.04h32.8c17.36 0 31.568 13.984 31.568 31.04v32.96h53.472c28.08 0 51.264 23.152 53.088 52.16l0.096 3.68v93.504H96V290.56c0-30.72 23.936-55.84 53.184-55.84h64.048v-32.96c0-17.056 14.224-31.04 31.584-31.04l32.768-0.016z"
          fill="#9076F8"/>
    <path d="M725.328 448.08C837.248 448.08 928 538.832 928 650.72a202.832 202.832 0 0 1-125.136 187.28 202.464 202.464 0 0 1-77.536 15.392 202.464 202.464 0 0 1-143.248-59.312 202.848 202.848 0 0 1-59.408-143.36 202.88 202.88 0 0 1 59.392-143.36 202.432 202.432 0 0 1 143.264-59.296z m10.768 100.16a32.56 32.56 0 0 0-16-4.24c-5.728 0-11.296 1.472-16.032 4.256-4.896 2.784-8.976 6.88-11.76 11.776a32.704 32.704 0 0 0-4.24 16.032v47.952h-48.032c-8.512 0-16.672 3.44-22.72 9.328-5.888 6.048-9.312 14.24-9.312 22.736 0 8.512 3.424 16.688 9.312 22.752 6.048 5.888 14.224 9.328 22.72 9.328h48.032v47.776c0 5.552 1.472 11.12 4.24 16.032 2.784 4.912 6.864 8.992 11.76 11.776 4.912 2.784 10.464 4.256 16.016 4.256 5.552 0 11.104-1.472 16-4.256 4.912-2.784 9.008-6.88 11.776-11.776 2.784-4.912 4.256-10.48 4.256-16.032v-47.952h48.032c8.32 0 16.496-3.264 22.544-9.328a31.984 31.984 0 0 0 0-45.168 32 32 0 0 0-22.56-9.312h-48.016v-48.112c0-11.44-6.048-22.08-16.016-27.808z"
          fill="#C7B0FF"/>
</svg>