<?xml version="1.0" standalone="no"?><!DOCTYPE svg PUBLIC "-//W3C//DTD SVG 1.1//EN"
        "http://www.w3.org/Graphics/SVG/1.1/DTD/svg11.dtd">
<svg class="icon" width="200px" height="200.00px" viewBox="0 0 1024 1024" version="1.1"
     xmlns="http://www.w3.org/2000/svg">
    <path d="M512 550.52a68.61 68.61 0 0 1-27.7-5.81l-333.48-147c-23.34-10.29-38.05-32-38.39-56.57s13.73-46.54 36.7-57.43l333.49-158a69.33 69.33 0 0 1 58.79 0l333.11 158c23 10.89 37 32.89 36.68 57.42s-15 46.25-38.37 56.54l-333.1 147a69.08 69.08 0 0 1-27.73 5.85zM179.09 340.28l331 146a5.11 5.11 0 0 0 3.88 0l330.59-145.9L514 183.5a5 5 0 0 0-4 0zM847.87 342zM512.16 887.53a63.11 63.11 0 0 1-27.3-6.26L162.29 741.75a31.95 31.95 0 1 1 25.37-58.64l323.72 140 308.69-139.8a32 32 0 0 1 26.46 58.18l-308 140a60.32 60.32 0 0 1-26.35 6z m0 0"
          fill="#333333"/>
    <path d="M833.3 506.45L511.66 646.22 190.28 506.76v65.78a30.65 30.65 0 0 0 18.56 28.15l269.58 115.5a76.13 76.13 0 0 0 66.48 0l269.85-115.78a30.62 30.62 0 0 0 18.55-28.15z m0 0"
          fill="#3CE4D6"/>
</svg>