<?xml version="1.0" standalone="no"?><!DOCTYPE svg PUBLIC "-//W3C//DTD SVG 1.1//EN"
        "http://www.w3.org/Graphics/SVG/1.1/DTD/svg11.dtd">
<svg class="icon" width="200px" height="200.00px" viewBox="0 0 1024 1024" version="1.1"
     xmlns="http://www.w3.org/2000/svg">
    <path d="M52.693333 165.76m128.426667 0l656 0q128.426667 0 128.426667 128.426667l0 463.36q0 128.426667-128.426667 128.426666l-656 0q-128.426667 0-128.426667-128.426666l0-463.36q0-128.426667 128.426667-128.426667Z"
          fill="#839BFB"/>
    <path d="M509.226667 528.426667a32.64 32.64 0 0 1-17.066667-4.693334L213.333333 349.44a32 32 0 1 1 33.706667-54.4l263.04 163.84 262.826667-163.84a32 32 0 0 1 33.92 54.4l-280.746667 174.293333a32 32 0 0 1-16.853333 4.693334z"
          fill="#FFFFFF"/>
</svg>