<?xml version="1.0" standalone="no"?><!DOCTYPE svg PUBLIC "-//W3C//DTD SVG 1.1//EN"
        "http://www.w3.org/Graphics/SVG/1.1/DTD/svg11.dtd">
<svg class="icon" width="200px" height="200.00px" viewBox="0 0 1024 1024" version="1.1"
     xmlns="http://www.w3.org/2000/svg">
    <path d="M210.304 681.12H512v214.832H248.608a38.304 38.304 0 0 1-38.304-38.304V681.12z" fill="#C7B0FF"/>
    <path d="M128 512a384 384 0 1 0 768 0 384 384 0 0 0-768 0z" fill="#9076F8"/>
    <path d="M442.08 629.76a37.92 37.92 0 0 1 26.448 10.624c3.504 3.36 6.144 7.312 8 11.888 1.872 4.576 2.8 9.376 2.8 14.416 0 5.04-0.928 9.856-2.8 14.432a34.816 34.816 0 0 1-8 11.872 41.184 41.184 0 0 1-12 7.984c-4.592 2.016-9.392 3.04-14.432 3.04-5.36 0-10.24-1.024-14.656-3.04a42.592 42.592 0 0 1-11.872-8 33.76 33.76 0 0 1-8-11.856 37.936 37.936 0 0 1-2.784-14.432c0-5.04 0.928-9.92 2.8-14.416 1.856-4.576 4.576-8.464 7.984-11.872a39.04 39.04 0 0 1 11.872-7.84c4.416-1.856 9.296-2.784 14.656-2.784z m166.768 0.8c5.12 0 9.92 0.912 14.672 2.784 4.64 1.856 8.688 4.496 12.016 7.84 3.344 3.328 6.048 7.28 8 11.856 2 4.576 3.008 9.392 3.008 14.432 0 5.04-1.008 9.84-3.024 14.416-2.016 4.576-4.64 8.544-7.984 11.792-3.328 3.344-7.36 5.984-12.016 8a36.48 36.48 0 0 1-29.088 0 39.424 39.424 0 0 1-11.872-8 37.728 37.728 0 0 1-8-11.776 34.88 34.88 0 0 1-3.008-14.432c0-5.12 1.008-9.92 3.024-14.432 2.016-4.496 4.64-8.448 7.984-11.872 3.344-3.328 7.296-5.968 11.872-7.84a37.92 37.92 0 0 1 14.416-2.784z m67.408-227.744c7.44 0 13.264 1.008 17.44 3.04 4.128 2 7.072 4.48 8.848 7.44 1.792 2.944 2.56 6.048 2.4 9.376-0.144 3.344-0.608 6.208-1.392 8.608a2959.744 2959.744 0 0 1-13.648 39.472c-3.184 9.008-6.352 17.856-9.376 26.704-3.104 8.832-5.44 15.744-6.992 20.864-3.488 10.704-7.904 18.08-13.264 22.256-5.344 4.112-11.856 6.208-19.616 6.208H430.064l6.064 36.064h202.048c12.8 0 19.232 5.504 19.232 16.448 0 5.344-1.248 9.92-3.808 13.808-2.56 3.872-7.52 5.808-15.04 5.808H428.448c-5.36 0-9.856-1.168-13.424-3.568a29.744 29.744 0 0 1-8.992-9.376 57.024 57.024 0 0 1-5.824-12.64 113.2 113.2 0 0 1-3.408-12.8c-0.24-1.632-1.008-5.52-2.176-11.648-1.248-6.128-2.72-13.792-4.416-23.04-1.712-9.216-3.648-19.536-5.824-30.864-2.176-11.328-4.272-22.8-6.432-34.272-5.12-27.008-10.864-57.088-17.216-90.208h-30.096a16 16 0 0 1-10.016-3.04 28.352 28.352 0 0 1-6.672-7.28 25.744 25.744 0 0 1-3.568-8.992 41.808 41.808 0 0 1-1.008-8.848c0-5.36 1.792-9.76 5.44-13.264 3.648-3.488 8.448-5.2 14.656-5.2h40.48c5.36 0 9.632 0.784 12.8 2.4a22.24 22.24 0 0 1 11.632 13.664c0.784 2.72 1.488 4.96 2.032 6.816 0.544 2.176 1.072 5.12 1.616 9.008l1.632 11.776c0.784 4.816 1.632 9.936 2.4 15.28h274.192z"
          fill="#FFFFFF"/>
</svg>