<?xml version="1.0" standalone="no"?><!DOCTYPE svg PUBLIC "-//W3C//DTD SVG 1.1//EN"
        "http://www.w3.org/Graphics/SVG/1.1/DTD/svg11.dtd">
<svg class="icon" width="200px" height="200.00px" viewBox="0 0 1024 1024" version="1.1"
     xmlns="http://www.w3.org/2000/svg">
    <path d="M427.86 570.13h60v295.82h-60z" fill="#333333"/>
    <path d="M646.45 787.06H267.77v47.33A31.56 31.56 0 0 0 299.33 866H614.9a31.56 31.56 0 0 0 31.55-31.56z m0 0"
          fill="#3CE4D6"/>
    <path d="M356.53 643.67a54.75 54.75 0 0 1-17.63-2.94 54.15 54.15 0 0 1-31.31-27.54l-84.47-171.88A54.55 54.55 0 0 1 248 368.39l326.79-160.6a54.47 54.47 0 0 1 72.92 24.87l84.47 171.88a54.54 54.54 0 0 1-24.87 72.92l-326.8 160.6a54.25 54.25 0 0 1-23.98 5.61z m4.91-56.94z m-82-166.93l79.6 162 316.84-155.75-79.6-162z"
          fill="#333333"/>
    <path d="M230.78 642.81a54.67 54.67 0 0 1-48.94-30.48L147 541.39a54.54 54.54 0 0 1 24.86-72.92l57-28a54.47 54.47 0 0 1 72.92 24.87l34.86 70.93a54.54 54.54 0 0 1-24.87 72.92l-57 28a54.27 54.27 0 0 1-23.99 5.62z m-27.52-122.93l30 61 47.1-23.15-30-61zM735.16 508.61a30 30 0 0 1-26.95-16.77L564 198.29a30 30 0 1 1 53.85-26.46l144.21 293.55a30 30 0 0 1-26.9 43.23zM789.69 442.71a30 30 0 0 1-13.25-56.93 98.45 98.45 0 0 0-86.84-176.71 30 30 0 1 1-26.47-53.84 158.44 158.44 0 0 1 139.77 284.4 29.92 29.92 0 0 1-13.21 3.08z"
          fill="#333333"/>
</svg>