<?xml version="1.0" standalone="no"?><!DOCTYPE svg PUBLIC "-//W3C//DTD SVG 1.1//EN"
        "http://www.w3.org/Graphics/SVG/1.1/DTD/svg11.dtd">
<svg class="icon" width="200px" height="200.00px" viewBox="0 0 1024 1024" version="1.1"
     xmlns="http://www.w3.org/2000/svg">
    <path d="M603.904 808.256V508.16c0-32.32 23.088-58.48 53.872-61.568-18.48-30.768-36.944-60-56.96-84.64 33.872-21.536 53.872-47.696 53.872-78.48 0-69.248-101.568-121.568-235.456-121.568-133.872 0-235.44 50.784-235.44 120.032 0 30.784 20 56.944 53.856 78.48-56.944 72.32-106.176 166.208-147.728 281.616-18.464 50.784-10.768 103.104 20 146.208 32.32 46.16 87.712 73.856 146.192 73.856h326.24c15.392 0 30.784-1.536 44.64-6.144-13.856-12.32-23.088-29.248-23.088-47.712z m-86.176-261.6a30.88 30.88 0 0 1 30.784 30.768 30.88 30.88 0 0 1-30.784 30.768h-67.712v36.944h67.712a30.88 30.88 0 0 1 30.784 30.768 30.88 30.88 0 0 1-30.784 30.784h-67.712v35.392a30.88 30.88 0 0 1-30.784 30.784 30.88 30.88 0 0 1-30.768-30.784v-35.392h-67.712a30.88 30.88 0 0 1-30.784-30.784 30.88 30.88 0 0 1 30.784-30.768h67.712v-36.944h-67.712a30.88 30.88 0 0 1-30.784-30.768 30.88 30.88 0 0 1 30.784-30.784h24.624L299.2 500.48c-12.32-12.32-12.32-30.784 0-43.088 12.32-12.32 30.784-12.32 43.088 0l76.96 76.944 76.944-76.96c12.304-12.304 30.768-12.304 43.088 0 12.304 12.32 12.304 30.784 0 43.104l-46.176 46.16h24.624z"
          fill="#FC5787"/>
    <path d="M902.448 471.232H670.08c-21.552 0-40.016 18.48-40.016 40.016v300.08c0 21.552 18.464 40.016 40 40.016H904c21.552 0 40-18.464 40-40V509.696c-1.52-21.552-20-38.48-41.536-38.48zM727.008 792.864c-9.232 0-16.928-7.68-16.928-16.928 0-9.232 7.696-16.928 16.928-16.928 9.232 0 16.928 7.696 16.928 16.928 0 9.232-7.68 16.928-16.928 16.928z m0-50.784c-9.232 0-16.928-7.68-16.928-16.928 0-9.232 7.696-16.928 16.928-16.928 9.232 0 16.928 7.696 16.928 16.928 0 9.232-7.68 16.928-16.928 16.928z m58.48 50.784c-9.232 0-16.928-7.68-16.928-16.928 0-9.232 7.696-16.928 16.928-16.928 9.232 0 16.928 7.696 16.928 16.928 0 9.232-7.68 16.928-16.928 16.928z m0-50.784c-9.232 0-16.928-7.68-16.928-16.928 0-9.232 7.696-16.928 16.928-16.928 9.232 0 16.928 7.696 16.928 16.928 0 9.232-7.68 16.928-16.928 16.928z m58.48 50.784c-9.232 0-16.928-7.68-16.928-16.928 0-9.232 7.68-16.928 16.928-16.928 9.232 0 16.928 7.696 16.928 16.928 0 9.232-7.68 16.928-16.928 16.928z m0-50.784c-9.232 0-16.928-7.68-16.928-16.928 0-9.232 7.68-16.928 16.928-16.928 9.232 0 16.928 7.696 16.928 16.928 0 9.232-7.68 16.928-16.928 16.928z m27.696-96.96c0 9.248-6.144 15.408-15.392 15.408h-140.032c-9.232 0-15.392-6.16-15.392-15.392v-89.264c0-9.232 6.16-15.376 15.392-15.376h140.032c9.248 0 15.392 6.144 15.392 15.376v89.264z"
          fill="#FFC2D8"/>
</svg>