<?xml version="1.0" standalone="no"?><!DOCTYPE svg PUBLIC "-//W3C//DTD SVG 1.1//EN"
        "http://www.w3.org/Graphics/SVG/1.1/DTD/svg11.dtd">
<svg class="icon" width="200px" height="200.00px" viewBox="0 0 1024 1024" version="1.1"
     xmlns="http://www.w3.org/2000/svg">
    <path d="M512.11 890a64.71 64.71 0 0 1-48.69-22.09L124 480.2a63.16 63.16 0 0 1-7.48-72.52l136.88-242.4a63.1 63.1 0 0 1 54.89-32.06H714a63.15 63.15 0 0 1 54.93 32.09L906.2 408.87a63.18 63.18 0 0 1-7.44 72.44l-338 386.56A64.69 64.69 0 0 1 512.11 890zM511 826.36h2.38l337.89-386.54L714 196.26H308.32L171.47 438.65l339.41 387.71zM171.45 438.67z m0 0"
          fill="#333333"/>
    <path d="M700.5 409.08H322.17v-47.3a31.52 31.52 0 0 1 31.53-31.52H669a31.52 31.52 0 0 1 31.53 31.52z m0 0"
          fill="#3CE4D6"/>
</svg>