<?xml version="1.0" standalone="no"?><!DOCTYPE svg PUBLIC "-//W3C//DTD SVG 1.1//EN"
        "http://www.w3.org/Graphics/SVG/1.1/DTD/svg11.dtd">
<svg class="icon" width="200px" height="200.00px" viewBox="0 0 1024 1024" version="1.1"
     xmlns="http://www.w3.org/2000/svg">
    <path d="M223.786667 437.973333m10.666666 0l277.333334 0q10.666667 0 10.666666 10.666667l0 362.666667q0 10.666667-10.666666 10.666666l-277.333334 0q-10.666667 0-10.666666-10.666666l0-362.666667q0-10.666667 10.666666-10.666667Z"
          fill="#839BFB"/>
    <path d="M586.453333 182.826667m10.666667 0l277.333333 0q10.666667 0 10.666667 10.666666l0 317.44q0 10.666667-10.666667 10.666667l-277.333333 0q-10.666667 0-10.666667-10.666667l0-317.44q0-10.666667 10.666667-10.666666Z"
          fill="#839BFB"/>
    <path d="M223.786667 182.826667m10.666666 0l277.333334 0q10.666667 0 10.666666 10.666666l0 170.666667q0 10.666667-10.666666 10.666667l-277.333334 0q-10.666667 0-10.666666-10.666667l0-170.666667q0-10.666667 10.666666-10.666666Z"
          fill="#839BFB"/>
    <path d="M586.453333 585.813333m10.666667 0l277.333333 0q10.666667 0 10.666667 10.666667l0 214.826667q0 10.666667-10.666667 10.666666l-277.333333 0q-10.666667 0-10.666667-10.666666l0-214.826667q0-10.666667 10.666667-10.666667Z"
          fill="#C0CEF9"/>
</svg>