<?xml version="1.0" standalone="no"?><!DOCTYPE svg PUBLIC "-//W3C//DTD SVG 1.1//EN"
        "http://www.w3.org/Graphics/SVG/1.1/DTD/svg11.dtd">
<svg class="icon" width="200px" height="200.00px" viewBox="0 0 1024 1024" version="1.1"
     xmlns="http://www.w3.org/2000/svg">
    <path d="M806.54 914.93H217a62.12 62.12 0 0 1-62.06-62.06V434.45a62.1 62.1 0 0 1 20.67-46.24L470.86 124a62 62 0 0 1 82.85 0.08L848 388.24a62.13 62.13 0 0 1 20.6 46.18v418.45a62.12 62.12 0 0 1-62.05 62.06zM512.26 170.22L217 434.45v418.42h589.54V434.42l-294.3-264.19z m-20.7-23.12z m0 0"
          fill="#333333"/>
    <path d="M370.5 781A118.5 118.5 0 1 1 489 662.5 118.64 118.64 0 0 1 370.5 781z m0-177a58.5 58.5 0 1 0 58.5 58.5 58.56 58.56 0 0 0-58.5-58.5z"
          fill="#3CE4D6"/>
    <path d="M653.5 781A118.5 118.5 0 1 1 772 662.5 118.64 118.64 0 0 1 653.5 781z m0-177a58.5 58.5 0 1 0 58.5 58.5 58.56 58.56 0 0 0-58.5-58.5z"
          fill="#333333"/>
</svg>