<?xml version="1.0" standalone="no"?><!DOCTYPE svg PUBLIC "-//W3C//DTD SVG 1.1//EN"
        "http://www.w3.org/Graphics/SVG/1.1/DTD/svg11.dtd">
<svg class="icon" width="200px" height="200.00px" viewBox="0 0 1024 1024" version="1.1"
     xmlns="http://www.w3.org/2000/svg">
    <path d="M611.21 504.58a31 31 0 0 0 0-43.88l-11-11a31 31 0 0 0-43.89 0L402.76 603.32l54.86 54.85z m0 0"
          fill="#3CE4D6"/>
    <path d="M397 889.65a54.31 54.31 0 0 1-38.52-15.93L187.22 702.47a54.54 54.54 0 0 1 0-77l319-319a54.46 54.46 0 0 1 77 0l171.29 171.2a54.55 54.55 0 0 1 0 77.05l-319 319A54.35 54.35 0 0 1 397 889.65zM233.55 664L397 827.38l311.18-311.19-163.44-163.43z"
          fill="#333333"/>
    <path d="M252.55 937.82a54.12 54.12 0 0 1-38.52-16l-74.95-75a54.46 54.46 0 0 1 0-77l61.67-61.67a54.54 54.54 0 0 1 77 0l75 74.95a54.55 54.55 0 0 1 0 77.05l-61.67 61.67a54.13 54.13 0 0 1-38.53 16z m3.89-58.4z m-71-71l67.14 67.15 53.87-53.86-67.15-67.15zM787.67 583.27a29.91 29.91 0 0 1-21.21-8.79l-280-280a30 30 0 1 1 42.43-42.43l280 280a30 30 0 0 1-21.22 51.22zM824.41 486.44a30 30 0 0 1-21.21-51.21 125.5 125.5 0 1 0-177.49-177.49 30 30 0 0 1-42.43-42.42 185.5 185.5 0 0 1 262.34 262.34 29.92 29.92 0 0 1-21.21 8.78z"
          fill="#333333"/>
</svg>