<?xml version="1.0" standalone="no"?><!DOCTYPE svg PUBLIC "-//W3C//DTD SVG 1.1//EN"
        "http://www.w3.org/Graphics/SVG/1.1/DTD/svg11.dtd">
<svg class="icon" width="200px" height="200.00px" viewBox="0 0 1024 1024" version="1.1"
     xmlns="http://www.w3.org/2000/svg">
    <path d="M506.24 896a356.48 356.48 0 1 1 0-712.746667 32 32 0 0 1 0 64 292.48 292.48 0 1 0 292.053333 295.68 32 32 0 0 1 32-30.933333 32 32 0 0 1 31.573334 32.213333A357.12 357.12 0 0 1 506.24 896z"
          fill="#839BFB"/>
    <path d="M388.906667 606.08l74.026666-139.946667h-75.093333c-14.72 0-21.333333-7.04-21.333333-21.333333s7.466667-18.773333 21.333333-19.626667h106.666667a21.333333 21.333333 0 0 1 21.333333 21.333334 46.293333 46.293333 0 0 1-7.04 19.626666l-72.96 149.333334a11.733333 11.733333 0 0 1-2.133333 3.413333c-6.186667 12.373333-14.08 18.133333-23.253334 17.28-14.72 0-22.826667-6.4-24.32-19.626667a17.706667 17.706667 0 0 1 1.28-5.76 10.026667 10.026667 0 0 1 1.493334-4.693333zM593.706667 466.133333l-4.48 31.146667 21.333333-2.346667a60.8 60.8 0 0 1 61.226667 62.506667c-1.493333 52.693333-27.306667 79.146667-77.44 80-42.666667-3.2-64-15.36-65.92-37.12a21.333333 21.333333 0 0 1 21.333333-21.333333 34.986667 34.986667 0 0 1 16.213333 8.106666 56.533333 56.533333 0 0 0 29.013334 11.52c18.56 0 28.8-13.866667 31.146666-39.466666a27.093333 27.093333 0 0 0-27.733333-30.08 40.32 40.32 0 0 0-19.626667 5.76 30.293333 30.293333 0 0 1-15.146666 4.693333 15.36 15.36 0 0 1-17.28-13.866667v-10.453333l8.32-61.866667c1.493333-20.053333 9.173333-29.226667 23.04-27.733333h70.613333a21.333333 21.333333 0 0 1 21.333333 18.56c0 14.506667-7.893333 21.333333-21.333333 21.333333z"
          fill="#C0CEF9"/>
</svg>