<?xml version="1.0" standalone="no"?><!DOCTYPE svg PUBLIC "-//W3C//DTD SVG 1.1//EN"
        "http://www.w3.org/Graphics/SVG/1.1/DTD/svg11.dtd">
<svg class="icon" width="200px" height="200.00px" viewBox="0 0 1024 1024" version="1.1"
     xmlns="http://www.w3.org/2000/svg">
    <path d="M669.92 611.61H352.73A31.73 31.73 0 0 1 321 579.89v-47.58h380.63v47.58a31.72 31.72 0 0 1-31.71 31.72z m0 0"
          fill="#3CE4D6"/>
    <path d="M796.78 912.93H225.85a63.5 63.5 0 0 1-63.43-63.44V183.4a63.5 63.5 0 0 1 63.43-63.4h570.93a63.5 63.5 0 0 1 63.44 63.43v666.06a63.51 63.51 0 0 1-63.44 63.44zM225.85 183.4v666.09h571l-0.05-666.09z m0 0"
          fill="#333333"/>
    <path d="M669.91 453H352.73a31.72 31.72 0 0 1 0-63.44h317.18a31.72 31.72 0 1 1 0 63.44z m0 0" fill="#333333"/>
</svg>