<?xml version="1.0" standalone="no"?><!DOCTYPE svg PUBLIC "-//W3C//DTD SVG 1.1//EN"
        "http://www.w3.org/Graphics/SVG/1.1/DTD/svg11.dtd">
<svg class="icon" width="200px" height="200.00px" viewBox="0 0 1024 1024" version="1.1"
     xmlns="http://www.w3.org/2000/svg">
    <path d="M747.184 896H277.008a114.784 114.784 0 0 1-114.832-114.784V242.784A114.784 114.784 0 0 1 277.008 128h407.408l177.408 175.28v477.936A114.832 114.832 0 0 1 747.184 896z"
          fill="#3DD5BB"/>
    <path d="M684.416 128v140.032a38.704 38.704 0 0 0 38.704 38.704h138.704v-3.456L684.416 128z" fill="#ADF0EA"/>
    <path d="M578.528 656.688c4.4-1.76 9.072-2.688 13.808-2.688 4.8 0 9.584 0.912 14.048 2.688 4.32 1.696 8.24 4.256 11.52 7.52 3.264 3.264 5.872 7.12 7.648 11.36 1.92 4.368 2.912 9.008 2.912 13.808a35.664 35.664 0 0 1-22.08 32.752 34.688 34.688 0 0 1-14.016 2.928 36.064 36.064 0 0 1-35.76-35.68 33.44 33.44 0 0 1 2.88-13.808c1.856-4.208 4.464-8.064 7.68-11.36 3.232-3.248 7.104-5.808 11.36-7.52zM407.168 663.44a36 36 0 0 1 25.44-10.16 36.256 36.256 0 0 1 25.312 10.176c3.328 3.2 5.936 7.072 7.648 11.36a36.368 36.368 0 0 1 0 27.632c-1.744 4.304-4.32 8.16-7.648 11.36-3.36 3.2-7.264 5.824-11.488 7.68-4.368 1.92-9.104 2.88-13.84 2.88-5.12 0-9.792-0.96-14.048-2.912a40.64 40.64 0 0 1-11.36-7.632 32.368 32.368 0 0 1-7.664-11.36 36.896 36.896 0 0 1 0-27.648c1.76-4.272 4.352-8.144 7.648-11.36zM324.688 379.408h38.8a27.04 27.04 0 0 1 12.256 2.304 21.264 21.264 0 0 1 11.152 13.072l1.952 6.544c0.672 2.848 1.184 5.712 1.552 8.624l1.584 11.296c0.72 4.576 1.552 9.504 2.272 14.624h262.624c7.168 0 12.736 0.976 16.752 2.88 3.44 1.504 6.384 4 8.464 7.136a15.536 15.536 0 0 1 2.304 9.024c-0.128 3.168-0.608 5.92-1.328 8.208-4.24 12.64-8.64 25.28-13.088 37.84-3.056 8.624-6.08 17.088-8.992 25.552-2.976 8.464-5.216 15.088-6.688 20-3.328 10.224-7.584 17.296-12.704 21.28a29.76 29.76 0 0 1-18.784 6h-201.76l5.792 34.512h193.6c12.24 0 18.4 5.312 18.4 15.76 0.16 4.672-1.12 9.28-3.632 13.232-2.432 3.728-7.2 5.552-14.432 5.552H419.488a22.48 22.48 0 0 1-12.848-3.408 28.528 28.528 0 0 1-8.64-8.96 55.44 55.44 0 0 1-5.552-12.128 111.408 111.408 0 0 1-3.28-12.256c-0.192-1.584-0.976-5.28-2.08-11.152-1.456-7.36-2.88-14.688-4.24-22.08-1.6-8.832-3.472-18.72-5.552-29.552-2.08-10.832-4.112-21.856-6.192-32.848-4.896-25.856-10.4-54.704-16.48-86.4h-28.8a15.248 15.248 0 0 1-9.6-2.944 27.152 27.152 0 0 1-6.4-6.944 24.912 24.912 0 0 1-3.392-8.624 38.224 38.224 0 0 1-0.992-8.464 16.736 16.736 0 0 1 5.216-12.72c3.472-3.328 8.096-4.96 14.032-4.96z"
          fill="#FFFFFF"/>
</svg>