<?xml version="1.0" standalone="no"?><!DOCTYPE svg PUBLIC "-//W3C//DTD SVG 1.1//EN"
        "http://www.w3.org/Graphics/SVG/1.1/DTD/svg11.dtd">
<svg class="icon" width="200px" height="200.00px" viewBox="0 0 1024 1024" version="1.1"
     xmlns="http://www.w3.org/2000/svg">
    <path d="M816.12 915.4h-589a62.28 62.28 0 0 1-62.36-62.07V726.07a62.08 62.08 0 0 1 21-46.51l171.85-151.88C316.38 480.16 295.59 414.74 292 379c-3.91-38.67-6.46-135.93 54.59-203.48 40.11-44.38 98.83-66.88 174.55-66.88 80.09 0 141.5 23.8 182.53 70.73C766.33 251 758.5 351 754.61 380c-7.79 57.83-32.22 111.51-67.28 150L857.4 679.51a62.08 62.08 0 0 1 21.06 46.6v127.22a62.28 62.28 0 0 1-62.35 62.07z m-295-744.73c-57.43 0-100.66 15.62-128.51 46.42-44.36 49.09-42 125.18-38.87 155.62 3.43 34 27.65 99.37 68.72 131.6a31 31 0 0 1 1.4 47.66l-197 174.09v127.27h589.26l0.29-127.22-195.86-172.26a31 31 0 0 1 1.69-48c43.37-33 65-90.95 70.85-134.16 2.15-15.94 10.49-98.15-36.16-151.52-28.73-32.86-74.43-49.51-135.82-49.51z m0 0"
          fill="#333333"/>
    <path d="M560.41 806.79h-77.57V651.64a31 31 0 0 1 31-31h15.51a31 31 0 0 1 31 31z m0 0" fill="#3CE4D6"/>
</svg>