<?xml version="1.0" standalone="no"?><!DOCTYPE svg PUBLIC "-//W3C//DTD SVG 1.1//EN"
        "http://www.w3.org/Graphics/SVG/1.1/DTD/svg11.dtd">
<svg class="icon" width="200px" height="200.00px" viewBox="0 0 1024 1024" version="1.1"
     xmlns="http://www.w3.org/2000/svg">
    <path d="M464.48 659.152c-0.528-44.192 18.272-87.776 50.88-119.008a163.904 163.904 0 0 1 113.232-45.552c26.416 0 64.512 18.72 75.84 18.72 11.328 0 30.192-12.96 47.008-15.888V175.952A47.504 47.504 0 0 0 703.488 128H175.6a47.824 47.824 0 0 0-47.952 47.952V799.68a48.096 48.096 0 0 0 47.952 47.952h407.36l-70.016-70c-31.664-31.664-48.48-73.872-48.48-118.48zM223.808 282.432c0-6.608 5.408-12 12-12h407.776c6.608 0 12.016 5.392 12.016 12v24.016c0 6.608-5.408 12-12 12H235.84a12.048 12.048 0 0 1-12.016-12v-24.016z m191.92 143.952c0 6.608-5.408 12.016-12 12.016H235.84a12.048 12.048 0 0 1-12.016-12v-24.032c0-6.608 5.408-12 12-12h167.904c6.608 0 12 5.392 12 12v24.016z"
          fill="#9076F8"/>
    <path d="M860.48 574.784a116 116 0 0 0-141.552-14.496c-5.056 2.832-9.952 6.08-14.496 9.6a108.928 108.928 0 0 0-14.496-9.6 116.128 116.128 0 0 0-141.568 14.496 115.6 115.6 0 0 0-35.856 84.848 117.792 117.792 0 0 0 34.144 84l148.768 148.848c2.24 2.24 5.232 3.424 8.32 3.52h1.2a12.224 12.224 0 0 0 8.32-3.52l148.944-148.848a117.648 117.648 0 0 0 34.144-84 115.744 115.744 0 0 0-35.872-84.848z"
          fill="#C7B0FF"/>
</svg>