<?xml version="1.0" standalone="no"?><!DOCTYPE svg PUBLIC "-//W3C//DTD SVG 1.1//EN"
        "http://www.w3.org/Graphics/SVG/1.1/DTD/svg11.dtd">
<svg class="icon" width="200px" height="200.00px" viewBox="0 0 1024 1024" version="1.1"
     xmlns="http://www.w3.org/2000/svg">
    <path d="M810.672 128A85.328 85.328 0 0 1 896 213.328v597.344A85.344 85.344 0 0 1 810.672 896H213.328A85.328 85.328 0 0 1 128 810.672V213.328A85.328 85.328 0 0 1 213.328 128h597.344z m-149.344 384a149.328 149.328 0 1 0 0 298.672 149.328 149.328 0 0 0 0-298.672zM320 426.672A106.672 106.672 0 1 0 319.36 640 106.672 106.672 0 0 0 320 426.672z m213.328-128a64 64 0 1 0 0 127.984 64 64 0 0 0 0-128z"
          fill="#F66462"/>
    <path d="M579.152 579.152a120 120 0 1 1 169.696 169.696 120 120 0 0 1-169.696-169.696z" fill="#FFA4A4"/>
</svg>