<?xml version="1.0" standalone="no"?><!DOCTYPE svg PUBLIC "-//W3C//DTD SVG 1.1//EN"
        "http://www.w3.org/Graphics/SVG/1.1/DTD/svg11.dtd">
<svg class="icon" width="200px" height="200.00px" viewBox="0 0 1024 1024" version="1.1"
     xmlns="http://www.w3.org/2000/svg">
    <path d="M200.32 164.266667m64.64 0l297.386667 0q64.64 0 64.64 64.64l0 553.386666q0 64.64-64.64 64.64l-297.386667 0q-64.64 0-64.64-64.64l0-553.386666q0-64.64 64.64-64.64Z"
          fill="#839BFB"/>
    <path d="M697.386667 369.28m43.733333 0l116.906667 0q43.733333 0 43.733333 43.733333l0 390.186667q0 43.733333-43.733333 43.733333l-116.906667 0q-43.733333 0-43.733333-43.733333l0-390.186667q0-43.733333 43.733333-43.733333Z"
          fill="#C0CEF9"/>
    <path d="M306.986667 348.373333m32 0l149.333333 0q32 0 32 32l0 0q0 32-32 32l-149.333333 0q-32 0-32-32l0 0q0-32 32-32Z"
          fill="#FFFFFF"/>
    <path d="M306.986667 476.373333m32 0l149.333333 0q32 0 32 32l0 0q0 32-32 32l-149.333333 0q-32 0-32-32l0 0q0-32 32-32Z"
          fill="#FFFFFF"/>
    <path d="M306.986667 604.373333m32 0l149.333333 0q32 0 32 32l0 0q0 32-32 32l-149.333333 0q-32 0-32-32l0 0q0-32 32-32Z"
          fill="#FFFFFF"/>
</svg>