<?xml version="1.0" standalone="no"?><!DOCTYPE svg PUBLIC "-//W3C//DTD SVG 1.1//EN"
        "http://www.w3.org/Graphics/SVG/1.1/DTD/svg11.dtd">
<svg class="icon" width="200px" height="200.00px" viewBox="0 0 1024 1024" version="1.1"
     xmlns="http://www.w3.org/2000/svg">
    <path d="M730.4 96c64 0 116.8 52.8 116.8 118.4l-3.2 315.2c-48-44.8-110.4-70.4-176-70.4-142.4 0-257.6 116.8-257.6 259.2 0 40 9.6 80 27.2 116.8s43.2 67.2 76.8 91.2l-248 1.6c-64 0-116.8-52.8-116.8-118.4V214.4c0-65.6 51.2-118.4 116.8-118.4h464z m-313.6 336h-123.2c-8 0-16 3.2-20.8 8-3.2 3.2-4.8 6.4-6.4 9.6-1.6 3.2-1.6 8-1.6 11.2 0 3.2 0 8 1.6 11.2 1.6 3.2 3.2 6.4 6.4 9.6 4.8 8 12.8 11.2 20.8 11.2h123.2c16 0 30.4-12.8 30.4-30.4 0-16-14.4-30.4-30.4-30.4z m294.4-158.4h-417.6c-16 0-30.4 12.8-30.4 30.4 0 17.6 14.4 30.4 30.4 30.4h417.6c16 0 30.4-12.8 30.4-30.4 0-17.6-14.4-30.4-30.4-30.4z"
          fill="#FB6F5C"/>
    <path d="M464 720c0-115.2 92.8-208 206.4-208 113.6 0 206.4 92.8 206.4 208S784 928 670.4 928C556.8 928 464 835.2 464 720z m240.8 11.68c8.32 0 15.04 6.56 15.04 14.56v76.96c0 2.4 0.96 4.48 2.56 6.24 1.76 1.6 4 2.56 6.4 2.56h30.08c2.4 0 4.64-0.96 6.4-2.56 1.76-1.6 2.72-3.84 2.72-6.24V720c0-9.28-3.84-18.24-10.56-24.8-6.72-6.56-16-10.24-25.44-10.24h-101.92l42.56-41.28c1.76-1.6 2.56-3.84 2.56-6.24a9.12 9.12 0 0 0-2.56-6.24l-21.44-20.64a9.52 9.52 0 0 0-6.4-2.56c-2.4 0-4.64 0.96-6.4 2.56l-90.08 87.52c-1.44 1.28-2.56 3.04-3.2 4.8-0.8 1.6-1.12 3.52-1.12 5.44 0 1.92 0.32 3.84 1.12 5.6 0.8 1.76 1.92 3.36 3.2 4.8l90.08 87.52a8.608 8.608 0 0 0 6.4 2.56c2.4 0 4.64-0.96 6.4-2.56l21.28-20.8c0.8-0.8 1.44-1.76 1.92-2.88 0.48-1.12 0.64-2.24 0.64-3.36 0-1.12-0.16-2.24-0.64-3.36a9.072 9.072 0 0 0-1.92-2.88l-42.56-41.28h74.88z"
          fill="#FEAFA0"/>
</svg>