<?xml version="1.0" standalone="no"?><!DOCTYPE svg PUBLIC "-//W3C//DTD SVG 1.1//EN"
        "http://www.w3.org/Graphics/SVG/1.1/DTD/svg11.dtd">
<svg class="icon" width="200px" height="200.00px" viewBox="0 0 1024 1024" version="1.1"
     xmlns="http://www.w3.org/2000/svg">
    <path d="M497.31 288H252.19v-49.1a32.7 32.7 0 0 1 32.71-32.71h179.7a32.71 32.71 0 0 1 32.71 32.71z m0 0"
          fill="#3CE4D6"/>
    <path d="M532.19 783.88H217.31A86.39 86.39 0 0 1 131 697.59V206.14a86.39 86.39 0 0 1 86.29-86.29h314.9a86.39 86.39 0 0 1 86.28 86.29v491.45a86.39 86.39 0 0 1-86.28 86.29z m-314.88-604A26.33 26.33 0 0 0 191 206.14v491.45a26.32 26.32 0 0 0 26.29 26.29h314.9a26.31 26.31 0 0 0 26.28-26.29V206.14a26.32 26.32 0 0 0-26.28-26.29z"
          fill="#333333"/>
    <path d="M738.76 903.58h-316c-20.1 0-39.19-6.37-53.74-18-15.67-12.46-24.66-30.14-24.66-48.5v-83.2h40v83.25c0 14.34 17.59 26.45 38.4 26.45h316c20.81 0 38.4-12.11 38.4-26.45v-83.25h40v83.25c0 18.36-9 36-24.66 48.5-14.5 11.58-33.64 17.95-53.74 17.95z"
          fill="#333333"/>
    <path d="M822.4 766.76h-50.49a60.65 60.65 0 0 1-60.57-60.58V441.4a60.64 60.64 0 0 1 60.57-60.57h50.49A60.65 60.65 0 0 1 883 441.4v264.78a60.65 60.65 0 0 1-60.6 60.58z m-50.49-345.93a20.6 20.6 0 0 0-20.57 20.57v264.78a20.6 20.6 0 0 0 20.57 20.58h50.49a20.6 20.6 0 0 0 20.6-20.58V441.4a20.6 20.6 0 0 0-20.58-20.57z"
          fill="#333333"/>
    <path d="M374.75 662.44m-40.89 0a40.89 40.89 0 1 0 81.78 0 40.89 40.89 0 1 0-81.78 0Z" fill="#3CE4D6"/>
</svg>