<?xml version="1.0" standalone="no"?><!DOCTYPE svg PUBLIC "-//W3C//DTD SVG 1.1//EN"
        "http://www.w3.org/Graphics/SVG/1.1/DTD/svg11.dtd">
<svg class="icon" width="200px" height="200.00px" viewBox="0 0 1024 1024" version="1.1"
     xmlns="http://www.w3.org/2000/svg">
    <path d="M112.672 234.112c0 43.584 57.904 83.952 151.92 105.712 94.032 21.824 209.904 21.824 303.92 0 94.032-21.824 151.936-62.128 151.936-105.712C720.512 166.672 584.448 112 416.592 112c-167.84 0-303.92 54.672-303.92 122.112z"
          fill="#9076F8"/>
    <path d="M528.416 499.808c43.6-33.52 90.944-60.576 173.76-63.408 14.24-11.808 18.88-23.696 19.888-42.032V283.52c-4.24 65.76-138.368 118.88-303.92 118.88-165.568 0-305.536-54.72-305.536-122.096v105.248c0 67.904 136.272 122.64 303.92 122.64 44.128 0.128 75.36-1.408 111.888-8.4z"
          fill="#9076F8"/>
    <path d="M112.672 427.744v105.248c0 67.36 136.272 122.096 303.84 122.096h22.24c2.752-37.008 22.768-75.952 48.704-107.728-26 2.816-44.736 4.576-70.864 4.576-167.648 0.064-303.92-54.672-303.92-124.192z"
          fill="#9076F8"/>
    <path d="M416.256 702.112C247.872 702.112 112 649.52 112 580.192v105.12c0 67.312 136.416 121.984 304.256 121.984h41.92c-17.408-30.64-22.784-64.624-22.784-105.12h-19.136v-0.064z"
          fill="#9076F8"/>
    <path d="M850.672 553.28c-81.872-81.76-214.592-81.76-296.528 0a209.184 209.184 0 0 0 0 296.048c81.872 81.76 214.592 81.76 296.48 0A209.184 209.184 0 0 0 912 701.296a208.848 208.848 0 0 0-61.328-148.032zM753.28 753.12c-21.12 21.28-38.08 43.52-48.96 63.36-10.88-19.84-27.84-42.08-48.96-63.2-21.28-21.28-43.52-38.08-63.36-48.96 19.84-10.88 42.08-27.84 63.36-48.96 21.12-21.12 38.08-43.52 48.96-63.36 10.88 19.84 27.68 42.08 48.96 63.2 21.28 21.28 43.52 38.08 63.36 48.96-19.84 10.88-42.08 27.68-63.36 48.96z"
          fill="#C7B0FF"/>
</svg>