<?xml version="1.0" standalone="no"?><!DOCTYPE svg PUBLIC "-//W3C//DTD SVG 1.1//EN"
        "http://www.w3.org/Graphics/SVG/1.1/DTD/svg11.dtd">
<svg class="icon" width="200px" height="200.00px" viewBox="0 0 1024 1024" version="1.1"
     xmlns="http://www.w3.org/2000/svg">
    <path d="M537.52 915.104l-376-46.4A56.432 56.432 0 0 1 112 812.704V211.344a56.432 56.432 0 0 1 49.504-56l376-46.416a56.416 56.416 0 0 1 63.36 55.984v694.208a56.416 56.416 0 0 1-63.36 55.968z"
          fill="#42B4FA"/>
    <path d="M484.144 571.184a24.8 24.8 0 0 1-24.8-24.8v-68.72a24.8 24.8 0 0 1 49.6 0v68.72a24.8 24.8 0 0 1-24.8 24.8z"
          fill="#FFFFFF"/>
    <path d="M773.76 435.344l-0.08 21.12a15.52 15.52 0 0 1-15.52 15.44h-88.368a12.96 12.96 0 0 0-12.96 12.96v59.312a12.944 12.944 0 0 0 12.96 12.944h222.96c16.992 0 25.616-20.448 13.76-32.624l-99.744-102.496c-12-12.272-32.896-3.84-33.008 13.344z"
          fill="#42B4FA"/>
    <path d="M670.128 427.52h60.336a62.336 62.336 0 0 1 19.68-38.72c6.56-6.112 14.336-10.752 22.816-13.632v-146.352a88.16 88.16 0 0 0-88.16-88.16h-14.224a13.584 13.584 0 0 0-13.568 13.568v274.848a56.48 56.48 0 0 1 13.12-1.536z m0 173.392a56.48 56.48 0 0 1-13.12-1.536v270.464a13.568 13.568 0 0 0 13.568 13.552h14.224a88.16 88.16 0 0 0 88.16-88.16V600.912h-102.832z"
          fill="#92DBFF"/>
</svg>