<?xml version="1.0" standalone="no"?><!DOCTYPE svg PUBLIC "-//W3C//DTD SVG 1.1//EN"
        "http://www.w3.org/Graphics/SVG/1.1/DTD/svg11.dtd">
<svg class="icon" width="200px" height="200.00px" viewBox="0 0 1024 1024" version="1.1"
     xmlns="http://www.w3.org/2000/svg">
    <path d="M609.6 404.8c40-6.4 81.6-3.2 120 11.2v-17.6C731.2 249.6 596.8 128 430.4 128 262.4 128 128 249.6 128 398.4c0 88 43.2 164.8 115.2 214.4l-8 118.4 121.6-72c14.4 3.2 30.4 4.8 46.4 6.4-3.2-41.6 4.8-81.6 20.8-118.4 16-36.8 43.2-70.4 75.2-94.4s70.4-41.6 110.4-48z m-131.2-6.4c-6.4 3.2-14.4 4.8-20.8 4.8-14.4 0-28.8-6.4-38.4-16-9.6-9.6-16-24-16-38.4 0-14.4 6.4-28.8 16-38.4 9.6-9.6 24-16 38.4-16 8 0 14.4 1.6 20.8 4.8 6.4 3.2 12.8 6.4 17.6 11.2 4.8 4.8 9.6 11.2 11.2 17.6 3.2 6.4 4.8 14.4 4.8 20.8s-1.6 14.4-4.8 20.8c-3.2 6.4-6.4 12.8-11.2 17.6-4.8 4.8-11.2 8-17.6 11.2z m-164.8 0c-6.4 3.2-14.4 4.8-20.8 4.8-14.4 0-28.8-6.4-38.4-16-9.6-9.6-16-24-16-38.4 0-14.4 6.4-28.8 16-38.4 9.6-9.6 24-16 38.4-16 8 0 14.4 1.6 20.8 4.8 6.4 3.2 12.8 6.4 17.6 11.2 4.8 4.8 9.6 11.2 11.2 17.6 3.2 6.4 4.8 14.4 4.8 20.8s-1.6 14.4-4.8 20.8c-3.2 6.4-6.4 12.8-11.2 17.6-4.8 4.8-11.2 8-17.6 11.2z"
          fill="#FDBA54"/>
    <path d="M868.8 635.232l-35.2-8c-3.2-8-6.4-17.6-11.2-25.6l19.2-32c6.4-11.2 11.2-28.8 0-38.4l-19.2-19.2c-3.2-1.6-6.4-4.8-9.6-4.8-3.2-1.6-6.4-1.6-11.2-1.6-8 0-14.4 1.6-20.8 6.4l-28.8 19.2c-8-4.8-16-8-25.6-11.2l-8-35.2c-1.6-12.8-14.4-27.2-28.8-27.2h-27.2c-16 0-24 14.4-27.2 27.2l-9.6 35.2c-9.6 3.2-17.6 6.4-27.2 11.2l-32-20.8c-6.4-3.2-12.8-6.4-20.8-6.4-3.2 0-6.4 0-11.2 1.6l-9.6 4.8-19.2 19.2c-11.2 11.2-6.4 27.2 0 38.4l19.2 33.6-9.6 24-35.2 8c-12.8 3.2-27.2 14.4-27.2 28.8v27.2c0 16 14.4 24 27.2 27.2l35.2 8c3.2 8 4.8 14.4 9.6 22.4l-19.2 33.6c-6.4 11.2-11.2 28.8 0 38.4l19.2 19.2c3.2 3.2 6.4 4.8 9.6 6.4 6.4 3.2 9.6 3.2 12.8 3.2 8 0 14.4-1.6 20.8-6.4l32-20.8c8 4.8 17.6 8 27.2 11.2l8 35.2c3.2 12.8 12.8 27.2 27.2 27.2h27.2c14.4 0 27.2-14.4 28.8-27.2l8-35.2c8-3.2 16-6.4 24-11.2l30.4 19.2c6.4 3.2 12.8 6.4 20.8 6.4 3.2 0 6.4 0 11.2-1.6 3.2-1.6 6.4-3.2 9.6-6.4l19.2-19.2c11.2-11.2 6.4-27.2 0-38.4l-19.2-32 9.6-24 35.2-8c12.8-3.2 27.2-12.8 27.2-27.2v-27.2c1.6-14.4-12.8-25.6-25.6-27.2z m-192 96c-30.4 0-56-25.6-56-56s25.6-56 56-56 56 25.6 56 56-25.6 56-56 56z"
          fill="#FFDE8D"/>
</svg>