<?xml version="1.0" standalone="no"?><!DOCTYPE svg PUBLIC "-//W3C//DTD SVG 1.1//EN"
        "http://www.w3.org/Graphics/SVG/1.1/DTD/svg11.dtd">
<svg class="icon" width="200px" height="200.00px" viewBox="0 0 1024 1024" version="1.1"
     xmlns="http://www.w3.org/2000/svg">
    <path d="M535.008 616.592c11.168-16.24 32.992-40.48 65.472-72.688l2.8-7.68c6.912-11.6 13.04-23.696 18.272-36.176a3.2 3.2 0 0 1 2.432-1.984c22.304-3.344 42.88-27.808 50.208-60.672 7.968-36-1.072-69.856-21.648-83.408a3.52 3.52 0 0 1-1.504-2.992c1.072-68.848-15.152-123.488-48.32-162.368C560.128 138.512 501.6 128 460 128c-41.536 0-100.064 10.512-142.688 60.624-33.168 38.88-49.392 93.52-48.304 162.368a3.504 3.504 0 0 1-1.472 2.992c-20.608 13.552-29.68 47.392-21.68 83.408 7.296 32.864 27.904 57.36 50.176 60.672a3.2 3.2 0 0 1 2.4 2c15.92 37.52 37.76 68.816 63.36 90.8 0.256 0.192 0.48 0.432 0.64 0.704 8.672 9.872 8.752 24.848 8.672 25.024-0.24 0.352-0.048 8.736 0.16 17.92 0.24 11.36 0.512 23.952 0.048 24-15.6 1.904-61.904 8.288-106.608 24.208-28.768 10.24-53.152 22.72-72.352 37.072-24.736 18.464-41.36 40.304-49.328 64.96a28 28 0 0 0-1.312 8.416v36.48c0 16.096 12.048 29.12 26.864 29.12h363.168a246.032 246.032 0 0 1-31.92-121.76c0-35.28 6.144-78.048 35.2-120.416z"
          fill="#FB6F5C"/>
    <path d="M700 564.896c-77.008 0-140 63.008-140 140 0 77.008 63.008 140 140 140 77.008 0 140-62.992 140-140 0-77.696-63.008-140-140-140z m-51.792 66.512a37.712 37.712 0 0 0-9.12 4.896c-2.784 2.096-5.6 4.192-8.384 6.992-2.096 2.096-4.896 4.896-6.304 7.696-2.096 2.8-3.504 6.304-4.896 9.12-1.408 2.784-4.208 4.192-7.008 2.784-2.8-1.392-4.192-4.192-2.8-6.992 1.408-3.504 3.504-7.696 6.304-11.2a52.8 52.8 0 0 1 17.504-17.504c3.488-2.096 6.992-4.208 11.2-6.304 2.8-1.392 6.304 0 6.992 2.8 0.704 3.504-0.704 6.304-3.488 7.696z m144.896 123.888c-3.504 7.696-7.712 14.704-14 21.008-6.304 6.304-13.312 11.2-21.008 14-7.696 3.488-16.096 4.896-25.2 4.896a6.016 6.016 0 0 1-5.6-5.6c0-2.8 2.096-5.6 5.6-5.6 7.008 0 14-1.392 21.008-4.208 6.304-2.8 12.592-6.288 17.488-11.888 5.6-4.896 9.12-11.2 11.904-17.504a53.6 53.6 0 0 0 4.208-21.008c0-2.8 2.8-5.6 5.6-5.6s5.6 2.8 5.6 5.6a100 100 0 0 1-5.6 25.92z m85.392 99.408l-39.2-40.608a20.16 20.16 0 0 0-14.704-6.304c-5.6 0-10.496 2.112-14.688 6.304a21.12 21.12 0 0 0 0 30.112l39.2 40.592c4.192 4.208 9.104 6.304 14.688 6.304 5.6 0 10.512-2.112 14.72-6.304a21.12 21.12 0 0 0 0-30.096z"
          fill="#FEAFA0"/>
</svg>