<?xml version="1.0" standalone="no"?><!DOCTYPE svg PUBLIC "-//W3C//DTD SVG 1.1//EN"
        "http://www.w3.org/Graphics/SVG/1.1/DTD/svg11.dtd">
<svg class="icon" width="200px" height="200.00px" viewBox="0 0 1024 1024" version="1.1"
     xmlns="http://www.w3.org/2000/svg">
    <path d="M674.22 789.58H357a31.72 31.72 0 0 1-31.72-31.72v-47.58h380.65v47.58a31.72 31.72 0 0 1-31.71 31.72z m0 0"
          fill="#3CE4D6"/>
    <path d="M775.52 881.3h-527c-30.77 0-55.8-25.49-55.8-56.82V708a57.39 57.39 0 0 1 18.76-42.58l153.79-139c-36.89-43.51-55.49-103.4-58.73-136.15-3.5-35.41-5.78-124.45 48.85-186.29 35.88-40.62 88.43-61.22 156.18-61.22 71.66 0 126.61 21.79 163.33 64.75 56.1 65.58 49.1 157.13 45.58 183.62-7 52.95-28.83 102.08-60.2 137.3l152.17 136.92A57.42 57.42 0 0 1 831.31 708v116.48c0 31.33-25 56.82-55.79 56.82z m-264-681.78c-51.38 0-90.07 14.3-115 42.5C356.86 287 359 356.62 361.77 384.49c3.07 31.15 24.74 91 61.49 120.47a28.82 28.82 0 0 1 1.25 43.63L248.22 708v116.48h527.3l0.26-116.48-175.26-157.69a28.8 28.8 0 0 1 1.48-43.93c38.8-30.22 58.19-83.26 63.39-122.82 1.93-14.59 9.39-89.86-32.36-138.71-25.71-30.08-66.59-45.33-121.53-45.33z m0 0"
          fill="#333333"/>
    <path d="M157.7 778.32h-27.45V679L280.5 543.19a24.57 24.57 0 0 0-1.07-37.19c-31.32-25.14-49.79-76.12-52.41-102.68-2.36-23.75-4.18-83.11 29.65-121.42 10.77-12.18 24.55-21.31 41.22-27.36a199.51 199.51 0 0 1 30.79-56c-45.34 4.6-81.29 21.67-107.12 50.91C175 302.14 177 378 179.92 408.2c2.77 27.92 18.62 79 50.06 116L98.92 642.73a49 49 0 0 0-16 36.29v99.3c0 26.7 21.33 48.42 47.56 48.42h27.22zM870.83 778.32h27.44V679L748 543.19a24.57 24.57 0 0 1 1.09-37.19c31.32-25.14 49.79-76.12 52.41-102.68 2.36-23.75 4.18-83.11-29.65-121.42-10.76-12.18-24.55-21.31-41.22-27.36a199.73 199.73 0 0 0-30.78-56c45.33 4.6 81.29 21.67 107.12 50.91C853.52 302.14 851.58 378 848.6 408.2c-2.76 27.92-18.62 79-50.06 116l131.07 118.53a48.93 48.93 0 0 1 16 36.29v99.3c0 26.7-21.33 48.42-47.56 48.42h-27.22z"
          fill="#333333"/>
</svg>