<?xml version="1.0" standalone="no"?><!DOCTYPE svg PUBLIC "-//W3C//DTD SVG 1.1//EN"
        "http://www.w3.org/Graphics/SVG/1.1/DTD/svg11.dtd">
<svg class="icon" width="200px" height="200.00px" viewBox="0 0 1024 1024" version="1.1"
     xmlns="http://www.w3.org/2000/svg">
    <path d="M57.173333 160m128.426667 0l656 0q128.426667 0 128.426667 128.426667l0 463.36q0 128.426667-128.426667 128.426666l-656 0q-128.426667 0-128.426667-128.426666l0-463.36q0-128.426667 128.426667-128.426667Z"
          fill="#839BFB"/>
    <path d="M713.386667 474.666667H311.253333a32 32 0 0 1 0-64h339.626667l-30.72-42.666667a32 32 0 0 1 52.053333-37.546667l67.2 93.44a32 32 0 0 1-26.026666 50.773334zM369.706667 732.373333a32.426667 32.426667 0 0 1-26.026667-13.44L277.333333 625.706667a31.786667 31.786667 0 0 1-2.56-33.28 32.213333 32.213333 0 0 1 27.733334-16.426667H704a32 32 0 0 1 0 64H365.013333l30.72 42.666667a32 32 0 0 1-7.253333 42.666666 32.426667 32.426667 0 0 1-18.773333 7.04z"
          fill="#FFFFFF"/>
</svg>