<?xml version="1.0" standalone="no"?><!DOCTYPE svg PUBLIC "-//W3C//DTD SVG 1.1//EN"
        "http://www.w3.org/Graphics/SVG/1.1/DTD/svg11.dtd">
<svg class="icon" width="200px" height="200.00px" viewBox="0 0 1024 1024" version="1.1"
     xmlns="http://www.w3.org/2000/svg">
    <path d="M400.96 682.272c0-27.52 4.272-54.048 12.4-78.992 8.112-25.36 20.064-48.288 34.656-69.408a273.536 273.536 0 0 1 53.04-56.064c19.984-16.48 42.768-29.232 67.12-39.152 1.696-3.744 2.704-7.44 4.96-13.344l3.712-10.128c0.544-3.152 1.68-6.32 2.688-8.928 4.96-1.68 9.264-4.288 13.424-8.016 3.744-3.168 6.976-8 10.256-13.76 2.688-5.856 4.96-14.352 5.968-24.352 0.56-7.44 0.56-13.76-0.544-19.056-1.6-5.296-2.688-9.472-4.96-12.752a27.36 27.36 0 0 0-8.112-9.04c0-19.632-1.68-38.688-3.712-57.2a335.68 335.68 0 0 0-12.4-51.904 140.384 140.384 0 0 0-27.088-49.76A117.264 117.264 0 0 0 530.24 140.8a207.168 207.168 0 0 0-31.792-17.504 274.784 274.784 0 0 0-38.368-12.192 178.768 178.768 0 0 0-41.04-4.848c-10.816 0-22.128 1.008-34.08 2.704a152 152 0 0 0-35.744 9.456 155.232 155.232 0 0 0-34.624 19.648c-10.848 8-21.12 18.624-30.784 31.792a148.064 148.064 0 0 0-22.128 46.608 372.256 372.256 0 0 0-10.256 48.736 570.608 570.608 0 0 0-2.688 53.472 51.984 51.984 0 0 0-9.264 14.752 60.24 60.24 0 0 0-4.288 17.504c-0.544 6.304 0.544 13.76 2.688 21.792 2.144 8.448 5.44 14.336 8.704 18.624 3.296 4.304 6.448 8 9.264 10.144 3.744 2.144 6.976 3.696 10.256 4.832 2.144 7.456 4.96 14.768 6.992 21.792 2.144 6.304 4.96 12.192 8.112 18.048 2.688 5.84 6.432 10.592 10.272 13.76 8.112 6.88 15.68 13.328 22.112 19.632 6.432 6.304 10.272 15.44 11.408 25.952 0.544 8.032 0.544 14.336 0.544 20.64 0 5.904-1.68 11.616-3.744 17.504a64.544 64.544 0 0 1-11.952 17.504c-5.504 5.84-12.96 11.6-23.344 18.048-8.112 5.28-17.824 9.456-28.096 13.28-10.256 3.744-21.12 6.896-31.92 10.144-11.392 3.152-22.128 6.304-32.512 9.456-10.272 3.744-19.984 8-28.64 13.344-8.72 5.888-16.24 12.192-22.128 19.632-5.968 7.456-9.712 16.912-11.952 28.56-4.96 30.72-5.968 55.616-3.28 75.12 2.688 19.648 6.432 31.248 11.952 35.008 3.28 2.144 10.256 4.832 21.12 6.88 10.848 2.16 24.352 4.848 40.032 6.912 16.24 2.688 33.52 4.832 53.04 6.88 19.392 2.16 39.04 4.304 58.432 5.904 20.048 1.6 39.024 2.608 57.408 3.616s34.656 1.68 48.752 1.68h19.04a282.72 282.72 0 0 1-27.088-63.04 254.4 254.4 0 0 1-9.712-70.288z"
          fill="#F66462"/>
    <path d="M879.616 597.552a230.368 230.368 0 0 0-48.736-70.944 228.784 228.784 0 0 0-71.888-47.616c-27.632-11.616-56.736-17.504-88.24-17.504-31.376 0-61.168 5.856-88.672 17.504a226.176 226.176 0 0 0-71.888 47.616c-20.512 20.064-36.752 44-48.736 70.944-11.952 27.088-17.84 55.616-17.84 86.32 0 30.704 5.968 59.344 17.84 86.304a230.32 230.32 0 0 0 48.736 70.96 228.848 228.848 0 0 0 71.888 47.616 227.456 227.456 0 0 0 88.672 17.488c31.248 0 60.56-5.84 88.24-17.488a226.16 226.16 0 0 0 71.872-47.616c20.656-20.064 36.768-44 48.752-70.96 11.952-27.088 17.84-55.6 17.84-86.304 0-30.576-5.968-59.232-17.84-86.32z m-146.624 184.704a33.84 33.84 0 0 1-23.92-9.92L641.6 704.592a33.44 33.44 0 0 1-9.92-23.808v-135.056a33.728 33.728 0 1 1 67.472 0v121.168l57.648 57.664a33.712 33.712 0 0 1 0 47.744 33.76 33.76 0 0 1-23.808 9.92z"
          fill="#FFA4A4"/>
</svg>