<?xml version="1.0" standalone="no"?><!DOCTYPE svg PUBLIC "-//W3C//DTD SVG 1.1//EN"
        "http://www.w3.org/Graphics/SVG/1.1/DTD/svg11.dtd">
<svg class="icon" width="200px" height="200.00px" viewBox="0 0 1024 1024" version="1.1"
     xmlns="http://www.w3.org/2000/svg">
    <path d="M914.29 470.79a404.28 404.28 0 0 0-42-2.17q-10.41 0-20.7 0.53C830 301.61 686.44 171.75 513.11 171.75c-188.22 0-341.34 153.12-341.34 341.33 0 173.43 130 317.06 297.67 338.56q-0.51 10.13-0.51 20.37a405.09 405.09 0 0 0 2.21 42.3c-202.79-21-361.43-193-361.43-401.23 0-222.43 181-403.39 403.4-403.39 208.16 0 379.98 158.47 401.18 361.1z"
          fill="#333333"/>
    <path d="M607.21 526.7h-221.9l-29.91 93.08h-86.25l136.28-362.52h100.06z m-102.29-56.34l-12.66-39.68C479 393 467.54 351.32 454.89 312.13h-2.3C441.66 351.81 429 393 416.36 430.68l-12.65 39.68z"
          fill="#333333"/>
    <path d="M901.7 544.48v228.74h-57.29V750.3h-103.6v143h-57.76v-143H579.92v25.21h-55v-231h158.13v-79.3h57.76v79.3zM683.05 696.67v-98.56H579.92v98.56z m161.36 0v-98.56h-103.6v98.56z"
          fill="#3CE4D6"/>
</svg>