<?xml version="1.0" standalone="no"?><!DOCTYPE svg PUBLIC "-//W3C//DTD SVG 1.1//EN"
        "http://www.w3.org/Graphics/SVG/1.1/DTD/svg11.dtd">
<svg class="icon" width="200px" height="200.00px" viewBox="0 0 1024 1024" version="1.1"
     xmlns="http://www.w3.org/2000/svg">
    <path d="M512 128a384 384 0 1 1 0 768 384 384 0 0 1 0-768z m99.84 144a139.68 139.68 0 0 0-139.68 140.16V617.6a60 60 0 1 1-60-65.76H416a39.904 39.904 0 0 0-4.32-79.68 140.16 140.16 0 1 0 139.68 139.68V406.4a60 60 0 1 1 59.52 65.76H608a39.84 39.84 0 0 0-35.52 44.16 39.36 39.36 0 0 0 39.84 35.52 140.16 140.16 0 0 0 4.8-279.84h-5.28z"
          fill="#3DD5BB"/>
    <path d="M611.84 272a139.68 139.68 0 0 0-139.68 140.16V617.6a60 60 0 1 1-60-65.76H416a39.904 39.904 0 0 0-4.32-79.68 140.16 140.16 0 1 0 139.68 139.68V406.4a60 60 0 1 1 59.52 65.76H608a39.84 39.84 0 0 0-35.52 44.16 39.36 39.36 0 0 0 39.84 35.52 140.16 140.16 0 0 0 4.8-279.84h-5.28z"
          fill="#FFFFFF"/>
    <path d="M784 784m-112 0a112 112 0 1 0 224 0 112 112 0 1 0-224 0Z" fill="#ADF0EA"/>
</svg>