<?xml version="1.0" standalone="no"?><!DOCTYPE svg PUBLIC "-//W3C//DTD SVG 1.1//EN"
        "http://www.w3.org/Graphics/SVG/1.1/DTD/svg11.dtd">
<svg class="icon" width="200px" height="200.00px" viewBox="0 0 1024 1024" version="1.1"
     xmlns="http://www.w3.org/2000/svg">
    <path d="M369.136 226.288h285.712c15.248 0 30.48-11.424 30.48-30.48V142.48c0-15.248-11.424-30.48-30.48-30.48H369.136c-15.232 0-30.48 11.424-30.48 30.48v57.136c3.824 15.248 15.248 26.672 30.48 26.672z"
          fill="#FECC87"/>
    <path d="M792 150.064h-68.576v45.712c0 41.92-34.288 72.384-72.384 72.384H369.136c-38.08 0-72.384-34.288-72.384-72.384V150.08H232c-38.096 0-72.384 38.08-72.384 80v601.92c0 45.696 30.48 80 72.384 80h552.384c22.848 0 41.904-7.632 57.136-22.88 15.248-15.232 22.864-34.272 22.864-57.12v-601.92c0-41.92-30.48-80-72.384-80zM289.12 447.2c0-3.824 0-7.632 3.808-11.44l41.92-41.904c7.616-3.808 15.232-3.808 19.04 0l26.672 26.672c11.424 11.424 11.424 26.672 3.808 41.904l53.328 53.328-26.672 22.864-53.328-53.344c-3.808 0-11.424 3.824-15.232 3.824-11.44 0-19.04-3.824-26.672-11.44l-26.672-26.656c3.808 3.808 0 0 0-3.808z m380.96 323.808c-7.616 7.616-22.864 15.232-34.288 15.232-11.424 0-22.864-3.808-30.48-11.424l-80-80 68.576-68.576 80 80c7.616 7.616 11.424 19.04 11.424 30.48 3.808 11.424-7.616 26.656-15.232 34.288z m45.712-266.672c-11.424 60.96-64.768 95.232-125.712 83.808l-72.384 64.768-91.424 91.424c-11.44 11.424-30.48 19.04-45.712 19.04-19.04 0-34.288-7.616-45.728-19.04-15.232-11.424-22.848-26.672-22.848-45.712 0-19.04 7.616-34.288 19.04-45.712l121.92-106.672 34.272-30.48 11.424-7.616c-11.424-38.08 0-80 30.48-106.672 26.672-26.656 68.576-38.08 106.672-30.464 3.808 0 11.424 3.808 11.424 11.424 0 3.808 0 11.424-3.808 15.232l-19.04 19.04c-11.44 11.44-11.44 34.304 0 45.728 11.424 15.232 34.272 15.232 49.52 3.808l19.04-19.04c3.824-3.824 11.44-3.824 15.248-3.824s11.424 7.632 11.424 11.44c0 15.232 0 34.288-3.808 49.52z"
          fill="#FD9F55"/>
</svg>