<?xml version="1.0" standalone="no"?><!DOCTYPE svg PUBLIC "-//W3C//DTD SVG 1.1//EN"
        "http://www.w3.org/Graphics/SVG/1.1/DTD/svg11.dtd">
<svg class="icon" width="200px" height="200.00px" viewBox="0 0 1024 1024" version="1.1"
     xmlns="http://www.w3.org/2000/svg">
    <path d="M395.616 561.248v-90.496c-66.128-28.96-112.32-94.976-112.32-171.568 0-103.376 84-187.184 187.2-187.184 103.376 0 187.184 83.984 187.184 187.184 0 76.768-46.288 142.72-112.32 171.568v90.48h168.336c51.776 0 93.728 41.6 93.728 93.648v93.632H133.568V654.88c0-51.68 42.128-93.632 93.728-93.632h168.32zM133.568 785.84H807.52v74.88H133.568v-74.88z"
          fill="#3DD5BB"/>
    <path d="M807.424 748.512H133.568v37.344H807.52l-0.096-37.344z" fill="#FFFFFF"/>
    <path d="M512.192 722.88a189.12 189.12 0 1 0 378.24 0 189.12 189.12 0 0 0-378.24 0z" fill="#ADF0EA"/>
    <path d="M823.488 758.032a22.4 22.4 0 0 1-0.256 7.456 44.944 44.944 0 0 1-2.56 8.88 38.416 38.416 0 0 1-4.384 8.112 15.856 15.856 0 0 1-5.664 5.152 12.448 12.448 0 0 1-5.408 1.552 15.184 15.184 0 0 1-5.152-1.04 53.728 53.728 0 0 0-6.432-1.408 29.92 29.92 0 0 0-7.84-0.256c-2.672 0.256-5.328 0.8-8 1.664a15.616 15.616 0 0 0-6.816 4.384 25.344 25.344 0 0 0-7.2 14.672c-0.688 5.488 0.08 10.72 2.304 15.696 1.728 3.44 1.472 6.88-0.768 10.304a19.2 19.2 0 0 1-4.896 4.24c-2.224 1.472-4.672 2.8-7.328 4-2.656 1.2-5.44 2.144-8.368 2.832a34.24 34.24 0 0 1-7.728 1.024 6.56 6.56 0 0 1-4.368-1.792 9.76 9.76 0 0 1-2.832-3.872h-0.256a31.84 31.84 0 0 0-9.664-13.76 23.728 23.728 0 0 0-15.84-5.808c-5.824 0-11.104 1.936-15.824 5.792a31.28 31.28 0 0 0-9.92 13.52 8.768 8.768 0 0 1-3.84 4.512 11.552 11.552 0 0 1-5.68 1.408c-2.4 0-5.104-0.432-8.096-1.28a75.328 75.328 0 0 1-9.024-3.216 43.04 43.04 0 0 1-8.096-4.512 22.4 22.4 0 0 1-5.408-5.152 7.84 7.84 0 0 1-1.424-4.24c-0.08-1.632 0.56-3.904 1.92-6.832a25.76 25.76 0 0 0 2.208-13.504c-0.432-5.072-2.624-9.76-6.56-14.032a16.752 16.752 0 0 0-8.768-5.024 35.6 35.6 0 0 0-9.776-0.896 43.2 43.2 0 0 0-11.072 2.048 10.48 10.48 0 0 1-7.2-0.512c-1.888-0.688-3.648-2.272-5.28-4.752a53.328 53.328 0 0 1-7.344-17.52 21.488 21.488 0 0 1-0.512-7.84c0.512-3.776 2.24-6.176 5.152-7.2 5.152-2.08 9.776-5.456 13.904-10.176 4.112-4.72 6.176-10 6.176-15.84a22.4 22.4 0 0 0-6.176-15.696 38.112 38.112 0 0 0-13.92-9.792c-1.536-0.512-2.816-1.76-3.84-3.728a12.96 12.96 0 0 1-1.552-6.048c0-2.24 0.336-4.72 1.024-7.472 0.688-2.736 1.6-5.408 2.72-7.968 1.104-2.576 2.4-4.944 3.84-7.088a15.68 15.68 0 0 1 4.768-4.768 5.952 5.952 0 0 1 4-1.024c1.28 0.16 2.704 0.512 4.24 1.024 5.152 2.064 10.512 2.72 16.096 1.936 5.568-0.768 10.512-3.216 14.8-7.344 2.064-2.048 3.552-4.576 4.496-7.584a41.76 41.76 0 0 0 1.808-16.864 100.24 100.24 0 0 0-0.64-5.152 27.744 27.744 0 0 1-0.896-3.6 5.6 5.6 0 0 1 0.384-3.6 14.72 14.72 0 0 1 5.536-6.32c2.656-1.792 5.536-3.296 8.624-4.496 3.088-1.2 6.08-2.112 9.008-2.72 2.912-0.592 5.232-0.88 6.944-0.88 2.24 0 4 0.72 5.28 2.176a13.12 13.12 0 0 1 2.704 4.512c1.888 4.64 4.976 8.704 9.28 12.224 4.272 3.52 9.344 5.28 15.184 5.28 6 0 11.312-1.68 15.952-5.024 4.64-3.344 7.904-7.584 9.776-12.736a16.8 16.8 0 0 1 3.232-4.256c1.44-1.44 2.96-2.176 4.496-2.176 2.4 0 5.024 0.336 7.84 1.024 2.848 0.688 5.632 1.632 8.384 2.832 2.736 1.2 5.28 2.736 7.584 4.64 2.32 1.872 4.16 3.936 5.536 6.176a5.92 5.92 0 0 1 0.784 4.496 15.888 15.888 0 0 1-1.04 3.488c-2.24 4.96-2.912 10.208-2.048 15.68 0.848 5.504 3.344 10.32 7.456 14.432 4.128 4.112 9.184 6.4 15.2 6.816 6 0.432 11.584-0.56 16.72-2.96a7.936 7.936 0 0 1 5.024-1.024 7.84 7.84 0 0 1 5.024 2.32c2.56 2.4 4.848 6.048 6.816 10.944 1.984 4.88 3.312 9.824 4 14.8 0.336 2.912-0.128 5.184-1.424 6.816a9.6 9.6 0 0 1-4 3.216 30.208 30.208 0 0 0-13.632 9.92c-3.776 4.72-5.664 10.08-5.664 16.08 0 5.84 1.6 10.944 4.768 15.328 3.168 4.368 7.328 7.504 12.48 9.392 1.2 0.688 2.24 1.376 3.088 2.064 1.888 1.536 3.184 3.52 3.856 5.92z m-119.696 23.168c7.712 0 15.008-1.456 21.872-4.384a54.96 54.96 0 0 0 17.888-12.096 57.92 57.92 0 0 0 11.984-17.888c2.912-6.784 4.368-14.032 4.368-21.76 0-7.728-1.44-14.976-4.368-21.76a56.336 56.336 0 0 0-11.968-17.76 55.952 55.952 0 0 0-17.904-11.968 55.36 55.36 0 0 0-21.872-4.368c-7.728 0-14.976 1.44-21.76 4.368a56.32 56.32 0 0 0-17.76 11.968 56.336 56.336 0 0 0-11.968 17.76 54.416 54.416 0 0 0-4.384 21.76c0 7.728 1.456 14.976 4.384 21.76 2.912 6.768 6.896 12.736 11.968 17.888 5.056 5.152 10.976 9.184 17.76 12.096 6.784 2.928 14.032 4.384 21.76 4.384z"
          fill="#FFFFFF"/>
</svg>