<?xml version="1.0" standalone="no"?><!DOCTYPE svg PUBLIC "-//W3C//DTD SVG 1.1//EN"
        "http://www.w3.org/Graphics/SVG/1.1/DTD/svg11.dtd">
<svg class="icon" width="200px" height="200.00px" viewBox="0 0 1024 1024" version="1.1"
     xmlns="http://www.w3.org/2000/svg">
    <path d="M512.24 228.39h0.01l0.01-0.01-0.02 0.01z" fill="#69F4F4"/>
    <path d="M806.54 933.09H217A62.12 62.12 0 0 1 154.92 871V452.61a62.1 62.1 0 0 1 20.67-46.24l295.27-264.23a62 62 0 0 1 82.85 0.08L848 406.4a62.13 62.13 0 0 1 20.6 46.18V871a62.12 62.12 0 0 1-62.05 62.06z"
          fill="#333333"/>
    <path d="M512.25 188.39L216.98 452.61v418.42h589.56V452.58L512.25 188.39z" fill="#3CE4D6"/>
    <path d="M370.5 833A118.5 118.5 0 1 1 489 714.5 118.64 118.64 0 0 1 370.5 833z m0-177a58.5 58.5 0 1 0 58.5 58.5 58.56 58.56 0 0 0-58.5-58.5zM653.5 833A118.5 118.5 0 1 1 772 714.5 118.64 118.64 0 0 1 653.5 833z m0-177a58.5 58.5 0 1 0 58.5 58.5 58.56 58.56 0 0 0-58.5-58.5z"
          fill="#333333"/>
</svg>