<?xml version="1.0" standalone="no"?><!DOCTYPE svg PUBLIC "-//W3C//DTD SVG 1.1//EN"
        "http://www.w3.org/Graphics/SVG/1.1/DTD/svg11.dtd">
<svg class="icon" width="200px" height="200.00px" viewBox="0 0 1024 1024" version="1.1"
     xmlns="http://www.w3.org/2000/svg">
    <path d="M758.592 572.992L442.88 813.232a75.392 75.392 0 0 1-45.696 15.44h-122.944a116.608 116.608 0 0 1-116.096-117.088v-489.44a116.608 116.608 0 0 1 116.096-117.088h398.4a116.608 116.608 0 0 1 116.096 117.072v289.824a76.736 76.736 0 0 1-30.16 61.04z"
          fill="#F66462"/>
    <path d="M577.392 364.672H357.648a36.96 36.96 0 0 1 0-73.92h219.744a36.96 36.96 0 0 1 0 73.92z m0 187.584H357.648a36.96 36.96 0 1 1 0-73.92h219.744a36.96 36.96 0 0 1 0 73.92z"
          fill="#FFFFFF"/>
    <path d="M846.72 689.776c3.04 14.016 2.08 27.84-2.896 41.504-4.992 13.648-13.696 25.088-26.096 34.336-11.968 8.864-24.976 13.728-39.04 14.608a73.12 73.12 0 0 1-39.664-8.56c-4.816 5.088-10.944 11.472-18.352 19.152-7.408 7.696-15.488 15.952-24.272 24.768a8889.44 8889.44 0 0 1-26.992 27.04c-9.216 9.2-17.968 17.808-26.24 25.84-8.288 8.032-15.76 15.04-22.432 21.04-6.656 6-11.696 10.272-15.12 12.8-6.384 4.688-13.44 7.344-21.216 7.968a57.856 57.856 0 0 1-22.432-2.512 63.888 63.888 0 0 1-19.84-10.432c-6.016-4.656-10.4-9.76-13.152-15.296-3.808-7.712-6.064-14.88-6.752-21.536a45.84 45.84 0 0 1 1.728-18.672c1.84-5.824 4.848-11.2 9.024-16.128 4.192-4.944 9.248-9.552 15.168-13.872 3.072-2.4 8.128-5.568 15.2-9.52a1977.808 1977.808 0 0 1 54.336-29.28c10.64-5.552 21.152-10.944 31.52-16.176a4388.48 4388.48 0 0 1 29.632-14.864c9.392-4.656 17.376-8.56 23.936-11.728a69.392 69.392 0 0 1-4.16-23.44 78.128 78.128 0 0 1 3.344-23.36c2.272-7.504 5.728-14.56 10.368-21.152a76.16 76.16 0 0 1 17.184-17.52 70.208 70.208 0 0 1 22.4-11.12 78.016 78.016 0 0 1 24.272-3.152c8.096 0.24 16 1.76 23.696 4.576 7.696 2.8 14.816 6.928 21.344 12.384a3.104 3.104 0 0 0-0.864 0.48 3.12 3.12 0 0 1-0.864 0.496l-40 29.088c-5.808 4.08-9.168 9.44-10.08 16.096-0.912 6.656 0.672 12.896 4.736 18.72 4.08 5.824 9.44 9.184 16.096 10.08 6.656 0.912 12.768-0.72 18.352-4.896l38.112-27.76zM596 866.112a14.368 14.368 0 0 0 6.48-10.32 15.296 15.296 0 0 0-2.8-11.824 16.64 16.64 0 0 0-10.592-6.368 14.544 14.544 0 0 0-11.552 2.688 15.408 15.408 0 0 0-6.64 10.704 15.296 15.296 0 0 0 2.8 11.808c2.768 3.52 6.304 5.648 10.592 6.384a14.304 14.304 0 0 0 11.712-3.072z"
          fill="#FFA4A4"/>
</svg>