<?xml version="1.0" standalone="no"?><!DOCTYPE svg PUBLIC "-//W3C//DTD SVG 1.1//EN"
        "http://www.w3.org/Graphics/SVG/1.1/DTD/svg11.dtd">
<svg class="icon" width="200px" height="200.00px" viewBox="0 0 1024 1024" version="1.1"
     xmlns="http://www.w3.org/2000/svg">
    <path d="M380.88 867.17a27.35 27.35 0 0 1-27.37-27.36V736.74c-120.58-51.55-197.45-157.56-197.45-274.63 0-169 159.61-306.54 355.8-306.54s355.8 137.52 355.8 306.54c0 166.36-154.59 302.18-346.51 306.44l-123.81 93.13a27.31 27.31 0 0 1-16.46 5.49z m131-656.86c-166 0-301.06 113-301.06 251.8 0 99.6 70.5 190 179.58 230.42a27.36 27.36 0 0 1 17.87 25.66V785l87.16-65.56a27.38 27.38 0 0 1 16.45-5.5c166 0 301.07-113 301.07-251.8s-135.06-251.8-301.07-251.8z m0 0"
          fill="#333333"/>
    <path d="M469.4 640c-80.15-8.45-145.94-57.26-182-135.16A22.73 22.73 0 0 1 300.24 474l42-15.32c26.47 72.62 82 114.27 152.4 114.27v44.49A22.79 22.79 0 0 1 469.4 640z m25.25 1.32"
          fill="#3CE4D6"/>
</svg>