<?xml version="1.0" standalone="no"?><!DOCTYPE svg PUBLIC "-//W3C//DTD SVG 1.1//EN"
        "http://www.w3.org/Graphics/SVG/1.1/DTD/svg11.dtd">
<svg class="icon" width="200px" height="200.00px" viewBox="0 0 1024 1024" version="1.1"
     xmlns="http://www.w3.org/2000/svg">
    <path d="M561.28 692.064a26.768 26.768 0 0 1 27.328-25.76 26.976 26.976 0 0 1 26.464 26.752A27.248 27.248 0 0 1 586.448 720a26.864 26.864 0 0 1-25.168-27.936zM642.704 673.392h100.896c0.896 0 1.584 0.576 1.68 1.472l0.88 36.88a1.824 1.824 0 0 1-0.48 1.168 1.632 1.632 0 0 1-1.184 0.496h-101.792a1.808 1.808 0 0 1-1.184-0.48 1.632 1.632 0 0 1-0.48-1.184v-36.88a1.616 1.616 0 0 1 1.664-1.488zM779.696 625.104H607.296c-16.032 0-28.624-26.56-28.624-26.656-3.136-21.92 28.64-60.288 28.64-60.288v1.184h171.504a77.328 77.328 0 0 1 21.44 45.728 40.16 40.16 0 0 1-20.56 40.032zM776.064 692.064a26.768 26.768 0 0 1 27.328-25.76c14.56 0.288 26.256 12.192 26.464 26.848A28.72 28.72 0 0 1 801.232 720a26.8 26.8 0 0 1-25.168-27.936z"
          fill="#FFDE8D"/>
    <path d="M452.4 652.832c0.4-131.296 107.104-237.312 238.4-237.008 131.184 0.288 237.392 106.896 237.2 238.08-0.592 131.488-107.488 237.808-238.976 237.6-131.2-0.576-237.216-107.488-236.624-238.672z m404.48 120.672v-100.32l-13.648-53.488h20.848l-1.184-19.968h-41.696a138.816 138.816 0 0 0-41.504-85.76h-166.4c-46.032 11.696-55.472 85.76-55.472 85.76h-41.392v19.968h28.608a110.064 110.064 0 0 0-13.76 26.832v126.976c6.88 30.88 48.576 13.168 48.576 13.168v-33.44h221.568v26.864c26.848 33.44 55.472-6.592 55.472-6.592z"
          fill="#FFDE8D"/>
    <path d="M690.096 153.632a72.224 72.224 0 0 0-50.944-21.152H168A71.968 71.968 0 0 0 96 204.56v600.416a72.24 72.24 0 0 0 72.08 72.08h350.128a281.584 281.584 0 0 1-110.24-222.848c-0.4-155.488 125.2-282.048 280.768-282.64 7.584 0 15.152 0.288 22.624 0.88V204.576a72.992 72.992 0 0 0-21.248-50.944zM370.88 683.12A37.024 37.024 0 0 1 334 720h-107.68a37.024 37.024 0 0 1-36.896-36.88 37.024 37.024 0 0 1 36.88-36.88h107.68a37.024 37.024 0 0 1 36.896 36.88z m0-193.248a37.024 37.024 0 0 1-36.88 36.88h-107.68a37.024 37.024 0 0 1-36.896-36.88 37.024 37.024 0 0 1 36.88-36.88h107.68a37.024 37.024 0 0 1 36.896 36.88z m181.44-193.248a37.024 37.024 0 0 1-36.88 36.88h-289.12a37.024 37.024 0 0 1-36.896-36.88 37.024 37.024 0 0 1 36.88-36.88h289.136a37.024 37.024 0 0 1 36.88 36.88z"
          fill="#FDBA54"/>
</svg>