<?xml version="1.0" standalone="no"?><!DOCTYPE svg PUBLIC "-//W3C//DTD SVG 1.1//EN"
        "http://www.w3.org/Graphics/SVG/1.1/DTD/svg11.dtd">
<svg class="icon" width="200px" height="200.00px" viewBox="0 0 1024 1024" version="1.1"
     xmlns="http://www.w3.org/2000/svg">
    <path d="M928 243.632C928 223.952 911.808 208 891.84 208H465.568c-19.952 0-36.16 15.984-36.16 35.632v442.56c0 19.68 16.208 35.632 36.16 35.632h204.464a18.08 18.08 0 0 0 17.92-15.328c8.256-52.896 56.384-90.608 110.496-86.56 54.096 4 95.968 48.384 96.112 101.888 18.448 0 33.44-14.8 33.44-32.96V243.632z"
          fill="#FD9F55"/>
    <path d="M527.792 456.384l42.288 0.048-7.264 20.608-5.936-4.992 4.048-12.432h-26.304c-0.16 1.44-3.392 10.4-4.096 11.504-0.688 1.088-8.24 5.328-10.16 5.808l7.392-20.512 0.032-0.032z m284.64 28.016h40.56c1.584 0 2.88 0.896 2.88 1.984s-1.296 1.984-2.88 1.984h-40.576c-1.584 0-2.88-0.896-2.88-1.984s1.296-1.984 2.88-1.984z m10.864-25.12h31.232a2.24 2.24 0 0 1 1.536 0.544c0.416 0.368 0.64 0.88 0.672 1.424a1.968 1.968 0 0 1-0.672 1.408 2.256 2.256 0 0 1-1.536 0.576h-31.232a2.272 2.272 0 0 1-1.552-0.576 1.984 1.984 0 0 1-0.672-1.408 1.984 1.984 0 0 1 0.672-1.424 2.272 2.272 0 0 1 1.552-0.56z m11.856-21.872h41.872c1.632 0 2.976 0.88 2.976 1.968 0 1.104-1.344 1.984-2.976 1.984h-41.872c-1.632 0-2.976-0.88-2.976-1.984 0-1.072 1.344-1.968 2.976-1.968z m8.32-19.344h29.504c0.56 0 1.104 0.208 1.504 0.592a1.92 1.92 0 0 1 0.608 1.392 1.92 1.92 0 0 1-0.608 1.408 2.192 2.192 0 0 1-1.504 0.576H843.52a2.192 2.192 0 0 1-1.504-0.576 1.92 1.92 0 0 1-0.608-1.408 1.92 1.92 0 0 1 0.608-1.392 2.192 2.192 0 0 1 1.504-0.592h-0.048z m-114.08 73.2c5.664 0.448 8.928 5.424 7.296 11.104-1.648 5.68-7.584 9.936-13.248 9.488-5.68-0.448-8.944-5.408-7.296-11.088 1.648-5.68 7.584-9.936 13.248-9.504z m-1.328 4.608a7.424 7.424 0 0 0-7.312 5.248c-0.912 3.136 0.896 5.888 4 6.128 3.136 0.256 6.416-2.096 7.328-5.248 0.928-3.136-0.896-5.872-4.016-6.128z m-110.768-4.496c5.664 0.448 8.928 5.424 7.296 11.104-1.648 5.68-7.584 9.936-13.232 9.488-5.632-0.448-8.928-5.408-7.28-11.088 1.648-5.68 7.568-9.952 13.248-9.504h-0.032z m-1.344 4.64a7.424 7.424 0 0 0-7.312 5.232c-0.912 3.136 0.896 5.888 4.016 6.144 3.136 0.24 6.4-2.112 7.328-5.248 0.912-3.152-0.896-5.888-4.032-6.128z m129.152 5.28h60.416l3.504-7.808h-60.016l-3.904 7.824z m50-87.824h-17.12l-3.584 7.952h60.88l3.36-7.872-17.344-0.08 3.92-11.728h-25.76l-4.384 11.728h0.032z m-110.704 0.096l-16.96-0.112-3.968 8 61.088 0.096 3.552-7.968h-17.536l4.224-11.792-25.936 0.112-4.464 11.68z m-176.912 14.496l10.528 0.048-5.92 16.912h24.576l10.832-30.72-4.352-0.128 10.176-13.664h-24.224l-21.6 27.568z m166.544 59.76l21.344 0.192 24.832-59.92h-20.864l-25.312 59.744z m110.72-0.064l21.344 0.176 25.024-59.84-21.248 0.08-25.12 59.584z m-28.688-0.992c0-1.824 17.312-57.808 17.92-58.672h20.864l-17.808 59.776-21.008 0.08v-1.184h0.032z m-111.136 1.248l18-59.84 21.408-0.08-18 59.84-21.408 0.064z m-80.16-66.576l7.552-20.864 26.112-0.048-5.6 15.296 25.152-4.464-3.952 8.768-23.952 4.272-5.088 12.736h23.936l-3.952 8.192-49.12 0.048 5.808-15.632-16.992 2.88 3.52-8.384 16.56-2.8z m173.312-1.6l-6.048 0.08-3.504 7.808h6.784L723.2 462.56l-8.56 1.6-2.72 8.128 7.488-0.896c-0.224 2.4-5.088 15.616-6.4 18.4-2.816 6.192-15.968 3.664-22.384 3.664H638.08l-3.728 7.872h77.968c2.96-5.52 7.232-13.376 15.008-13.376h1.248c3.584 0 6.4 2.4 9.536 3.12l8.848-24.64 6.848-1.168 2.688-8.208-6.464 0.88 11.088-30.24 6.48 0.096 3.52-8-7.312-0.064 6.48-19.2-25.184-0.048-6.976 19.312-0.032 0.032z m-109.872 0.064h-7.152l-6.368 7.792h10.432c-0.064 2.944-5.984 16.8-7.232 20.752-1.056 3.408-2.592 6.672-3.712 10.272-2.128 6.832-3.04 3.344-9.216 5.472l-3.184 8.16 7.488-0.96c-0.304 3.264-6.496 22.08-11.264 22.08h-15.44l-0.848 0.048-14.032-11.92 0.32-0.32h17.504l0.416 0.144 11.68-32.816h-91.728l-11.68 32.64h17.504c-0.8 1.952-10.784 5.872-13.168 7.248-6.944 4-6.784 4.96-15.696 4.928l-2.832 7.904c7.36 0 29.664 1.536 34.656-1.136 7.456-4.048 15.36-8.576 22.976-12.32l14.944 13.456h47.552c3.52-4.8 6.912-13.376 15.84-13.376h0.848c4.08 0 6.592 2.288 8.864 5.008l0.464 0.16 10.272-26.576 7.536-1.024 3.28-8.8-7.936 1.312 10.88-30.32 6.816-0.112 3.616-7.76-7.408-0.096 6.992-19.6h-24.24l-0.48-0.144-7.264 19.904z"
          fill="#FFFFFF"/>
    <path d="M863.04 725.872c-0.88-38.256-32.128-69.088-70.928-69.952a72.816 72.816 0 0 0-52.48 20.864 70.768 70.768 0 0 0-21.152 51.728c0.848 38.304 32.096 69.136 70.912 69.984a72.816 72.816 0 0 0 52.48-20.864 70.752 70.752 0 0 0 21.168-51.76z"
          fill="#FECC87"/>
    <path d="M407.52 280.032a17.968 17.968 0 0 0-12.736-5.184H299.04a109.152 109.152 0 0 0-79.056 33.76l-109.232 114.816A52.528 52.528 0 0 0 96 459.904V704a18 18 0 0 0 18.08 17.824h2.768a18.08 18.08 0 0 0 17.92-15.36c7.776-49.984 51.408-86.928 102.72-86.928 51.296 0 94.944 36.96 102.704 86.96a18.048 18.048 0 0 0 17.92 15.328h36.672A18 18 0 0 0 412.864 704V292.688a17.968 17.968 0 0 0-5.344-12.656zM248 367.68A109.648 109.648 0 0 1 325.12 336h7.2a17.792 17.792 0 0 1 17.92 17.76v128.32c0 4.8-1.92 9.28-5.44 12.64-3.36 3.36-8 5.28-12.64 5.12h-154.08c-9.92 0.16-18.08-7.84-18.08-17.76v-12c0-9.28 3.84-18.4 10.4-24.96l77.6-77.44z"
          fill="#FD9F55"/>
    <path d="M309.872 725.872c-0.896-38.256-32.16-69.088-70.928-69.952a72.8 72.8 0 0 0-52.48 20.864 70.768 70.768 0 0 0-21.152 51.728c0.848 38.304 32.096 69.136 70.912 69.984a72.816 72.816 0 0 0 52.48-20.864 70.784 70.784 0 0 0 21.168-51.76z"
          fill="#FECC87"/>
</svg>