<?xml version="1.0" standalone="no"?><!DOCTYPE svg PUBLIC "-//W3C//DTD SVG 1.1//EN"
        "http://www.w3.org/Graphics/SVG/1.1/DTD/svg11.dtd">
<svg class="icon" width="200px" height="200.00px" viewBox="0 0 1024 1024" version="1.1"
     xmlns="http://www.w3.org/2000/svg">
    <path d="M511.82 816.29a30 30 0 0 1-30-29.93L481.19 512a30 30 0 0 1 29.93-30.07h0.07a30 30 0 0 1 30 29.93l0.63 274.36a30 30 0 0 1-29.93 30.07z"
          fill="#333333"/>
    <path d="M511.58 922.23a104.69 104.69 0 0 1-52.37-14l-264.67-152.8a105 105 0 0 1-52.37-90.71V359.1a105 105 0 0 1 52.37-90.71l264.67-152.81a105 105 0 0 1 104.74 0l264.68 152.81A105 105 0 0 1 881 359.1v305.62a105 105 0 0 1-52.37 90.71L564 908.24a104.67 104.67 0 0 1-52.42 13.99z m0-760.66a44.78 44.78 0 0 0-22.37 6L224.54 320.35a44.88 44.88 0 0 0-22.37 38.75v305.62a44.86 44.86 0 0 0 22.37 38.75l264.67 152.81a44.85 44.85 0 0 0 44.74 0l264.68-152.81A44.86 44.86 0 0 0 821 664.72V359.1a44.88 44.88 0 0 0-22.37-38.75L534 167.54a44.75 44.75 0 0 0-22.42-5.97z"
          fill="#333333"/>
    <path d="M778.63 323l-44.82 25.75-0.24 0.13-221.52 128.56L289 349.35l-0.13-0.07-44.83-25.75v50.69a30 30 0 0 0 15 27.16l231.84 133.09a30 30 0 0 0 35.52 4l237.29-137.71a30 30 0 0 0 14.91-27.24z"
          fill="#3CE4D6"/>
</svg>