<?xml version="1.0" standalone="no"?><!DOCTYPE svg PUBLIC "-//W3C//DTD SVG 1.1//EN"
        "http://www.w3.org/Graphics/SVG/1.1/DTD/svg11.dtd">
<svg class="icon" width="200px" height="200.00px" viewBox="0 0 1024 1024" version="1.1"
     xmlns="http://www.w3.org/2000/svg">
    <path d="M576.35 393.53A28.5 28.5 0 0 1 547.86 422H340.39v-57h207.47a28.5 28.5 0 0 1 28.49 28.49zM501.22 264.7a28.49 28.49 0 0 1-28.49 28.48H340.39v-57h132.34a28.49 28.49 0 0 1 28.49 28.49zM501.22 522.37a28.49 28.49 0 0 1-28.49 28.48H340.39v-57h132.34a28.49 28.49 0 0 1 28.49 28.49z"
          fill="#3CE4D6"/>
    <path d="M512 946.35A33.48 33.48 0 0 1 485.34 933L288.7 670.35v-499a75.81 75.81 0 0 1 75.72-75.73h295.16a75.81 75.81 0 0 1 75.72 75.73v499L538.65 933A33.41 33.41 0 0 1 512 946.35z m-163.31-296L512 868.5l163.3-218.12v-479a15.74 15.74 0 0 0-15.72-15.73H364.42a15.74 15.74 0 0 0-15.72 15.73z"
          fill="#333333"/>
</svg>