<?xml version="1.0" standalone="no"?><!DOCTYPE svg PUBLIC "-//W3C//DTD SVG 1.1//EN"
        "http://www.w3.org/Graphics/SVG/1.1/DTD/svg11.dtd">
<svg class="icon" width="200px" height="200.00px" viewBox="0 0 1024 1024" version="1.1"
     xmlns="http://www.w3.org/2000/svg">
    <path d="M555.36 765.52H277.36c-16.08 0-30.208 19.392-30.208 40.96s14.128 40.96 30.24 40.96h318.192c12.096 0 22.192-10.784 28.24-25.856-26.208-10.816-48.32-30.208-68.464-56.064h-0.032z m-74.528-178.976c0-148.752 112.8-269.472 251.76-269.472 22.16 0 42.304 2.112 62.448 8.608v-81.92c0-28.048-22.176-51.76-48.32-51.76H128.336C102.144 192 80 215.712 80 243.744v403.168c0 28.032 22.16 51.744 48.352 51.744h376.672c-16.144-32.32-24.192-71.136-24.192-112.112z"
          fill="#FD9F55"/>
    <path d="M735.376 370.576c-116.32 0-208.48 94.4-208.48 208.48 0 114.24 94.4 208.48 208.48 208.48 114.08 0 208.48-94.4 208.48-208.48 0.16-114.08-92-208.48-208.48-208.48z m92 269.28l-11.36-8.32-11.36 8.32 4.32-13.44-11.36-8.32h14.08l4.32-13.44 4.32 13.44h14.08l-11.36 8.32 4.32 13.44z m-31.36-151.04l7.2-22.4 7.2 22.4h23.52l-19.04 13.76 7.2 22.4-19.04-13.76-19.04 13.76 7.2-22.4-19.04-13.76h23.84z m-34.4 63.2l4.8-15.04 4.8 15.04h15.68l-12.8 9.28 4.8 15.04-12.8-9.28-12.8 9.28 4.8-15.04-12.8-9.28h16.32z m72.48 109.76a123.2 123.2 0 0 1-6.24 7.04c-22.08 22.24-56.96 36.64-90.4 36.64-4 0-7.84-0.16-11.68-0.64-60.96-5.92-109.12-57.76-109.12-120.16 0-59.2 40.8-107.84 96.64-119.04 2.56-0.64 5.6-1.12 8.48-1.44l3.52-0.32-1.44 1.92c-1.92 2.56-3.84 5.12-5.44 7.84-9.92 15.2-16.96 32.48-19.2 51.2-0.64 4.8-0.96 9.6-0.96 14.56 0 3.84 0.16 7.84 0.48 11.52 5.44 57.12 51.36 103.04 108.48 108.64 3.84 0.32 7.84 0.64 11.84 0.64h16.64c-0.64 0.48-1.12 1.12-1.6 1.6z"
          fill="#FECC87"/>
</svg>