<?xml version="1.0" standalone="no"?><!DOCTYPE svg PUBLIC "-//W3C//DTD SVG 1.1//EN"
        "http://www.w3.org/Graphics/SVG/1.1/DTD/svg11.dtd">
<svg class="icon" width="200px" height="200.00px" viewBox="0 0 1024 1024" version="1.1"
     xmlns="http://www.w3.org/2000/svg">
    <path d="M454.63 454.54h-199.4A28.48 28.48 0 0 0 226.74 483v57a28.49 28.49 0 0 0 28.49 28.49H768A28.49 28.49 0 0 0 796.46 540v-57A28.48 28.48 0 0 0 768 454.54H568.57V198.16a28.49 28.49 0 0 0-28.48-28.49h-57a28.49 28.49 0 0 0-28.49 28.49z m-57-57V169.67a57 57 0 0 1 57-57h113.94a57 57 0 0 1 57 57v227.9h170.89a57 57 0 0 1 57 57v114a57 57 0 0 1-57 57v227.78a57 57 0 0 1-57 57H283.71a57 57 0 0 1-57-57V625.46a57 57 0 0 1-57-57V454.54a57 57 0 0 1 57-57z m341.86 227.92H283.71v199.4a28.5 28.5 0 0 0 28.49 28.49H711a28.49 28.49 0 0 0 28.49-28.49z"
          fill="#333333"/>
    <path d="M654 682.43a28.48 28.48 0 0 1 28.49 28.49v142.43h-57V710.92A28.48 28.48 0 0 1 654 682.43zM540.09 739.4a28.48 28.48 0 0 1 28.48 28.49v85.46h-57v-85.46a28.48 28.48 0 0 1 28.49-28.49zM426.14 796.37a28.49 28.49 0 0 1 28.49 28.49v28.49h-57v-28.49a28.49 28.49 0 0 1 28.48-28.49z"
          fill="#3CE4D6"/>
</svg>