<?xml version="1.0" standalone="no"?><!DOCTYPE svg PUBLIC "-//W3C//DTD SVG 1.1//EN"
        "http://www.w3.org/Graphics/SVG/1.1/DTD/svg11.dtd">
<svg class="icon" width="200px" height="200.00px" viewBox="0 0 1024 1024" version="1.1"
     xmlns="http://www.w3.org/2000/svg">
    <path d="M374.496 240.128a40.64 40.64 0 1 1-81.248 0V152.624a40.64 40.64 0 0 1 81.248 0v87.504zM537.008 240.128a40.64 40.64 0 0 1-81.264 0V152.624a40.64 40.64 0 0 1 81.248 0v87.504zM701.056 240.128a40.64 40.64 0 0 1-81.248 0V152.624a40.64 40.64 0 0 1 81.248 0v87.504z"
          fill="#C7B0FF"/>
    <path d="M837.184 193.248h-111.12V240.128a65.696 65.696 0 0 1-65.632 65.616 65.696 65.696 0 0 1-65.616-65.616V193.248h-32.816V240.128a65.696 65.696 0 0 1-65.632 65.616 65.696 65.696 0 0 1-65.616-65.616V193.248h-31.248V240.128a65.696 65.696 0 0 1-65.632 65.616 65.696 65.696 0 0 1-65.616-65.616V193.248H157.12C132.208 193.248 112 211.248 112 233.44v605.552c0 22.208 20.208 40.192 45.136 40.192h457.488a186.768 186.768 0 0 1-46.368-123.44c0-103.552 83.936-187.488 187.488-187.488 48.8 0 93.216 18.624 126.56 49.168V233.44c0-22.192-20.208-40.192-45.12-40.192z m-387.68 593.76h-145.312c-19.84 0-35.936-14.704-35.936-32.816 0-18.128 16.08-32.816 35.936-32.816h145.296c19.856 0 35.952 14.688 35.952 32.8 0 18.128-16.096 32.816-35.952 32.816z m68.736-159.376H304.192c-19.84 0-35.936-14.704-35.936-32.816 0-18.128 16.08-32.816 35.936-32.816H518.24c19.84 0 35.952 14.688 35.952 32.8 0 18.128-16.096 32.832-35.952 32.832z m171.872-160.944h-385.92c-19.84 0-35.936-14.688-35.936-32.8 0-18.128 16.08-32.832 35.936-32.832h385.92c19.856 0 35.952 14.704 35.952 32.816 0 18.128-16.096 32.816-35.952 32.816z"
          fill="#9076F8"/>
    <path d="M599.504 755.744c0-86.288 69.952-156.24 156.24-156.24 86.304 0 156.256 69.952 156.256 156.24C912 842.048 842.048 912 755.744 912c-86.288 0-156.24-69.952-156.24-156.256z m166.16-99.68L764.768 656h-0.064a15.008 15.008 0 0 0-14.304 9.2 15.136 15.136 0 0 0-1.184 5.872v33.184l0.032 0.88 0.016 0.096a11.04 11.04 0 0 0 21.952 0v-0.096l0.048-0.88v-25.104a78.128 78.128 0 0 1 62.688 76.64 78.032 78.032 0 0 1-77.952 78.112 78.032 78.032 0 0 1-77.952-78.128 77.872 77.872 0 0 1 20.384-52.656 11.04 11.04 0 0 0-16.288-14.896A99.968 99.968 0 0 0 656 755.808c0 55.328 44.768 100.192 100 100.192s100-44.864 100-100.208c0-51.68-39.248-94.768-90.256-99.728h-0.08z m-0.288 88.96l-39.472-31.184a8.624 8.624 0 0 0-13.808 5.392 8.48 8.48 0 0 0 1.168 5.744l26.592 42.864a17.264 17.264 0 0 0 12.272 7.984 17.472 17.472 0 0 0 18.448-10.304 17.28 17.28 0 0 0-5.2-20.48z"
          fill="#C7B0FF"/>
</svg>