<?xml version="1.0" standalone="no"?><!DOCTYPE svg PUBLIC "-//W3C//DTD SVG 1.1//EN"
        "http://www.w3.org/Graphics/SVG/1.1/DTD/svg11.dtd">
<svg class="icon" width="200px" height="200.00px" viewBox="0 0 1024 1024" version="1.1"
     xmlns="http://www.w3.org/2000/svg">
    <path d="M682.18 864.19H341.47a62.69 62.69 0 0 1-54.16-31.12l-170.6-294.81a61.93 61.93 0 0 1 0-61.91l170.6-294.79a62.71 62.71 0 0 1 54.16-31.13h340.71a62.79 62.79 0 0 1 54.15 31.1L907 476.37a62 62 0 0 1 0 61.87L736.34 833.07a62.73 62.73 0 0 1-54.16 31.12zM341.47 212.5l-171 295L341.05 802l-26.87 15.54L341.05 802a0.58 0.58 0 0 0 0.42 0.14h340.71l171-295-170.57-294.49z m0 0"
          fill="#333333"/>
    <path d="M511.82 654.72c-81.28 0-147.41-66.13-147.41-147.4S430.54 359.9 511.82 359.9 659.23 426 659.23 507.32s-66.13 147.4-147.41 147.4z m0-217.23a69.83 69.83 0 1 0 69.82 69.83 69.89 69.89 0 0 0-69.82-69.83z m0 0"
          fill="#3CE4D6"/>
</svg>