<?xml version="1.0" standalone="no"?><!DOCTYPE svg PUBLIC "-//W3C//DTD SVG 1.1//EN"
        "http://www.w3.org/Graphics/SVG/1.1/DTD/svg11.dtd">
<svg class="icon" width="200px" height="200.00px" viewBox="0 0 1024 1024" version="1.1"
     xmlns="http://www.w3.org/2000/svg">
    <path d="M238.192 128H735.36c61.168 0 91.744 30.576 91.744 91.744v563.584c0 61.168-30.576 91.76-91.744 91.76H238.192c-61.152 0-91.744-30.592-91.744-91.744V219.728C146.448 158.576 177.04 128 238.192 128z"
          fill="#FDBA54"/>
    <path d="M516.848 532.32H304.88a36.864 36.864 0 1 1 0-73.744h211.968a36.864 36.864 0 1 1 0 73.728z m134.784-163.6h-346.72a36.864 36.864 0 1 1 0-73.728h346.72a36.864 36.864 0 1 1 0 73.728z"
          fill="#FFFFFF"/>
    <path d="M513.888 714.144a181.824 181.824 0 1 0 363.648 0 181.824 181.824 0 0 0-363.648 0z" fill="#FFDE8D"/>
    <path d="M675.84 725.344v-26.448a54.768 54.768 0 0 1-32.8-50.128 54.72 54.72 0 0 1 54.688-54.72 54.72 54.72 0 0 1 54.72 54.72 54.72 54.72 0 0 1-32.832 50.128v26.448h49.184c15.136 0 27.392 12.16 27.392 27.36v27.36H599.28v-27.36c0-15.104 12.304-27.36 27.392-27.36h49.184z m-76.56 65.648h196.944v21.872h-196.96v-21.872z"
          fill="#FFFFFF"/>
</svg>