<?xml version="1.0" standalone="no"?><!DOCTYPE svg PUBLIC "-//W3C//DTD SVG 1.1//EN"
        "http://www.w3.org/Graphics/SVG/1.1/DTD/svg11.dtd">
<svg class="icon" width="200px" height="200.00px" viewBox="0 0 1024 1024" version="1.1"
     xmlns="http://www.w3.org/2000/svg">
    <path d="M128.672 250.112c0 43.584 57.904 83.952 151.92 105.712 94.032 21.824 209.904 21.824 303.92 0 94.032-21.824 151.936-62.128 151.936-105.712C736.512 182.672 600.448 128 432.592 128c-167.84 0-303.92 54.672-303.92 122.112z m415.744 265.696c43.6-33.52 90.944-60.576 173.76-63.408 14.24-11.808 18.88-23.696 19.888-42.032V299.52c-4.24 65.76-138.368 118.88-303.92 118.88-165.568 0-305.536-54.72-305.536-122.096v105.248c0 67.904 136.272 122.64 303.92 122.64 44.128 0.128 75.36-1.408 111.888-8.4zM128.672 443.744v105.248c0 67.36 136.272 122.096 303.84 122.096h22.24c2.752-37.008 22.768-75.952 48.704-107.728-26 2.816-44.736 4.576-70.864 4.576-167.648 0.064-303.92-54.672-303.92-124.192z m303.584 274.368C263.872 718.112 128 665.52 128 596.192v105.12c0 67.312 136.416 121.984 304.256 121.984h41.92c-17.408-30.64-22.784-64.624-22.784-105.12h-19.136v-0.064z"
          fill="#51D9C2"/>
    <path d="M676.48 731.52a38.928 38.928 0 1 1 55.04-55.04 38.928 38.928 0 0 1-55.04 55.04z" fill="#B5F2EC"/>
    <path d="M840.832 665.952h37.472c9.728 0 17.696 7.968 17.696 17.648v40.704a17.76 17.76 0 0 1-17.696 17.696h-37.376a139.712 139.712 0 0 1-13.184 31.808l26.496 26.496a17.728 17.728 0 0 1 0 25.04l-28.8 28.8a17.728 17.728 0 0 1-25.04 0l-26.496-26.496c-9.92 5.616-20.576 10.08-31.808 13.184v37.472A17.76 17.76 0 0 1 724.4 896H683.68a17.76 17.76 0 0 1-17.696-17.696v-37.376a139.712 139.712 0 0 1-31.808-13.184L607.68 854.24a17.728 17.728 0 0 1-25.04 0l-28.8-28.8a17.728 17.728 0 0 1 0-25.04l26.496-26.496a139.824 139.824 0 0 1-13.184-31.808h-37.472A17.76 17.76 0 0 1 512 724.4V683.68a17.76 17.76 0 0 1 17.696-17.696h37.376a139.712 139.712 0 0 1 13.184-31.808L553.76 607.68a17.728 17.728 0 0 1 0-25.04l28.8-28.8a17.728 17.728 0 0 1 25.04 0l26.496 26.496a139.824 139.824 0 0 1 31.808-13.184v-37.472A17.76 17.76 0 0 1 683.6 512h40.704a17.76 17.76 0 0 1 17.696 17.696v37.44a139.776 139.776 0 0 1 31.808 13.168l26.496-26.496a17.728 17.728 0 0 1 25.04 0l28.8 28.8a17.728 17.728 0 0 1 0 25.04l-26.496 26.496c5.616 9.92 10.08 20.576 13.184 31.808zM626.144 704a77.856 77.856 0 1 0 155.712 0 77.856 77.856 0 0 0-155.712 0z"
          fill="#B5F2EC"/>
</svg>