<?xml version="1.0" standalone="no"?><!DOCTYPE svg PUBLIC "-//W3C//DTD SVG 1.1//EN"
        "http://www.w3.org/Graphics/SVG/1.1/DTD/svg11.dtd">
<svg class="icon" width="200px" height="200.00px" viewBox="0 0 1024 1024" version="1.1"
     xmlns="http://www.w3.org/2000/svg">
    <path d="M747.184 895.984H277.008a114.784 114.784 0 0 1-114.832-114.784V242.768a114.784 114.784 0 0 1 114.832-114.784h407.408l177.408 175.28v477.92A114.816 114.816 0 0 1 747.184 896z"
          fill="#42B4FA"/>
    <path d="M591.36 368c15.056 0 29.024 7.664 37.072 20.224l1.76 2.976 39.52 73.552 41.2 3.68a12.704 12.704 0 0 1 11.568 10.192l0.16 2.08v10.992a12.56 12.56 0 0 1-10.816 12.192l-2.096 0.16h-18.928l14.08 26.16c2.592 4.8 4.064 10.112 4.384 15.504l0.032 4.064-8.144 167.12a14.944 14.944 0 0 1-12.768 14.096l-2.144 0.16h-41.216a14.992 14.992 0 0 1-14.848-12.928l-0.144-2.032v-41.888H384.848v41.888a14.944 14.944 0 0 1-12.912 14.816l-2.048 0.144h-46a14.944 14.944 0 0 1-14.672-12.16l-0.256-2.128-7.648-167.136a37.456 37.456 0 0 1 2.72-15.792l1.728-3.664 14.08-26.24h-18.944a12.72 12.72 0 0 1-12.72-10.32L288 491.68v-10.992c0-5.648 4-10.512 9.568-11.904l2.144-0.368 41.232-3.68 39.52-73.552a44.048 44.048 0 0 1 35.36-23.072l3.472-0.128H591.36z m48.88 177.344a31.392 31.392 0 1 0-0.016 62.784 31.392 31.392 0 0 0 0-62.784z m-270.672 0a31.376 31.376 0 1 0 0 62.768 31.376 31.376 0 0 0 0-62.768zM580.528 398.4h-150.4a27.696 27.696 0 0 0-23.472 12.976l-1.392 2.496-32.08 65.28a10.64 10.64 0 0 0 9.568 15.408s50.816-4.624 116.384-4.88l6.192-0.016c62.32 0 122.56 4.896 122.56 4.896a10.672 10.672 0 0 0 10.24-13.76l-0.64-1.632-32.08-65.296a27.696 27.696 0 0 0-24.88-15.472z"
          fill="#FFFFFF"/>
    <path d="M684.416 127.984v140.032a38.704 38.704 0 0 0 38.704 38.704h138.704v-3.456L684.416 127.984z"
          fill="#92DBFF"/>
</svg>