<?xml version="1.0" standalone="no"?><!DOCTYPE svg PUBLIC "-//W3C//DTD SVG 1.1//EN"
        "http://www.w3.org/Graphics/SVG/1.1/DTD/svg11.dtd">
<svg class="icon" width="200px" height="200.00px" viewBox="0 0 1024 1024" version="1.1"
     xmlns="http://www.w3.org/2000/svg">
    <path d="M374.496 240.128a40.64 40.64 0 1 1-81.248 0V152.624a40.64 40.64 0 0 1 81.248 0v87.504zM537.008 240.128a40.64 40.64 0 0 1-81.264 0V152.624a40.64 40.64 0 0 1 81.248 0v87.504zM701.056 240.128a40.64 40.64 0 0 1-81.248 0V152.624a40.64 40.64 0 0 1 81.248 0v87.504z"
          fill="#C7B0FF"/>
    <path d="M562 192h32.8v48.128a65.696 65.696 0 0 0 65.632 65.616 65.696 65.696 0 0 0 65.632-65.616V192H832a48 48 0 0 1 48 48v96H112v-96a48 48 0 0 1 48-48h108.256v48.128a65.696 65.696 0 0 0 65.616 65.616 65.696 65.696 0 0 0 65.632-65.616V192h31.248v48.128a65.696 65.696 0 0 0 65.616 65.616 65.696 65.696 0 0 0 65.632-65.616V192zM570.48 384h-148.96C400.928 384 384 399.728 384 421.52v148.96c0 20.592 15.728 37.52 37.52 37.52h148.96C591.072 608 608 592.272 608 570.48v-148.96A37.616 37.616 0 0 0 570.48 384zM298.48 384h-148.96C128.928 384 112 399.728 112 421.52v148.96C112 591.072 127.728 608 149.52 608h148.96C319.072 608 336 592.272 336 570.48v-148.96A37.616 37.616 0 0 0 298.48 384zM693.52 608h148.96C863.072 608 880 592.272 880 570.496v-148.992c0.08-20.592-15.728-37.504-37.52-37.504h-148.96C672.928 384 656 399.728 656 421.504v148.912C657.2 591.088 672.928 608 693.52 608zM570.48 656h-148.96C400.928 656 384 671.728 384 693.52v148.96c0 20.592 15.728 37.52 37.52 37.52h148.96C591.072 880 608 864.272 608 842.48v-148.96C608.08 671.728 591.072 656 570.48 656zM298.48 656h-148.96C128.928 656 112 671.728 112 693.52v148.96C112 863.072 127.728 880 149.52 880h148.96C319.072 880 336 864.272 336 842.48v-148.96C336.08 671.728 319.072 656 298.48 656z"
          fill="#9076F8"/>
    <path d="M878.416 861.36l-38.048-37.44c10.4-14.72 16.096-34 16.096-53.28 0-54.4-44.96-98.64-100.224-98.64C700.96 672 656 716.24 656 770.64s44.96 98.64 100.32 98.64c26.496 0 49.504-10.24 66.816-26.08l35.68 35.12c2.288 2.24 5.792 2.24 9.2 0l9.184-9.04c3.504-2.24 3.504-5.68 1.216-7.92z m-64.544-40.8l-1.136 2.24a78.96 78.96 0 0 1-55.28 22.64c-42.592 0-77.232-34-77.232-76s34.56-76 77.232-76 77.232 34 77.232 76c-1.216 20.48-8.128 38.64-20.8 51.12z"
          fill="#C7B0FF"/>
</svg>