<?xml version="1.0" standalone="no"?><!DOCTYPE svg PUBLIC "-//W3C//DTD SVG 1.1//EN"
        "http://www.w3.org/Graphics/SVG/1.1/DTD/svg11.dtd">
<svg class="icon" width="200px" height="200.00px" viewBox="0 0 1024 1024" version="1.1"
     xmlns="http://www.w3.org/2000/svg">
    <path d="M788.52 910.94h-553a61.51 61.51 0 0 1-61.45-61.45V235.05a61.51 61.51 0 0 1 61.45-61.44h107.53a30.72 30.72 0 1 1 0 61.44H235.53v614.44h553V235.05h-99.86a30.72 30.72 0 1 1 0-61.44h99.85A61.5 61.5 0 0 1 850 235.05V849.5a61.5 61.5 0 0 1-61.44 61.44z m0 0"
          fill="#333333"/>
    <path d="M619.55 296.49h-215a92.17 92.17 0 1 1 0-184.33h215a92.17 92.17 0 0 1 0 184.33z m-215-122.88a30.72 30.72 0 0 0 0 61.44h215a30.72 30.72 0 1 0 0-61.44z m0 0"
          fill="#333333"/>
    <path d="M455.69 684.5l-110.89-124a24.68 24.68 0 0 1 1.95-34.85l38.86-34.75 94.5 105.7 178.35-182.45 37.27 36.44a24.68 24.68 0 0 1 0.39 34.9l-195.56 200a30.72 30.72 0 0 1-44.87-1z m0 0"
          fill="#3CE4D6"/>
</svg>