<?xml version="1.0" standalone="no"?><!DOCTYPE svg PUBLIC "-//W3C//DTD SVG 1.1//EN"
        "http://www.w3.org/Graphics/SVG/1.1/DTD/svg11.dtd">
<svg class="icon" width="200px" height="200.00px" viewBox="0 0 1024 1024" version="1.1"
     xmlns="http://www.w3.org/2000/svg">
    <path d="M512 210l-70.432 67.904h-143.888l143.024-137.232a102.976 102.976 0 0 1 142.592 0l143.04 137.232H582.4L512 210z"
          fill="#FFDE8D"/>
    <path d="M206.128 275.888h611.744c52 0 94.128 41.952 94.128 93.712v449.824c0 51.76-42.128 93.712-94.128 93.712H206.128C154.128 913.12 112 871.184 112 819.424V369.6c0-51.76 42.128-93.712 94.128-93.712z"
          fill="#FDBA54"/>
    <path d="M280.416 520.096c0-15.648 12.688-28.336 28.352-28.336H726.56a28.336 28.336 0 0 1 0 56.688H308.768a28.336 28.336 0 0 1-28.352-28.352z m0 145.76c0-15.664 12.688-28.352 28.352-28.352h199.184a28.336 28.336 0 0 1 0 56.672h-199.2a28.336 28.336 0 0 1-28.32-28.32z"
          fill="#FFFFFF"/>
</svg>