<?xml version="1.0" standalone="no"?><!DOCTYPE svg PUBLIC "-//W3C//DTD SVG 1.1//EN"
        "http://www.w3.org/Graphics/SVG/1.1/DTD/svg11.dtd">
<svg class="icon" width="200px" height="200.00px" viewBox="0 0 1024 1024" version="1.1"
     xmlns="http://www.w3.org/2000/svg">
    <path d="M806.76 915.09h-589A62.28 62.28 0 0 1 155.4 853V725.76a62.09 62.09 0 0 1 21-46.51l171.84-151.87c-41.23-47.53-62-112.95-65.64-148.73-3.9-38.67-6.45-135.93 54.59-203.48 40.11-44.38 98.84-66.88 174.55-66.88 80.09 0 141.5 23.8 182.53 70.73 62.7 71.7 54.87 171.71 51 200.64-7.79 57.83-32.21 111.51-67.27 150L848 679.2a62.13 62.13 0 0 1 21.07 46.6V853a62.28 62.28 0 0 1-62.35 62.06z"
          fill="#333333"/>
    <path d="M611.18 553.54a31 31 0 0 1 1.7-48c43.36-33 65-90.95 70.85-134.16 2.15-15.94 10.48-98.15-36.17-151.52-28.73-32.86-74.42-49.52-135.82-49.52-57.42 0-100.65 15.63-128.5 46.43-44.37 49.09-42 125.18-38.88 155.62 3.44 34 27.65 99.37 68.73 131.6a31 31 0 0 1 1.39 47.66l-197 174.09V853h589.28l0.24-127.2z"
          fill="#3CE4D6"/>
    <path d="M551.05 806.48h-77.58V651.33a31 31 0 0 1 31-31H520a31 31 0 0 1 31 31z" fill="#333333"/>
</svg>