<?xml version="1.0" standalone="no"?><!DOCTYPE svg PUBLIC "-//W3C//DTD SVG 1.1//EN"
        "http://www.w3.org/Graphics/SVG/1.1/DTD/svg11.dtd">
<svg class="icon" width="200px" height="200.00px" viewBox="0 0 1024 1024" version="1.1"
     xmlns="http://www.w3.org/2000/svg">
    <path d="M512.016 286.208a543.888 543.888 0 0 1 160.8 0c37.472 7.488 74.96 13.488 110.192 23.232a78.72 78.72 0 0 1 55.472 52.096 3722.976 3722.976 0 0 0 47.968 127.808c3.008 7.12 12 17.616 17.248 16.88a55.472 55.472 0 0 1 63.712 44.224c1.888 7.632 1.888 15.6 0 23.232l-42.72 11.616c2.64 14.88 4.4 29.904 5.248 44.976V837.92a59.2 59.2 0 0 1-12.752 34.48 350.8 350.8 0 0 1-119.936 2.24c-27.728-17.6-10.496-47.2-19.488-71.2H413.44c-7.12 25.488-11.248 68.208-19.488 71.2a356.064 356.064 0 0 1-122.928 0 67.088 67.088 0 0 1-13.504-39.712c-2.24-29.984-2.24-58.48-2.24-87.712 0-54.352 0-108.688 2.24-163.408l-39.728-10.496a43.136 43.136 0 0 1 0-18.368c11.248-29.984 26.24-53.232 64.848-49.856 4.48 0 13.12-8.992 15.744-15.744a1008.832 1008.832 0 0 0 37.472-102.32 127.44 127.44 0 0 1 112.448-92.576c20.608-3.744 41.984-6.368 62.592-9.76l1.12 1.52zM346.352 517.84a1184.064 1184.064 0 0 0 490.24 0c-13.856-41.6-27.728-78.72-37.472-116.192a62.208 62.208 0 0 0-62.208-49.856c-77.6-3.36-155.552-6-233.136-6.736a331.632 331.632 0 0 0-74.96 11.616 42.72 42.72 0 0 0-27.36 18.72c-20.992 45.36-36.736 92.224-55.104 142.448z m31.856 176.912c13.408 0.72 26.864-0.032 40.112-2.256a37.456 37.456 0 0 0 24.368-18.368c1.872-5.616-6.752-19.488-14.24-22.864a876.192 876.192 0 0 0-93.712-37.472c-15.744-5.248-33.728-4.128-37.488 17.984-7.488 32.608 0 50.608 24.368 55.84 19.12 3.76 37.488 4.512 58.464 6.384l-1.872 0.752z m432.16 0a534.768 534.768 0 0 0 58.848-7.504c28.112-6.368 22.112-29.232 21.36-49.104-0.752-19.856-11.248-29.232-26.608-24.736a812.72 812.72 0 0 0-112.448 42.72c-16.48 7.888-10.496 29.616 8.256 33.744 16.752 2.512 33.648 4.016 50.592 4.496v0.384z"
          fill="#42B4FA"/>
    <path d="M230.08 202.16l-21.536-7.84 21.536-7.84a36.528 36.528 0 0 0 21.664-21.392L259.664 144l7.92 21.072a36.32 36.32 0 0 0 21.664 21.392l21.536 7.872-21.536 7.84a36.56 36.56 0 0 0-21.664 21.392l-7.92 21.072-7.92-21.072a36.32 36.32 0 0 0-21.664-21.392v-0.016zM55.168 345.264l77.536 28.224a36.528 36.528 0 0 1 21.632 21.392l28.64 76.16 28.64-76.16a36.304 36.304 0 0 1 21.648-21.392l77.52-28.224-77.52-28.24a36.528 36.528 0 0 1-21.632-21.392l-28.64-76.16-28.656 76.16a36.32 36.32 0 0 1-21.632 21.392l-77.536 28.24z m0-100.64l2.88 1.056a36.528 36.528 0 0 1 21.664 21.392l1.024 2.72 1.024-2.72a36.32 36.32 0 0 1 21.648-21.392l2.88-1.056-2.88-1.056a36.544 36.544 0 0 1-21.648-21.392l-1.024-2.72-1.024 2.72a36.32 36.32 0 0 1-21.648 21.392l-2.88 1.056z"
          fill="#92DBFF"/>
</svg>