<?xml version="1.0" standalone="no"?><!DOCTYPE svg PUBLIC "-//W3C//DTD SVG 1.1//EN"
        "http://www.w3.org/Graphics/SVG/1.1/DTD/svg11.dtd">
<svg class="icon" width="200px" height="200.00px" viewBox="0 0 1024 1024" version="1.1"
     xmlns="http://www.w3.org/2000/svg">
    <path d="M511.146667 521.6m-405.333334 0a405.333333 405.333333 0 1 0 810.666667 0 405.333333 405.333333 0 1 0-810.666667 0Z"
          fill="#839BFB"/>
    <path d="M500.178231 344.710527m6.863529-8.165154l27.454117-32.660618q6.863529-8.165154 15.028684-1.301625l65.321234 54.908234q8.165154 6.863529 1.301625 15.028684l-27.454117 32.660617q-6.863529 8.165154-15.028684 1.301625l-65.321234-54.908234q-8.165154-6.863529-1.301625-15.028683Z"
          fill="#FFFFFF"/>
    <path d="M372.266667 658.986667l-65.706667 11.733333a10.453333 10.453333 0 0 1-12.373333-10.453333v-66.56a10.026667 10.026667 0 0 1 2.56-6.826667l182.826666-217.6a10.453333 10.453333 0 0 1 14.933334-1.28l65.28 54.826667a10.88 10.88 0 0 1 1.28 15.146666l-182.613334 217.386667a10.24 10.24 0 0 1-6.186666 3.626667z"
          fill="#FFFFFF"/>
    <path d="M511.36 572.16m32 0l106.666667 0q32 0 32 32l0 0q0 32-32 32l-106.666667 0q-32 0-32-32l0 0q0-32 32-32Z"
          fill="#FFFFFF"/>
    <path d="M446.506667 670.933333m32 0l170.666666 0q32 0 32 32l0 0q0 32-32 32l-170.666666 0q-32 0-32-32l0 0q0-32 32-32Z"
          fill="#FFFFFF"/>
</svg>