<?xml version="1.0" standalone="no"?><!DOCTYPE svg PUBLIC "-//W3C//DTD SVG 1.1//EN"
        "http://www.w3.org/Graphics/SVG/1.1/DTD/svg11.dtd">
<svg class="icon" width="200px" height="200.00px" viewBox="0 0 1024 1024" version="1.1"
     xmlns="http://www.w3.org/2000/svg">
    <path d="M760.992 261.248s43.312 0 43.312 39.328v39.344h-584.64v-39.344c0-39.328 43.312-39.328 43.312-39.328h498.016z"
          fill="#B5F2EC"/>
    <path d="M860.544 306.176l31.68 30.384c3.472 3.616 6.8 6.88 9.92 9.92 19.584 19.168 31.68 30.992 23.008 78.784-5.632 31.152-23.392 140.208-39.152 237.088-12.32 75.584-23.392 143.776-26.592 161.696a52.32 52.32 0 0 1-51.6 44.368h-591.68a52.48 52.48 0 0 1-51.696-44.368c-3.024-17.232-13.376-80.96-25.12-153.056C123.232 572 104.56 457.184 98.816 425.28c-8.56-47.552 3.472-59.488 22.88-78.768 3.104-3.056 6.4-6.32 9.808-9.936l31.776-30.4v78.768h697.28v-78.752zM675.072 497.296a39.36 39.36 0 0 0-39.344 39.344v73.072a11.232 11.232 0 0 1-11.264 11.264H399.568a11.232 11.232 0 0 1-11.248-11.264v-73.072a39.328 39.328 0 0 0-78.672 0v118.08a45.072 45.072 0 0 0 45.008 45.008h314.912a45.056 45.056 0 0 0 45.008-45.008v-118.08a39.536 39.536 0 0 0-39.52-39.344z"
          fill="#51D9C2"/>
    <path d="M693.04 160s43.872 0 43.872 56.24H298.32C298.32 160 342.112 160 342.112 160h350.928z" fill="#B5F2EC"/>
</svg>