<?xml version="1.0" standalone="no"?><!DOCTYPE svg PUBLIC "-//W3C//DTD SVG 1.1//EN"
        "http://www.w3.org/Graphics/SVG/1.1/DTD/svg11.dtd">
<svg class="icon" width="200px" height="200.00px" viewBox="0 0 1024 1024" version="1.1"
     xmlns="http://www.w3.org/2000/svg">
    <path d="M516.053333 161.066667A346.666667 346.666667 0 1 1 172.373333 507.733333 344.96 344.96 0 0 1 516.053333 161.066667m0-56.32A402.986667 402.986667 0 1 0 915.413333 507.733333 401.493333 401.493333 0 0 0 516.053333 104.746667z"
          fill="#839BFB"/>
    <path d="M516.053333 254.72A253.013333 253.013333 0 1 1 265.173333 507.733333a251.946667 251.946667 0 0 1 250.88-253.013333m0-37.546667A290.56 290.56 0 1 0 803.84 507.733333a289.493333 289.493333 0 0 0-287.786667-290.56z"
          fill="#C0CEF9"/>
    <path d="M453.76 507.733333a62.72 62.293333 90 1 0 124.586667 0 62.72 62.293333 90 1 0-124.586667 0Z"
          fill="#839BFB"/>
    <path d="M485.973333 0m27.093334 0l0.64 0q27.093333 0 27.093333 27.093333l0 320.64q0 27.093333-27.093333 27.093334l-0.64 0q-27.093333 0-27.093334-27.093334l0-320.64q0-27.093333 27.093334-27.093333Z"
          fill="#C0CEF9"/>
    <path d="M485.973333 640.64m27.093334 0l0.64 0q27.093333 0 27.093333 27.093333l0 320.64q0 27.093333-27.093333 27.093334l-0.64 0q-27.093333 0-27.093334-27.093334l0-320.64q0-27.093333 27.093334-27.093333Z"
          fill="#C0CEF9"/>
    <path d="M379.52 480m0 27.093333l0 1.066667q0 27.093333-27.093333 27.093333l-317.226667 0q-27.093333 0-27.093333-27.093333l0-1.066667q0-27.093333 27.093333-27.093333l317.226667 0q27.093333 0 27.093333 27.093333Z"
          fill="#C0CEF9"/>
    <path d="M1024 480m0 27.093333l0 1.066667q0 27.093333-27.093333 27.093333l-317.226667 0q-27.093333 0-27.093333-27.093333l0-1.066667q0-27.093333 27.093333-27.093333l317.226667 0q27.093333 0 27.093333 27.093333Z"
          fill="#C0CEF9"/>
</svg>