<?xml version="1.0" standalone="no"?><!DOCTYPE svg PUBLIC "-//W3C//DTD SVG 1.1//EN"
        "http://www.w3.org/Graphics/SVG/1.1/DTD/svg11.dtd">
<svg class="icon" width="200px" height="200.00px" viewBox="0 0 1024 1024" version="1.1"
     xmlns="http://www.w3.org/2000/svg">
    <path d="M512 596.44a150.66 150.66 0 0 1-106.86-44.2c-58.93-58.92-58.93-154.8 0-213.73a151.13 151.13 0 0 1 213.72 0c58.93 58.93 58.93 154.81 0 213.73A150.66 150.66 0 0 1 512 596.44z m0-242.19a91.13 91.13 0 1 0 64.44 26.69A90.54 90.54 0 0 0 512 354.25z"
          fill="#3CE4D6"/>
    <path d="M511.51 927.41l-14.77-8.73c-3.34-2-82.79-49.3-163.13-130.25C286 740.46 248 690.54 220.54 640.07c-35-64.41-52.74-129.92-52.74-194.69a344.2 344.2 0 1 1 688.4 0c0 67.43-17.73 134.58-52.68 199.57-27.47 51.1-65.6 100.93-113.33 148.12-80.57 79.66-160.31 124.18-163.67 126z m0.49-766.23c-156.71 0-284.2 127.49-284.2 284.2 0 210.38 224.27 372.43 284.66 412.24a809.64 809.64 0 0 0 136.61-108.27c97.62-96.92 147.13-199.2 147.13-304 0-156.68-127.49-284.17-284.2-284.17z"
          fill="#333333"/>
</svg>