<?xml version="1.0" standalone="no"?><!DOCTYPE svg PUBLIC "-//W3C//DTD SVG 1.1//EN"
        "http://www.w3.org/Graphics/SVG/1.1/DTD/svg11.dtd">
<svg class="icon" width="200px" height="200.00px" viewBox="0 0 1024 1024" version="1.1"
     xmlns="http://www.w3.org/2000/svg">
    <path d="M882.464 852.928a71.28 71.28 0 0 0 6.912-32.048l-0.288-166.864H681.072a74.896 74.896 0 0 1-48.064-13.808 58.928 58.928 0 0 1-25.152-27.36 111.488 111.488 0 0 1-9.12-41.152 79.584 79.584 0 0 1 25.152-59.392 80.512 80.512 0 0 1 59.392-22.928H896v-123.488c0-22.384-9.12-43.92-25.136-59.392a82.752 82.752 0 0 0-59.392-25.152H212.544c-22.384 0-43.936 9.12-59.408 25.152a82.752 82.752 0 0 0-25.12 59.392v454.992a75.152 75.152 0 0 0 6.88 32.048 79.2 79.2 0 0 0 18.24 27.36 57.824 57.824 0 0 0 27.36 18.224 71.28 71.28 0 0 0 32.048 6.912h596.704c11.056 0 22.112-2.224 32.048-6.912a96 96 0 0 0 25.152-18.24c6.08-8.56 11.6-17.68 16.016-27.344z"
          fill="#F66462"/>
    <path d="M765.888 258.144H352.048c32.048-16.016 64.096-34.24 93.648-50.272l75.424-41.168c25.136-13.808 43.36-22.928 59.392-32.048a121.92 121.92 0 0 1 57.184-16.016 123.072 123.072 0 0 1 43.36 9.12 106.4 106.4 0 0 1 34.272 27.344l50.56 103.04zM642.4 571.696a49.28 49.28 0 0 1 11.328-29.84 42.4 42.4 0 0 1 29.824-11.328c11.04 0.288 21.28 4.432 29.84 11.328 7.456 8.016 11.6 18.8 11.328 29.84-0.272 11.04-4.416 21.28-11.328 29.84a34.56 34.56 0 0 1-29.84 11.328 49.28 49.28 0 0 1-29.824-11.328 40.112 40.112 0 0 1-11.328-29.84z"
          fill="#FFA4A4"/>
</svg>