<?xml version="1.0" standalone="no"?><!DOCTYPE svg PUBLIC "-//W3C//DTD SVG 1.1//EN"
        "http://www.w3.org/Graphics/SVG/1.1/DTD/svg11.dtd">
<svg class="icon" width="200px" height="200.00px" viewBox="0 0 1024 1024" version="1.1"
     xmlns="http://www.w3.org/2000/svg">
    <path d="M702.352 742.944v42.128h-387.36v-42.128A321.088 321.088 0 0 1 140.704 450.032c0-203.2 164.704-367.904 367.92-367.904s367.92 164.688 367.92 367.904a321.12 321.12 0 0 1-174.192 292.912z m-159.52-199.696l91.008-91.008a37.728 37.728 0 0 0 13.456-37.824 37.52 37.52 0 0 0-66.208-14.848l-72.368 72.368-72.464-72.368a37.44 37.44 0 0 0-37.808-13.632c-14.24 3.168-25.328 14.24-28.48 28.4-3.184 14.24 2.096 28.928 13.52 37.904l91.104 91.008a50.72 50.72 0 0 0 68.24 0z"
          fill="#FDBA54"/>
    <path d="M315.088 843.2v11.6a78.304 78.304 0 0 0 19.68 59.264 78 78 0 0 0 56.816 25.936h234.352a78 78 0 0 0 56.8-25.936 78.304 78.304 0 0 0 19.696-59.264v-11.616h-387.36z"
          fill="#FFDE8D"/>
</svg>