<?xml version="1.0" standalone="no"?><!DOCTYPE svg PUBLIC "-//W3C//DTD SVG 1.1//EN"
        "http://www.w3.org/Graphics/SVG/1.1/DTD/svg11.dtd">
<svg class="icon" width="200px" height="200.00px" viewBox="0 0 1024 1024" version="1.1"
     xmlns="http://www.w3.org/2000/svg">
    <path d="M512 915.4c-222.44 0-403.39-181-403.39-403.4S289.56 108.6 512 108.6s403.39 181 403.39 403.4S734.44 915.4 512 915.4z m0-744.73c-188.21 0-341.33 153.12-341.33 341.33S323.79 853.34 512 853.34 853.33 700.21 853.33 512 700.21 170.67 512 170.67z m0 0"
          fill="#333333"/>
    <path d="M396 724.94a43.55 43.55 0 0 1-42.81-50.87l18.28-106.59L294 492a43.48 43.48 0 0 1 24.09-74.16l107-15.55 47.86-97a43.49 43.49 0 0 1 78 0l47.86 97 107 15.55A43.48 43.48 0 0 1 730 492l-77.44 75.48 18.24 106.59a43.47 43.47 0 0 1-63.08 45.83L512 669.58l-95.72 50.32a43.54 43.54 0 0 1-20.28 5.04zM359.9 472.4l59.68 58.18a43.46 43.46 0 0 1 12.5 38.48L418 651.21l73.78-38.79a43.49 43.49 0 0 1 40.46 0L606 651.21l-14.08-82.15a43.46 43.46 0 0 1 12.5-38.48l59.68-58.18-82.48-12a43.49 43.49 0 0 1-32.73-23.79L512 361.89l-36.89 74.74a43.51 43.51 0 0 1-32.73 23.79z"
          fill="#3CE4D6"/>
</svg>