<?xml version="1.0" standalone="no"?><!DOCTYPE svg PUBLIC "-//W3C//DTD SVG 1.1//EN"
        "http://www.w3.org/Graphics/SVG/1.1/DTD/svg11.dtd">
<svg class="icon" width="200px" height="200.00px" viewBox="0 0 1024 1024" version="1.1"
     xmlns="http://www.w3.org/2000/svg">
    <path d="M112 725.68A183.36 183.36 0 0 1 295.36 542.4h133.28a49.984 49.984 0 0 1 50.016 50v133.296a183.36 183.36 0 0 1-366.656 0zM112 292.384a183.36 183.36 0 0 1 366.656 0v133.296a49.984 49.984 0 0 1-50 50h-133.312A183.296 183.296 0 0 1 112 292.384z"
          fill="#F66462"/>
    <path d="M912 711.632a14.032 14.032 0 0 0-14-14.096l0.048 0.048h-16.96c-7.792 0-16-6.048-18.288-13.504l-9.696-23.648a20.24 20.24 0 0 1 3.36-22.352l12-12a14.176 14.176 0 0 0 0-20l-20-19.904a14.048 14.048 0 0 0-19.968 0l-12 12c-5.488 5.456-15.6 6.96-22.496 3.248l-23.504-9.696c-7.392-2.288-13.488-10.496-13.488-18.288v-16.912a14.144 14.144 0 0 0-14.112-14.096H714.72a14.08 14.08 0 0 0-14.096 14.096v16.848a20.4 20.4 0 0 1-13.504 18.352l-23.6 9.648a20.384 20.384 0 0 1-22.448-3.248l-12-12a14.064 14.064 0 0 0-19.904 0l-20 19.84a14.08 14.08 0 0 0 0 20l12 12a20.256 20.256 0 0 1 3.296 22.4l-9.696 23.664c-2.304 7.392-10.56 13.504-18.304 13.504h-16.896a14.128 14.128 0 0 0-14.16 14.096v28.16a14.144 14.144 0 0 0 14.112 14.08h16.896a20.48 20.48 0 0 1 18.24 13.504l9.808 23.6a20.256 20.256 0 0 1-3.36 22.464l-12 12a14.144 14.144 0 0 0 0 19.936l19.968 19.952a14.096 14.096 0 0 0 19.936 0l12.064-12a20.096 20.096 0 0 1 22.336-3.248l23.6 9.696a20.352 20.352 0 0 1 13.504 18.304v16.848a14.208 14.208 0 0 0 14.16 14.112h28.192a14.144 14.144 0 0 0 14.096-14.112v-16.896a20.448 20.448 0 0 1 13.456-18.24l23.648-9.712a20.144 20.144 0 0 1 22.4 3.248l11.952 12a14.144 14.144 0 0 0 19.952 0l20-19.888a14.192 14.192 0 0 0 0-20l-12-12a20.304 20.304 0 0 1-3.36-22.464l9.76-23.6a20.48 20.48 0 0 1 18.24-13.44h16.96a14.16 14.16 0 0 0 14.048-14.112v-28.192z m-124.432-12.368a64.16 64.16 0 0 1 4.128 25.312h-0.048a64.16 64.16 0 0 1-128.16 0 64.16 64.16 0 0 1 124.08-25.312z"
          fill="#FFA4A4"/>
    <path d="M912 292.384A183.296 183.296 0 0 1 728.64 475.68h-133.28a50.016 50.016 0 0 1-50.016-50v-133.296a183.36 183.36 0 0 1 366.656 0z"
          fill="#F66462"/>
</svg>