<?xml version="1.0" standalone="no"?><!DOCTYPE svg PUBLIC "-//W3C//DTD SVG 1.1//EN"
        "http://www.w3.org/Graphics/SVG/1.1/DTD/svg11.dtd">
<svg class="icon" width="200px" height="200.00px" viewBox="0 0 1024 1024" version="1.1"
     xmlns="http://www.w3.org/2000/svg">
    <path d="M344.048 128h336a96 96 0 0 1 0 192h-336a96 96 0 0 1 0-192z" fill="#92DBFF"/>
    <path d="M224 160c8.8 0 14.32 9.904 10.88 18.016A118.4 118.4 0 0 0 344.048 342.4h336a118.4 118.4 0 0 0 109.12-164.448c-3.424-8.08 2.08-17.952 10.848-17.952a96 96 0 0 1 96 96v544a96 96 0 0 1-96 96H224a96 96 0 0 1-96-96V256a96 96 0 0 1 96-96z"
          fill="#42B4FA"/>
    <path d="M233.408 444.224h214.544a24.048 24.048 0 0 1 0 48.08H233.408c-13.28 0-24.048-10.768-24.048-24.048a24.16 24.16 0 0 1 24.048-24.032z m0 146.08h176.96a24.048 24.048 0 0 1 0 48.08h-176.96c-13.28 0-24.048-10.768-24.048-24.032a24.16 24.16 0 0 1 24.048-24.048z m0 146.08h102.016a24.048 24.048 0 0 1 0 48.096h-102.016c-13.28 0-24.048-10.784-24.048-24.048a24.16 24.16 0 0 1 24.048-24.048zM632.032 416a95.008 95.008 0 0 0-95.04 95.04 95.008 95.008 0 0 0 95.04 95.04 95.008 95.008 0 0 0 95.04-95.04 95.008 95.008 0 0 0-95.04-95.04z m0 190.08c-86.208 0-159.024 57.36-182.288 136.032-8 26.944 12.592 54.048 40.688 54.048h283.136c28.128 0 48.688-27.04 40.688-54.048-23.216-78.656-96.032-136.032-182.24-136.032z"
          fill="#FFFFFF"/>
    <path d="M632.032 616.4a2.208 2.208 0 0 0-2.144 1.488l-28.528 76.32a2.24 2.24 0 0 0 0.384 2.288l28.544 33.248c0.448 0.56 1.088 0.8 1.728 0.8 0.64 0 1.296-0.24 1.76-0.8l28.528-33.248a2.272 2.272 0 0 0 0.384-2.272l-28.528-76.32a2.208 2.208 0 0 0-2.128-1.504z"
          fill="#92DBFF"/>
</svg>