<?xml version="1.0" standalone="no"?><!DOCTYPE svg PUBLIC "-//W3C//DTD SVG 1.1//EN"
        "http://www.w3.org/Graphics/SVG/1.1/DTD/svg11.dtd">
<svg class="icon" width="200px" height="200.00px" viewBox="0 0 1024 1024" version="1.1"
     xmlns="http://www.w3.org/2000/svg">
    <path d="M485.44 125.312c20.448 0 30.592 10.144 30.592 30.592v40.864c0 20.448-10.144 30.592-30.592 30.592-20.432 0-30.592-10.144-30.592-30.592V155.904c0-20.448 10.288-30.592 30.592-30.592zM383.392 64c20.432 0 30.592 10.16 30.592 30.592v122.624c0 20.432-10.16 30.592-30.592 30.592s-30.592-10.16-30.592-30.592V94.592C352.672 74.16 362.96 64 383.392 64zM295.92 72.592c20.432 0 30.592 10.16 30.592 30.592v122.624c0 20.432-10.16 30.576-30.592 30.576s-30.592-10.144-30.592-30.592V103.328c0-20.432 10.16-30.72 30.592-30.72z"
          fill="#ADF0EA"/>
    <path d="M189.312 268.24h531.088a61.376 61.376 0 0 1 61.312 61.312v251.488c0 1.168 0 2.336-0.128 3.52-8.08 143.168-117.152 214.768-326.72 214.768-209.584 0-318.528-71.6-326.72-214.784C128 583.248 128 582.08 128 580.896v-251.36a61.328 61.328 0 0 1 61.312-61.296z"
          fill="#3DD5BB"/>
    <path d="M209.76 829.92h490.208c20.432 0 35.52 10.144 35.52 30.592 0 20.432-15.088 30.592-35.52 30.592H209.744c-20.432 0-34.624-10.16-34.624-30.592 0.128-20.32 14.192-30.592 34.624-30.592z"
          fill="#3DD5BB"/>
    <path d="M905.44 717.28c-27.456-96.256-89.6-135.648-124.8-152.368 13.632-11.168 26.352-27.472 24.288-54.832a12.896 12.896 0 0 0-0.912-4c-15.968-40.896-79.616-41.968-92.064-41.92-0.272 0-0.528-0.16-0.8-0.16-7.712-0.048-76.848-0.576-93.552 42.128a14.688 14.688 0 0 0-0.912 3.952c-2.08 27.312 10.656 43.664 24.272 54.832-35.12 16.784-97.392 56.272-125.008 153.28-10.208 47.68-0.48 92.72 27.408 126.768 23.52 28.688 70.4 62.464 160.72 62.464 2.176 0 4.416 0 6.64-0.048 2.24 0.048 4.48 0.048 6.656 0.048 90.32 0 137.248-33.76 160.768-62.464 28.048-34.048 37.792-79.04 27.296-127.68z"
          fill="#ADF0EA"/>
    <path d="M770.384 765.104h-44.48v52.992c0 8.32-6.72 15.136-15.072 15.136a15.104 15.104 0 0 1-15.056-15.136v-53.008h-44.48a15.104 15.104 0 0 1-15.072-15.12c0-8.32 6.72-15.136 15.056-15.136h44.48v-18.896h-39.728a15.104 15.104 0 0 1-14.416-15.136c0-8.128 6.384-14.8 14.4-15.136h25.728l-25.056-27.088a15.184 15.184 0 0 1 0.976-21.152 15.008 15.008 0 0 1 21.056 0.528l32.048 34.624 32.048-34.624a15.008 15.008 0 0 1 21.056-0.528 15.184 15.184 0 0 1 0.992 21.152l-25.072 27.088h25.792a15.136 15.136 0 0 1 0 30.272h-39.744v18.896h44.48c8.288 0 15.072 6.736 15.072 15.136a15.008 15.008 0 0 1-15.008 15.136z"
          fill="#FFFFFF"/>
</svg>