<?xml version="1.0" standalone="no"?><!DOCTYPE svg PUBLIC "-//W3C//DTD SVG 1.1//EN"
        "http://www.w3.org/Graphics/SVG/1.1/DTD/svg11.dtd">
<svg class="icon" width="200px" height="200.00px" viewBox="0 0 1024 1024" version="1.1"
     xmlns="http://www.w3.org/2000/svg">
    <path d="M160.672 282.112c0 43.584 57.904 83.952 151.92 105.712 94.032 21.824 209.904 21.824 303.92 0 94.032-21.824 151.936-62.128 151.936-105.712 0.064-67.44-136-122.112-303.856-122.112-167.84 0-303.92 54.672-303.92 122.112z m415.744 265.696c43.6-33.52 90.944-60.576 173.76-63.408 14.24-11.808 18.88-23.696 19.888-42.032V331.52c-4.24 65.76-138.368 118.88-303.92 118.88-165.568 0-305.536-54.72-305.536-122.096v105.248c0 67.904 136.272 122.64 303.92 122.64 44.128 0.128 75.36-1.408 111.888-8.4z m-415.744-72.064v105.248c0 67.36 136.272 122.096 303.84 122.096h22.24c2.752-37.008 22.768-75.952 48.704-107.728-26 2.816-44.736 4.576-70.864 4.576-167.648 0.064-303.92-54.672-303.92-124.192z m303.584 274.368C295.872 750.112 160 697.52 160 628.192v105.12c0 67.312 136.416 121.984 304.256 121.984h41.92c-17.408-30.64-22.784-64.624-22.784-105.12h-19.136v-0.064z"
          fill="#FC5787"/>
    <path d="M560.032 841.04a5.92 5.92 0 0 0 8.304 6.128c5.12-2.208 53.168-23.232 75.568-32.992l-74.784-55.104c-2.8 24.848-8.688 77.904-9.088 81.968z m204.16-71.536c0 6.32 5.152 11.408 11.472 11.408h91.488a11.456 11.456 0 0 0 11.472-11.424 11.456 11.456 0 0 0-11.472-11.408h-91.52a11.456 11.456 0 0 0-11.424 11.408z m47.856-171.632a16.4 16.4 0 0 0-3.472-22.912L749.152 531.2a16.448 16.448 0 0 0-22.944 3.488l-4.864 6.592 85.808 63.2 4.896-6.592z m-97.504-47.36L576.384 737.92l85.824 63.248 138.192-187.456-85.856-63.216z m154 274.656H685.712a11.392 11.392 0 1 0 0 22.832h182.832a11.424 11.424 0 1 0 0-22.848z"
          fill="#FFC2D8"/>
</svg>