<?xml version="1.0" standalone="no"?><!DOCTYPE svg PUBLIC "-//W3C//DTD SVG 1.1//EN"
        "http://www.w3.org/Graphics/SVG/1.1/DTD/svg11.dtd">
<svg class="icon" width="200px" height="200.00px" viewBox="0 0 1024 1024" version="1.1"
     xmlns="http://www.w3.org/2000/svg">
    <path d="M606.128 500.16s37.28 141.184-105.92 141.184c-147.84 0-105.856-141.184-105.856-141.184H112V829.6c0 36.144 31.728 70.592 70.592 70.592h658.816c35.344 0 70.592-30.464 70.592-70.592V500.16H606.128z"
          fill="#42B4FA"/>
    <path d="M676.704 170.752v94.128h164.704c34.944 0 70.592 35.552 70.592 70.576v117.648H112v-117.632c0-33.088 35.44-70.592 70.592-70.592h141.168v-94.128c0-23.328 25.376-47.04 47.056-47.04h258.832c21.184 0 47.792 24.64 47.04 47.04z m-282.352 94.128h211.776v-47.056c0-14.288-9.312-23.536-23.536-23.536H417.888c-14.208 0-23.52 9.248-23.52 23.52v47.072z"
          fill="#92DBFF"/>
    <path d="M511.072 593.44c46.352 0 48-56.96 48-93.28h-117.664l0.08 2.912c0.768 30.4 2.32 91.216 46.976 91.216 0 0 12.928-0.848 22.608-0.848z"
          fill="#92DBFF"/>
</svg>