<?xml version="1.0" standalone="no"?><!DOCTYPE svg PUBLIC "-//W3C//DTD SVG 1.1//EN"
        "http://www.w3.org/Graphics/SVG/1.1/DTD/svg11.dtd">
<svg class="icon" width="200px" height="200.00px" viewBox="0 0 1024 1024" version="1.1"
     xmlns="http://www.w3.org/2000/svg">
    <path d="M708.33 871.18H256.41a64.55 64.55 0 0 1-64.47-64.48V765h60v41.7a4.48 4.48 0 0 0 4.47 4.48h451.92a4.48 4.48 0 0 0 4.47-4.48v-413h60v413a64.55 64.55 0 0 1-64.47 64.48z"
          fill="#333333"/>
    <path d="M632.13 795H180.21a64.55 64.55 0 0 1-64.47-64.48V278.59a64.55 64.55 0 0 1 64.47-64.48h451.92a64.55 64.55 0 0 1 64.47 64.48v3.49h-60v-3.49a4.48 4.48 0 0 0-4.47-4.48H180.21a4.48 4.48 0 0 0-4.47 4.48V730.5a4.48 4.48 0 0 0 4.47 4.48h451.92a4.48 4.48 0 0 0 4.47-4.48V456.7h60v273.8a64.55 64.55 0 0 1-64.47 64.5z"
          fill="#3CE4D6"/>
    <path d="M384.08 716.38a43.78 43.78 0 0 1-5.82-0.4 43.07 43.07 0 0 1-29.43-18.07L206 491.94a42.93 42.93 0 0 1 24.43-66l111.43-29.14a42.84 42.84 0 0 1 51.92 29l22.53 73.63L736.52 166a43.1 43.1 0 0 1 58.4-3.29l97 80.59a42.94 42.94 0 0 1-0.08 66.12L411.47 706.53a43.1 43.1 0 0 1-27.39 9.85zM269.21 477.81l118.35 170.65 450.22-372.2L768.8 219 439.46 562a42.94 42.94 0 0 1-72-17.18L341.19 459z m-13.92-20.06z"
          fill="#333333"/>
</svg>