<?xml version="1.0" standalone="no"?><!DOCTYPE svg PUBLIC "-//W3C//DTD SVG 1.1//EN"
        "http://www.w3.org/Graphics/SVG/1.1/DTD/svg11.dtd">
<svg class="icon" width="200px" height="200.00px" viewBox="0 0 1024 1024" version="1.1"
     xmlns="http://www.w3.org/2000/svg">
    <path d="M482 723.44h60v185.69h-60z" fill="#333333"/>
    <path d="M700.59 830.24H321.92v47.33a31.55 31.55 0 0 0 31.55 31.56H669a31.55 31.55 0 0 0 31.55-31.56z m0 0"
          fill="#3CE4D6"/>
    <path d="M512 633.6c-97 0-175.86-78.89-175.86-175.85v-197c0-97 78.89-175.86 175.86-175.86s175.86 78.89 175.86 175.86v197C687.86 554.71 609 633.6 512 633.6z m0-488.73a116 116 0 0 0-115.86 115.86v197a115.86 115.86 0 0 0 231.72 0v-197A116 116 0 0 0 512 144.87z"
          fill="#333333"/>
    <path d="M512 753.44a288 288 0 0 1-288-288 30 30 0 1 1 60 0c0 125.71 102.27 228 228 228s228-102.26 228-228a30 30 0 0 1 60 0 288 288 0 0 1-288 288z"
          fill="#333333"/>
</svg>