<?xml version="1.0" standalone="no"?><!DOCTYPE svg PUBLIC "-//W3C//DTD SVG 1.1//EN"
        "http://www.w3.org/Graphics/SVG/1.1/DTD/svg11.dtd">
<svg class="icon" width="200px" height="200.00px" viewBox="0 0 1024 1024" version="1.1"
     xmlns="http://www.w3.org/2000/svg">
    <path d="M428.8 310.4m-170.666667 0a170.666667 170.666667 0 1 0 341.333334 0 170.666667 170.666667 0 1 0-341.333334 0Z"
          fill="#839BFB"/>
    <path d="M704 877.866667a38.4 38.4 0 0 0 38.4-36.906667v-14.506667a313.6 313.6 0 1 0-627.2 0v14.506667a38.4 38.4 0 0 0 38.4 36.906667z"
          fill="#839BFB"/>
    <path d="M663.466667 310.4a253.866667 253.866667 0 0 1-46.72 146.56h10.24A143.146667 143.146667 0 0 0 768 312.533333a143.36 143.36 0 0 0-141.653333-145.066666h-7.04a253.866667 253.866667 0 0 1 44.16 142.933333zM648.32 505.813333a240.64 240.64 0 0 0-32.853333 2.346667 398.506667 398.506667 0 0 1 184.32 307.84h76.586666a32.64 32.64 0 0 0 31.786667-31.573333v-12.373334a263.466667 263.466667 0 0 0-259.84-266.24z"
          fill="#C0CEF9"/>
</svg>