<?xml version="1.0" standalone="no"?><!DOCTYPE svg PUBLIC "-//W3C//DTD SVG 1.1//EN"
        "http://www.w3.org/Graphics/SVG/1.1/DTD/svg11.dtd">
<svg class="icon" width="200px" height="200.00px" viewBox="0 0 1024 1024" version="1.1"
     xmlns="http://www.w3.org/2000/svg">
    <path d="M555.984 322.4a17.888 17.888 0 0 0-17.888 17.872v161.696a175.2 175.2 0 0 0 151.664 174.448 16.864 16.864 0 0 0 0 3.44v187.424h-71.312a22.096 22.096 0 0 0-22.048 22.048 22.064 22.064 0 0 0 22.048 22.064H803.2a22.064 22.064 0 0 0 0-44.112H733.6V680.832a12.48 12.48 0 0 0 0-3.184c86.4-11.04 151.264-84.384 151.68-171.488V342.016a17.888 17.888 0 0 0-17.888-17.888l-311.408-1.728z"
          fill="#FFDE8D"/>
    <path d="M440.8 371.28a89.184 89.184 0 0 1 55.136 82.672v378.752a89.44 89.44 0 0 1-89.424 89.44H228.16a89.44 89.44 0 0 1-89.44-89.44V453.952a89.2 89.2 0 0 1 89.44-89.424h17.392V146.48a56.352 56.352 0 0 1 56.352-56.352h30.88a56.368 56.368 0 0 1 56.352 56.352v218.048h17.408a89.216 89.216 0 0 1 34.24 6.752z m-52.224 360.752a18.88 18.88 0 0 0 11.616-17.664 18.704 18.704 0 0 0-18.88-18.88H253.44a18.896 18.896 0 0 0-19.12 18.88c0 10.56 8.56 19.12 19.104 19.12h127.888c2.512 0 4.976-0.496 7.28-1.472z m-0.016-122.64a18.672 18.672 0 0 0 11.616-17.504 18.88 18.88 0 0 0-18.88-19.12h-127.888a19.12 19.12 0 0 0-17.648 26.4 18.912 18.912 0 0 0 17.648 11.6h127.888c2.496 0.032 4.96-0.448 7.264-1.376z"
          fill="#FDBA54"/>
</svg>