<?xml version="1.0" standalone="no"?><!DOCTYPE svg PUBLIC "-//W3C//DTD SVG 1.1//EN"
        "http://www.w3.org/Graphics/SVG/1.1/DTD/svg11.dtd">
<svg class="icon" width="200px" height="200.00px" viewBox="0 0 1024 1024" version="1.1"
     xmlns="http://www.w3.org/2000/svg">
    <path d="M504.05 619.81H294.31L242.7 791.86H146l199.91-603h109.8l199.91 603H554.85z m-22.94-74.55l-23.76-81.11C436.87 398.6 418.84 331.42 400 263.42h-3.28c-17.2 68.82-36.05 135.18-55.72 200.73l-24.58 81.11z"
          fill="#333333"/>
    <path d="M742.44 383H668l-65.75 198.32 31.13 93.89h141.83l34.44 116.65H878zM648 624.66l16.67-55c13.33-44.44 26.1-89.44 37.77-136.11h2.22c12.78 46.12 25 91.67 38.89 136.11l16.11 55z"
          fill="#3CE4D6"/>
</svg>