<?xml version="1.0" standalone="no"?><!DOCTYPE svg PUBLIC "-//W3C//DTD SVG 1.1//EN"
        "http://www.w3.org/Graphics/SVG/1.1/DTD/svg11.dtd">
<svg class="icon" width="200px" height="200.00px" viewBox="0 0 1024 1024" version="1.1"
     xmlns="http://www.w3.org/2000/svg">
    <path d="M792.048 886.672a30.08 30.08 0 0 1-21.328-9.136 30.864 30.864 0 0 1-1.52-42.656l51.792-54.816-50.272-54.832c-12.176-12.192-10.656-32 1.536-42.656 12.176-12.176 31.968-10.656 42.64 1.536l73.104 76.16a32.432 32.432 0 0 1 0 42.624l-73.12 76.16c-6.08 4.576-13.696 7.616-22.832 7.616z m-152.32 0a30.08 30.08 0 0 1-21.312-9.136 30.864 30.864 0 0 1-1.52-42.656l51.776-54.816-51.776-54.832c-12.176-12.192-10.656-32 1.52-42.656 12.192-12.176 32-10.656 42.656 1.536l73.104 76.16a32.432 32.432 0 0 1 0 42.624l-73.12 76.16c-6.08 4.576-13.696 7.616-21.312 7.616z"
          fill="#FECC87"/>
    <path d="M790.528 85.552H211.776C166.08 85.552 128 123.632 128 169.312v685.376c0 45.696 38.08 83.76 83.776 83.76h405.12c-59.392-27.408-102.032-86.8-102.032-156.864 0-95.952 77.664-172.112 172.096-172.112h187.344v-440.16c0-45.696-38.08-83.76-83.776-83.76zM525.52 568.352H292.48a30.56 30.56 0 0 1-30.464-30.464 30.56 30.56 0 0 1 30.464-30.464H527.04a30.56 30.56 0 0 1 30.464 30.464c-1.52 16.752-15.232 30.464-32 30.464z m184.288-141.648H292.48a30.56 30.56 0 0 1-30.464-30.464 30.56 30.56 0 0 1 30.464-30.448h418.832a30.56 30.56 0 0 1 30.464 30.464c0 16.752-15.232 30.448-32 30.448z m0-141.632H292.48a30.56 30.56 0 0 1-30.464-30.464 30.56 30.56 0 0 1 30.464-30.464h418.832a30.56 30.56 0 0 1 30.464 30.464c0 16.752-15.232 30.464-32 30.464z"
          fill="#FD9F55"/>
</svg>