<?xml version="1.0" standalone="no"?><!DOCTYPE svg PUBLIC "-//W3C//DTD SVG 1.1//EN"
        "http://www.w3.org/Graphics/SVG/1.1/DTD/svg11.dtd">
<svg class="icon" width="200px" height="200.00px" viewBox="0 0 1024 1024" version="1.1"
     xmlns="http://www.w3.org/2000/svg">
    <path d="M535.008 616.592c11.168-16.24 32.992-40.48 65.472-72.688l2.8-7.68c6.912-11.6 13.04-23.696 18.272-36.176a3.2 3.2 0 0 1 2.432-1.984c22.304-3.344 42.88-27.808 50.208-60.672 7.968-36-1.072-69.856-21.648-83.408a3.52 3.52 0 0 1-1.504-2.992c1.072-68.848-15.152-123.488-48.32-162.368C560.128 138.512 501.6 128 460 128c-41.536 0-100.064 10.512-142.688 60.624-33.168 38.88-49.392 93.52-48.304 162.368a3.504 3.504 0 0 1-1.472 2.992c-20.608 13.552-29.68 47.392-21.68 83.408 7.296 32.864 27.904 57.36 50.176 60.672a3.2 3.2 0 0 1 2.4 2c15.92 37.52 37.76 68.816 63.36 90.8a2.72 2.72 0 0 1 0.64 0.704c8.672 9.872 8.752 24.848 8.672 25.024-0.24 0.352-0.048 8.736 0.16 17.92 0.24 11.36 0.512 23.952 0.048 24-15.6 1.904-61.904 8.288-106.608 24.208-28.768 10.24-53.152 22.72-72.352 37.072-24.736 18.464-41.36 40.304-49.328 64.96a28 28 0 0 0-1.312 8.416v36.48c0 16.096 12.048 29.12 26.864 29.12h363.168a246.032 246.032 0 0 1-31.92-121.76c0-35.28 6.144-78.048 35.2-120.416z"
          fill="#3DD5BB"/>
    <path d="M713.984 896c-92.976 0-168.32-76.416-168.32-170.656 0-94.272 75.36-170.672 168.32-170.672s168.304 76.4 168.304 170.672c0 94.24-75.36 170.656-168.304 170.656z"
          fill="#ADF0EA"/>
    <path d="M771.936 806.112l-58.016-58.864-57.888 58.784a15.2 15.2 0 0 1-14.928 4.256 15.728 15.728 0 0 1-6.752-26.272l57.92-58.752-57.776-58.656a15.712 15.712 0 0 1 4.96-25.376 15.2 15.2 0 0 1 16.768 3.392l57.76 58.608 57.792-58.672a15.2 15.2 0 0 1 14.816-4.064 15.744 15.744 0 0 1 6.88 26.064l-57.824 58.704 58.016 58.832a15.744 15.744 0 0 1-0.48 21.552 15.232 15.232 0 0 1-21.248 0.48z"
          fill="#FFFFFF"/>
</svg>