<?xml version="1.0" standalone="no"?><!DOCTYPE svg PUBLIC "-//W3C//DTD SVG 1.1//EN"
        "http://www.w3.org/Graphics/SVG/1.1/DTD/svg11.dtd">
<svg class="icon" width="200px" height="200.00px" viewBox="0 0 1024 1024" version="1.1"
     xmlns="http://www.w3.org/2000/svg">
    <path d="M601.232 354.032c-104.272 20.048-187.136 105.904-204.192 210.704-10.608 65.12 3.072 126.688 33.424 177.072v103.92a18.496 18.496 0 0 0 21.568 18.256l100.368-16.72c48.032 20.192 103.2 26.72 161.024 13.248 98.864-23.024 176.832-105.12 194.416-205.088a259.648 259.648 0 0 0-306.608-301.392z"
          fill="#FECC87"/>
    <path d="M396.912 163.248c-142.992 27.504-256.64 145.232-280.032 288.96-14.56 89.312 4.208 173.76 45.824 242.864v142.496a25.36 25.36 0 0 0 29.584 25.056l137.648-22.944c65.872 27.68 141.552 36.64 220.832 18.176 135.584-31.584 242.512-144.16 266.64-281.264 43.792-248.72-171.216-461.296-420.48-413.344z m-121.024 407.088h-50.8v-116.128h50.8v116.128z m144.704 57.984h-50.784V396.208h50.784V628.32z m144.72-27.52h-50.8V423.728h50.8v177.104z m144.704-39.6h-50.784V463.36h50.784v97.856z"
          fill="#FD9F55"/>
    <path d="M275.872 570.336h-50.784v-116.128h50.8v116.128zM420.592 628.32h-50.784V396.208h50.784V628.32zM565.312 600.8h-50.8V423.728h50.8v177.104zM710.016 561.2h-50.784V463.36h50.784v97.856z"
          fill="#FFFFFF"/>
</svg>