<?xml version="1.0" standalone="no"?><!DOCTYPE svg PUBLIC "-//W3C//DTD SVG 1.1//EN"
        "http://www.w3.org/Graphics/SVG/1.1/DTD/svg11.dtd">
<svg class="icon" width="200px" height="200.00px" viewBox="0 0 1024 1024" version="1.1"
     xmlns="http://www.w3.org/2000/svg">
    <path d="M502.032 323.632a62.88 62.88 0 0 0 62.928-62.928v-100.432h-125.856v100.832c0 34.384 28.144 62.528 62.928 62.528z"
          fill="#92DBFF"/>
    <path d="M872.528 253.664H608.336v7.44a108.416 108.416 0 0 1-108.64 108.64 108.416 108.416 0 0 1-108.64-108.64v-7.44H151.456A39.36 39.36 0 0 0 112 293.152v531.104a39.36 39.36 0 0 0 39.472 39.472h721.056A39.36 39.36 0 0 0 912 824.256V293.152c0-21.504-17.6-39.488-39.472-39.488z m-349.392 469.76H195.632v-49.632l130.928-62.912-44.16-62.144v-78.16c0-43.376 35.168-76.608 78.944-76.608 43.376 0 78.944 33.232 78.944 76.608v78.16l-42.608 62.144 125.856 62.912v49.632h-0.4z m102.784-288.8h159.84c13.68 0 25.024 11.328 25.024 25.008s-11.344 25.008-25.024 25.008h-159.84a25.184 25.184 0 0 1-25.008-25.008c-0.4-13.68 10.944-25.008 25.008-25.008z m-0.384 106.688h102c13.68 0 25.008 11.328 25.008 25.008s-11.328 25.008-25.008 25.008h-102a25.184 25.184 0 0 1-25.008-25.008c0-13.68 11.328-25.008 25.008-25.008z m160.224 148.512h-159.84a25.184 25.184 0 0 1-25.008-25.008c0-13.68 11.328-25.024 25.008-25.024h159.84c13.68 0 25.024 11.344 25.024 25.024 0 13.68-11.344 25.008-25.024 25.008z"
          fill="#42B4FA"/>
</svg>