<?xml version="1.0" standalone="no"?><!DOCTYPE svg PUBLIC "-//W3C//DTD SVG 1.1//EN"
        "http://www.w3.org/Graphics/SVG/1.1/DTD/svg11.dtd">
<svg class="icon" width="200px" height="200.00px" viewBox="0 0 1024 1024" version="1.1"
     xmlns="http://www.w3.org/2000/svg">
    <path d="M770.16 933.44H254.048A126 126 0 0 1 128 807.44v-591.04a126 126 0 0 1 126.048-126h447.2L896 282.8v524.64a126.048 126.048 0 0 1-125.84 126z"
          fill="#3DD5BB"/>
    <path d="M701.264 90.4v153.712a42.496 42.496 0 0 0 42.48 42.48H896v-3.792L701.264 90.4z" fill="#ADF0EA"/>
    <path d="M722.064 580.432v127.92a42.88 42.88 0 0 1-26.32 39.52c-5.184 2.144-10.72 3.248-16.32 3.248h-341.12a42.528 42.528 0 0 1-39.376-26.4 42.832 42.832 0 0 1-3.248-16.368v-127.92c60.688 26.944 133.12 42.4 213.184 42.4 80.032 0 152.464-15.456 213.2-42.4z m-95.936-214.128c8.48 0 16.608 3.376 22.608 9.392s9.36 14.176 9.36 22.672v42.72h21.328a42.544 42.544 0 0 1 39.392 26.4c2.144 5.184 3.248 10.736 3.248 16.352v64.032c-59.84 27.52-133.504 42.912-213.2 42.912-79.68 0-153.392-15.424-213.216-42.912l0.032-64.032a42.832 42.832 0 0 1 26.32-39.488c5.168-2.16 10.72-3.264 16.32-3.264h21.312v-42.72c0-7.968 2.96-15.648 8.32-21.552 5.328-5.904 12.672-9.6 20.592-10.352l3.072-0.16h234.512z m-95.936 138.96h-42.64a21.28 21.28 0 0 0-21.264 20.128 21.408 21.408 0 0 0 18.768 22.48l2.496 0.16h42.64a21.28 21.28 0 0 0 21.312-21.392 21.408 21.408 0 0 0-21.312-21.376z m85.28-96.192H402.256v32.016h213.184v-32.032z"
          fill="#FFFFFF"/>
</svg>