<?xml version="1.0" standalone="no"?><!DOCTYPE svg PUBLIC "-//W3C//DTD SVG 1.1//EN"
        "http://www.w3.org/Graphics/SVG/1.1/DTD/svg11.dtd">
<svg class="icon" width="200px" height="200.00px" viewBox="0 0 1024 1024" version="1.1"
     xmlns="http://www.w3.org/2000/svg">
    <path d="M149 914.55a31.55 31.55 0 0 1-30.14-40.89c78.41-252.93 78.54-253.06 85.72-260.43l473.73-486.4a63.14 63.14 0 0 1 90.43 0L887.8 249.08a62.78 62.78 0 0 1 0 88.06l-474.87 487.6c-7.6 7.55-7.73 7.68-254.13 88.25a31.69 31.69 0 0 1-9.8 1.56z m105.51-262.13C247 674.73 220.57 759.15 197.27 834c72.25-23.72 153.3-50.5 175.32-58.25l470-482.6-119.06-122.28z m134.84 150.75z m0 0"
          fill="#333333"/>
    <path d="M748 460.39a31.41 31.41 0 0 1-22.31-9.25l-142-142a31.55 31.55 0 0 1 44.63-44.62l142 142A31.56 31.56 0 0 1 748 460.39z m0 0"
          fill="#333333"/>
    <path d="M902.53 837.41H523.85v47.34a31.55 31.55 0 0 0 31.56 31.55H871a31.55 31.55 0 0 0 31.55-31.55z m0 0"
          fill="#3CE4D6"/>
</svg>