<?xml version="1.0" standalone="no"?><!DOCTYPE svg PUBLIC "-//W3C//DTD SVG 1.1//EN"
        "http://www.w3.org/Graphics/SVG/1.1/DTD/svg11.dtd">
<svg class="icon" width="200px" height="200.00px" viewBox="0 0 1024 1024" version="1.1"
     xmlns="http://www.w3.org/2000/svg">
    <path d="M511.32 914.92c-222.44 0-403.4-181-403.4-403.4s181-403.4 403.4-403.4 403.39 181 403.39 403.4-181 403.4-403.39 403.4z m0-744.74C323.1 170.18 170 323.3 170 511.52s153.1 341.33 341.32 341.33 341.33-153.12 341.33-341.33-153.12-341.34-341.33-341.34z m0 0"
          fill="#333333"/>
    <path d="M633.53 673.53a23.83 23.83 0 0 1-33.69 0L481.61 555.3a31 31 0 0 1-9.09-21.94V341.53a23.82 23.82 0 0 1 23.82-23.82h53.76v196.37l121.44 121.44z m-16.85 16.84"
          fill="#3CE4D6"/>
</svg>