<?xml version="1.0" standalone="no"?><!DOCTYPE svg PUBLIC "-//W3C//DTD SVG 1.1//EN"
        "http://www.w3.org/Graphics/SVG/1.1/DTD/svg11.dtd">
<svg class="icon" width="200px" height="200.00px" viewBox="0 0 1024 1024" version="1.1"
     xmlns="http://www.w3.org/2000/svg">
    <path d="M691.648 401.312c-4.96-21.952-194.128-226.752-241.84-195.392-34.272 22.496-5.216 58.272-5.216 58.272 63.824 15.68 187.488 161.28 187.488 161.28l-196.912 76.208c-23.312 14.928-67.312 14.928-67.312 94.112v112.032c0 34.64 42.768 73.824 77.088 73.824h33.008c-0.592 0-0.896-15.2-0.896-21.232 0-97.12 78-177.504 174.24-177.504 96.224 0 174.24 81.2 174.24 178.368 0 6.032-0.32 20.368-0.896 20.368H928V307.584l-236.352 93.728zM420.528 594.656c-37.728-73.936 115.424-78.048 115.424-78.048l-115.424 78.048z"
          fill="#9076F8"/>
    <path d="M383.6 211.904c0 51.152-41.088 92.608-91.76 92.608-50.656 0-91.744-41.456-91.744-92.608s41.088-92.624 91.744-92.624c50.672 0 91.76 41.472 91.76 92.624z m76.368 206.88s-33.456-23.152-92.928 3.744c-42.608 19.248-58.048-12.32-76.256-49.536-15.264-31.184-32.48-66.336-69.232-78.944 0 0-81.424 0-116.576 137.84 0 0-27.568 89.504 13.92 207.216v203.152s41.488 64.96 103.744 0V636.128s-0.896-128.48 46.464-176.256c0 0 10.64 44.816 91.264 41.824 0 0 178.576-25.376 99.6-82.896z"
          fill="#C7B0FF"/>
    <path d="M653.488 621.568c-77.2 0-139.792 63.168-139.792 141.12s62.592 141.12 139.792 141.12c77.232 0 139.84-63.168 139.84-141.12s-62.608-141.12-139.84-141.12z m-64.336 141.12c0 35.856 28.8 64.96 64.336 64.96 35.568 0 64.352-29.104 64.352-64.96 0-35.856-28.8-64.96-64.352-64.96-35.52 0-64.336 29.104-64.336 64.96z"
          fill="#9076F8"/>
</svg>