<?xml version="1.0" standalone="no"?><!DOCTYPE svg PUBLIC "-//W3C//DTD SVG 1.1//EN"
        "http://www.w3.org/Graphics/SVG/1.1/DTD/svg11.dtd">
<svg class="icon" width="200px" height="200.00px" viewBox="0 0 1024 1024" version="1.1"
     xmlns="http://www.w3.org/2000/svg">
    <path d="M770.16 933.44H254.048A125.968 125.968 0 0 1 128 807.44v-591.04a126 126 0 0 1 126.048-126h447.2L896 282.8v524.64a126.048 126.048 0 0 1-125.84 126z"
          fill="#F66462"/>
    <path d="M701.264 90.4v153.712a42.496 42.496 0 0 0 42.48 42.48H896v-3.792L701.264 90.4z" fill="#FFA4A4"/>
    <path d="M676.688 383.872l14.176-0.496v215.84c0 56.48-18.368 138.896-177.088 201.936l-4.912 1.968-4.912-1.968c-158.784-63.04-177.104-145.472-177.104-201.952V383.408l14.176 0.496c110.336 3.856 157.312-47.312 157.76-47.84l10.08-11.36 10.08 11.36c0.384 0.416 44.896 48.016 145.984 48.016 3.888 0 7.76-0.048 11.76-0.208zM588 596.528c18.672-19.184 25.792-46.032 21.392-70.976-1.2-7.152-10.016-9.76-15.104-4.704l-42.08 43.072a15.168 15.168 0 0 1-21.728 0l-21.552-22.144a15.68 15.68 0 0 1 0-22.144l42.416-43.424c5.088-5.072 2.72-14.128-4.24-15.52a77.072 77.072 0 0 0-70.432 22.32c-21.216 21.44-27.84 52.656-19.68 80.208 1.36 4.544 0.512 9.424-2.72 12.736l-42.768 43.776a16 16 0 0 0 0 22.144l21.728 22.144a15.184 15.184 0 0 0 21.728 0l42.928-44.112a12.048 12.048 0 0 1 12.384-2.976 76.672 76.672 0 0 0 77.728-20.4z m-146.96 23.2c6.624 0 11.872 5.408 11.872 12.208a11.968 11.968 0 0 1-11.872 12.208 11.968 11.968 0 0 1-11.872-12.208c0-6.8 5.248-12.208 11.872-12.208z"
          fill="#FFFFFF"/>
</svg>