<?xml version="1.0" standalone="no"?><!DOCTYPE svg PUBLIC "-//W3C//DTD SVG 1.1//EN"
        "http://www.w3.org/Graphics/SVG/1.1/DTD/svg11.dtd">
<svg class="icon" width="200px" height="200.00px" viewBox="0 0 1024 1024" version="1.1"
     xmlns="http://www.w3.org/2000/svg">
    <path d="M547.888 418.96h79.2v0.08h58.448c28.16 0 50.96 21.296 50.96 47.568v346.928c0 26.256-22.72 47.552-50.928 47.552H155.872c-28.16 0-50.976-21.28-50.976-47.552V466.608c0-26.272 22.816-47.488 50.976-47.488h58.432v-0.16h79.232v0.16h254.352v-0.16zM449.12 654.56c20.544-9.6 34.752-28.88 34.672-51.36 0.08-32-28.24-57.888-63.104-57.888-34.848 0-63.12 25.952-63.12 57.904 0 22.464 14.208 41.76 34.72 51.36v74.08c0 3.408 2.976 6.128 6.624 6.128h43.648c3.68 0 6.64-2.8 6.64-6.144v-74.08h-0.08z m-145.136-357.808v122.208H231.2v-125.28A190.24 190.24 0 0 1 420.688 103.2c104.544 0 189.472 85.44 189.472 190.496v125.28h-72.688v-122.208a117.168 117.168 0 0 0-116.8-117.392 117.248 117.248 0 0 0-116.752 117.392h0.048z"
          fill="#F66462"/>
    <path d="M730 904.816a174.88 174.88 0 1 1 0-349.792 174.88 174.88 0 0 1 0 349.792z" fill="#FFA4A4"/>
    <path d="M827.904 649.28c0-14.272-7.136-21.392-21.376-21.392-14.24 0-21.376 7.12-21.376 21.376v149.92c0 14.24 7.12 21.36 21.376 21.36 14.24 0 21.376-7.12 21.376-21.376V649.28z m-106.672 21.296c14.24 0 21.376 7.136 21.376 21.376v107.232c0 14.24-7.136 21.376-21.376 21.376-14.24 0-21.376-7.136-21.376-21.376v-107.232c0-14.24 7.12-21.376 21.376-21.376z m-86.464 42.672c14.24 0 21.376 7.12 21.376 21.376v64.544c0 14.256-7.12 21.376-21.376 21.376-14.24 0-21.376-7.12-21.376-21.376v-64.544c0-14.24 7.12-21.376 21.376-21.376z"
          fill="#FFFFFF"/>
</svg>