<?xml version="1.0" standalone="no"?><!DOCTYPE svg PUBLIC "-//W3C//DTD SVG 1.1//EN"
        "http://www.w3.org/Graphics/SVG/1.1/DTD/svg11.dtd">
<svg class="icon" width="200px" height="200.00px" viewBox="0 0 1024 1024" version="1.1"
     xmlns="http://www.w3.org/2000/svg">
    <path d="M883.264 917.28c12.88 0 19.328-4.976 19.328-14.944 0-5.856-1.92-10.112-5.712-12.736a21.872 21.872 0 0 0-12.752-3.952h-600.16c-11.712 0-23.568-3.36-35.584-10.112-12-6.736-22.992-16.256-32.96-28.56-9.952-12.304-18-27.392-24.16-45.248-6.144-17.872-9.232-37.92-9.232-60.192 0-18.16 2.944-35.584 8.8-52.288 5.856-16.704 13.472-31.344 22.848-43.936 9.36-12.592 19.92-22.56 31.632-29.872 11.712-7.328 23.728-10.992 36.032-10.992h32.512c19.328 0 43.776 0.16 73.36 0.448 29.6 0.288 63.12 0.432 100.624 0.432h112.48c89.616 0.592 190.384 0.88 302.272 0.88V250.336c0-18.752-2.192-36.32-6.592-52.736-4.4-16.4-10.688-30.608-18.88-42.608a88.176 88.176 0 0 0-30.768-28.128c-12.304-6.72-26.656-10.096-43.056-10.096H658.304v340.064L591.52 361.92l-67.664 94.912V117.312l12.752-0.112c31.328-0.288 61.92-0.432 91.792-0.432h-104.544v0.544c-26.896 0.224-53.264 0.32-79.072 0.32h-171.36c-44.512 0-78.784 10.112-102.8 30.32-24.032 20.224-36.032 52.88-36.032 97.984v509.664c0 22.832 1.76 44.224 5.28 64.144 3.52 19.904 9.504 37.04 18 51.392 8.496 14.368 19.488 25.632 32.96 33.84 13.472 8.192 30.16 12.304 50.08 12.304h642.352z"
          fill="#42B4FA"/>
    <path d="M902.592 662.448H294.512c-6.432 0-13.168 1.76-20.208 5.28-7.04 3.52-13.616 8.784-19.776 15.808-6.144 7.04-11.12 15.376-14.928 25.04-3.808 9.664-5.712 20.64-5.712 32.96 0 12.304 1.6 23.728 4.832 34.272 3.216 10.544 7.472 19.92 12.736 28.112 5.28 8.208 11.712 14.64 19.328 19.328 7.616 4.688 15.824 7.04 24.608 7.04h607.2a122.624 122.624 0 0 1-18.464-23.728 147.84 147.84 0 0 1-12.736-27.248c-3.808-10.544-5.712-22.56-5.712-36.016 0-15.232 1.92-27.84 5.712-37.792 3.808-9.952 8.064-18.16 12.736-24.608 5.28-7.04 11.424-13.168 18.464-18.448z"
          fill="#92DBFF"/>
</svg>