<?xml version="1.0" standalone="no"?><!DOCTYPE svg PUBLIC "-//W3C//DTD SVG 1.1//EN"
        "http://www.w3.org/Graphics/SVG/1.1/DTD/svg11.dtd">
<svg class="icon" width="200px" height="200.00px" viewBox="0 0 1024 1024" version="1.1"
     xmlns="http://www.w3.org/2000/svg">
    <path d="M448.16 735.584l105.488 110.16c3.152 3.424 7.552 5.2 12.08 5.344 3.008 0 5.904-0.816 8.496-2.336l4.128-2.448c56.752-33.664 287.392-170.48 298.752-179.04a52.288 52.288 0 0 0 18.8-37.168 56.384 56.384 0 0 0-17.152-43.76 62.56 62.56 0 0 0-76.128-10.288c-6.912 3.952-43.296 25.712-67.712 40.32l-15.408 9.2-170.512-67.632a16.688 16.688 0 0 0-15.632 1.792l-33.616 23.456a16.816 16.816 0 0 0-2.752 25.248l81.904 87.232-13.44 8.096-68.864-21.12a16.672 16.672 0 0 0-15.504 3.008l-31.408 25.392a17.04 17.04 0 0 0-6.176 11.92c-0.272 4.672 1.376 9.2 4.656 12.64z"
          fill="#ADF0EA"/>
    <path d="M622.24 207.68v62.4h88.8c12.64 0 24.8 4.96 33.76 13.92 8.96 8.8 14.08 20.96 14.08 33.6v262.88c-6.656 3.936-13.68 8.16-20.496 12.256a4222.928 4222.928 0 0 1-26.064 15.584l-164.96-65.44a28.8 28.8 0 0 0-26.88 3.2l-33.6 23.36c-6.88 4.64-11.36 12.32-12.16 20.48-0.96 8.16 1.76 16.32 7.52 22.56l67.36 71.68-55.52-16.96c-9.12-2.88-19.04-0.96-26.4 5.12l-31.52 25.44c-6.24 5.12-10.08 12.48-10.56 20.48-0.32 7.84 2.56 15.84 8 21.6l9.12 9.6h-267.2C149.28 749.44 128 728.32 128 701.92V317.6c0-26.24 21.28-47.52 47.52-47.68h89.28v-62.4c0-26.24 21.44-47.52 47.52-47.36h262.4c26.08 0 47.52 21.28 47.52 47.52z m-309.6 62.4h262.24v-62.4H312.64v62.4z m-11.2 147.68h284.48c15.2 0 27.52-12.32 27.36-27.36 0-15.04-12.32-27.36-27.36-27.36H301.44c-15.04 0-27.36 12.32-27.36 27.36s12.32 27.36 27.36 27.36z"
          fill="#3DD5BB"/>
</svg>