<?xml version="1.0" standalone="no"?><!DOCTYPE svg PUBLIC "-//W3C//DTD SVG 1.1//EN"
        "http://www.w3.org/Graphics/SVG/1.1/DTD/svg11.dtd">
<svg class="icon" width="200px" height="200.00px" viewBox="0 0 1024 1024" version="1.1"
     xmlns="http://www.w3.org/2000/svg">
    <path d="M915.18 511.52c0 222.43-181 403.4-403.4 403.4S108.39 734 108.39 511.52s181-403.4 403.39-403.4A400.91 400.91 0 0 1 671 140.89l-47 48.25a339.82 339.82 0 0 0-112.24-19c-188.21 0-341.33 153.12-341.33 341.34s153.14 341.37 341.35 341.37 341.34-153.12 341.34-341.33a339.32 339.32 0 0 0-28.61-136.78l46.13-47.37a401 401 0 0 1 44.54 184.15z"
          fill="#333333"/>
    <path d="M778.73 367.12a23.06 23.06 0 0 1-16.38-6.79L658.05 256a23.17 23.17 0 1 1 32.77-32.77l104.3 104.29a23.18 23.18 0 0 1-16.39 39.57z m0 0"
          fill="#3CE4D6"/>
    <path d="M338.77 700.69a23.19 23.19 0 0 1-22.14-30c57.6-185.76 57.69-185.86 63-191.27l347.9-357.29a46.37 46.37 0 0 1 66.42 0l87.45 89.79a46.12 46.12 0 0 1 0 64.68L532.62 634.73c-5.58 5.54-5.68 5.64-186.65 64.81a23.22 23.22 0 0 1-7.2 1.15z m77.5-192.53c-5.5 16.39-24.93 78.39-42 133.34 53.06-17.42 112.59-37.09 128.76-42.79L848.2 244.26l-87.45-89.79z m99 110.72z m0 0"
          fill="#333333"/>
</svg>