<?xml version="1.0" standalone="no"?><!DOCTYPE svg PUBLIC "-//W3C//DTD SVG 1.1//EN"
        "http://www.w3.org/Graphics/SVG/1.1/DTD/svg11.dtd">
<svg class="icon" width="200px" height="200.00px" viewBox="0 0 1024 1024" version="1.1"
     xmlns="http://www.w3.org/2000/svg">
    <path d="M127.184 561.392c-12.992 0-23.936-4.464-32.864-13.392-8.928-8.912-13.376-20.144-13.376-33.664v-60.832c0-12.448 4.448-23.264 13.376-32.464 8.928-9.184 19.872-13.792 32.864-13.792h594.64c4.32 0 8.656 0.816 12.992 2.448a231.44 231.44 0 0 0-62.08 16.624 221.936 221.936 0 0 0-53.936 32.448 223.936 223.936 0 0 0-42.592 46.24 236.288 236.288 0 0 0-28.8 56.384H127.2z m408.064 51.92a98.4 98.4 0 0 0-0.816 12.16v11.36c0 24.352 3.52 47.328 10.544 68.96a237.664 237.664 0 0 0 29.2 60.032H127.2c-12.992 0-23.936-4.448-32.864-13.376-8.928-8.928-13.376-19.872-13.376-32.864v-60.832c0-12.448 4.448-23.12 13.376-32.048 8.928-8.928 19.872-13.392 32.864-13.392h408.064zM227.776 356.16a43.712 43.712 0 0 1-32.048-13.392c-8.928-8.912-13.392-19.872-13.392-32.848v-55.968c0-12.992 4.48-24.08 13.392-33.28 8.928-9.184 19.616-13.776 32.048-13.776H845.12c12.448 0 23.12 4.592 32.048 13.792 8.928 9.184 13.392 20.272 13.392 33.264v55.968c0 12.976-4.48 23.936-13.392 32.848a43.712 43.712 0 0 1-32.048 13.392H227.776z"
          fill="#FDBA54"/>
    <path d="M765.76 458.416c98.944 0 179.168 80.32 179.168 179.36 0 99.04-80.224 179.36-179.184 179.36-98.944 0-179.168-80.32-179.168-179.36 0-99.04 80.224-179.36 179.168-179.36z"
          fill="#FFDE8D"/>
    <path d="M838.976 624.032a7.2 7.2 0 0 1 8.496 0 6.56 6.56 0 0 1 1.28 9.44l-64.48 80.144c-0.288 0.32-0.656 0.592-0.96 0.912-3.808 4.56-9.552 7.52-16.096 7.52-11.44 0-20.736-8.944-20.736-20 0-5.872 2.672-11.088 6.832-14.752 0.544-0.576 1.04-1.184 1.84-1.76l83.824-61.488z"
          fill="#FFFFFF"/>
    <path d="M635.68 637.76c-8.032 0-14.608-6.512-13.808-14.496a144.768 144.768 0 0 1 288.096 0c0.8 8-5.76 14.512-13.792 14.512s-14.432-6.528-15.44-14.496a115.728 115.728 0 0 0-229.616 0c-1.008 7.968-7.424 14.496-15.44 14.496z"
          fill="#FFFFFF"/>
</svg>