<?xml version="1.0" standalone="no"?><!DOCTYPE svg PUBLIC "-//W3C//DTD SVG 1.1//EN"
        "http://www.w3.org/Graphics/SVG/1.1/DTD/svg11.dtd">
<svg class="icon" width="200px" height="200.00px" viewBox="0 0 1024 1024" version="1.1"
     xmlns="http://www.w3.org/2000/svg">
    <path d="M132.656 543.008l356.72 183.68a52.192 52.192 0 0 0 46.272 0l353.536-183.68a33.76 33.76 0 0 0 20.576-31.04c0-13.504-8.128-25.744-20.56-30.96l-26.8-13.616-325.968 169.232c-14.624 7.2-31.68 7.2-46.208 0L160.112 466.992l-27.456 14.016a33.552 33.552 0 0 0-20.608 30.976 33.6 33.6 0 0 0 20.608 31.04z"
          fill="#92DBFF"/>
    <path d="M133.472 362.992L490.24 546.608c14.752 8 32.656 8 47.392 0l353.6-183.616A33.392 33.392 0 0 0 912 332.192c0-13.584-8.288-25.76-20.784-30.848L532.064 117.712a48.832 48.832 0 0 0-45.84 0L133.472 301.344a33.264 33.264 0 0 0 0 61.648z"
          fill="#42B4FA"/>
    <path d="M889.216 661.072l-26.8-14-325.968 169.6c-14.624 7.232-31.68 7.232-46.208 0L160.112 646.624l-27.456 14.464A33.152 33.152 0 0 0 112 691.088v1.584c0.32 13.2 8.368 25.008 20.64 29.984l356.736 183.616a49.632 49.632 0 0 0 46.288 0l353.536-183.616a33.248 33.248 0 0 0 0-61.6z"
          fill="#92DBFF"/>
</svg>