<?xml version="1.0" standalone="no"?><!DOCTYPE svg PUBLIC "-//W3C//DTD SVG 1.1//EN"
        "http://www.w3.org/Graphics/SVG/1.1/DTD/svg11.dtd">
<svg class="icon" width="200px" height="200.00px" viewBox="0 0 1024 1024" version="1.1"
     xmlns="http://www.w3.org/2000/svg">
    <path d="M243.632 144.784m102.832 0l462.688 0q102.832 0 102.832 102.832l0 532.8q0 102.832-102.832 102.832l-462.688 0q-102.832 0-102.832-102.832l0-532.8q0-102.832 102.832-102.832Z"
          fill="#92DBFF"/>
    <path d="M747.168 144a104.192 104.192 0 0 1 104.848 105.28v529.472a104.176 104.176 0 0 1-104.848 105.28h-456.32a104.224 104.224 0 0 1-104.848-105.28v-95.968H149.008C127.424 682.784 112 667.264 112 645.6c0-21.68 15.424-37.152 37.008-37.152h33.872V419.568H149.008C127.424 419.568 112 404.096 112 382.4c0-21.648 15.424-37.152 37.008-37.152h33.872V249.28A104.16 104.16 0 0 1 287.776 144h459.44-0.048z"
          fill="#42B4FA"/>
    <path d="M676.752 719.712H287.264c-7.792 0-15.584-7.792-15.584-15.584 0-9.344 7.792-15.568 15.584-15.568h389.488c9.344 0 15.568 6.24 15.568 15.568 0 7.792-7.792 15.584-15.568 15.584z m0-66.992h-155.808c-7.776 0-15.568-7.792-15.568-15.584 0-9.344 7.792-15.568 15.568-15.568h155.808c9.344 0 15.568 6.24 15.568 15.568a15.616 15.616 0 0 1-15.568 15.584z m10.896-348.976c-23.36-1.568-126.192 34.272-199.408 107.488-82.576 81.024-160.48 246.16-133.984 250.832 21.808 4.672 51.408-66.992 81.008-95.04 4.672-4.656 10.912-7.776 17.136-7.776 31.168-4.672 121.52-14.032 121.52-42.08 4.672-20.24-35.84-23.36-54.528-23.36 21.808-18.688 113.728-17.136 124.64-54.528 6.24-21.808-42.08-31.152-52.96-29.6 82.56-18.688 113.712-104.384 96.576-105.936z"
          fill="#FFFFFF"/>
</svg>