<?xml version="1.0" standalone="no"?><!DOCTYPE svg PUBLIC "-//W3C//DTD SVG 1.1//EN"
        "http://www.w3.org/Graphics/SVG/1.1/DTD/svg11.dtd">
<svg class="icon" width="200px" height="200.00px" viewBox="0 0 1024 1024" version="1.1"
     xmlns="http://www.w3.org/2000/svg">
    <path d="M545.706667 743.466667h-64V306.346667a85.333333 85.333333 0 0 0-85.333334-85.333334h-21.333333a85.333333 85.333333 0 0 0-85.333333 85.333334v437.12h-64V306.346667a149.333333 149.333333 0 0 1 149.333333-149.333334h21.333333a149.333333 149.333333 0 0 1 149.333334 149.333334z"
          fill="#C0CEF9"/>
    <path d="M652.16 881.066667h-21.333333a149.333333 149.333333 0 0 1-149.333334-149.333334V294.4h64v437.12a85.333333 85.333333 0 0 0 85.333334 85.333333h21.333333a85.333333 85.333333 0 0 0 85.333333-85.333333V294.4h64v437.12a149.333333 149.333333 0 0 1-149.333333 149.546667z"
          fill="#C0CEF9"/>
    <path d="M257.706667 743.466667m-106.666667 0a106.666667 106.666667 0 1 0 213.333333 0 106.666667 106.666667 0 1 0-213.333333 0Z"
          fill="#839BFB"/>
    <path d="M769.706667 294.4m-106.666667 0a106.666667 106.666667 0 1 0 213.333333 0 106.666667 106.666667 0 1 0-213.333333 0Z"
          fill="#839BFB"/>
</svg>