<?xml version="1.0" standalone="no"?><!DOCTYPE svg PUBLIC "-//W3C//DTD SVG 1.1//EN"
        "http://www.w3.org/Graphics/SVG/1.1/DTD/svg11.dtd">
<svg class="icon" width="200px" height="200.00px" viewBox="0 0 1024 1024" version="1.1"
     xmlns="http://www.w3.org/2000/svg">
    <path d="M376.06 638a118.5 118.5 0 1 1 118.5-118.5A118.64 118.64 0 0 1 376.06 638z m0-177a58.5 58.5 0 1 0 58.5 58.5 58.56 58.56 0 0 0-58.5-58.5z"
          fill="#3CE4D6"/>
    <path d="M659.06 638a118.5 118.5 0 1 1 118.5-118.5A118.64 118.64 0 0 1 659.06 638z m0-177a58.5 58.5 0 1 0 58.5 58.5 58.56 58.56 0 0 0-58.5-58.5z"
          fill="#333333"/>
    <path d="M658.65 719h-283.3c-111.15 0-201.57-90.43-201.57-201.57s90.42-201.54 201.57-201.54h283.3c111.15 0 201.57 90.42 201.57 201.56S769.8 719 658.65 719z m-283.3-363.11c-89.09 0-161.57 72.47-161.57 161.56S286.26 679 375.35 679h283.3c89.09 0 161.57-72.48 161.57-161.57s-72.48-161.54-161.57-161.54z"
          fill="#333333"/>
    <path d="M868.4 892.66H155.6a90.62 90.62 0 0 1-90.51-90.52V296.66a90.62 90.62 0 0 1 90.51-90.52h712.8a90.62 90.62 0 0 1 90.51 90.52v505.48a90.62 90.62 0 0 1-90.51 90.52zM155.6 266.14a30.55 30.55 0 0 0-30.51 30.52v505.48a30.55 30.55 0 0 0 30.51 30.52h712.8a30.55 30.55 0 0 0 30.51-30.52V296.66a30.55 30.55 0 0 0-30.51-30.52z"
          fill="#333333"/>
</svg>