<?xml version="1.0" standalone="no"?><!DOCTYPE svg PUBLIC "-//W3C//DTD SVG 1.1//EN"
        "http://www.w3.org/Graphics/SVG/1.1/DTD/svg11.dtd">
<svg class="icon" width="200px" height="200.00px" viewBox="0 0 1024 1024" version="1.1"
     xmlns="http://www.w3.org/2000/svg">
    <path d="M748.704 140.8c0-21.2-17.776-38.4-39.728-38.4s-39.728 17.2-39.728 38.4v76.8c0 21.2 17.776 38.4 39.728 38.4s39.728-17.2 39.728-38.4V140.8z m-198.624 0c0-21.2-17.808-38.4-39.728-38.4s-39.728 17.2-39.728 38.4v76.8c0 21.2 17.808 38.4 39.728 38.4s39.728-17.2 39.728-38.4V140.8z m-198.624 0c0-21.2-17.776-38.4-39.728-38.4S272 119.6 272 140.8v76.8c0 21.2 17.76 38.4 39.728 38.4 21.952 0 39.728-17.2 39.728-38.4V140.8z"
          fill="#FFC2D8"/>
    <path d="M856.272 179.2H790.08v38.4c0 42.432-35.584 76.8-79.456 76.8s-79.44-34.368-79.44-76.8v-38.4h-39.728v38.4c0 42.432-35.584 76.8-79.456 76.8s-79.44-34.368-79.44-76.8v-38.4h-39.728v38.4c0 42.432-35.552 76.8-79.456 76.8-43.872 0-79.44-34.368-79.44-76.8v-38.4h-66.208C145.76 179.2 128 196.4 128 217.6v665.6c0 21.2 17.776 38.4 39.728 38.4h688.544C878.24 921.6 896 904.4 896 883.2V217.6c0-21.2-17.76-38.4-39.728-38.4z"
          fill="#FC5787"/>
    <path d="M577.088 702.912c4.4-1.76 9.072-2.688 13.808-2.688 4.8 0 9.584 0.912 14.048 2.688 4.32 1.696 8.24 4.256 11.52 7.52 3.264 3.264 5.872 7.12 7.648 11.36 1.92 4.368 2.912 9.008 2.912 13.808a35.664 35.664 0 0 1-22.08 32.752 34.704 34.704 0 0 1-14.016 2.928 36.064 36.064 0 0 1-35.744-35.68 33.44 33.44 0 0 1 2.88-13.808c1.84-4.208 4.448-8.064 7.664-11.36 3.232-3.248 7.104-5.808 11.36-7.52zM405.728 709.68a36 36 0 0 1 25.44-10.176 36.256 36.256 0 0 1 25.312 10.176c3.328 3.2 5.936 7.072 7.648 11.36a36.384 36.384 0 0 1 0 27.632 33.12 33.12 0 0 1-7.648 11.36c-3.344 3.2-7.264 5.824-11.488 7.68a34.24 34.24 0 0 1-13.84 2.88c-5.12 0-9.792-0.96-14.048-2.912a40.64 40.64 0 0 1-11.36-7.632 32.384 32.384 0 0 1-7.648-11.36 36.912 36.912 0 0 1 0-27.648c1.76-4.272 4.352-8.128 7.632-11.36zM323.248 425.632h38.8a27.04 27.04 0 0 1 12.256 2.304 21.28 21.28 0 0 1 11.152 13.072l1.952 6.544c0.672 2.832 1.184 5.712 1.552 8.608l1.584 11.312c0.72 4.576 1.552 9.504 2.272 14.624h262.64c7.152 0 12.72 0.976 16.736 2.88 3.44 1.504 6.384 4 8.464 7.136a15.52 15.52 0 0 1 2.304 9.024c-0.128 3.168-0.608 5.92-1.328 8.208-4.24 12.64-8.64 25.28-13.072 37.84-3.072 8.624-6.096 17.088-9.008 25.552-2.976 8.464-5.216 15.088-6.688 20-3.328 10.224-7.584 17.296-12.704 21.28a29.776 29.776 0 0 1-18.784 6h-201.76l5.792 34.512h193.6c12.24 0 18.4 5.312 18.4 15.76 0.16 4.672-1.12 9.28-3.632 13.232-2.416 3.728-7.2 5.568-14.432 5.568H418.08a22.48 22.48 0 0 1-12.864-3.424 28.544 28.544 0 0 1-8.64-8.96 55.424 55.424 0 0 1-5.536-12.128 111.312 111.312 0 0 1-3.296-12.256c-0.192-1.584-0.96-5.28-2.08-11.152-1.44-7.36-2.88-14.688-4.24-22.08-1.6-8.832-3.472-18.72-5.552-29.552-2.08-10.832-4.096-21.856-6.192-32.848-4.896-25.856-10.4-54.688-16.48-86.4h-28.8a15.248 15.248 0 0 1-9.6-2.944 27.168 27.168 0 0 1-6.384-6.944 24.912 24.912 0 0 1-3.408-8.624 38.224 38.224 0 0 1-0.976-8.464 16.752 16.752 0 0 1 5.2-12.72c3.472-3.328 8.096-4.96 14.032-4.96z"
          fill="#FFFFFF"/>
</svg>