<?xml version="1.0" standalone="no"?><!DOCTYPE svg PUBLIC "-//W3C//DTD SVG 1.1//EN"
        "http://www.w3.org/Graphics/SVG/1.1/DTD/svg11.dtd">
<svg class="icon" width="200px" height="200.00px" viewBox="0 0 1024 1024" version="1.1"
     xmlns="http://www.w3.org/2000/svg">
    <path d="M928 718.72V185.04C928 162.336 909.408 144 886.4 144H137.6C114.592 144 96 162.336 96 185.056v533.648c0 22.72 18.592 41.056 41.6 41.056h332.8v57.088c0 2.816-2.336 5.12-5.2 5.12H324.8c-11.44 0-20.8 9.248-20.8 20.544v41.04h416v-41.04c0-11.296-9.36-20.528-20.8-20.528h-140.4a5.184 5.184 0 0 1-5.2-5.136v-57.088h332.8c23.008 0 41.6-18.336 41.6-41.056z"
          fill="#9076F8"/>
    <path d="M593.728 427.184v-49.824H543.52l84.032-82.56-35.856-35.248L512 337.856l-79.712-78.304-35.856 35.232 84.032 82.56h-50.208V427.2h56.368v40.144h-59.472v49.824h59.472V560h50.72v-42.848h53.248v-49.824h-53.248v-40.16h56.368z"
          fill="#FFFFFF"/>
    <path d="M96 652.448v66.256c0 22.72 18.592 41.056 41.6 41.056h748.8c23.008 0 41.6-18.336 41.6-41.056v-66.256H96zM553.6 759.76h-83.2v57.088c0 2.816-2.336 5.12-5.2 5.12H324.8c-11.44 0-20.8 9.248-20.8 20.544v41.04h416v-41.056c0-11.28-9.36-20.512-20.8-20.512h-140.4a5.184 5.184 0 0 1-5.2-5.136v-57.088z"
          fill="#C7B0FF"/>
</svg>