<?xml version="1.0" standalone="no"?><!DOCTYPE svg PUBLIC "-//W3C//DTD SVG 1.1//EN"
        "http://www.w3.org/Graphics/SVG/1.1/DTD/svg11.dtd">
<svg class="icon" width="200px" height="200.00px" viewBox="0 0 1024 1024" version="1.1"
     xmlns="http://www.w3.org/2000/svg">
    <path d="M512 916.27c-222.44 0-403.39-181-403.39-403.41S289.56 109.47 512 109.47s403.39 181 403.39 403.39S734.44 916.27 512 916.27z m0-744.74c-188.21 0-341.33 153.12-341.33 341.33S323.79 854.21 512 854.21s341.33-153.13 341.33-341.35S700.21 171.53 512 171.53z m0 0"
          fill="#333333"/>
    <path d="M657 777.9a30 30 0 0 1-25.6-14.32L351.57 307.1a30 30 0 0 1 51.15-31.36l279.8 456.48A30 30 0 0 1 657 777.9z"
          fill="#333333"/>
    <path d="M493.4 402l36.83-63.79v123.92l18.64 30.4a31.39 31.39 0 0 0 12.86 2.76h43l-26.27 45.51 35.67 58.2 67.25-116.48a31.5 31.5 0 0 0-27.28-47.24h-63.87v-203.4a31.49 31.49 0 0 0-58.77-15.75l-73.73 127.7zM531.45 622.21l-37.68 65.28V562v-1.27l-16.08-26.23a31.32 31.32 0 0 0-15.42-4h-43l27.14-47-35.68-58.2-68.1 118a31.5 31.5 0 0 0 27.28 47.25h63.87v203.31a31.53 31.53 0 0 0 23.35 30.42 31 31 0 0 0 8.12 1.08 31.56 31.56 0 0 0 27.3-15.75l74.59-129.19z"
          fill="#3CE4D6"/>
</svg>