<?xml version="1.0" standalone="no"?><!DOCTYPE svg PUBLIC "-//W3C//DTD SVG 1.1//EN"
        "http://www.w3.org/Graphics/SVG/1.1/DTD/svg11.dtd">
<svg class="icon" width="200px" height="200.00px" viewBox="0 0 1024 1024" version="1.1"
     xmlns="http://www.w3.org/2000/svg">
    <path d="M563.408 158.752c-11.968-12.496-26.56-18.752-43.712-18.752h-96.8c-17.6 0-31.008 6.24-40.208 18.752-9.216 12.48-13.76 27.68-13.76 45.52V800.48c0 17.84 5.984 33.024 17.952 45.52 11.984 12.496 26.56 18.752 43.712 18.752h89.12c17.152 0 31.728-6.256 43.696-18.752 11.984-12.496 17.968-27.68 17.968-45.52V204.272c0-17.856-5.984-33.024-17.968-45.52zM532.32 581.424c-4 5.712-8.848 8.48-14.56 8.48h-89.12c-5.712 0-10.544-2.768-14.56-8.48-4.016-5.632-5.984-12.32-5.984-20.096 0-8.304 1.968-15.168 5.984-20.528 4.016-5.36 8.848-8.032 14.56-8.032h89.12c5.728 0 10.56 2.672 14.56 8.032 3.936 5.36 6 12.144 6 20.528 0 7.68-1.968 14.464-6 20.096z m0-113.456c-4 5.712-8.848 8.48-14.56 8.48h-89.12c-5.712 0-10.544-2.864-14.56-8.48-4.016-5.632-5.984-12.688-5.984-20.992 0-8.288 1.968-15.168 5.984-20.528 4.016-5.344 8.848-8.032 14.56-8.032h89.12c5.728 0 10.56 2.592 14.56 8.032 3.936 5.36 6 12.24 6 20.544 0 8.288-1.968 15.36-6 20.96zM315.648 158.736c-12.16-12.496-26.896-18.752-44.064-18.752h-89.12c-17.056 0-31.712 6.24-44.048 18.752-12.336 12.48-18.416 27.68-18.416 45.52V800.48c0 17.84 6.08 33.024 18.4 45.52 12.16 12.496 26.912 18.752 44.08 18.752h89.12c17.056 0 31.712-6.256 44.048-18.752 12.336-12.496 18.4-27.68 18.4-45.52V204.272c0-17.856-6.16-33.024-18.4-45.52zM170.496 371.2c3.936-5.36 9.12-8.032 15.376-8.032h82.24c6.336 0 11.344 2.672 15.008 8.032 3.744 5.36 5.632 12.144 5.632 20.528 0 7.68-1.888 14.368-5.632 20.08-3.76 5.712-8.768 8.48-15.024 8.48h-82.224c-6.256 0-11.36-2.944-15.36-8.48-4.032-5.616-6-12.32-6-20.08 0-8.304 1.968-15.168 5.984-20.528z m116.112 264.128c-3.76 5.36-8.768 8.032-15.024 8.032h-85.712c-6.256 0-11.36-2.672-15.36-8.032-4.032-5.344-6-11.872-6-19.632 0-8.304 2.048-14.992 5.984-20.08a18.56 18.56 0 0 1 15.376-7.6h85.712a17.6 17.6 0 0 1 15.024 7.6c3.744 5.088 5.632 11.68 5.632 20.08 0 7.68-1.968 14.288-5.632 19.632z m0-109.696c-3.76 5.344-8.768 8.032-15.024 8.032h-85.712c-6.256 0-11.36-2.768-15.36-8.032-4.032-5.36-6-12.16-6-20.544 0-8.288 1.968-15.168 5.984-20.528 3.936-5.344 9.12-8.032 15.376-8.032h85.712c6.352 0 11.36 2.688 15.024 8.032 3.744 5.36 5.632 12.144 5.632 20.528 0 8.32-1.968 15.184-5.632 20.544z"
          fill="#FD9F55"/>
    <path d="M919.04 790.832c2.88 17.856-0.704 33.92-10.72 48.208a60.32 60.32 0 0 1-40.672 25.888l-102.88 16.96c-16.528 2.944-31.904-0.8-45.84-11.168-13.936-10.352-22.432-24.544-25.28-42.4l-87.424-576.64a68.816 68.816 0 0 1 1.248-25.44c1.968-8.048 5.36-15.536 9.824-22.32 4.56-6.88 10.464-12.496 17.616-16.96a71.776 71.776 0 0 1 23.6-9.376l101.984-16.96c17.152-2.944 32.528 0.896 46.288 11.6 13.76 10.72 21.984 24.992 24.848 42.848l87.408 575.76z"
          fill="#FECC87"/>
</svg>