<?xml version="1.0" standalone="no"?><!DOCTYPE svg PUBLIC "-//W3C//DTD SVG 1.1//EN"
        "http://www.w3.org/Graphics/SVG/1.1/DTD/svg11.dtd">
<svg class="icon" width="200px" height="200.00px" viewBox="0 0 1024 1024" version="1.1"
     xmlns="http://www.w3.org/2000/svg">
    <path d="M453.69 685.43a20.77 20.77 0 0 1-20.78-20.8V559.76h-30.23a20.81 20.81 0 0 1-18-31.2l101-175A20.81 20.81 0 0 1 524.52 364v104.84h30.22a20.8 20.8 0 0 1 18 31.19l-101 175a20.83 20.83 0 0 1-18.05 10.4z m-17.75-165.67h16.16a20.83 20.83 0 0 1 20.81 20.8V593l48.58-84.14h-16.17a20.82 20.82 0 0 1-20.8-20.8v-52.45z"
          fill="#3CE4D6"/>
    <path d="M791 778.57H166.44A103.26 103.26 0 0 1 63.3 675.43V348.57a103.26 103.26 0 0 1 103.14-103.14H791a103.26 103.26 0 0 1 103.12 103.14v326.86A103.26 103.26 0 0 1 791 778.57zM166.44 305.43a43.19 43.19 0 0 0-43.14 43.14v326.86a43.19 43.19 0 0 0 43.14 43.14H791a43.19 43.19 0 0 0 43.14-43.14V348.57A43.19 43.19 0 0 0 791 305.43z"
          fill="#333333"/>
    <path d="M930.5 632.15h-40.37a56.08 56.08 0 0 1-56-56V447.87a56.08 56.08 0 0 1 56-56h40.37a56.08 56.08 0 0 1 56 56v128.26a56.08 56.08 0 0 1-56 56.02z m-36.38-60h32.39v-120.3h-32.39z"
          fill="#333333"/>
</svg>