<?xml version="1.0" standalone="no"?><!DOCTYPE svg PUBLIC "-//W3C//DTD SVG 1.1//EN"
        "http://www.w3.org/Graphics/SVG/1.1/DTD/svg11.dtd">
<svg class="icon" width="200px" height="200.00px" viewBox="0 0 1024 1024" version="1.1"
     xmlns="http://www.w3.org/2000/svg">
    <path d="M516.266667 750.506667A244.906667 244.906667 0 1 1 761.173333 505.6 245.12 245.12 0 0 1 516.266667 750.506667z m0-431.786667A186.88 186.88 0 1 0 704 505.6a187.093333 187.093333 0 0 0-187.733333-186.88z"
          fill="#839BFB"/>
    <path d="M516.266667 929.28A423.893333 423.893333 0 1 1 939.946667 505.6 424.32 424.32 0 0 1 516.266667 929.28z m0-789.333333A365.866667 365.866667 0 1 0 881.92 505.6 366.293333 366.293333 0 0 0 516.266667 139.733333z"
          fill="#839BFB"/>
    <path d="M512 609.066667a96.213333 96.213333 0 1 1 0-192 98.346667 98.346667 0 0 1 28.373333 4.266666L704 257.493333v-37.333333l128-161.706667 33.92 99.413334L965.333333 192l-161.706666 130.346667h-37.12l-163.84 163.626666A95.786667 95.786667 0 0 1 512 609.066667z"
          fill="#C0CEF9"/>
    <path d="M826.026667 95.573333l25.6 76.586667 76.586666 25.6-130.986666 105.386667h-38.186667l-177.28 177.28a78.08 78.08 0 1 1-126.08-22.826667 77.226667 77.226667 0 0 1 54.826667-22.613333 79.146667 79.146667 0 0 1 32.853333 7.04l177.28-177.28v-38.186667l105.386667-130.986667M839.466667 21.333333l-42.666667 51.626667-104.32 130.986667-7.893333 9.813333v36.053333L533.333333 401.066667a116.693333 116.693333 0 0 0-22.826666-2.346667A114.346667 114.346667 0 1 0 622.72 490.666667l151.253333-151.253334H810.666667l9.813333-7.893333 130.986667-105.386667L1002.666667 184.32l-62.72-21.333333-59.52-19.84-19.84-59.52L839.466667 21.333333z"
          fill="#FFFFFF"/>
</svg>