<?xml version="1.0" standalone="no"?><!DOCTYPE svg PUBLIC "-//W3C//DTD SVG 1.1//EN"
        "http://www.w3.org/Graphics/SVG/1.1/DTD/svg11.dtd">
<svg class="icon" width="200px" height="200.00px" viewBox="0 0 1024 1024" version="1.1"
     xmlns="http://www.w3.org/2000/svg">
    <path d="M869.328 152.64H155.568A43.632 43.632 0 0 0 112 196.192v197.344c0 24 19.552 42.656 42.672 42.656h56.88v-106.656H208c-19.552 0-35.552-15.12-35.552-34.672s15.104-35.552 34.656-35.552H816c19.552 0 34.672 16 34.672 35.552 0 18.672-15.12 33.776-34.672 34.672h-3.552v106.656h56.88c23.12 0 42.672-19.552 42.672-42.656V196.192c0-24-18.672-43.552-42.672-43.552z"
          fill="#C7B0FF"/>
    <path d="M754.672 294.864H270.224c-16 0-29.328 12.448-29.328 28.448v536c0 8 10.656 15.104 18.656 10.656 8-4.432 111.12-66.656 111.12-66.656 7.104-4.448 16-4.448 24 0l104 64.88s4.448 1.776 13.328 1.776c8.896 0 13.328-1.76 13.328-1.76l109.344-65.792c7.104-4.448 16-4.448 24 0 0 0 101.328 62.224 108.448 66.672 7.104 4.448 16.88-0.896 16.88-9.776V322.4c0-14.224-13.328-27.552-29.328-27.552z m-79.12 316.448H349.328a27.68 27.68 0 0 1-27.552-27.568 27.68 27.68 0 0 1 27.552-27.552h326.24a27.68 27.68 0 0 1 27.552 27.552c0 15.12-12.448 27.568-27.568 27.568z m0-124.448H349.328a27.68 27.68 0 0 1-27.552-27.552 27.68 27.68 0 0 1 27.552-27.568h326.24c15.104 0 27.552 12.448 27.552 27.568a27.68 27.68 0 0 1-27.568 27.552z"
          fill="#9076F8"/>
</svg>