<?xml version="1.0" standalone="no"?><!DOCTYPE svg PUBLIC "-//W3C//DTD SVG 1.1//EN"
        "http://www.w3.org/Graphics/SVG/1.1/DTD/svg11.dtd">
<svg class="icon" width="200px" height="200.00px" viewBox="0 0 1024 1024" version="1.1"
     xmlns="http://www.w3.org/2000/svg">
    <path d="M280.08 858.192l54.4-110.8c12.8-26.064 32.224-32.688 58.288-19.904l0.016 0.016c26.08 12.8 32.704 32.224 19.904 58.288l-54.4 110.8c-12.8 26.064-32.224 32.704-58.288 19.904h-0.016c-26.064-12.8-32.704-32.24-19.904-58.304zM626.704 727.52c26.08-12.8 45.504-6.176 58.304 19.888l54.4 110.8c12.8 26.064 6.16 45.488-19.904 58.288h-0.016c-26.08 12.8-45.504 6.176-58.288-19.888l-54.4-110.8c-12.8-26.064-6.16-45.488 19.904-58.288z"
          fill="#C7B0FF"/>
    <path d="M370.4 96h283.168c29.04 0 43.552 14.512 43.552 43.552v0.016c0 29.04-14.512 43.552-43.552 43.552H370.416c-29.04 0-43.568-14.512-43.568-43.552v-0.016c0-29.04 14.528-43.552 43.568-43.552z"
          fill="#9076F8"/>
    <path d="M828.224 219.424H195.76C150.608 219.424 128 242.016 128 287.2v438.016c0 45.168 22.592 67.76 67.776 67.76h632.448c45.184 0 67.776-22.592 67.776-67.76V287.2c0-45.184-22.592-67.776-67.776-67.776zM464.976 612.496a20.592 20.592 0 0 1-29.872-5.92 21.52 21.52 0 0 1-3.104-11.04V372.944c0-7.888 4.384-15.088 11.36-18.672a20.592 20.592 0 0 1 21.6 1.744l151.616 111.28c2.624 1.92 4.784 4.448 6.272 7.408a21.024 21.024 0 0 1-6.272 26.528l-151.6 111.264zM840.912 305.92a25.2 25.2 0 1 1-50.384 0 25.2 25.2 0 0 1 50.4 0z"
          fill="#9076F8"/>
</svg>