<?xml version="1.0" standalone="no"?><!DOCTYPE svg PUBLIC "-//W3C//DTD SVG 1.1//EN"
        "http://www.w3.org/Graphics/SVG/1.1/DTD/svg11.dtd">
<svg class="icon" width="200px" height="200.00px" viewBox="0 0 1024 1024" version="1.1"
     xmlns="http://www.w3.org/2000/svg">
    <path d="M347.152 139.248A38.4 38.4 0 0 0 281.6 166.4v76.8a38.416 38.416 0 0 0 73.872 14.704c1.936-4.672 2.928-9.664 2.928-14.704v-76.8a38.4 38.4 0 0 0-11.248-27.152z m384 0A38.4 38.4 0 0 0 665.6 166.4v76.8a38.4 38.4 0 0 0 76.8 0v-76.8a38.4 38.4 0 0 0-11.248-27.152z"
          fill="#ADF0EA"/>
    <path d="M243.2 204.8v38.4a76.8 76.8 0 0 0 153.408 5.76l0.192-5.76v-38.4h230.4v38.4a76.8 76.8 0 0 0 71.04 76.608L704 320a76.8 76.8 0 0 0 76.608-71.04l0.192-5.76v-38.4h38.4a76.8 76.8 0 0 1 76.8 76.8v537.6a76.8 76.8 0 0 1-76.8 76.8H204.8A76.8 76.8 0 0 1 128 819.2V281.6a76.8 76.8 0 0 1 76.8-76.8h38.4z"
          fill="#3DD5BB"/>
    <path d="M734.656 688.704c-4.592-33.344-70.16-49.472-89.776-64.944-2.256-1.76-3.568-7.584-3.568-9.536 0-8.544 2.192-11.488 2.192-11.488s35.152-22.256 34.48-78.272c-0.96-23.76-15.776-66.112-61.44-66.112h-2.592c-9.856 0-18.128 1.872-25.184 4.928 9.76 32.72 21.52 92.736-27.888 132.944-19.376 28.896 45.168 45.824 35.136 41.328 58.416 26.24 74.144 46.384 78.432 67.2 3.584 17.392 5.6 28.016 5.6 28.016s43.76-6.672 55.072-15.168c0.48-9.248 1.936-19.264-0.48-28.896z"
          fill="#FFFFFF"/>
    <path d="M544.16 624.704c-2.752-2.176-4.352-9.44-4.352-11.856 0-10.624 2.656-14.272 2.656-14.272-0.048 0.032 43.2-23.344 42.336-97.28-1.168-29.536-19.36-82.16-75.36-82.16h-3.2c-58.624 0-74.208 52.624-75.392 82.144-0.8 69.616 42.32 97.296 42.32 97.296s5.232 5.968 5.232 16.592c0 2.416-4.144 7.36-6.896 9.552-7.744 6.176-21.92 12.384-37.824 19.312-33.552 14.656-74.688 32.64-78.496 60.752a69.664 69.664 0 0 1-2.768 8.032c-6.656 17.12-15.136 39.008 58.224 48.64 23.552 3.088 55.568 4.912 98.784 4.912 175.52 0 163.616-30.08 154.688-52.64a68.16 68.16 0 0 1-2.912-8.32c-3.84-28.16-45.392-46.432-79.2-61.28-15.92-7.008-30.128-13.248-37.84-19.424z"
          fill="#FFFFFF"/>
    <path d="M452.512 624.416c7.904-4.976 14.016-15.248-0.72-27.824-48.72-70.192-30.976-116.832-23.584-134.4a58.08 58.08 0 0 0-21.248-3.84h-2.528c-46.624 0-59.024 42.4-59.952 66.192-0.64 56.08 33.648 78.384 33.648 78.384s2.128 2.944 2.128 11.504c0 1.952-1.264 7.776-3.456 9.552-5.968 4.832-16.272 9.728-27.792 15.2-25.392 12.048-56.608 26.848-59.68 49.824-1.904 7.776-1.344 15.776-0.832 23.456 0.128 1.84 0.256 3.68 0.352 5.488 10.448 8.032 43.936 14.832 43.936 14.832s2.784-8.448 5.6-22.4c4.16-20.64 32.08-54.032 100.336-79.84l2.24-0.8c3.296-1.184 7.136-2.56 11.552-5.328z"
          fill="#FFFFFF"/>
</svg>