<?xml version="1.0" standalone="no"?><!DOCTYPE svg PUBLIC "-//W3C//DTD SVG 1.1//EN"
        "http://www.w3.org/Graphics/SVG/1.1/DTD/svg11.dtd">
<svg class="icon" width="200px" height="200.00px" viewBox="0 0 1024 1024" version="1.1"
     xmlns="http://www.w3.org/2000/svg">
    <path d="M831.168 336l78.4 140.8s27.2 36.8 25.6 70.4v176c0 19.2-16 35.2-35.2 35.2h-35.2c-8-60.8-60.8-107.2-123.2-107.2-62.4 0-115.2 46.4-123.2 107.2h-177.6c-8-60.8-60.8-107.2-123.2-107.2-62.4 0-115.2 46.4-123.2 107.2h-70.4c-19.2 0-35.2-16-35.2-35.2v-528c0-19.2 16-35.2 35.2-35.2h496c19.2 0 35.2 16 35.2 35.2v107.2h123.2c24 0 35.2 12.8 49.6 30.4 0.992 0 1.36 0.608 1.888 1.456 0.32 0.528 0.704 1.12 1.312 1.744z m-140.8 211.2h180.8c4.8 0 8-4.8 4.8-9.6l-81.6-152c-4.8-8-14.4-14.4-24-14.4h-80v176z"
          fill="#42B4FA"/>
    <path d="M317.568 688c48 0 88 40 88 88s-40 88-88 88-88-40-88-88 40-88 88-88zM743.168 688c48 0 88 40 88 88s-40 88-88 88-88-40-88-88 40-88 88-88z"
          fill="#92DBFF"/>
</svg>