<?xml version="1.0" standalone="no"?><!DOCTYPE svg PUBLIC "-//W3C//DTD SVG 1.1//EN"
        "http://www.w3.org/Graphics/SVG/1.1/DTD/svg11.dtd">
<svg class="icon" width="200px" height="200.00px" viewBox="0 0 1024 1024" version="1.1"
     xmlns="http://www.w3.org/2000/svg">
    <path d="M779.52 475.584l82.944 82.976-175.504 175.536a28.72 28.72 0 0 1-16.432 8.16l-73.408 10.16a10.064 10.064 0 0 1-11.344-11.344l10.08-73.552c0.832-6.224 3.68-12 8.128-16.432L779.52 475.6z"
          fill="#FFDE8D"/>
    <path d="M664.4 109.696a134.08 134.08 0 0 1 134.096 134.112v163.12l-227.168 231.36c-6.56 6.72-10.72 15.328-11.968 24.512l-0.368 4.656-2.448 101.248a11.504 11.504 0 0 0 9.264 11.2l2.304 0.224 99.136-0.672a43.136 43.136 0 0 0 26.816-9.584l3.664-3.28 100.768-102.656v116.272a134.112 134.112 0 0 1-134.096 134.08H262.096A134.096 134.096 0 0 1 128 780.224V243.776a134.096 134.096 0 0 1 134.096-134.08h402.304zM396.208 646.096h-100.576a33.52 33.52 0 0 0-3.936 66.816l3.936 0.24h100.56a33.52 33.52 0 0 0 0-67.04z m134.08-167.616H295.648a33.52 33.52 0 0 0-3.936 66.816l3.936 0.224h234.672a33.52 33.52 0 1 0 0-67.04z m100.592-167.632H295.632a33.52 33.52 0 0 0-3.936 66.816l3.936 0.24H630.88a33.52 33.52 0 0 0 0-67.04z"
          fill="#FDBA54"/>
    <path d="M850.624 451.888l35.536 35.536a33.536 33.536 0 0 1 0 47.44l-11.84 11.872-82.96-82.976 11.872-11.872a33.52 33.52 0 0 1 47.392 0z"
          fill="#FFDE8D"/>
</svg>