<?xml version="1.0" standalone="no"?><!DOCTYPE svg PUBLIC "-//W3C//DTD SVG 1.1//EN"
        "http://www.w3.org/Graphics/SVG/1.1/DTD/svg11.dtd">
<svg class="icon" width="200px" height="200.00px" viewBox="0 0 1024 1024" version="1.1"
     xmlns="http://www.w3.org/2000/svg">
    <path d="M511.33 919.55c-222.44 0-403.4-181-403.4-403.4s181-403.39 403.4-403.39 403.39 181 403.39 403.39-181 403.4-403.39 403.4z m0-744.73C323.12 174.82 170 327.94 170 516.15s153.12 341.34 341.33 341.34 341.33-153.12 341.33-341.34-153.12-341.33-341.33-341.33z m0 0"
          fill="#333333"/>
    <path d="M550.11 350.45a31 31 0 0 0-31-31h-15.54a31 31 0 0 0-31 31v217.21h77.58z m0 0M464.78 660.33A46.55 46.55 0 1 0 488.05 620a46.55 46.55 0 0 0-23.27 40.31z m0 0"
          fill="#3CE4D6"/>
</svg>