<?xml version="1.0" standalone="no"?><!DOCTYPE svg PUBLIC "-//W3C//DTD SVG 1.1//EN"
        "http://www.w3.org/Graphics/SVG/1.1/DTD/svg11.dtd">
<svg class="icon" width="200px" height="200.00px" viewBox="0 0 1024 1024" version="1.1"
     xmlns="http://www.w3.org/2000/svg">
    <path d="M468.96 422.416l33.52 77.984h314.368V204.32c0-39.264-33.072-71.12-73.712-71.12H319.2c-40.64 0-73.696 31.776-73.696 71.12v188h176.672a50.56 50.56 0 0 1 46.752 30.096z m-91.312-155.488c0-12.688 10.368-23.056 23.056-23.056h261.12c12.688 0 23.072 10.368 23.072 23.056s-10.384 23.056-23.056 23.056h-261.12a23.008 23.008 0 0 1-23.072-23.04z"
          fill="#FFA4A4"/>
    <path d="M840.736 535.776H486.272l-33.52-80.848a50.544 50.544 0 0 0-46.848-31.312H177.088a50.672 50.672 0 0 0-50.656 50.656v105.952c0 1.472 0.096 3.04 0.288 4.544l-0.112 1.44c-0.08 1.04-0.16 2.08-0.16 3.088v258.096c0 14.272 5.632 27.968 15.728 38.08 10.096 10.08 23.808 15.728 38.064 15.728H840.64c14.256 0 27.968-5.648 38.064-15.744 10.08-10.08 15.728-23.792 15.728-38.064v-257.92c0-14.24-5.648-27.952-15.728-38.048a54.24 54.24 0 0 0-37.968-15.648zM223.2 590.768l62.544-72.944a6.24 6.24 0 0 1 7.264-1.6c0.8 0.384 1.536 0.928 2.112 1.6l62.56 72.944a6.192 6.192 0 0 1-4.704 10.224h-29.536v62.672c0 7.296-5.92 13.232-13.2 13.232h-39.616a13.232 13.232 0 0 1-13.2-13.232v-62.64h-29.536a6.208 6.208 0 0 1-4.688-10.256z"
          fill="#F66462"/>
</svg>