<?xml version="1.0" standalone="no"?><!DOCTYPE svg PUBLIC "-//W3C//DTD SVG 1.1//EN"
        "http://www.w3.org/Graphics/SVG/1.1/DTD/svg11.dtd">
<svg class="icon" width="200px" height="200.00px" viewBox="0 0 1024 1024" version="1.1"
     xmlns="http://www.w3.org/2000/svg">
    <path d="M614.4 762.666667a21.333333 21.333333 0 0 1-21.333333 21.333333h-168.533334a21.333333 21.333333 0 0 1 0-42.666667h168.533334a21.333333 21.333333 0 0 1 21.333333 21.333334zM593.28 794.24h-168.533333a21.333333 21.333333 0 0 0-19.413334 28.16 21.333333 21.333333 0 0 0 21.333334 14.293333 32 32 0 0 1 28.586666 17.706667 42.666667 42.666667 0 0 0 38.613334 24.106667h30.72a42.666667 42.666667 0 0 0 38.613333-24.106667 32 32 0 0 1 28.8-17.706667 21.333333 21.333333 0 0 0 21.333333-14.293333 21.333333 21.333333 0 0 0-19.626666-28.16z"
          fill="#C0CEF9"/>
    <path d="M614.4 709.76a21.333333 21.333333 0 0 1-21.333333 21.333333h-168.533334a21.333333 21.333333 0 0 1-1.28-42.666666c-13.013333-119.253333-135.68-145.493333-135.68-285.866667a221.226667 221.226667 0 1 1 442.453334 0c0 140.373333-122.453333 166.613333-135.68 285.866667a21.333333 21.333333 0 0 1 19.84 21.333333z"
          fill="#839BFB"/>
    <path d="M460.586667 239.573333a16 16 0 0 0-21.333334-8.746666 185.813333 185.813333 0 0 0-109.013333 125.44 16 16 0 0 0 11.306667 19.413333h4.053333a15.573333 15.573333 0 0 0 15.146667-11.946667 154.026667 154.026667 0 0 1 90.453333-103.893333 16 16 0 0 0 9.386667-20.266667z"
          fill="#FFFFFF"/>
</svg>