<?xml version="1.0" encoding="UTF-8"?>
<svg width="24px" height="24px" viewBox="0 0 24 24" version="1.1" xmlns="http://www.w3.org/2000/svg"
>
    <title>ic_celiakeyboard_resize</title>
    <g id="ic_celiakeyboard_resize" stroke="none" stroke-width="1" fill="none" fill-rule="evenodd">
        <path d="M12.1277704,1.25 C10.3889136,1.25 9.55692524,1.41066437 8.69260945,1.87290551 C7.91005624,2.29141954 7.29141954,2.91005624 6.87290551,3.69260945 C6.43785502,4.50608313 6.26994521,5.29092077 6.25169648,6.83013601 L6.25,16.8722296 C6.25,18.6110864 6.41066437,19.4430748 6.87290551,20.3073906 C7.29141954,21.0899438 7.91005624,21.7085805 8.69260945,22.1270945 C9.55692524,22.5893356 10.3889136,22.75 12.1277704,22.75 L16.8722296,22.75 C18.6110864,22.75 19.4430748,22.5893356 20.3073906,22.1270945 C21.0899438,21.7085805 21.7085805,21.0899438 22.1270945,20.3073906 C22.5893356,19.4430748 22.75,18.6110864 22.75,16.8722296 L22.75,7.1277704 C22.75,5.38891362 22.5893356,4.55692524 22.1270945,3.69260945 C21.7085805,2.91005624 21.0899438,2.29141954 20.3073906,1.87290551 C19.4939169,1.43785502 18.7090792,1.26994521 17.169864,1.25169648 L12.1277704,1.25 Z M11.8701761,2.75121903 L16.8722296,2.75 C17.0501602,2.75 17.2154352,2.75159847 17.3695751,2.75495686 L17.8001091,2.77047329 C18.6671413,2.81623142 19.1279386,2.94316827 19.5999923,3.19562531 C20.1211428,3.47433964 20.5256604,3.87885724 20.8043747,4.40000774 C21.0568317,4.87206136 21.1837686,5.33285874 21.2295267,6.19989092 L21.2450431,6.63042492 L21.25,7.1277704 L21.25,16.8722296 L21.2450431,17.3695751 L21.2295267,17.8001091 C21.1837686,18.6671413 21.0568317,19.1279386 20.8043747,19.5999923 C20.5256604,20.1211428 20.1211428,20.5256604 19.5999923,20.8043747 C19.1279386,21.0568317 18.6671413,21.1837686 17.8001091,21.2295267 L17.3695751,21.2450431 L16.8722296,21.25 L12.1277704,21.25 L11.6304249,21.2450431 L11.1998909,21.2295267 C10.3328587,21.1837686 9.87206136,21.0568317 9.40000774,20.8043747 C8.87885724,20.5256604 8.47433964,20.1211428 8.19562531,19.5999923 C7.94316827,19.1279386 7.81623142,18.6671413 7.77047329,17.8001091 L7.75495686,17.3695751 L7.75,16.8722296 L7.75,7.1277704 C7.75,6.94983984 7.75159847,6.78456476 7.75495686,6.63042492 L7.77047329,6.19989092 C7.81623142,5.33285874 7.94316827,4.87206136 8.19562531,4.40000774 C8.47433964,3.87885724 8.87885724,3.47433964 9.40000774,3.19562531 C9.87206136,2.94316827 10.3328587,2.81623142 11.1998909,2.77047329 L11.6304249,2.75495686 C11.7074948,2.75327766 11.7873486,2.75203845 11.8701761,2.75121903 Z"
              id="矩形" fill="#000000" fill-rule="nonzero"></path>
        <path d="M9.67056267,12.9573179 L11.5403633,11.2952728 C11.9192494,10.9584852 12.490205,10.9584852 12.869091,11.2952728 L14.7388917,12.9573179"
              id="路径" stroke="#000000" stroke-width="1.5" stroke-linecap="round" fill-rule="nonzero"
              transform="translate(12.204727, 12.000000) scale(-1, 1) rotate(-90.000000) translate(-12.204727, -12.000000) "></path>
        <path d="M-0.0341645165,12.9573179 L1.83563616,11.2952728 C2.21452218,10.9584852 2.78547782,10.9584852 3.16436384,11.2952728 L5.03416452,12.9573179"
              id="路径备份" stroke="#000000" stroke-width="1.5" stroke-linecap="round" fill-rule="nonzero"
              transform="translate(2.500000, 12.000000) rotate(-90.000000) translate(-2.500000, -12.000000) "></path>
        <rect id="矩形" fill="#000000" fill-rule="nonzero"
              transform="translate(7.275520, 12.000000) rotate(-270.000000) translate(-7.275520, -12.000000) "
              x="6.52552032" y="6.69654083" width="1.5" height="10.6069183" rx="0.75"></rect>
    </g>
</svg>