<svg xmlns="http://www.w3.org/2000/svg" width="24" height="24" version="1.1" viewBox="0 0 24 24">
    <defs>
        <filter id="uxs-a">
            <feColorMatrix in="SourceGraphic" type="matrix"
                           values="0 0 0 0 0.000000 0 0 0 0 0.000000 0 0 0 0 0.000000 0 0 0 1.000000 0"/>
        </filter>
    </defs>
    <g fill="#000" fill-rule="evenodd" stroke="none" stroke-width="1" filter="url(#uxs-a)">
        <path fill="#FFF" fill-rule="nonzero" stroke-width="1"
              d="M3,5.66666667 C1.53333333,5.66666667 0.333333333,4.46666667 0.333333333,3 C0.333333333,1.53333333 1.53333333,0.333333333 3,0.333333333 C4.46666667,0.333333333 5.66666667,1.53333333 5.66666667,3 C5.66666667,4.46666667 4.46666667,5.66666667 3,5.66666667 Z"
              transform="translate(9 9)"/>
        <path fill="#FFF" fill-rule="nonzero"
              d="M12,19.5 C16.1421356,19.5 19.5,16.1421356 19.5,12 C19.5,7.85786438 16.1421356,4.5 12,4.5 C7.85786438,4.5 4.5,7.85786438 4.5,12 C4.5,16.1421356 7.85786438,19.5 12,19.5 Z M12,21 C7.02943725,21 3,16.9705627 3,12 C3,7.02943725 7.02943725,3 12,3 C16.9705627,3 21,7.02943725 21,12 C21,16.9705627 16.9705627,21 12,21 Z"/>
    </g>
</svg>
