<?xml version="1.0" encoding="UTF-8"?>
<svg width="24px" height="24px" viewBox="0 0 24 24" version="1.1" xmlns="http://www.w3.org/2000/svg"
     xmlns:xlink="http://www.w3.org/1999/xlink">
    <title>ic_celiakeyboard_move</title>
    <defs>
        <path d="M13.4739247,1.42507159 L13.5865242,1.53033009 L16.0613979,4.00520382 C16.3542911,4.29809704 16.3542911,4.77297077 16.0613979,5.06586399 C15.7929124,5.33434944 15.3715128,5.35672323 15.0775417,5.13298535 L15.0007377,5.06586399 L12.7493203,2.81432034 L12.7493203,11.2493203 L21.1943203,11.2493203 L18.9352038,8.99033009 C18.6423106,8.69743687 18.6423106,8.22256313 18.9352038,7.92966991 C19.2036893,7.66118446 19.6250889,7.63881068 19.9190601,7.86254855 L19.995864,7.92966991 L22.4707377,10.4045436 C23.3128057,11.2466117 23.3478919,12.5900739 22.5759962,13.4739247 L22.4707377,13.5865242 L19.995864,16.0613979 C19.7029708,16.3542911 19.228097,16.3542911 18.9352038,16.0613979 C18.6667184,15.7929124 18.6443446,15.3715128 18.8680825,15.0775417 L18.9352038,15.0007377 L21.1853203,12.7493203 L12.7493203,12.7493203 L12.7493203,21.1853203 L15.0007377,18.9352038 L15.0775417,18.8680825 C15.3715128,18.6443446 15.7929124,18.6667184 16.0613979,18.9352038 C16.3542911,19.228097 16.3542911,19.7029708 16.0613979,19.995864 L16.0613979,19.995864 L13.5865242,22.4707377 L13.4739247,22.5759962 C12.5900739,23.3478919 11.2466117,23.3128057 10.4045436,22.4707377 L10.4045436,22.4707377 L7.92966991,19.995864 L7.86254855,19.9190601 C7.63881068,19.6250889 7.66118446,19.2036893 7.92966991,18.9352038 C8.22256313,18.6423106 8.69743687,18.6423106 8.99033009,18.9352038 L8.99033009,18.9352038 L11.2493203,21.1943203 L11.2493203,12.7493203 L2.81432034,12.7493203 L5.06586399,15.0007377 L5.13298535,15.0775417 C5.35672323,15.3715128 5.33434944,15.7929124 5.06586399,16.0613979 C4.77297077,16.3542911 4.29809704,16.3542911 4.00520382,16.0613979 L4.00520382,16.0613979 L1.53033009,13.5865242 L1.42507159,13.4739247 C0.653175915,12.5900739 0.688262082,11.2466117 1.53033009,10.4045436 L1.53033009,10.4045436 L4.00520382,7.92966991 L4.08200776,7.86254855 C4.37597891,7.63881068 4.79737854,7.66118446 5.06586399,7.92966991 C5.35875721,8.22256313 5.35875721,8.69743687 5.06586399,8.99033009 L5.06586399,8.99033009 L2.80532034,11.2493203 L11.2493203,11.2493203 L11.2493203,2.80532034 L8.99033009,5.06586399 C8.69743687,5.35875721 8.22256313,5.35875721 7.92966991,5.06586399 C7.66118446,4.79737854 7.63881068,4.37597891 7.86254855,4.08200776 L7.92966991,4.00520382 L10.4045436,1.53033009 C11.2466117,0.688262082 12.5900739,0.653175915 13.4739247,1.42507159 Z"
              id="path-1"></path>
    </defs>
    <g id="ic_celiakeyboard_move" stroke="none" stroke-width="1" fill="none" fill-rule="evenodd">
        <mask id="mask-2" fill="white">
            <use xlink:href="#path-1"></use>
        </mask>
        <g id="蒙版" fill-rule="nonzero"></g>
        <g id="Group" mask="url(#mask-2)" fill-opacity="0.9">
            <g transform="translate(0.000000, -0.000000)">
                <rect id="color/#000000" fill="#000000" x="0" y="0" width="24" height="24"></rect>
            </g>
        </g>
    </g>
</svg>