<svg xmlns="http://www.w3.org/2000/svg" xmlns:xlink="http://www.w3.org/1999/xlink" width="24" height="24" version="1.1"
     viewBox="0 0 24 24">
    <defs>
        <path id="uxs-a"
              d="M16.55,8 C19.2838095,8 21.5,10.2161905 21.5,12.95 L21.5,13.05 C21.5,14.2201076 21.0940036,15.2953897 20.4151961,16.1426608 C19.4933595,17.5617678 17.8937477,18.5 16.075,18.5 L5.425,18.5 C3.60344266,18.5 2.00169877,17.5588667 1.07949247,16.1363243 C0.420680033,15.3110091 0.0200861781,14.2700174 0.000734702689,13.1361568 L-7.10542736e-15,12.95 C-7.10542736e-15,10.2161905 2.21619049,8 4.95,8 L16.55,8 Z M16.6280972,9.50086651 L4.95,9.5 C3.07071874,9.5 1.54238599,11.0025892 1.50086651,12.8719028 L1.5,13.05 C1.5,14.9292813 3.00258917,16.457614 4.87190275,16.4991335 L4.95,16.5 L16.55,16.5 C18.4292813,16.5 19.957614,14.9974108 19.9991335,13.1280972 L20,13.05 L20,12.95 C20,11.0707187 18.4974108,9.54238599 16.6280972,9.50086651 Z M19.05,5.5 C21.7838095,5.5 24,7.71619049 24,10.45 L24,10.55 C24,12.152516 23.2384905,13.5771719 22.0575976,14.4818416 C22.1830018,14.008959 22.25,13.5123036 22.25,13 C22.25,12.6636408 22.2211188,12.3340271 22.1657011,12.0135035 C22.3698817,11.5901455 22.4883096,11.1194774 22.499179,10.6230123 L22.5,10.4520548 C22.5,8.57062333 20.9554086,7.04073454 19.0344818,7.00080004 L7.54255319,7 C7.07403871,7 6.62676687,7.08862714 6.21743034,7.24961519 L5,7.25 C4.48771909,7.25 3.99108504,7.31699221 3.51838069,7.4426938 C4.42225212,6.26181741 5.84716007,5.5 7.45,5.5 L19.05,5.5 Z"/>
    </defs>
    <g fill="none" fill-rule="evenodd" stroke="none" stroke-width="1">
        <mask id="uxs-b" fill="#fff">
            <use xlink:href="#uxs-a"/>
        </mask>
        <g fill="#000" fill-opacity=".9" mask="url(#uxs-b)">
            <rect width="24" height="24" x="0" y="0"/>
        </g>
    </g>
</svg>
