<?xml version="1.0" encoding="UTF-8"?>
<svg width="24px" height="24px" viewBox="0 0 24 24" version="1.1" xmlns="http://www.w3.org/2000/svg"
>
    <title>ic_celiakeyboard_restore</title>
    <g id="ic_celiakeyboard_restore" stroke="none" stroke-width="1" fill="none" fill-rule="evenodd">
        <path d="M17,2.92569351 C19.5504817,2.92569351 21.6314697,4.9358348 21.7451121,7.45826551 L21.75,7.67569351 L21.75,13.6756935 C21.75,16.2261752 19.7398587,18.3071632 17.217428,18.4208057 L17,18.4256935 L16.7498114,18.4256935 L16.7498114,16.9256935 L17,16.9256935 C18.7330315,16.9256935 20.1492459,15.5692387 20.2448552,13.8601174 L20.25,13.6756935 L20.25,7.67569351 C20.25,5.94266206 18.8935452,4.52644759 17.1844239,4.4308383 L17,4.42569351 L7,4.42569351 C5.26696854,4.42569351 3.85075407,5.78214828 3.75514479,7.49126961 L3.75,7.67569351 L3.75,13.6756935 C3.75,15.408725 5.10645477,16.8249394 6.81557609,16.9205487 L7,16.9256935 L7.24981139,16.9256935 L7.24981139,18.4256935 L7,18.4256935 C4.44951834,18.4256935 2.36853034,16.4155522 2.25488786,13.8931215 L2.25,13.6756935 L2.25,7.67569351 C2.25,5.12521185 4.26014129,3.04422385 6.782572,2.93058137 L7,2.92569351 L17,2.92569351 Z"
              id="形状结合" fill="#000000" fill-rule="nonzero"></path>
        <rect id="矩形" fill="#000000" x="11.2498114" y="13.0699577" width="1.5" height="8" rx="0.75"></rect>
        <path d="M9.46564687,21.4888082 L11.3354476,19.8267631 C11.7143336,19.4899756 12.2852892,19.4899756 12.6641752,19.8267631 L14.5339759,21.4888082"
              id="路径备份-2" stroke="#000000" stroke-width="1.5" stroke-linecap="round" fill-rule="nonzero"
              transform="translate(11.999811, 20.531490) rotate(-180.000000) translate(-11.999811, -20.531490) "></path>
    </g>
</svg>