<svg xmlns="http://www.w3.org/2000/svg" width="24" height="24" version="1.1" viewBox="0 0 24 24">
    <g fill="none" fill-rule="evenodd" stroke="none" stroke-width="1" transform="translate(0 -.25)">
        <path fill="#000" fill-rule="nonzero"
              d="M12.0085418,15.6727554 L9.49682972,18.1935986 C9.65947687,18.5539902 9.75,18.9539237 9.75,19.375 C9.75,20.9628186 8.46281865,22.25 6.875,22.25 C5.28718135,22.25 4,20.9628186 4,19.375 C4,17.7871813 5.28718135,16.5 6.875,16.5 C7.31010645,16.5 7.72263767,16.596656 8.09229347,16.7696679 L10.5943259,14.2585395 L7.29289323,10.9571068 C6.90236893,10.5665825 6.90236893,9.9334175 7.29289323,9.54289322 C7.6834175,9.15236892 8.3165825,9.15236892 8.70710677,9.54289322 L12.0059735,12.8417599 L15.3056604,9.53007732 C15.6954754,9.13884512 16.3286394,9.1376963 16.7198716,9.52751137 C17.1111038,9.91732645 17.1122526,10.5504904 16.7224375,10.9417226 L13.4201894,14.2559758 L15.9255875,16.7613739 C16.2906468,16.5935699 16.6968962,16.5 17.125,16.5 C18.7128186,16.5 20,17.7871813 20,19.375 C20,20.9628186 18.7128186,22.25 17.125,22.25 C15.5371813,22.25 14.25,20.9628186 14.25,19.375 C14.25,18.9468962 14.3435699,18.5406467 14.5113739,18.1755875 L12.0085418,15.6727554 Z M6.875,20.25 C7.35824915,20.25 7.75,19.8582491 7.75,19.375 C7.75,18.8917508 7.35824915,18.5 6.875,18.5 C6.39175085,18.5 6,18.8917508 6,19.375 C6,19.8582491 6.39175085,20.25 6.875,20.25 Z M17.125,20.25 C17.6082491,20.25 18,19.8582491 18,19.375 C18,18.8917508 17.6082491,18.5 17.125,18.5 C16.6417509,18.5 16.25,18.8917508 16.25,19.375 C16.25,19.8582491 16.6417509,20.25 17.125,20.25 Z"/>
        <path stroke="#000" stroke-linecap="round" stroke-width="2"
              d="M6.25,14.25 L6.2048565,14.25 C5.09045808,14.25 4.68635028,14.133968 4.27894287,13.9160841 C3.87153546,13.6982003 3.55179975,13.3784645 3.33391588,12.9710571 C3.11603201,12.5636497 3,12.1595419 3,11.0451435 L3,6.4548565 C3,5.34045808 3.11603201,4.93635028 3.33391588,4.52894287 C3.55179975,4.12153546 3.87153546,3.80179975 4.27894287,3.58391588 C4.68635028,3.36603201 5.09045808,3.25 6.2048565,3.25 L17.7951435,3.25 C18.9095419,3.25 19.3136497,3.36603201 19.7210571,3.58391588 C20.1284645,3.80179975 20.4482003,4.12153546 20.6660841,4.52894287 C20.883968,4.93635028 21,5.34045808 21,6.4548565 L21,11.0451435 C21,12.1595419 20.883968,12.5636497 20.6660841,12.9710571 C20.4482003,13.3784645 20.1284645,13.6982003 19.7210571,13.9160841 C19.3396867,14.1200433 18.9612075,14.2347531 18.0002863,14.248582"/>
    </g>
</svg>
