<svg xmlns="http://www.w3.org/2000/svg" xmlns:xlink="http://www.w3.org/1999/xlink" width="24" height="24" version="1.1"
     viewBox="0 0 24 24">
    <defs>
        <path id="uxs-a"
              d="M18.4980222,0.220266461 C18.7434821,0.220266461 18.9476305,0.397141622 18.9899665,0.630390829 L18.9980222,0.720266461 L18.9998064,1.73278718 L19,15.75 L20.3082994,15.75 C20.4391222,15.75 20.5647344,15.8012733 20.6581889,15.8928203 C20.8335355,16.064588 20.8555973,16.3337993 20.7226175,16.5300489 L20.665479,16.5998895 L18.3571797,18.9562834 C18.2631325,19.05229 18.1343955,19.1063938 18,19.1063938 C17.7545401,19.1063938 17.5503916,18.9295187 17.5080557,18.6962695 L17.5,18.6063938 L17.4990003,3.83126646 L16.0900028,3.83132277 C15.9643859,3.83132277 15.8433713,3.78403957 15.751029,3.69887786 C15.570589,3.5324689 15.5404294,3.26404418 15.6674386,3.06387875 L15.7224478,2.99234894 L18.1304671,0.381292632 C18.2251274,0.278650877 18.3583944,0.220266461 18.4980222,0.220266461 Z M11,15.75 C11.4142136,15.75 11.75,16.0857864 11.75,16.5 C11.75,16.9142136 11.4142136,17.25 11,17.25 L0.75,17.25 C0.335786438,17.25 0,16.9142136 0,16.5 C0,16.0857864 0.335786438,15.75 0.75,15.75 L11,15.75 Z M14.25,9 C14.6642136,9 15,9.33578644 15,9.75 C15,10.1642136 14.6642136,10.5 14.25,10.5 L0.75,10.5 C0.335786438,10.5 0,10.1642136 0,9.75 C0,9.33578644 0.335786438,9 0.75,9 L14.25,9 Z M11,2.25 C11.4142136,2.25 11.75,2.58578644 11.75,3 C11.75,3.41421356 11.4142136,3.75 11,3.75 L0.75,3.75 C0.335786438,3.75 0,3.41421356 0,3 C0,2.58578644 0.335786438,2.25 0.75,2.25 L11,2.25 Z"/>
    </defs>
    <g fill="none" fill-rule="evenodd" stroke="none" stroke-width="1" opacity=".9">
        <rect width="24" height="24" x="0" y="0"/>
        <g transform="translate(1.995 2.245)">
            <mask id="uxs-b" fill="#fff">
                <use xlink:href="#uxs-a"/>
            </mask>
            <rect width="24" height="24" x="-2" y="-2.25" fill="#000" mask="url(#uxs-b)"/>
        </g>
    </g>
</svg>
