<svg xmlns="http://www.w3.org/2000/svg" width="24" height="24" version="1.1" viewBox="0 0 24 24">
    <g fill="none" fill-rule="evenodd" stroke="none" stroke-width="1">
        <path fill="#000" fill-rule="nonzero"
              d="M9,16 L9,17.75 L6.975,17.75 C6.425,17.75 5.975,18.2 5.975,18.75 C5.975,19.3 6.425,19.75 6.975,19.75 L13,19.75 L13,16 L9,16 Z"/>
        <path fill="#000" fill-rule="nonzero"
              d="M17.4099834,3.00039186 C18.5023463,3.00800462 19.0858969,3.12760437 19.692656,3.45210268 C20.2743319,3.76318635 20.7368137,4.22566813 21.0478973,4.80734401 C21.3368696,5.34767527 21.463352,5.86960163 21.4929591,6.74883929 L19.4928694,6.74975812 C19.4750503,6.26845684 19.4221751,6.03166778 19.3158214,5.81235007 L19.3158214,5.81235007 L19.2842709,5.75054173 C19.1595869,5.5174028 18.9825972,5.34041314 18.7494583,5.21572908 C18.4511297,5.05618119 18.1601996,5 17.2951435,5 L17.2951435,5 L5.11739211,5.00020234 C4.37670353,5.00372639 4.08138193,5.05371703 3.81235007,5.1841786 L3.81235007,5.1841786 L3.75054173,5.21572908 C3.5174028,5.34041314 3.34041314,5.5174028 3.21572908,5.75054173 C3.05618119,6.04887034 3,6.33980043 3,7.2048565 L3,7.2048565 L3.00020234,12.6326079 C3.00372639,13.3732965 3.05371703,13.6686181 3.1841786,13.9376499 L3.1841786,13.9376499 L3.21572908,13.9994583 C3.34041314,14.2325972 3.5174028,14.4095869 3.75054173,14.5342709 C4.04887034,14.6938188 4.33980043,14.75 5.2048565,14.75 L5.2048565,14.75 L13,14.749 L13,16.75 L5.2048565,16.75 C4.12763912,16.75 3.53110934,16.6508063 2.95202086,16.3715182 L2.80734401,16.2978973 C2.22566813,15.9868137 1.76318635,15.5243319 1.45210268,14.942656 C1.11641478,14.3149742 1,13.712129 1,12.5451435 L1,12.5451435 L1.00039186,7.0900166 C1.00800462,5.99765373 1.12760437,5.4141031 1.45210268,4.80734401 C1.76318635,4.22566813 2.22566813,3.76318635 2.80734401,3.45210268 C3.43502582,3.11641478 4.03787101,3 5.2048565,3 L5.2048565,3 Z"/>
        <rect width="7" height="11.25" x="15" y="8.75" stroke="#000" stroke-width="2" rx="2.5"/>
    </g>
</svg>
