<?xml version="1.0" encoding="UTF-8"?>
<svg width="24px" height="24px" viewBox="0 0 24 24" version="1.1" xmlns="http://www.w3.org/2000/svg"
     xmlns:xlink="http://www.w3.org/1999/xlink">
    <title>ic_celiakeyboard_cursor_right</title>
    <defs>
        <path d="M11.7765491,5.00015683 C11.9463168,5.00590733 12.1144959,5.06858772 12.2496313,5.18819802 L12.2817275,5.2183097 L17.2368774,10.1436903 C17.9067875,10.8095757 17.9207439,11.8805699 17.2787468,12.5633348 L17.2368774,12.6063806 L12.2817275,17.5317612 C12.1527138,17.6599998 11.9884303,17.7318134 11.8199143,17.7472021 L11.7738738,17.75 L11.7277634,17.75 C11.5433681,17.7444041 11.3606519,17.6716579 11.2199097,17.5317612 C10.9371687,17.2507189 10.9270708,16.8012955 11.189616,16.5082259 L11.2199097,16.4763225 L15.597,12.125 L3.75,12.125 C3.33578644,12.125 3,11.7892136 3,11.375 C3,10.9607864 3.33578644,10.625 3.75,10.625 L15.598,10.625 L11.2199097,6.2737484 C10.9266968,5.98229705 10.9266968,5.50976105 11.2199097,5.2183097 C11.3612802,5.07778851 11.5450004,5.00501861 11.730233,5 L11.7765491,5.00015683 Z M20,5 C20.4142136,5 20.75,5.33578644 20.75,5.75 L20.75,17 C20.75,17.4142136 20.4142136,17.75 20,17.75 C19.5857864,17.75 19.25,17.4142136 19.25,17 L19.25,5.75 C19.25,5.33578644 19.5857864,5 20,5 Z"
              id="path-1"></path>
    </defs>
    <g id="ic_celiakeyboard_cursor_right" stroke="none" stroke-width="1" fill="none" fill-rule="evenodd">
        <mask id="mask-2" fill="white">
            <use xlink:href="#path-1"></use>
        </mask>
        <g id="形状结合" fill-rule="nonzero"></g>
        <g id="Group" mask="url(#mask-2)" fill="#000000" fill-opacity="0.9">
            <g id="color/#000000">
                <rect x="0" y="0" width="24" height="24"></rect>
            </g>
        </g>
    </g>
</svg>