<svg xmlns="http://www.w3.org/2000/svg" width="24" height="24" version="1.1" viewBox="0 0 24 24">
    <g fill="none" fill-rule="evenodd" stroke="none" stroke-width="1" transform="translate(5 1)">
        <path stroke="#000" stroke-width="2"
              d="M3.8458278,1 L10.1541722,1 C11.2082531,1 11.6045427,1.07440488 11.9936697,1.28251225 C12.3057125,1.44939455 12.5506054,1.69428754 12.7174877,2.0063303 C12.9255951,2.39545726 13,2.79174691 13,3.8458278 L13,3.8458278 L13,18.1541722 C13,19.2082531 12.9255951,19.6045427 12.7174877,19.9936697 C12.5506054,20.3057125 12.3057125,20.5506054 11.9936697,20.7174877 C11.6045427,20.9255951 11.2082531,21 10.1541722,21 L10.1541722,21 L3.8458278,21 C2.79174691,21 2.39545726,20.9255951 2.0063303,20.7174877 C1.69428754,20.5506054 1.44939455,20.3057125 1.28251225,19.9936697 C1.07440488,19.6045427 1,19.2082531 1,18.1541722 L1,18.1541722 L1,3.8458278 C1,2.79174691 1.07440488,2.39545726 1.28251225,2.0063303 C1.44939455,1.69428754 1.69428754,1.44939455 2.0063303,1.28251225 C2.39545726,1.07440488 2.79174691,1 3.8458278,1 L3.8458278,1 Z"/>
        <path fill="#000" fill-rule="nonzero"
              d="M4.1,7.5 C7.06261765,7.5 9.4625,9.82488603 9.4625,12.725 C9.4625,15.6170744 7.04356796,17.95 4.1,17.95 C3.49248678,17.95 3,17.4575132 3,16.85 C3,16.2424868 3.49248678,15.75 4.1,15.75 C5.84600577,15.75 7.2625,14.38387 7.2625,12.725 C7.2625,11.0558171 5.86294687,9.7 4.1,9.7 C3.49248678,9.7 3,9.20751323 3,8.6 C3,7.99248678 3.49248678,7.5 4.1,7.5 Z M4.17,11.325 C4.99842712,11.325 5.67,11.9965729 5.67,12.825 C5.67,13.6534271 4.99842712,14.325 4.17,14.325 C3.34157288,14.325 2.67,13.6534271 2.67,12.825 C2.67,11.9965729 3.34157288,11.325 4.17,11.325 Z"/>
    </g>
</svg>
