<?xml version="1.0" standalone="no"?><!DOCTYPE svg PUBLIC "-//W3C//DTD SVG 1.1//EN"
        "http://www.w3.org/Graphics/SVG/1.1/DTD/svg11.dtd">
<svg class="icon" width="200px" height="200.00px" viewBox="0 0 1024 1024" version="1.1"
     xmlns="http://www.w3.org/2000/svg">
    <path d="M205.5 64H674l223 225.5V935c0 13.807-11.193 25-25 25H205.5c-13.807 0-25-11.193-25-25V89c0-13.807 11.193-25 25-25z"
          fill="#FAFAFA"/>
    <path d="M674 64v200.5c0 13.807 11.193 25 25 25h198L674 64z" fill="#FF7A64"/>
    <path d="M67 193m16 0l287 0q16 0 16 16l0 287q0 16-16 16l-287 0q-16 0-16-16l0-287q0-16 16-16Z" fill="#FF7A64"/>
    <path d="M255 571m10 0l556 0q10 0 10 10l0 0q0 10-10 10l-556 0q-10 0-10-10l0 0q0-10 10-10Z" fill="#D8D8D8"/>
    <path d="M255 707m10 0l556 0q10 0 10 10l0 0q0 10-10 10l-556 0q-10 0-10-10l0 0q0-10 10-10Z" fill="#D8D8D8"/>
    <path d="M255 639m10 0l556 0q10 0 10 10l0 0q0 10-10 10l-556 0q-10 0-10-10l0 0q0-10 10-10Z" fill="#D8D8D8"/>
    <path d="M255 774m10 0l556 0q10 0 10 10l0 0q0 10-10 10l-556 0q-10 0-10-10l0 0q0-10 10-10Z" fill="#D8D8D8"/>
    <path d="M255 842m10 0l556 0q10 0 10 10l0 0q0 10-10 10l-556 0q-10 0-10-10l0 0q0-10 10-10Z" fill="#D8D8D8"/>
    <path d="M314 312.055c0 16.701-8.014 25.218-26.96 27.787H129c-5.523 0-10 4.477-10 10V451.5c0 5.523 4.477 10 10 10s10-4.477 10-10v-91.658h148.694a10 10 0 0 0 1.264-0.08C317.98 356.065 334 339.393 334 312.055c0-26.83-15.298-44.972-43.677-52.703a10 10 0 0 0-2.629-0.352H129c-5.523 0-10 4.477-10 10s4.477 10 10 10h157.317C305.466 284.553 314 295.032 314 312.055z"
          fill="#FFFFFF"/>
</svg>