<?xml version="1.0" standalone="no"?><!DOCTYPE svg PUBLIC "-//W3C//DTD SVG 1.1//EN"
        "http://www.w3.org/Graphics/SVG/1.1/DTD/svg11.dtd">
<svg class="icon" width="200px" height="200.00px" viewBox="0 0 1024 1024" version="1.1"
     xmlns="http://www.w3.org/2000/svg">
    <path d="M179 64h468.5l223 225.5V935c0 13.807-11.193 25-25 25H179c-13.807 0-25-11.193-25-25V89c0-13.807 11.193-25 25-25z"
          fill="#CCCCCC"/>
    <path d="M647.5 64v200.5c0 13.807 11.193 25 25 25h198L647.5 64z" fill="#EAEAEA"/>
    <path d="M512 364.5c34.139 0 68.5 11.192 94.771 31.69 30.137 23.513 47.729 57.54 47.729 97.31 0 51.725-35.564 99.023-102.662 143.99l-0.338 0.225V696c0 17.77-14.261 32.209-31.963 32.496l-0.537 0.004c-17.95 0-32.5-14.55-32.5-32.5v-76a32.5 32.5 0 0 1 15.347-27.605c60.106-37.347 87.653-71.18 87.653-98.895 0-19.168-7.95-34.545-22.714-46.064C552.248 436.093 532.007 429.5 512 429.5c-19.92 0-39.856 6.54-54.137 17.819-14.519 11.465-22.363 26.87-22.363 46.181 0 17.95-14.55 32.5-32.5 32.5s-32.5-14.55-32.5-32.5c0-39.693 17.307-73.683 47.08-97.194C443.657 375.714 477.833 364.5 512 364.5z m8.5 477.5c20.71 0 37.5-16.79 37.5-37.5S541.21 767 520.5 767 483 783.79 483 804.5s16.79 37.5 37.5 37.5z"
          fill="#FFFFFF"/>
</svg>