<?xml version="1.0" standalone="no"?><!DOCTYPE svg PUBLIC "-//W3C//DTD SVG 1.1//EN"
        "http://www.w3.org/Graphics/SVG/1.1/DTD/svg11.dtd">
<svg class="icon" width="200px" height="200.00px" viewBox="0 0 1024 1024" version="1.1"
     xmlns="http://www.w3.org/2000/svg">
    <path d="M205.5 64H674l223 225.5V935c0 13.807-11.193 25-25 25H205.5c-13.807 0-25-11.193-25-25V89c0-13.807 11.193-25 25-25z"
          fill="#FFFFFF"/>
    <path d="M674 64v200.5c0 13.807 11.193 25 25 25h198L674 64z" fill="#E5E5E5"/>
    <path d="M67 193m16 0l287 0q16 0 16 16l0 287q0 16-16 16l-287 0q-16 0-16-16l0-287q0-16 16-16Z" fill="#00C090"/>
    <path d="M255 571m10 0l556 0q10 0 10 10l0 0q0 10-10 10l-556 0q-10 0-10-10l0 0q0-10 10-10Z" fill="#D8D8D8"/>
    <path d="M255 707m10 0l556 0q10 0 10 10l0 0q0 10-10 10l-556 0q-10 0-10-10l0 0q0-10 10-10Z" fill="#D8D8D8"/>
    <path d="M255 639m10 0l556 0q10 0 10 10l0 0q0 10-10 10l-556 0q-10 0-10-10l0 0q0-10 10-10Z" fill="#D8D8D8"/>
    <path d="M255 774m10 0l556 0q10 0 10 10l0 0q0 10-10 10l-556 0q-10 0-10-10l0 0q0-10 10-10Z" fill="#D8D8D8"/>
    <path d="M255 842m10 0l556 0q10 0 10 10l0 0q0 10-10 10l-556 0q-10 0-10-10l0 0q0-10 10-10Z" fill="#D8D8D8"/>
    <path d="M240.887 352.366l82.49 78.123c4.01 3.798 4.181 10.127 0.384 14.137-3.798 4.01-10.127 4.182-14.137 0.385l-82.49-78.124-78.123 82.49c-3.798 4.01-10.127 4.181-14.137 0.384-4.01-3.798-4.182-10.127-0.385-14.137l78.124-82.49-82.49-78.123c-4.01-3.798-4.181-10.127-0.384-14.137 3.798-4.01 10.127-4.182 14.137-0.385l82.49 78.124 78.123-82.49c3.798-4.01 10.127-4.181 14.137-0.384 4.01 3.798 4.182 10.127 0.385 14.137l-78.124 82.49z"
          fill="#FFFFFF"/>
</svg>