<?xml version="1.0" standalone="no"?><!DOCTYPE svg PUBLIC "-//W3C//DTD SVG 1.1//EN"
        "http://www.w3.org/Graphics/SVG/1.1/DTD/svg11.dtd">
<svg class="icon" width="200px" height="200.00px" viewBox="0 0 1024 1024" version="1.1"
     xmlns="http://www.w3.org/2000/svg">
    <path d="M179 64h665.042c13.79 0 24.977 11.167 25 24.958l1.416 846c0.023 13.807-11.15 25.019-24.958 25.042H179c-13.807 0-25-11.193-25-25V89c0-13.807 11.193-25 25-25z"
          fill="#D2D3CF"/>
    <path d="M179 116h665.044c13.79 0 24.976 11.166 25 24.956l1.411 794c0.025 13.807-11.148 25.02-24.955 25.044H179c-13.807 0-25-11.193-25-25V141c0-13.807 11.193-25 25-25z"
          fill="#F2F2F2"/>
    <path d="M179 170h665.047c13.789 0 24.974 11.164 25 24.953l1.405 740c0.027 13.807-11.145 25.02-24.952 25.047H179c-13.807 0-25-11.193-25-25V195c0-13.807 11.193-25 25-25z"
          fill="#FFFFFF"/>
    <path d="M157 621v60H97zM869 621v60h59z" fill="#CFA72A"/>
    <path d="M97 675h272.568l46.536 72.907H628.84L668.728 675H928v285H97zM641 169h160v208l-80-37.5-80 37.5z"
          fill="#FFD159"/>
    <path d="M721.5 292.75l-30.859 16.223 5.894-34.361-24.965-24.335 34.5-5.014L721.5 214l15.43 31.263 34.5 5.014-24.965 24.335 5.894 34.361z"
          fill="#FFFFFF"/>
    <path d="M216 293m10 0l213 0q10 0 10 10l0 0q0 10-10 10l-213 0q-10 0-10-10l0 0q0-10 10-10Z" fill="#D8D8D8"/>
    <path d="M216 429m10 0l339 0q10 0 10 10l0 0q0 10-10 10l-339 0q-10 0-10-10l0 0q0-10 10-10Z" fill="#D8D8D8"/>
    <path d="M216 361m10 0l341 0q10 0 10 10l0 0q0 10-10 10l-341 0q-10 0-10-10l0 0q0-10 10-10Z" fill="#D8D8D8"/>
    <path d="M216 496m10 0l341 0q10 0 10 10l0 0q0 10-10 10l-341 0q-10 0-10-10l0 0q0-10 10-10Z" fill="#D8D8D8"/>
    <path d="M216 564m10 0l341 0q10 0 10 10l0 0q0 10-10 10l-341 0q-10 0-10-10l0 0q0-10 10-10Z" fill="#D8D8D8"/>
</svg>