<?xml version="1.0" standalone="no"?><!DOCTYPE svg PUBLIC "-//W3C//DTD SVG 1.1//EN"
        "http://www.w3.org/Graphics/SVG/1.1/DTD/svg11.dtd">
<svg class="icon" width="200px" height="200.00px" viewBox="0 0 1024 1024" version="1.1"
     xmlns="http://www.w3.org/2000/svg">
    <path d="M179 64h468.5l223 225.5V935c0 13.807-11.193 25-25 25H179c-13.807 0-25-11.193-25-25V89c0-13.807 11.193-25 25-25z"
          fill="#576A95"/>
    <path d="M647.5 64v200.5c0 13.807 11.193 25 25 25h198L647.5 64z" fill="#BBC3D4"/>
    <path d="M573.2 614.597v121.678a30.391 30.391 0 0 1-8.932 21.509 30.508 30.508 0 0 1-21.549 8.91h-62.238a30.52 30.52 0 0 1-21.549-8.905A30.392 30.392 0 0 1 450 736.27V614.597h123.2z m-30.48 69.71h-62.24v61.096h62.24v-61.096z m29.46-191.386v61.096h-61.213V492.92h61.214zM511.73 64v61.6H573.2v61.6h-61.478v57.036H573.2v61.6h-61.471v60.844H573.2v60.844h-61.471v60.839H450v-60.844h61.471v-60.844H450v-60.839h61.471v-61.6H450v-61.6h61.471V125.6H450V64h61.729z"
          fill="#FFFFFF"/>
</svg>