<?xml version="1.0" standalone="no"?><!DOCTYPE svg PUBLIC "-//W3C//DTD SVG 1.1//EN"
        "http://www.w3.org/Graphics/SVG/1.1/DTD/svg11.dtd">
<svg class="icon" width="200px" height="200.00px" viewBox="0 0 1024 1024" version="1.1"
     xmlns="http://www.w3.org/2000/svg">
    <path d="M205.5 64H665l232 232v639c0 13.807-11.193 25-25 25H205.5c-13.807 0-25-11.193-25-25V89c0-13.807 11.193-25 25-25z m449.145 25H205.5v846H872V306.355L654.645 89z"
          fill="#B7B7BD"/>
    <path d="M665 64l-11 23.5v197c0 13.807 11.193 25 25 25h194.5L897 296 665 64z m14 49.355L850.145 284.5H679V113.355z"
          fill="#B7B7BD"/>
    <path d="M255 571m10 0l556 0q10 0 10 10l0 0q0 10-10 10l-556 0q-10 0-10-10l0 0q0-10 10-10Z" fill="#B7B7BD"/>
    <path d="M255 707m10 0l556 0q10 0 10 10l0 0q0 10-10 10l-556 0q-10 0-10-10l0 0q0-10 10-10Z" fill="#B7B7BD"/>
    <path d="M255 639m10 0l556 0q10 0 10 10l0 0q0 10-10 10l-556 0q-10 0-10-10l0 0q0-10 10-10Z" fill="#B7B7BD"/>
    <path d="M255 774m10 0l556 0q10 0 10 10l0 0q0 10-10 10l-556 0q-10 0-10-10l0 0q0-10 10-10Z" fill="#B7B7BD"/>
    <path d="M255 842m10 0l556 0q10 0 10 10l0 0q0 10-10 10l-556 0q-10 0-10-10l0 0q0-10 10-10Z" fill="#B7B7BD"/>
    <path d="M67 193m16 0l287 0q16 0 16 16l0 287q0 16-16 16l-287 0q-16 0-16-16l0-287q0-16 16-16Z" fill="#CCCCCC"/>
    <path d="M226.274 240c14.845 0 29.79 4.862 41.18 13.738C280.444 263.86 288 278.458 288 295.57c0 22.53-15.93 43.423-46.252 63.48l-0.31 0.203V387c0 6.525-5.208 11.834-11.695 11.996l-0.305 0.004c-6.627 0-12-5.373-12-12v-34.314a12 12 0 0 1 5.673-10.196C250.988 325.189 264 309.227 264 295.57c0-9.498-3.99-17.207-11.298-22.902-7.059-5.5-16.796-8.668-26.428-8.668-9.598 0-19.202 3.147-26.147 8.625-7.064 5.571-10.985 13.116-11.123 22.435l-0.004 0.51c0 6.628-5.373 12-12 12s-12-5.372-12-12c0-33.201 28.361-55.57 61.274-55.57zM230 453c9.389 0 17-7.611 17-17s-7.611-17-17-17-17 7.611-17 17 7.611 17 17 17z"
          fill="#FFFFFF"/>
</svg>