<?xml version="1.0" standalone="no"?><!DOCTYPE svg PUBLIC "-//W3C//DTD SVG 1.1//EN"
        "http://www.w3.org/Graphics/SVG/1.1/DTD/svg11.dtd">
<svg class="icon" width="200px" height="200.00px" viewBox="0 0 1024 1024" version="1.1"
     xmlns="http://www.w3.org/2000/svg">
    <path d="M179 64h468.5l223 225.5V935c0 13.807-11.193 25-25 25H179c-13.807 0-25-11.193-25-25V89c0-13.807 11.193-25 25-25z m469.063 25H179v846h666.5V290.774L648.063 89z"
          fill="#D9D9D9"/>
    <path d="M647.5 64v200.5c0 13.807 11.193 25 25 25h198L647.5 64z" fill="#E5E5E5"/>
    <path d="M499.5 500V305c0-6.904 5.596-12.5 12.5-12.5s12.5 5.596 12.5 12.5v195h195c6.904 0 12.5 5.596 12.5 12.5s-5.596 12.5-12.5 12.5h-195v195c0 6.904-5.596 12.5-12.5 12.5s-12.5-5.596-12.5-12.5V525h-195c-6.904 0-12.5-5.596-12.5-12.5s5.596-12.5 12.5-12.5h195z"
          fill="#D8D8D8"/>
</svg>