<?xml version="1.0" standalone="no"?><!DOCTYPE svg PUBLIC "-//W3C//DTD SVG 1.1//EN"
        "http://www.w3.org/Graphics/SVG/1.1/DTD/svg11.dtd">
<svg class="icon" width="200px" height="200.00px" viewBox="0 0 1024 1024" version="1.1"
     xmlns="http://www.w3.org/2000/svg">
    <path d="M205.5 64H674l223 225.5V935c0 13.807-11.193 25-25 25H205.5c-13.807 0-25-11.193-25-25V89c0-13.807 11.193-25 25-25z"
          fill="#FFFFFF"/>
    <path d="M674 64v200.5c0 13.807 11.193 25 25 25h198L674 64z" fill="#E5E5E5"/>
    <path d="M67 193m16 0l287 0q16 0 16 16l0 287q0 16-16 16l-287 0q-16 0-16-16l0-287q0-16 16-16Z" fill="#FF4867"/>
    <path d="M255 571m10 0l556 0q10 0 10 10l0 0q0 10-10 10l-556 0q-10 0-10-10l0 0q0-10 10-10Z" fill="#D8D8D8"/>
    <path d="M255 707m10 0l556 0q10 0 10 10l0 0q0 10-10 10l-556 0q-10 0-10-10l0 0q0-10 10-10Z" fill="#D8D8D8"/>
    <path d="M255 639m10 0l556 0q10 0 10 10l0 0q0 10-10 10l-556 0q-10 0-10-10l0 0q0-10 10-10Z" fill="#D8D8D8"/>
    <path d="M255 774m10 0l556 0q10 0 10 10l0 0q0 10-10 10l-556 0q-10 0-10-10l0 0q0-10 10-10Z" fill="#D8D8D8"/>
    <path d="M255 842m10 0l556 0q10 0 10 10l0 0q0 10-10 10l-556 0q-10 0-10-10l0 0q0-10 10-10Z" fill="#D8D8D8"/>
    <path d="M308.065 453c-20.073 0-38.076-34.475-47.548-56.892-15.933-6.657-33.497-12.873-50.559-16.892-14.929 9.859-40.334 24.615-59.842 24.615-12.107 0-20.826-6.09-24.025-16.703-2.446-8.729-0.376-14.757 2.258-18.022 5.144-7.033 15.745-10.613 31.615-10.613 12.86 0 29.169 2.26 47.36 6.657 11.73-8.352 23.648-18.023 34.25-28.258-4.705-22.355-9.849-58.588 3.198-75.292 6.461-7.975 16.31-10.612 28.228-7.033 13.048 3.768 18.003 11.743 19.509 18.022 5.52 21.79-19.509 51.179-36.383 68.447 3.764 14.945 8.72 30.707 14.741 45.15 24.213 10.8 53.006 26.94 56.267 44.522 1.318 6.09-0.564 11.742-5.52 16.703-4.265 3.517-8.782 5.589-13.549 5.589z m-29.675-49.153c11.989 24.757 23.42 36.441 29.445 36.441 0.932 0 2.236-0.379 4.1-1.895 2.236-2.273 2.236-3.789 1.863-5.178-1.242-6.505-11.368-17.179-35.408-29.368z m-118.503-33.05c-15.688 0-20 3.837-21.313 5.628-0.375 0.576-1.5 2.303-0.375 6.78 0.938 3.837 3.563 7.93 11.688 7.93 10.187 0 24.937-5.82 42.062-16.245-12.25-2.75-23.062-4.093-32.062-4.093z m63.418-1.656c10.17 2.797 20.713 6.401 30.509 10.13-3.557-9.198-6.427-18.768-8.86-27.966-7.175 6.153-14.474 12.18-21.649 17.836z m39.443-103.43c-3.59 0-6.108 1.321-8.374 3.773-6.675 8.362-7.43 29.425-2.267 56.397 19.582-20.873 30.223-40.05 27.579-50.298-0.378-1.509-1.512-6.099-10.642-8.74-2.518-0.754-4.407-1.131-6.296-1.131z"
          fill="#FFFFFF"/>
</svg>