<?xml version="1.0" standalone="no"?><!DOCTYPE svg PUBLIC "-//W3C//DTD SVG 1.1//EN"
        "http://www.w3.org/Graphics/SVG/1.1/DTD/svg11.dtd">
<svg class="icon" width="200px" height="200.00px" viewBox="0 0 1024 1024" version="1.1"
     xmlns="http://www.w3.org/2000/svg">
    <path d="M349.696 160c-61.584 0-89.024 34.688-98.704 63.664-6.864 20.64-34.88 107.36-34.88 107.36H142.816c-20.912 0-28.832 6.864-28.832 17.504v22.48c0 13.808 19.888 21.408 31.728 21.408h14.416a53.008 53.008 0 0 0-11.648 24.736c-2.576 14.928-11.84 66.384-11.84 157.488v148.72a29.344 29.344 0 0 0 29.344 29.296h86.048a29.344 29.344 0 0 0 29.328-29.28v-53.024H699.04v53.008a29.344 29.344 0 0 0 29.344 29.296H814.4a29.344 29.344 0 0 0 29.344-29.28v-148.736c0-91.104-9.216-142.56-11.84-157.488a53.008 53.008 0 0 0-11.648-24.736h14.4c11.84 0 31.744-7.68 31.744-21.408v-22.48c0-10.64-7.92-17.504-28.832-17.504h-73.328s-27.904-86.72-34.768-107.36C719.712 194.72 692.256 160 630.672 160h-280.96z"
          fill="#42B4FA"/>
    <path d="M416.896 508.576h146.56c11.648 0 17.456 5.824 17.456 17.456v40.592c0 11.632-5.808 17.44-17.44 17.44h-146.56c-11.648 0-17.472-5.808-17.472-17.44v-40.592c0-11.632 5.824-17.44 17.456-17.44zM232.624 553.856a53.84 53.84 0 1 0 107.68 0 53.84 53.84 0 0 0-107.68 0zM640.992 553.856a53.84 53.84 0 1 0 107.68 0 53.84 53.84 0 0 0-107.68 0zM262.416 347.52l30.352-104a24.448 24.448 0 0 1 23.504-17.648h346.64a24.496 24.496 0 0 1 23.536 17.632l30.352 104a36.848 36.848 0 0 1-35.456 47.168H297.792a36.848 36.848 0 0 1-35.36-47.152z"
          fill="#FFFFFF"/>
    <path d="M113.968 783.328h752.48c11.984 0 17.968 5.984 17.968 17.968v36.096c0 11.984-5.984 17.968-17.968 17.968H113.968C101.984 855.36 96 849.376 96 837.392V801.28c0-11.968 5.984-17.952 17.968-17.952z"
          fill="#42B4FA"/>
    <path d="M794.128 448h-148.304a59.68 59.68 0 0 0-51.68 29.84l-74.176 128.432a59.84 59.84 0 0 0 0 59.68l74.176 128.432a59.68 59.68 0 0 0 51.68 29.84h148.32a59.68 59.68 0 0 0 51.664-29.84l74.176-128.416a59.6 59.6 0 0 0 0-59.696l-74.176-128.432A59.68 59.68 0 0 0 794.128 448z"
          fill="#92DBFF"/>
    <path d="M608 724.112v-40.048c0-7.52 3.92-13.552 8.736-13.552h206.528c4.816 0 8.736 6.032 8.736 13.552v40.048H608z m142.864-95.44v2.4c0 5.424 0.448 10.4 1.2 14.912h18.512c2.56 0 4.672 2.096 4.672 4.656 0 2.56-2.112 4.672-4.672 4.672h-96.944a4.688 4.688 0 0 1-4.656-4.672c0-2.56 2.096-4.656 4.656-4.656h14.304c0.752-4.528 1.2-9.488 1.2-14.912 0-1.648 0-3.312-0.16-4.96a61.344 61.344 0 0 1-28.736-52.24 61.872 61.872 0 1 1 90.624 54.8z m-129.472 107.472h196.752c4.672 0 8.288 3.776 8.288 8.288a8.352 8.352 0 0 1-8.288 8.272H621.392a8.368 8.368 0 0 1-7.824-8.272 8.16 8.16 0 0 1 7.84-8.288z"
          fill="#FFFFFF"/>
</svg>