<?xml version="1.0" standalone="no"?><!DOCTYPE svg PUBLIC "-//W3C//DTD SVG 1.1//EN"
        "http://www.w3.org/Graphics/SVG/1.1/DTD/svg11.dtd">
<svg class="icon" width="200px" height="200.00px" viewBox="0 0 1024 1024" version="1.1"
     xmlns="http://www.w3.org/2000/svg">
    <path d="M755.2 560c0 41.6 9.6 54.4 19.2 67.2 6.4 9.6 12.8 17.6 12.8 33.6 0 22.4-14.4 57.6-25.6 78.4H880c-9.6-20.8-25.6-54.4-25.6-78.4 0-16 6.4-25.6 12.8-33.6 9.6-12.8 19.2-25.6 19.2-67.2 0-17.6-6.4-35.2-19.2-48-12.8-12.8-30.4-19.2-48-19.2s-35.2 6.4-48 19.2c-8 12.8-16 30.4-16 48z m203.2 200H672c-14.4 0-27.2 9.6-27.2 22.4v60.8c0 11.2 11.2 22.4 27.2 22.4h286.4c14.4 0 27.2-9.6 27.2-22.4V784c0-14.4-11.2-24-27.2-24z"
          fill="#ADF0EA"/>
    <path d="M812.8 452.8l9.6-86.4c1.6-8 0-14.4-1.6-22.4-3.2-6.4-6.4-12.8-11.2-19.2L662.4 176c-4.8-4.8-9.6-8-16-11.2-6.4-3.2-12.8-4.8-20.8-4.8H236.8c-6.4 0-12.8 1.6-19.2 3.2-6.4 3.2-11.2 6.4-16 11.2l-145.6 150.4c-4.8 4.8-9.6 11.2-11.2 19.2-4.8 8-4.8 14.4-4.8 22.4l49.6 452.8c1.6 12.8 8 24 16 32 9.6 8 20.8 12.8 33.6 12.8h470.4c-3.2-6.4-4.8-14.4-4.8-22.4v-60.8c0-33.6 30.4-62.4 67.2-62.4h54.4c14.4-28.8 20.8-51.2 20.8-60.8 0-1.6 0-3.2-4.8-9.6-14.4-17.6-27.2-40-27.2-91.2 0-27.2 9.6-52.8 28.8-72 17.6-17.6 41.6-28.8 68.8-32z m-352 259.2h-139.2c-9.6 0-17.6-8-17.6-17.6 0-9.6 8-17.6 17.6-17.6h139.2c35.2 0 62.4-27.2 62.4-62.4s-28.8-62.4-62.4-62.4h-84.8v46.4c0 4.8-3.2 6.4-8 4.8l-108.8-62.4c-4.8-1.6-4.8-6.4 0-8l108.8-62.4c3.2-1.6 8 0 8 4.8v46.4h84.8c52.8 0 96 43.2 96 96s-43.2 94.4-96 94.4zM91.2 361.6l145.6-137.6h390.4l145.6 137.6H91.2z"
          fill="#3DD5BB"/>
</svg>