<?xml version="1.0" standalone="no"?><!DOCTYPE svg PUBLIC "-//W3C//DTD SVG 1.1//EN"
        "http://www.w3.org/Graphics/SVG/1.1/DTD/svg11.dtd">
<svg class="icon" width="200px" height="200.00px" viewBox="0 0 1024 1024" version="1.1"
     xmlns="http://www.w3.org/2000/svg">
    <path d="M414.64 128c12.16 0.272 24.064 3.312 34.848 9.024a109.216 109.216 0 0 1 27.52 19.776l62.496 76.8c6.608 8.96 16.352 15.136 27.312 17.344h276.208a54.208 54.208 0 0 1 54.4 54.064v480.944a110.096 110.096 0 0 1-101.856 109.76l-8.272 0.288h-276.96l-297.296-0.112a83.456 83.456 0 0 1-61.168-27.584 94.736 94.736 0 0 1-25.28-63.68V219.104a93.408 93.408 0 0 1 25.28-65.408A84.032 84.032 0 0 1 213.088 128h201.552z m18.048 311.52a149.376 149.376 0 0 0-22.96 180.592l-85.328 85.328a37.28 37.28 0 0 0 0 52.576 37.28 37.28 0 0 0 52.464 0l85.328-85.392a149.36 149.36 0 0 0 180.576-22.944 148.528 148.528 0 0 0 23.008-180.576L570.56 564.32l-52.48-52.576 95.248-95.232a148.528 148.528 0 0 0-180.576 23.008h-0.048zM396.256 246.88H213.6a27.52 27.52 0 0 0-27.52 27.52v4.416a27.52 27.52 0 0 0 27.52 27.52h182.672a27.536 27.536 0 0 0 27.52-27.52v-4.416a27.52 27.52 0 0 0-27.52-27.52z"
          fill="#F66462"/>
    <path d="M396.256 246.864H213.6a27.52 27.52 0 0 0-27.52 27.52v4.416a27.52 27.52 0 0 0 27.52 27.52h182.672a27.536 27.536 0 0 0 27.52-27.52v-4.416a27.52 27.52 0 0 0-27.52-27.52z"
          fill="#FFA4A4"/>
</svg>