<?xml version="1.0" standalone="no"?><!DOCTYPE svg PUBLIC "-//W3C//DTD SVG 1.1//EN"
        "http://www.w3.org/Graphics/SVG/1.1/DTD/svg11.dtd">
<svg class="icon" width="200px" height="200.00px" viewBox="0 0 1024 1024" version="1.1"
     xmlns="http://www.w3.org/2000/svg">
    <path d="M210.304 681.12H512v214.832H248.608a38.304 38.304 0 0 1-38.304-38.304V681.12z" fill="#92DBFF"/>
    <path d="M128 512a384 384 0 1 0 768 0 384 384 0 0 0-768 0z" fill="#42B4FA"/>
    <path d="M455.872 704.848c7.76 41.776 73.44 23.984 125.36-31.472 51.92-55.52 15.68-31.472 15.872-31.376-72.56 60.384-50.608-48.656-47.072-62.944 3.52-14.192 50.416-110.464 15.68-125.712-34.816-15.248-141.12 62.848-141.12 62.848-4.944 2.656-17.552 12.432-15.696 15.696 11.728 20.272 62.672-15.68 62.672-15.68s17.728-14.112 15.68 0c-6.24 42.928-37.36 157.168-31.36 188.64zM612.448 354v-0.08a54.96 54.96 0 0 0-73.28-54.784 54.976 54.976 0 0 0-36.56 49.04 55.04 55.04 0 0 0 52.096 57.824 54.928 54.928 0 0 0 57.744-52z"
          fill="#FFFFFF"/>
</svg>