<?xml version="1.0" standalone="no"?><!DOCTYPE svg PUBLIC "-//W3C//DTD SVG 1.1//EN"
        "http://www.w3.org/Graphics/SVG/1.1/DTD/svg11.dtd">
<svg class="icon" width="200px" height="200.00px" viewBox="0 0 1024 1024" version="1.1"
     xmlns="http://www.w3.org/2000/svg">
    <path d="M770.16 933.44H254.048A125.968 125.968 0 0 1 128 807.44v-591.04a126 126 0 0 1 126.048-126h447.2L896 282.8v524.64a126.048 126.048 0 0 1-125.84 126z"
          fill="#9076F8"/>
    <path d="M701.264 90.4v153.712a42.496 42.496 0 0 0 42.48 42.48H896v-3.792L701.264 90.4z" fill="#C7B0FF"/>
    <path d="M513.392 386.784c-61.856 0-112.048 50.048-112.048 111.856 0 61.728 50.096 111.856 112.048 111.856 61.952 0 112.048-50.128 112.048-111.84a111.888 111.888 0 0 0-112.048-111.872z m-129.28 154.752v-103.264a56.96 56.96 0 0 0-4.176 0.192 146.4 146.4 0 0 1 133.552-86.16 146.4 146.4 0 0 1 133.552 86.16c-1.408-0.096-2.736-0.192-4.16-0.192v103.264a51.616 51.616 0 0 0 51.712-51.584 51.776 51.776 0 0 0-26.512-45.12 163.68 163.68 0 0 0-154.592-109.728c-71.616 0-132.32 45.888-154.592 109.84a51.536 51.536 0 0 0 25.2 96.592z m241.152 59.2a163.584 163.584 0 0 1-111.776 43.968 163.2 163.2 0 0 1-111.584-43.856c-45.936 23.568-77.952 63.168-85.248 116.4-1.712 12.352 7.488 23.472 19.696 23.472h355.392c12.224 0 21.408-11.2 19.712-23.584-7.296-53.216-39.872-92.912-86.192-116.384z"
          fill="#FFFFFF"/>
</svg>