<?xml version="1.0" standalone="no"?><!DOCTYPE svg PUBLIC "-//W3C//DTD SVG 1.1//EN"
        "http://www.w3.org/Graphics/SVG/1.1/DTD/svg11.dtd">
<svg class="icon" width="200px" height="200.00px" viewBox="0 0 1024 1024" version="1.1"
     xmlns="http://www.w3.org/2000/svg">
    <path d="M204.944 915.888C162.464 915.888 128 875.76 128 826.24V378.56h767.856v447.648c0 49.536-34.32 89.664-76.928 89.664H204.944z m97.968-251.152a20.752 20.752 0 0 0-20.752 20.752v62.272a20.768 20.768 0 0 0 20.752 20.752h62.272a20.752 20.752 0 0 0 20.752-20.752v-62.272a20.752 20.752 0 0 0-20.752-20.752h-62.272z m186.816 0a20.752 20.752 0 0 0-20.768 20.752v62.272a20.752 20.752 0 0 0 20.768 20.752h62.256a20.752 20.752 0 0 0 20.768-20.752v-62.272a20.752 20.752 0 0 0-20.768-20.752h-62.272z m0-166.048a20.752 20.752 0 0 0-20.768 20.752v62.272a20.752 20.752 0 0 0 20.768 20.752h62.256a20.752 20.752 0 0 0 20.768-20.752v-62.272a20.752 20.752 0 0 0-20.768-20.752h-62.272z m186.8 0a20.752 20.752 0 0 0-20.752 20.752v62.272a20.752 20.752 0 0 0 20.752 20.752h62.272a20.752 20.752 0 0 0 20.752-20.752v-62.272a20.752 20.752 0 0 0-20.752-20.752h-62.272z m0 166.048a20.752 20.752 0 0 0-20.752 20.752v62.272a20.752 20.752 0 0 0 20.752 20.752h62.272a20.752 20.752 0 0 0 20.752-20.752v-62.272a20.752 20.752 0 0 0-20.752-20.752h-62.272zM371.84 515.904l-52.592 49.12-20.32-18.88a16.672 16.672 0 0 0-21.744 0.624 14.048 14.048 0 0 0-0.688 20.208l33.552 31.344a16.736 16.736 0 0 0 17.376 3.104c2.56-0.752 4.832-2.08 6.848-3.872l62.48-58.32a15.776 15.776 0 0 0 0-23.328 18.688 18.688 0 0 0-24.912 0z"
          fill="#FD9F55"/>
    <path d="M818.992 167.712h-87.664V105.648c0-16.736-11.488-29.536-25.392-29.536-13.84 0-25.328 13.344-25.328 29.536v62.08H339.312v-62.08c0-16.736-11.488-29.536-25.392-29.536-13.84 0-25.328 13.344-25.328 29.536v62.08h-83.52c-42.608 0-76.928 40.112-76.928 89.664v89.248H896v-89.248c-0.064-49.68-34.448-89.68-77.008-89.68z"
          fill="#FECC87"/>
</svg>