<?xml version="1.0" standalone="no"?><!DOCTYPE svg PUBLIC "-//W3C//DTD SVG 1.1//EN"
        "http://www.w3.org/Graphics/SVG/1.1/DTD/svg11.dtd">
<svg class="icon" width="200px" height="200.00px" viewBox="0 0 1024 1024" version="1.1"
     xmlns="http://www.w3.org/2000/svg">
    <path d="M742.72 888.912H281.28a112.672 112.672 0 0 1-112.672-112.656V247.728a112.672 112.672 0 0 1 112.656-112.672h399.904l174.096 172.064v469.12a112.672 112.672 0 0 1-112.528 112.672z"
          fill="#42B4FA"/>
    <path d="M681.296 135.056v137.456a38 38 0 0 0 38 38h136.096v-3.392L681.312 135.04z" fill="#92DBFF"/>
    <path d="M307.856 742.768c13.6 13.184 35.2 13.184 48.784 0l135.664-134.336a38.56 38.56 0 0 0 10.64-26.592 30.608 30.608 0 0 0-8.864-25.712l-135.68-136.56a35.024 35.024 0 0 0-48.768 0c-6.416 6.832-9.92 15.904-9.76 25.28a33.264 33.264 0 0 0 9.76 24.384l110.848 111.28-112.624 112.608a33.264 33.264 0 0 0-9.744 24.384c-0.16 9.376 3.328 18.448 9.76 25.28zM537.088 770.272h106.848a35.472 35.472 0 0 0 0-70.944h-106.848a35.472 35.472 0 0 0 0 70.944z"
          fill="#FFFFFF"/>
</svg>