<?xml version="1.0" standalone="no"?><!DOCTYPE svg PUBLIC "-//W3C//DTD SVG 1.1//EN"
        "http://www.w3.org/Graphics/SVG/1.1/DTD/svg11.dtd">
<svg class="icon" width="200px" height="200.00px" viewBox="0 0 1024 1024" version="1.1"
     xmlns="http://www.w3.org/2000/svg">
    <path d="M182.864 128h72.96a54.848 54.848 0 0 1 54.848 54.864v109.712a54.864 54.864 0 0 1-54.848 54.848h-72.96A54.864 54.864 0 0 1 128 292.576v-109.712A54.864 54.864 0 0 1 182.864 128zM182.864 402.288h72.96a54.848 54.848 0 0 1 54.848 54.848v109.728a54.848 54.848 0 0 1-54.848 54.848h-72.96A54.864 54.864 0 0 1 128 566.88V457.12a54.848 54.848 0 0 1 54.864-54.848z"
          fill="#C7B0FF"/>
    <path d="M841.136 128H411.616a54.864 54.864 0 0 0-54.864 54.864v109.712a54.864 54.864 0 0 0 54.864 54.848H841.12A54.864 54.864 0 0 0 896 292.576v-109.712A54.864 54.864 0 0 0 841.136 128z m0 274.288H411.616a54.864 54.864 0 0 0-54.864 54.848v109.728a54.864 54.864 0 0 0 54.864 54.848H841.12A54.864 54.864 0 0 0 896 566.88V457.12a54.848 54.848 0 0 0-54.864-54.848z m0 274.288H411.616a54.864 54.864 0 0 0-54.864 54.848v109.712A54.864 54.864 0 0 0 411.616 896H841.12A54.864 54.864 0 0 0 896 841.136v-109.712a54.864 54.864 0 0 0-54.864-54.848z"
          fill="#9076F8"/>
    <path d="M182.864 676.576h72.96a54.848 54.848 0 0 1 54.848 54.848v109.712A54.864 54.864 0 0 1 255.84 896h-72.96A54.864 54.864 0 0 1 128 841.136v-109.712a54.864 54.864 0 0 1 54.864-54.848z"
          fill="#C7B0FF"/>
</svg>