<?xml version="1.0" standalone="no"?><!DOCTYPE svg PUBLIC "-//W3C//DTD SVG 1.1//EN"
        "http://www.w3.org/Graphics/SVG/1.1/DTD/svg11.dtd">
<svg class="icon" width="200px" height="200.00px" viewBox="0 0 1024 1024" version="1.1"
     xmlns="http://www.w3.org/2000/svg">
    <path d="M476.976 182.688c39.312 0 71.232 36.464 71.232 81.36v81.36h142.416c39.312 0 71.216 36.464 71.216 81.344 0 44.896-31.904 58.576-71.2 58.576L724.8 670.944c0 44.896-31.904 81.36-71.216 81.36H300.368c-39.312 0-71.216-36.464-71.216-81.36l34.176-185.6c-39.312 0.096-71.2-13.568-71.2-58.464 0-45.008 31.888-81.36 71.2-81.36h142.432v-81.472c0-44.896 31.92-81.36 71.216-81.36zM370.24 508.24c-18.016 0-33.28 15.488-35.328 35.888l-0.24 4.784v81.36c0 21.536 14.72 39.312 33.504 40.56 18.8 1.248 35.2-14.464 37.488-35.776l0.224-4.8v-81.344c0-10.832-3.76-21.2-10.48-28.832-6.72-7.52-15.84-11.84-25.168-11.84z m213.52 0c-18 0-33.28 15.488-35.312 35.888l-0.224 4.784v81.36c0 21.536 14.688 39.312 33.488 40.56 18.8 1.248 35.2-14.464 37.488-35.776l0.24-4.8v-81.344c0-10.832-3.776-21.2-10.496-28.832-6.608-7.52-15.728-11.84-25.184-11.84z m-106.768 0c-18 0-33.28 15.488-35.312 35.888l-0.224 4.784v81.36c0 21.536 14.688 39.312 33.488 40.56 18.8 1.248 35.2-14.464 37.488-35.776l0.224-4.8v-81.344c0-10.832-3.76-21.2-10.48-28.832-6.72-7.52-15.728-11.84-25.184-11.84zM144.576 790.816H839.2c11.056 0 16.592 5.52 16.592 16.576v33.328c0 11.056-5.536 16.592-16.592 16.592H144.576c-11.04 0-16.576-5.536-16.576-16.592v-33.328c0-11.04 5.52-16.576 16.576-16.576z"
          fill="#FB6F5C"/>
    <path d="M784.304 533.632h-124.88a49.44 49.44 0 0 0-42.768 24.704l-62.4 108.112a49.328 49.328 0 0 0 0 49.408l62.4 108.16a49.44 49.44 0 0 0 42.768 24.704h124.88a49.392 49.392 0 0 0 42.768-24.704l62.336-108.16a49.52 49.52 0 0 0 0-49.408l-62.464-108.128a49.408 49.408 0 0 0-42.64-24.688z"
          fill="#FEAFA0"/>
    <path d="M821.344 690.576a15.04 15.04 0 0 0-1.664-7.04c-12.704-24.272-36.384-39.84-37.376-40.48-16.96-11.152-35.392-16.832-54.704-16.864v-0.128c-19.344 0.032-37.76 5.696-54.736 16.88-0.96 0.64-24.688 16.208-37.344 40.448a14.96 14.96 0 0 0-1.696 7.056h-0.032c-0.048 4.032 1.6 6.992 1.696 7.104 12.688 24.272 36.384 39.84 37.344 40.48 16.992 11.168 35.408 16.816 54.72 16.864v0.128c19.36-0.032 37.792-5.712 54.784-16.896 0.976-0.624 24.656-16.192 37.36-40.448a14.992 14.992 0 0 0 1.68-7.104h-0.032z m-93.76 35.136a35.168 35.168 0 1 1 0-70.336 35.168 35.168 0 0 1 0 70.336z"
          fill="#FFFFFF"/>
</svg>