<?xml version="1.0" standalone="no"?><!DOCTYPE svg PUBLIC "-//W3C//DTD SVG 1.1//EN"
        "http://www.w3.org/Graphics/SVG/1.1/DTD/svg11.dtd">
<svg class="icon" width="200px" height="200.00px" viewBox="0 0 1024 1024" version="1.1"
     xmlns="http://www.w3.org/2000/svg">
    <path d="M378.608 192.864h150.8a54.016 54.016 0 1 0 0-108.064h-150.8a54.032 54.032 0 0 0 0 108.064z"
          fill="#C7B0FF"/>
    <path d="M522.384 742.304c28.08-18.304 84.864-25.024 104.4 7.04a242.368 242.368 0 0 0 99.2-142.256 73.264 73.264 0 0 1-41.52-76.32 110.8 110.8 0 0 1 78.464-93.712 97.584 97.584 0 0 1 22.88-2.736V232.848a85.472 85.472 0 0 0-85.456-85.472h-68.08a91.568 91.568 0 0 1-91.568 88.528H372.208a91.584 91.584 0 0 1-91.584-88.528h-67.152A85.472 85.472 0 0 0 128 232.848v558.912a85.472 85.472 0 0 0 85.472 85.776H472.32a67.152 67.152 0 0 1-6.72-28.688 107.44 107.44 0 0 1 56.784-106.544zM262 328.08h367.84a32.656 32.656 0 1 1 0 65.328h-367.84a32.656 32.656 0 0 1 0-65.328z m0 156.592h367.84a32.656 32.656 0 1 1 0 65.328h-367.84a32.656 32.656 0 0 1 0-65.328z m-32.656 188.352a32.672 32.672 0 0 1 32.656-32.672h367.84a32.672 32.672 0 0 1 0 65.328h-367.84a32.64 32.64 0 0 1-32.656-32.656z"
          fill="#9076F8"/>
    <path d="M894.48 527.712a88.832 88.832 0 0 0-105.92-67.76 104.704 104.704 0 0 0-76.624 95.232 67.152 67.152 0 0 0 49.76 58.912 307.68 307.68 0 0 1-118.432 171.856c-19.536-30.512-49.76-30.512-82.416-24.416a91.584 91.584 0 0 0 40.288 177.056 111.68 111.68 0 0 0 18.016-5.2c139.792-58 239.92-183.152 274.72-366.304v-3.968c2.608-11.632 2.816-23.68 0.608-35.408z"
          fill="#C7B0FF"/>
</svg>