<?xml version="1.0" standalone="no"?><!DOCTYPE svg PUBLIC "-//W3C//DTD SVG 1.1//EN"
        "http://www.w3.org/Graphics/SVG/1.1/DTD/svg11.dtd">
<svg class="icon" width="200px" height="200.00px" viewBox="0 0 1024 1024" version="1.1"
     xmlns="http://www.w3.org/2000/svg">
    <path d="M238.192 128H735.36c61.168 0 91.744 30.576 91.744 91.744v563.584c0 61.168-30.576 91.76-91.744 91.76H238.192c-61.152 0-91.744-30.592-91.744-91.744V219.728C146.448 158.576 177.04 128 238.192 128z"
          fill="#FDBA54"/>
    <path d="M516.832 532.32H304.864a36.864 36.864 0 1 1 0-73.744h211.968a36.864 36.864 0 1 1 0 73.728z m134.768-163.6H304.912a36.864 36.864 0 1 1 0-73.728h346.688a36.864 36.864 0 1 1 0 73.728z"
          fill="#FFFFFF"/>
    <path d="M513.888 714.144a181.824 181.824 0 1 0 363.648 0 181.824 181.824 0 0 0-363.648 0z" fill="#FFDE8D"/>
    <path d="M694.24 603.248c15.008 0 27.2 13.92 27.2 31.072v31.072h54.384c15.008 0 27.2 13.92 27.2 31.056 0 17.152-12.192 22.368-27.2 22.368l13.056 70.88c0 17.152-12.192 31.072-27.2 31.072h-134.896c-15.008 0-27.2-13.92-27.2-31.056l13.056-70.88c-15.008 0.032-27.2-5.184-27.2-22.336 0-17.184 12.192-31.056 27.2-31.056h54.4v-31.12c0-17.152 12.176-31.072 27.2-31.072z m-40.784 124.32c-6.88 0-12.704 5.92-13.488 13.712l-0.08 1.824v31.072c0 8.224 5.6 15.008 12.8 15.488 7.168 0.48 13.44-5.52 14.304-13.664l0.08-1.824v-31.072c0-4.128-1.44-8.096-4-11.008a13.008 13.008 0 0 0-9.6-4.528z m81.552 0c-6.88 0-12.704 5.92-13.488 13.712l-0.096 1.824v31.072c0 8.224 5.6 15.008 12.8 15.488 7.168 0.48 13.44-5.52 14.304-13.664l0.096-1.824v-31.072c0-4.128-1.44-8.096-4-11.008a12.864 12.864 0 0 0-9.616-4.528z m-40.784 0c-6.88 0-12.704 5.92-13.488 13.712l-0.08 1.824v31.072c0 8.224 5.6 15.008 12.8 15.488 7.168 0.48 13.44-5.52 14.304-13.664l0.096-1.824v-31.072c0-4.128-1.44-8.096-4-11.008a12.944 12.944 0 0 0-9.632-4.528z"
          fill="#FFFFFF"/>
</svg>