<?xml version="1.0" standalone="no"?><!DOCTYPE svg PUBLIC "-//W3C//DTD SVG 1.1//EN"
        "http://www.w3.org/Graphics/SVG/1.1/DTD/svg11.dtd">
<svg class="icon" width="200px" height="200.00px" viewBox="0 0 1024 1024" version="1.1"
     xmlns="http://www.w3.org/2000/svg">
    <path d="M882.208 466.24h-183.2a45.792 45.792 0 1 0 0 91.584h183.2a45.792 45.792 0 1 0 0-91.584z m-29.04 258.016l-118.976-68.704a45.792 45.792 0 0 0-45.808 79.328l118.992 68.688a45.808 45.808 0 0 0 45.792-79.312z m-153.616-351.36c11.68 3.152 24.128 1.584 34.64-4.4l118.976-68.688a45.808 45.808 0 0 0-45.792-79.328l-118.992 68.704a45.792 45.792 0 0 0 11.168 83.696z"
          fill="#FFA4A4"/>
    <path d="M269.44 291.6a539.84 539.84 0 0 1 52.432-63.6c58.4-60.464 123.152-97.6 193.952-97.6a38.144 38.144 0 0 1 38.144 38.144V855.52a38.144 38.144 0 0 1-38.144 38.16c-70.992 0-135.792-37.792-194.176-99.296a549.216 549.216 0 0 1-59.824-75.52h-89.488A76.336 76.336 0 0 1 96 642.56V378.672a76.384 76.384 0 0 1 76.336-76.352h89.68l7.424-10.72z"
          fill="#F66462"/>
</svg>