<?xml version="1.0" standalone="no"?><!DOCTYPE svg PUBLIC "-//W3C//DTD SVG 1.1//EN"
        "http://www.w3.org/Graphics/SVG/1.1/DTD/svg11.dtd">
<svg class="icon" width="200px" height="200.00px" viewBox="0 0 1024 1024" version="1.1"
     xmlns="http://www.w3.org/2000/svg">
    <path d="M182.032 128h659.936c35.2 0 66 30.8 66 66v461.952c0 35.2-30.8 65.984-66 65.984H182.032c-35.2 0-66-30.784-66-65.984V194C116.032 158.8 146.832 128 182.032 128z m57.2 299.168l105.584 114.4 52.8-48.4-74.8-83.6 74.8-83.584-57.2-52.8-39.6 44-65.984 74.784v4.4c-4.4 0-4.4 4.4-4.4 4.4v17.6c4.4 0 4.4 4.4 4.4 4.4l4.4 4.4z m206.768 118.784h70.4l70.4-263.968h-70.4l-70.4 263.968z m343.168-123.184s4.4-4.4 4.4-8.8v-13.2c-4.4 0-4.4-4.4-4.4-4.4L723.2 321.6l-39.6-44-52.8 48.4 70.4 83.584-74.8 83.6 52.8 48.384 105.6-114.384c4.384 0 4.384-4.4 4.384-4.4z"
          fill="#42B4FA"/>
    <path d="M182.032 896h659.936c35.2 0 66-30.8 66-66s-30.8-65.984-66-65.984H182.032c-35.2 0-66 30.8-66 65.984 0 35.2 30.8 66 66 66z"
          fill="#92DBFF"/>
</svg>