<?xml version="1.0" standalone="no"?><!DOCTYPE svg PUBLIC "-//W3C//DTD SVG 1.1//EN"
        "http://www.w3.org/Graphics/SVG/1.1/DTD/svg11.dtd">
<svg class="icon" width="200px" height="200.00px" viewBox="0 0 1024 1024" version="1.1"
     xmlns="http://www.w3.org/2000/svg">
    <path d="M782.016 867.696V254.4a49.264 49.264 0 0 0-49.12-49.04H193.136a49.2 49.2 0 0 0-49.04 49.04V867.68a49.2 49.2 0 0 0 49.04 49.04h539.84a49.2 49.2 0 0 0 49.04-49.04z"
          fill="#F66462"/>
    <path d="M831.056 892.304V205.344a49.2 49.2 0 0 0-49.04-49.04H242.256a49.2 49.2 0 0 1 49.04-49.04h539.76a49.2 49.2 0 0 1 49.04 49.04v686.96a49.2 49.2 0 0 1-49.04 49.04z"
          fill="#FFA4A4"/>
    <path d="M353.92 489.904c0 10.112 6.032 18.208 16.08 18.208h62.368v26.32h-62.368c-8.048 2.016-16.096 8.096-16.096 18.208 0 10.128 6.048 18.224 16.096 18.224h58.352v18.208c0 14.176 12.064 26.32 26.16 26.32s26.176-12.144 26.176-26.32V570.88h62.368c8.048-2.032 16.096-8.096 16.096-18.224 0-10.112-6.048-18.208-16.096-18.208h-62.384v-26.32h62.384c8.048-2.016 16.096-8.096 16.096-18.208 0-10.128-6.048-18.224-16.096-18.224H500.8l2.016-2.032 46.272-74.88c8.064-12.16 4.032-28.336-8.048-36.432-12.08-8.096-28.16-4.048-36.224 8.096l-46.272 74.88c0 4.048-2.016 6.08-2.016 8.096 0-4.048 0-6.064-2.016-8.096l-46.272-74.88c-4.032-8.096-12.08-12.16-22.144-12.16-10.048 0-18.112 6.08-22.128 14.176a30.176 30.176 0 0 0 0 26.32l46.272 74.88 2.032 2.032h-42.272c-8.048 2.032-16.096 8.096-16.096 18.224zM325.744 797.568h265.6c12.08-2.032 20.144-10.128 20.144-20.24 0-10.128-10.08-20.256-20.144-20.256h-265.6c-12.096 0-20.128 10.128-20.128 20.256 0 10.112 10.064 20.24 20.128 20.24zM325.744 712.544h265.6c12.08 0 20.144-10.112 20.144-20.24 0-10.112-10.08-20.24-20.144-20.24h-265.6c-12.096 0-20.128 10.128-20.128 20.24 0 10.128 10.064 20.24 20.128 20.24z"
          fill="#FFFFFF"/>
</svg>