<?xml version="1.0" standalone="no"?><!DOCTYPE svg PUBLIC "-//W3C//DTD SVG 1.1//EN"
        "http://www.w3.org/Graphics/SVG/1.1/DTD/svg11.dtd">
<svg class="icon" width="200px" height="200.00px" viewBox="0 0 1024 1024" version="1.1"
     xmlns="http://www.w3.org/2000/svg">
    <path d="M730.4 96c64 0 116.8 52.8 116.8 118.4l-3.2 315.2c-48-44.8-110.4-70.4-176-70.4-142.4 0-257.6 116.8-257.6 259.2 0 40 9.6 80 27.2 116.8s43.2 67.2 76.8 91.2l-248 1.6c-64 0-116.8-52.8-116.8-118.4V214.4c0-65.6 51.2-118.4 116.8-118.4h464z m-313.6 336h-123.2c-8 0-16 3.2-20.8 8-3.2 3.2-4.8 6.4-6.4 9.6-1.6 3.2-1.6 8-1.6 11.2 0 3.2 0 8 1.6 11.2 1.6 3.2 3.2 6.4 6.4 9.6 4.8 8 12.8 11.2 20.8 11.2h123.2c16 0 30.4-12.8 30.4-30.4 0-16-14.4-30.4-30.4-30.4z m294.4-158.4h-417.6c-16 0-30.4 12.8-30.4 30.4 0 17.6 14.4 30.4 30.4 30.4h417.6c16 0 30.4-12.8 30.4-30.4 0-17.6-14.4-30.4-30.4-30.4z"
          fill="#3DD5BB"/>
    <path d="M670.4 512C556.8 512 464 604.8 464 720s92.8 208 206.4 208c113.6 0 206.4-92.8 206.4-208S784 512 670.4 512z m-62.592 178.528l58.224-72.384a5.536 5.536 0 0 1 8.736 0l58.24 72.384c3.2 4 0.56 10.144-4.384 10.144h-27.488v110.208c0 7.232-5.504 13.12-12.288 13.12h-36.88c-6.784 0-12.288-5.888-12.288-13.12v-110.176h-27.52c-4.912 0-7.552-6.176-4.352-10.176z"
          fill="#ADF0EA"/>
</svg>