<?xml version="1.0" standalone="no"?><!DOCTYPE svg PUBLIC "-//W3C//DTD SVG 1.1//EN"
        "http://www.w3.org/Graphics/SVG/1.1/DTD/svg11.dtd">
<svg class="icon" width="200px" height="200.00px" viewBox="0 0 1024 1024" version="1.1"
     xmlns="http://www.w3.org/2000/svg">
    <path d="M725.712 179.456l181.232 313.776a37.344 37.344 0 0 1 0 37.536L725.712 844.56a37.616 37.616 0 0 1-32.56 18.768H330.848a37.616 37.616 0 0 1-32.56-18.768L117.056 530.784a37.344 37.344 0 0 1 0-37.552l181.232-313.776a37.616 37.616 0 0 1 32.56-18.768h362.304c13.488 0 25.808 7.184 32.56 18.768z m89.44 337.248l14.816-55.136a18.768 18.768 0 0 0-13.2-23.024 18.912 18.912 0 0 0-23.024 13.344l-3.072 11.44-123.616-213.92A18.656 18.656 0 0 0 650.784 240H358.4c-6.752 0-12.912 3.52-16.288 9.376l-146.176 253.232c-3.376 5.856-3.376 12.896 0 18.768l146.176 253.232c3.376 5.856 9.536 9.376 16.288 9.376h292.368c6.752 0 12.896-3.52 16.272-9.376l110.72-191.648a18.88 18.88 0 0 0-6.912-25.664 18.88 18.88 0 0 0-25.648 6.88l-105.28 182.272H369.264L233.92 512l135.344-234.592h270.672l118.176 204.544-11.44-3.088a18.912 18.912 0 0 0-23.008 13.344c-2.64 9.968 3.36 20.384 13.344 23.04l55.264 14.8c1.616 0.432 3.232 0.576 4.848 0.576 0.224 0 0.48-0.032 0.736-0.064 0.256-0.048 0.512-0.08 0.72-0.08 0.592 0 1.04 0 1.616-0.144 2.208-0.288 4.256-1.024 6.16-2.048h0.16a15.456 15.456 0 0 0 3.072-2.64l0.576-0.592c0.24-0.24 0.512-0.448 0.768-0.656a5.888 5.888 0 0 0 0.992-0.96c1.472-2.048 2.64-4.4 3.232-6.736z m-310.4 126.08c72.128 0 130.784-58.64 130.784-130.784 0-72.128-58.656-130.784-130.8-130.784-72.128 0-130.784 58.656-130.784 130.784 0 72.16 58.656 130.8 130.784 130.8z"
          fill="#F66462"/>
    <path d="M411.488 512a93.264 93.264 0 1 0 186.528 0.016 93.264 93.264 0 0 0-186.528 0z" fill="#FFA4A4"/>
</svg>