<?xml version="1.0" standalone="no"?><!DOCTYPE svg PUBLIC "-//W3C//DTD SVG 1.1//EN"
        "http://www.w3.org/Graphics/SVG/1.1/DTD/svg11.dtd">
<svg class="icon" width="200px" height="200.00px" viewBox="0 0 1024 1024" version="1.1"
     xmlns="http://www.w3.org/2000/svg">
    <path d="M349.696 160c-61.584 0-89.024 34.688-98.704 63.664-6.864 20.64-34.88 107.36-34.88 107.36H142.816c-20.912 0-28.832 6.864-28.832 17.504v22.48c0 13.808 19.888 21.408 31.728 21.408h14.416a53.008 53.008 0 0 0-11.648 24.736c-2.576 14.928-11.84 66.384-11.84 157.488v148.72a29.344 29.344 0 0 0 29.344 29.296h86.048a29.344 29.344 0 0 0 29.328-29.28v-53.024H699.04v53.008a29.344 29.344 0 0 0 29.344 29.296H814.4a29.344 29.344 0 0 0 29.344-29.28v-148.736c0-91.104-9.216-142.56-11.84-157.488a53.008 53.008 0 0 0-11.648-24.736h14.4c11.84 0 31.744-7.68 31.744-21.408v-22.48c0-10.64-7.92-17.504-28.832-17.504h-73.328s-27.904-86.72-34.768-107.36C719.712 194.72 692.256 160 630.672 160h-280.96z"
          fill="#3DD5BB"/>
    <path d="M416.896 508.576h146.56c11.648 0 17.456 5.824 17.456 17.456v40.592c0 11.632-5.808 17.44-17.44 17.44h-146.56c-11.648 0-17.472-5.808-17.472-17.44v-40.592c0-11.632 5.824-17.44 17.456-17.44zM232.624 553.856a53.84 53.84 0 1 0 107.68 0 53.84 53.84 0 0 0-107.68 0zM640.992 553.856a53.84 53.84 0 1 0 107.68 0 53.84 53.84 0 0 0-107.68 0zM262.416 347.52l30.352-104a24.448 24.448 0 0 1 23.504-17.648h346.64a24.496 24.496 0 0 1 23.536 17.632l30.352 104a36.848 36.848 0 0 1-35.456 47.168H297.792a36.848 36.848 0 0 1-35.36-47.152z"
          fill="#FFFFFF"/>
    <path d="M113.968 783.328h752.48c11.984 0 17.968 5.984 17.968 17.968v36.096c0 11.984-5.984 17.968-17.968 17.968H113.968C101.984 855.36 96 849.376 96 837.392V801.28c0-11.968 5.984-17.952 17.968-17.952z"
          fill="#ADF0EA"/>
</svg>