<?xml version="1.0" standalone="no"?><!DOCTYPE svg PUBLIC "-//W3C//DTD SVG 1.1//EN"
        "http://www.w3.org/Graphics/SVG/1.1/DTD/svg11.dtd">
<svg class="icon" width="200px" height="200.00px" viewBox="0 0 1024 1024" version="1.1"
     xmlns="http://www.w3.org/2000/svg">
    <path d="M730.4 96c64 0 116.8 52.8 116.8 118.4l-3.2 315.2c-48-44.8-110.4-70.4-176-70.4-142.4 0-257.6 116.8-257.6 259.2 0 40 9.6 80 27.2 116.8s43.2 67.2 76.8 91.2l-248 1.6c-64 0-116.8-52.8-116.8-118.4V214.4c0-65.6 51.2-118.4 116.8-118.4h464z m-313.6 336h-123.2c-8 0-16 3.2-20.8 8-3.2 3.2-4.8 6.4-6.4 9.6-1.6 3.2-1.6 8-1.6 11.2 0 3.2 0 8 1.6 11.2 1.6 3.2 3.2 6.4 6.4 9.6 4.8 8 12.8 11.2 20.8 11.2h123.2c16 0 30.4-12.8 30.4-30.4 0-16-14.4-30.4-30.4-30.4z m294.4-158.4h-417.6c-16 0-30.4 12.8-30.4 30.4 0 17.6 14.4 30.4 30.4 30.4h417.6c16 0 30.4-12.8 30.4-30.4 0-17.6-14.4-30.4-30.4-30.4z"
          fill="#F66462"/>
    <path d="M668 512c-113.6 0-206.4 92.8-206.4 208s92.8 208 206.4 208c113.6 0 206.4-92.8 206.4-208s-92.8-208-206.4-208z m78.4 254.4h-49.6c-8 0-14.4 6.4-14.4 14.4v27.2c0 6.4-4.8 14.4-11.2 14.4-4.8 0-8 0-11.2-3.2-3.2-3.2-4.8-6.4-4.8-11.2v-28.8c0-8-6.4-14.4-14.4-14.4h-49.6c-6.4 0-14.4-4.8-14.4-11.2 0-4.8 0-8 3.2-11.2 3.2-3.2 6.4-4.8 11.2-4.8h49.6c8 0 14.4-6.4 14.4-14.4s-6.4-14.4-14.4-14.4h-49.6c-6.4 0-14.4-4.8-14.4-11.2 0-4.8 0-8 3.2-11.2 3.2-3.2 6.4-4.8 11.2-4.8h27.2c6.4 0 9.6-8 4.8-12.8l-27.2-27.2c-4.8-4.8-6.4-12.8-1.6-19.2 1.6-3.2 6.4-6.4 9.6-6.4 4.8 0 8 1.6 11.2 4.8l44.8 44.8c6.4 4.8 14.4 4.8 20.8 0l43.2-43.2c4.8-4.8 12.8-6.4 19.2-1.6 3.2 1.6 6.4 6.4 6.4 9.6 0 4.8-1.6 8-4.8 11.2l-27.2 27.2c-4.8 4.8-1.6 12.8 4.8 12.8h25.6c6.4 0 14.4 4.8 14.4 11.2 0 4.8 0 8-3.2 11.2-3.2 3.2-6.4 4.8-11.2 4.8h-49.6c-8 0-14.4 6.4-14.4 14.4s6.4 14.4 14.4 14.4h49.6c4.8 0 8 1.6 11.2 4.8 3.2 3.2 3.2 8 3.2 11.2-3.2 8-9.6 12.8-16 12.8z"
          fill="#FFA4A4"/>
</svg>