<?xml version="1.0" standalone="no"?><!DOCTYPE svg PUBLIC "-//W3C//DTD SVG 1.1//EN"
        "http://www.w3.org/Graphics/SVG/1.1/DTD/svg11.dtd">
<svg class="icon" width="200px" height="200.00px" viewBox="0 0 1024 1024" version="1.1"
     xmlns="http://www.w3.org/2000/svg">
    <path d="M122.912 677.136l0.192 5.456c6.416 82.704 158.672 133.856 345.632 133.856 17.44 0 34.624-0.432 51.44-1.296a256.848 256.848 0 0 0 56.416 97.328c-33.952 4.96-70.192 7.68-107.856 7.68-190.96 0-345.824-69.632-345.824-155.504v-87.52z m0-155.456c0 85.856 154.832 139.28 345.824 139.28 17.6 0 34.848-0.448 51.744-1.36a255.2 255.2 0 0 0-10.912 103.952c-13.6 0.736-27.216 1.104-40.832 1.12-190.992 0-345.824-69.648-345.824-155.52v-87.472z m691.552-155.536v87.472c0 10.496-2.288 20.704-6.688 30.592a257.024 257.024 0 0 0-262.72 121.072c-24.528 2.528-50.048 3.84-76.32 3.84-190.992 0-345.824-69.632-345.824-155.504v-87.472c0 85.888 154.832 139.312 345.824 139.312 190.992 0 345.76-53.424 345.728-139.312zM468.736 90.752c190.992 0 345.76 69.632 345.76 155.504v51.872c0 85.856-154.816 155.488-345.76 155.488-190.992 0-345.824-69.632-345.824-155.488v-51.84c0-85.904 154.832-155.504 345.824-155.504v-0.032z"
          fill="#FD9F55"/>
    <path d="M855.296 737.312c19.68 0 35.616 14.336 35.616 31.968 0 16.272-13.6 29.728-31.136 31.696l-4.48 0.24h-150.912l22.24 21.568a29.68 29.68 0 0 1-1.968 45.12 38.768 38.768 0 0 1-46.848 1.216l-3.488-2.976-77.44-75.168a31.84 31.84 0 0 1-8.896-16.032 28 28 0 0 1-0.56-5.648v-0.4c0.016-0.896 0.064-1.792 0.16-2.688l-0.16 3.088a28.96 28.96 0 0 1 5.856-17.568 34.88 34.88 0 0 1 8.704-8.24l-3.12 2.336c4.64-3.888 10.224-6.528 16.176-7.68 1.184-0.224 2.368-0.416 3.568-0.544l0.48-0.08 2.528-0.16h233.68v-0.048z m-54.8-170.176l3.568 2.976 77.392 75.168c4.48 4.352 7.568 9.92 8.896 16.032 0.384 1.856 0.56 3.76 0.56 5.648v0.4c0 0.896-0.064 1.792-0.16 2.688l0.16-3.088a28.96 28.96 0 0 1-5.856 17.568 34.832 34.832 0 0 1-8.384 8l-0.992 0.64c-4.8 3.04-10.24 4.928-15.904 5.536H859.2c-0.848 0.096-1.68 0.16-2.528 0.192H623.04c-19.664 0-35.616-14.288-35.616-31.92 0-16.272 13.584-29.728 31.152-31.696l4.464-0.24h150.88l-22.176-21.568a29.68 29.68 0 0 1 1.984-45.12 38.768 38.768 0 0 1 46.768-1.216z"
          fill="#FECC87"/>
</svg>