<?xml version="1.0" standalone="no"?><!DOCTYPE svg PUBLIC "-//W3C//DTD SVG 1.1//EN"
        "http://www.w3.org/Graphics/SVG/1.1/DTD/svg11.dtd">
<svg class="icon" width="200px" height="200.00px" viewBox="0 0 1024 1024" version="1.1"
     xmlns="http://www.w3.org/2000/svg">
    <path fill="#bfbfbf"
          d="M858.656 864 165.344 864C109.472 864 64 818.56 64 762.688L64 261.312C64 205.44 109.472 160 165.344 160l693.312 0C914.528 160 960 205.44 960 261.312l0 501.376C960 818.56 914.528 864 858.656 864zM165.344 224C144.736 224 128 240.736 128 261.312l0 501.376C128 783.264 144.736 800 165.344 800l693.312 0C879.264 800 896 783.264 896 762.688L896 261.312C896 240.736 879.264 224 858.656 224L165.344 224zM800 416 224 416c-17.664 0-32-14.336-32-32s14.336-32 32-32l576 0c17.696 0 32 14.336 32 32S817.696 416 800 416zM320 736 224 736c-17.664 0-32-14.304-32-32s14.336-32 32-32l96 0c17.664 0 32 14.304 32 32S337.664 736 320 736z"/>
</svg>