<?xml version="1.0" standalone="no"?><!DOCTYPE svg PUBLIC "-//W3C//DTD SVG 1.1//EN"
        "http://www.w3.org/Graphics/SVG/1.1/DTD/svg11.dtd">
<svg class="icon" width="200px" height="200.00px" viewBox="0 0 1024 1024" version="1.1"
     xmlns="http://www.w3.org/2000/svg">
    <path fill="#bfbfbf"
          d="M512 672c-17.664 0-32-14.304-32-32l0-96c0-17.664 14.336-32 32-32s32 14.336 32 32l0 96C544 657.696 529.664 672 512 672z"/>
    <path fill="#bfbfbf"
          d="M828.16 208.8C822.592 198.464 811.744 192 800 192L224 192C212.192 192 201.344 198.496 195.776 208.896c-5.568 10.4-4.96 23.04 1.6 32.832L320 425.696 320 576l0 32.032L320 864c0 52.928 43.072 96 96 96l192 0c52.928 0 96-43.072 96-96l0-244.864c0-0.16 0-0.32 0-0.48l0-190.624 122.688-186.464C833.12 231.744 833.76 219.168 828.16 208.8zM645.312 400.896C641.92 406.112 640 412.224 640 418.464l0 157.024c0 0.192 0 0.32 0 0.512l0 288c0 17.664-14.336 32-32 32l-192 0c-17.632 0-32-14.336-32-32l0-255.968L384 576l0-160c0-6.304-1.888-12.512-5.376-17.76L283.808 256l456.864 0L645.312 400.896z"/>
    <path fill="#bfbfbf"
          d="M608 160l-192 0c-17.664 0-32-14.336-32-32s14.336-32 32-32l192 0c17.696 0 32 14.336 32 32S625.696 160 608 160z"/>
</svg>