<?xml version="1.0" standalone="no"?><!DOCTYPE svg PUBLIC "-//W3C//DTD SVG 1.1//EN"
        "http://www.w3.org/Graphics/SVG/1.1/DTD/svg11.dtd">
<svg class="icon" width="200px" height="200.00px" viewBox="0 0 1024 1024" version="1.1"
     xmlns="http://www.w3.org/2000/svg">
    <path fill="#bfbfbf"
          d="M512 544l-192 0c-17.664 0-32-14.336-32-32l0-192c0-17.664 14.336-32 32-32l192 0c17.664 0 32 14.336 32 32l0 192C544 529.664 529.664 544 512 544zM352 480l128 0 0-128-128 0L352 480zM608 640l-160 0c-17.664 0-32-14.304-32-32s14.336-32 32-32l128 0 0-128c0-17.664 14.304-32 32-32s32 14.336 32 32l0 160C640 625.696 625.696 640 608 640zM896 928c-8.192 0-16.384-3.136-22.624-9.376l-167.104-167.104c-12.512-12.512-12.512-32.736 0-45.248C766.72 645.824 800 565.44 800 480c0-176.448-143.552-320-320-320C303.552 160 160 303.552 160 480c0 176.448 143.552 320 320 320 39.328 0 77.76-7.072 114.176-20.96 16.448-6.24 35.008 1.984 41.312 18.496 6.272 16.512-1.984 35.008-18.496 41.312C573.28 855.52 527.2 864 480 864 268.256 864 96 691.744 96 480 96 268.256 268.256 96 480 96c211.744 0 384 172.256 384 384 0 91.808-32 178.72-90.784 247.968l145.408 145.408c12.512 12.512 12.512 32.736 0 45.248C912.384 924.864 904.192 928 896 928z"/>
</svg>