<?xml version="1.0" standalone="no"?><!DOCTYPE svg PUBLIC "-//W3C//DTD SVG 1.1//EN"
        "http://www.w3.org/Graphics/SVG/1.1/DTD/svg11.dtd">
<svg class="icon" width="200px" height="200.00px" viewBox="0 0 1024 1024" version="1.1"
     xmlns="http://www.w3.org/2000/svg">
    <path fill="#bfbfbf"
          d="M960.224 829.056l-42.688-417.376c-5.664-47.936-46.752-94.656-93.792-106.432l-4.416-0.864C807.008 301.28 800 284.96 800 255.872l0-64C800 138.944 758.432 96 705.504 96l-32.032 0C620.544 96 576 131.776 576 175.872l0 48c0 17.664 14.304 32 32 32s32-14.336 32-32l0-48C640 170.368 653.952 160 673.472 160l32.032 0C723.168 160 736 174.24 736 191.872l0 64c0 81.568 42.752 104.288 67.968 110.624l4.032 0.896c21.28 5.344 43.232 30.016 45.728 51.296L886.368 736l-203.136 0-9.984-99.552C668.192 585.44 622.336 544 571.072 544l-124.8 0c-34.208 0-90.752 41.376-95.84 92.448L340.48 736 136.704 736l20.192-320c2.848-24.288 25.376-56.352 47.392-67.328l12.64-6.72C258.528 321.184 288 271.52 288 223.904l0-32C288 174.24 303.776 160 321.408 160l32 0C371.072 160 384 174.24 384 191.904l0 60.8C384 307.392 421.312 352 465.408 352l112 0c17.696 0 32-14.336 32-32s-14.304-32-32-32l-112 0C462.016 288 448 275.072 448 252.672l0-60.8C448 138.944 406.368 96 353.408 96l-32 0C268.48 96 224 138.944 224 191.904l0 32c0 23.488-15.584 50.752-35.744 60.832l-13.024 6.72C133.76 312.128 98.624 362.464 93.024 410.24L66.688 828.576c-3.04 25.728 4.8 51.296 21.408 69.984C104.704 917.216 129.152 928 155.072 928l137.568 0c51.264 0 97.12-41.568 102.208-92.576l19.264-192.608C415.648 627.328 439.584 608 446.272 608l124.8 0c18.688 0 36.672 16.224 38.528 34.816l19.264 192.672C633.952 886.464 679.808 928 731.072 928l140.8 0c25.92 0 50.272-10.784 66.912-29.472S963.2 854.272 960.224 829.056zM292.64 864 155.072 864c-7.744 0-14.528-2.88-19.072-8-4.544-5.088-6.56-12.192-5.472-21.632L132.672 800l201.376 0-2.88 29.056C329.312 847.648 311.328 864 292.64 864zM890.976 856C886.4 861.12 879.616 864 871.872 864l-140.8 0c-18.656 0-36.672-16.352-38.528-34.944L689.632 800l203.296 0 3.68 36.096C897.504 843.808 895.488 850.912 890.976 856z"/>
</svg>