<?xml version="1.0" standalone="no"?><!DOCTYPE svg PUBLIC "-//W3C//DTD SVG 1.1//EN"
        "http://www.w3.org/Graphics/SVG/1.1/DTD/svg11.dtd">
<svg class="icon" width="200px" height="200.00px" viewBox="0 0 1024 1024" version="1.1"
     xmlns="http://www.w3.org/2000/svg">
    <path fill="#bfbfbf"
          d="M864.032 192 512 192c-17.664 0-32 14.336-32 32s14.336 32 32 32l352.032 0C881.696 256 896 270.368 896 288l0 512c0 17.664-14.304 32-31.968 32L160 832c-17.632 0-32-14.336-32-32L128 288c0-17.632 14.368-32 32-32l96 0c17.664 0 32-14.336 32-32S273.664 192 256 192L160 192C107.072 192 64 235.072 64 288l0 512c0 52.928 43.072 96 96 96l704.032 0C916.96 896 960 852.928 960 800L960 288C960 235.072 916.96 192 864.032 192z"/>
    <path fill="#bfbfbf"
          d="M320 160l128 0c17.696 0 32-14.304 32-32s-14.304-32-32-32l-128 0C302.304 96 288 110.304 288 128S302.304 160 320 160z"/>
    <path fill="#bfbfbf"
          d="M399.84 731.584c5.12 3.008 10.72 4.448 16.256 4.448 10.944 0 21.6-5.632 27.584-15.712 8.992-15.232 3.968-34.848-11.264-43.84-46.656-27.552-75.648-78.336-75.648-132.48s28.96-104.864 75.584-132.416c15.232-8.992 20.256-28.608 11.264-43.84-7.552-12.736-22.4-17.792-36-14.016l-158.048 32.576c-17.312 3.552-28.448 20.48-24.896 37.792 3.136 15.136 16.448 25.536 31.328 25.536 2.144 0 4.32-0.192 6.496-0.672l58.656-12.064C302.88 469.152 292.736 505.984 292.736 544 292.736 620.672 333.76 692.544 399.84 731.584z"/>
    <path fill="#bfbfbf"
          d="M621.728 355.328c-15.36-8.768-34.88-3.488-43.68 11.872-8.768 15.328-3.456 34.88 11.872 43.68 47.616 27.296 77.216 78.304 77.216 133.12 0 53.664-28.672 104.096-74.784 131.648-15.2 9.056-20.128 28.704-11.072 43.872 3.424 5.76 8.448 9.824 14.08 12.448 5.312 3.68 11.616 5.792 18.176 5.792 4.064 0 8.16-0.736 12.16-2.4l154.976-63.552c16.352-6.688 24.16-25.376 17.44-41.76-6.688-16.352-25.344-24.256-41.76-17.44l-43.648 17.92c11.776-27.008 18.4-56.352 18.4-86.496C731.136 466.272 689.216 393.984 621.728 355.328z"/>
</svg>