<?xml version="1.0" standalone="no"?><!DOCTYPE svg PUBLIC "-//W3C//DTD SVG 1.1//EN"
        "http://www.w3.org/Graphics/SVG/1.1/DTD/svg11.dtd">
<svg class="icon" width="200px" height="200.00px" viewBox="0 0 1024 1024" version="1.1"
     xmlns="http://www.w3.org/2000/svg">
    <path fill="#bfbfbf"
          d="M985.984 589.984c-10.304-14.304-30.272-17.568-44.672-7.296l-56.928 40.992c9.856-35.872 15.04-73.024 15.04-110.72 0-229.952-187.104-417.024-417.056-417.024-229.984 0-417.056 187.072-417.056 417.024 0 229.952 187.104 417.024 417.056 417.024 72.736 0 144-19.104 206.688-55.008 3.36-0.672 6.688-1.76 9.824-3.616 17.952-10.688 35.136-22.784 51.168-35.936 13.632-11.264 15.584-31.392 4.384-45.056-11.264-13.632-31.36-15.616-45.056-4.384-12.544 10.304-26.08 19.616-40.064 28.16-2.144 0.704-4.352 1.024-6.368 2.24-54.368 32.448-116.8 49.6-180.544 49.6-194.656 0-353.056-158.368-353.056-353.024S287.68 159.936 482.368 159.936 835.392 318.304 835.392 512.96c0 44.16-8.192 87.552-24 128.192l-45.28-108.704c-6.816-16.352-25.568-23.968-41.856-17.248-16.32 6.784-24.032 25.536-17.216 41.856l72 172.864c0.736 1.824 1.888 3.328 2.944 4.96 0.288 0.448 0.32 0.96 0.64 1.408 0.096 0.16 0.288 0.192 0.384 0.352 2.752 3.648 6.24 6.496 10.208 8.704 0.704 0.384 1.344 0.768 2.08 1.088 3.328 1.536 6.848 2.72 10.624 3.04 0.64 0.064 1.216-0.096 1.856-0.064 0.32 0 0.576 0.192 0.832 0.192 0.672 0 1.312-0.256 1.984-0.32 2.4-0.096 4.736-0.448 7.008-1.056 0.512-0.16 0.96-0.352 1.44-0.512 2.592-0.896 5.024-2.112 7.296-3.648 0.32-0.224 0.672-0.288 0.96-0.512l151.392-108.96C993.024 624.32 996.288 604.32 985.984 589.984zM606.752 374.496c12.672-12.288 13.024-32.544 0.736-45.248-12.288-12.672-32.512-13.056-45.248-0.736l-79.744 77.12-79.744-77.12c-12.704-12.288-32.992-11.968-45.248 0.736-12.288 12.704-11.968 32.96 0.736 45.248L448 461.28 448 480l-64 0c-17.664 0-32 14.336-32 32s14.336 32 32 32l64 0 0 32-64 0c-17.664 0-32 14.304-32 32s14.336 32 32 32l64 0 0 67.264c0 17.696 14.336 32 32 32s32-14.304 32-32L512 640l64 0c17.696 0 32-14.304 32-32s-14.304-32-32-32l-64 0 0-32 64 0c17.696 0 32-14.336 32-32s-14.304-32-32-32l-64 0 0-13.888L606.752 374.496z"/>
</svg>