<?xml version="1.0" standalone="no"?><!DOCTYPE svg PUBLIC "-//W3C//DTD SVG 1.1//EN"
        "http://www.w3.org/Graphics/SVG/1.1/DTD/svg11.dtd">
<svg class="icon" width="200px" height="200.00px" viewBox="0 0 1024 1024" version="1.1"
     xmlns="http://www.w3.org/2000/svg">
    <path fill="#bfbfbf"
          d="M512 672c-17.664 0-32-14.304-32-32l0-96c0-17.664 14.336-32 32-32s32 14.336 32 32l0 96C544 657.696 529.664 672 512 672z"/>
    <path fill="#bfbfbf"
          d="M884.896 136.864c-14.048-10.688-34.176-7.872-44.8 6.24l-193.568 256.064C642.336 404.736 640 411.488 640 418.464l0 157.088c0 0.16 0 0.288 0 0.448l0 288c0 17.664-14.336 32-32 32l-192 0c-17.632 0-32-14.336-32-32l0-189.312L384 576l0-160c0-6.848-2.208-13.536-6.304-19.072l-189.856-256C177.344 126.784 157.344 123.808 143.072 134.304 128.896 144.832 125.92 164.864 136.448 179.072L320 426.592 320 576l0 98.688L320 864c0 52.928 43.072 96 96 96l192 0c52.928 0 96-43.072 96-96l0-191.648c0-0.128 0.064-0.224 0.064-0.32l0.064-242.816 187.04-247.488C901.824 167.584 899.04 147.52 884.896 136.864z"/>
    <path fill="#bfbfbf"
          d="M512 288c-17.664 0-32-14.336-32-32L480 96c0-17.664 14.336-32 32-32s32 14.336 32 32l0 160C544 273.664 529.664 288 512 288z"/>
</svg>