<?xml version="1.0" standalone="no"?><!DOCTYPE svg PUBLIC "-//W3C//DTD SVG 1.1//EN"
        "http://www.w3.org/Graphics/SVG/1.1/DTD/svg11.dtd">
<svg class="icon" width="200px" height="200.00px" viewBox="0 0 1024 1024" version="1.1"
     xmlns="http://www.w3.org/2000/svg">
    <path fill="#bfbfbf"
          d="M917.333333 853.333333h-42.666666V384c36.266667 0 64-27.733333 64-64v-6.4l-42.666667-136.533333C893.866667 149.333333 870.4 128 842.666667 128h-661.333334C153.6 128 130.133333 149.333333 128 177.066667l-42.666667 136.533333v6.4c0 36.266667 27.733333 64 64 64v469.333333H106.666667c-12.8 0-21.333333 8.533333-21.333334 21.333334s8.533333 21.333333 21.333334 21.333333h810.666666c12.8 0 21.333333-8.533333 21.333334-21.333333s-8.533333-21.333333-21.333334-21.333334z m-85.333333 0H533.333333V384h298.666667v469.333333zM128 322.133333l42.666667-134.4v-6.4c0-6.4 4.266667-10.666667 10.666666-10.666666h661.333334c6.4 0 10.666667 4.266667 10.666666 10.666666v6.4l40.533334 134.4c-2.133333 10.666667-10.666667 19.2-21.333334 19.2H149.333333c-10.666667 0-19.2-8.533333-21.333333-19.2zM192 384h298.666667v469.333333H192V384zM731.733333 654.933333c4.266667 4.266667 10.666667 6.4 14.933334 6.4s10.666667-2.133333 14.933333-6.4c8.533333-8.533333 8.533333-21.333333 0-29.866666l-128-128c-8.533333-8.533333-21.333333-8.533333-29.866667 0s-8.533333 21.333333 0 29.866666l128 128zM582.4 633.6l64 64c4.266667 4.266667 10.666667 6.4 14.933333 6.4s10.666667-2.133333 14.933334-6.4c8.533333-8.533333 8.533333-21.333333 0-29.866667l-64-64c-8.533333-8.533333-21.333333-8.533333-29.866667 0s-8.533333 21.333333 0 29.866667z"/>
</svg>