<?xml version="1.0" standalone="no"?><!DOCTYPE svg PUBLIC "-//W3C//DTD SVG 1.1//EN"
        "http://www.w3.org/Graphics/SVG/1.1/DTD/svg11.dtd">
<svg class="icon" width="200px" height="200.00px" viewBox="0 0 1024 1024" version="1.1"
     xmlns="http://www.w3.org/2000/svg">
    <path fill="#bfbfbf"
          d="M800 352l-32 0c-70.592 0-128 57.408-128 128l0 64c0 70.592 57.408 128 128 128l32 0c23.424 0 45.088-6.784 64-17.792l0 49.408C864 738.496 842.016 768 816 768L736 768l0 64 80 0c61.76 0 112-57.6 112-128.416L928 544l0-64C928 409.408 870.592 352 800 352zM800 608l-32 0c-35.296 0-64-28.704-64-64l0-64c0-35.296 28.704-64 64-64l32 0c35.296 0 64 28.704 64 64l0 64C864 579.296 835.296 608 800 608zM480 320l64 0 0 352-64 0 0-352ZM480 224l64 0 0 64-64 0 0-64ZM256 352 160 352 160 224 96 224l0 257.632 0 64.672L96 672l38.752 0L160 672l96 0c70.592 0 128-56.384 128-125.696l0-64.672C384 410.144 326.592 352 256 352zM320 546.304C320 580.896 291.904 608 256 608L160 608c0 0 0-36.608 0-64l0-62.368L160 416l96 0c34.688 0 64 30.048 64 65.632L320 546.304z"/>
</svg>