<?xml version="1.0" standalone="no"?><!DOCTYPE svg PUBLIC "-//W3C//DTD SVG 1.1//EN"
        "http://www.w3.org/Graphics/SVG/1.1/DTD/svg11.dtd">
<svg class="icon" width="200px" height="200.00px" viewBox="0 0 1024 1024" version="1.1"
     xmlns="http://www.w3.org/2000/svg">
    <path fill="#bfbfbf"
          d="M959.808 312.704c-0.128-14.272-0.224-20.096-0.352-26.88-0.416-20.096-1.696-40.448-5.088-58.592-3.744-19.808-8.768-37.824-17.92-55.84-9.28-18.272-21.984-34.048-35.712-48.16-14.048-13.792-29.888-26.432-48.16-35.712-17.984-9.12-36-14.144-55.808-17.92-18.144-3.36-38.496-4.704-58.624-5.056-6.784-0.128-12.576-0.224-26.912-0.384-13.568-0.128-24.672-0.16-32.896-0.16-41.664 0-291.04 0-332.672 0-8.224 0-19.328 0.032-32.928 0.16-14.304 0.16-20.128 0.256-26.88 0.384C265.728 64.896 245.408 66.24 227.232 69.632 207.392 73.376 189.376 78.4 171.392 87.52c-18.272 9.28-34.08 21.952-48.16 35.712-13.792 14.08-26.432 29.888-35.68 48.16C78.4 189.44 73.376 207.424 69.632 227.264 66.176 245.408 64.896 265.76 64.576 285.856 64.416 292.64 64.32 298.432 64.192 312.704 64.064 326.304 64 337.44 64 345.664l0 332.704c0 8.224 0.064 19.328 0.192 32.928 0.128 14.24 0.224 20.128 0.384 26.88 0.352 20.096 1.632 40.448 5.056 58.592 3.744 19.808 8.768 37.824 17.952 55.84 9.248 18.24 21.92 34.048 35.68 48.128 14.048 13.792 29.888 26.464 48.16 35.712 17.984 9.12 36 14.176 55.808 17.92 18.176 3.392 38.496 4.704 58.624 5.088 6.752 0.128 12.576 0.224 26.88 0.352C326.304 959.936 337.44 960 345.664 960c41.664 0 291.04 0 332.672 0 8.224 0 19.328-0.064 32.896-0.192 14.336-0.128 20.128-0.224 26.912-0.352 20.128-0.384 40.48-1.696 58.624-5.088 19.808-3.712 37.824-8.768 55.808-17.92 18.272-9.248 34.08-21.952 48.16-35.712 13.76-14.048 26.432-29.888 35.712-48.128 9.12-18.016 14.144-36.032 17.92-55.84 3.392-18.144 4.672-38.496 5.088-58.592 0.128-6.752 0.224-12.64 0.352-26.88C959.936 697.728 960 686.592 960 678.368L960 345.664C960 337.44 959.936 326.304 959.808 312.704zM280.576 239.104c35.104 0 63.648 25.888 63.648 58.08 0 32.128-28.576 58.208-63.648 58.208-35.424 0-63.904-26.08-63.904-58.208C216.672 264.96 245.12 239.104 280.576 239.104zM333.632 588.448c-16.832 52.896-12.48 33.376-79.52 181.12l-96.736-61.44c0 0 108.192-99.968 130.272-145.728 23.552-48.128-26.08-73.824-26.08-73.824l-74.272-46.88 40.384-62.912c55.872 42.272 60.064 45.824 97.664 84.288C354.624 493.088 350.976 534.368 333.632 588.448zM860.576 657.376c-18.848 180.128-249.6 113.088-249.6 113.088l12.544-51.52 53.504 11.584c98.656 6.432 89.184-81.12 89.184-81.12l0-255.008c0.704-96.864-89.6-107.072-251.936-48.032l37.696 10.56c-3.072 11.2-15.392 28.928-31.104 48.224l217.088 0 0 44.704-122.176 0 0 55.68 121.76 0 0 44.672-121.76 0 0 93.472c18.336-6.016 35.296-14.432 49.888-25.632l-10.688-40.672 57.376-18.208 47.968 119.072-70.688 29.92-12.608-47.424c-31.648 24.576-97.216 60.16-212 56.896-122.368 3.264-90.88-140.224-90.88-140.224l3.04-1.632 86.176 0c-0.672 18.368-8.096 48.448 2.048 64.8 8.48 13.472 29.92 15.712 43.552 16.48 1.504 0.096 3.264 0.096 4.704 0.096l0-106.912-124.608 0 0-44.672 124.608 0 0-55.68-32.032 0c-28 30.144-53.632 55.2-53.632 55.2l-37.728-33.344c26.752-28.672 53.44-74.08 70.016-104.224-13.44 5.44-27.136 11.52-41.44 17.792-13.76 17.984-29.824 36.32-47.68 54.56 0.608 0.928-61.728-35.616-61.728-35.616 64.352-55.648 100.416-175.328 100.416-175.328l89.536 25.536c0 0-7.296 17.664-22.752 44.672 358.176-103.04 379.232 63.2 379.232 63.2S879.392 477.12 860.576 657.376z"/>
</svg>