<?xml version="1.0" standalone="no"?><!DOCTYPE svg PUBLIC "-//W3C//DTD SVG 1.1//EN"
        "http://www.w3.org/Graphics/SVG/1.1/DTD/svg11.dtd">
<svg class="icon" width="200px" height="200.00px" viewBox="0 0 1024 1024" version="1.1"
     xmlns="http://www.w3.org/2000/svg">
    <path fill="#bfbfbf"
          d="M358.4 808.533333h14.933333c40.533333 0 155.733333-14.933333 275.2-174.933333 130.133333-172.8 100.266667-302.933333 91.733334-330.666667-12.8-55.466667-64-93.866667-119.466667-91.733333-66.133333 2.133333-117.333333 57.6-115.2 123.733333 0 27.733333 10.666667 53.333333 29.866667 74.666667l2.133333 2.133333c6.4 6.4 12.8 12.8 19.2 17.066667 29.866667 34.133333 6.4 81.066667-19.2 113.066667-34.133333 46.933333-72.533333 64-110.933333 49.066666-21.333333-17.066667-46.933333-25.6-74.666667-23.466666-32 0-61.866667 14.933333-83.2 38.4s-34.133333 53.333333-32 85.333333c0 32 14.933333 61.866667 38.4 83.2 21.333333 21.333333 51.2 32 81.066667 32-2.133333 2.133333 0 2.133333 2.133333 2.133333zM277.333333 691.2c0-21.333333 6.4-40.533333 21.333334-55.466667 14.933333-14.933333 32-23.466667 53.333333-23.466666s38.4 8.533333 49.066667 17.066666c2.133333 2.133333 2.133333 2.133333 4.266666 2.133334 34.133333 12.8 98.133333 23.466667 164.266667-61.866667 66.133333-87.466667 36.266667-142.933333 14.933333-170.666667l-4.266666-4.266666c-4.266667-2.133333-8.533333-6.4-14.933334-12.8-12.8-14.933333-19.2-29.866667-19.2-49.066667-2.133333-42.666667 32-78.933333 74.666667-78.933333 36.266667 0 68.266667 23.466667 76.8 59.733333v2.133333c6.4 21.333333 34.133333 134.4-83.2 292.266667C492.8 768 384 768 364.8 765.866667h-10.666667c-21.333333 0-40.533333-6.4-55.466666-21.333334-12.8-12.8-21.333333-32-21.333334-53.333333z"/>
    <path fill="#bfbfbf"
          d="M512 64C264.533333 64 64 264.533333 64 512c0 85.333333 23.466667 166.4 68.266667 238.933333 6.4 10.666667 19.2 12.8 29.866666 6.4 8.533333-8.533333 12.8-21.333333 6.4-32C128 661.333333 106.666667 586.666667 106.666667 512 106.666667 288 288 106.666667 512 106.666667s405.333333 181.333333 405.333333 405.333333-181.333333 405.333333-405.333333 405.333333c-55.466667 0-106.666667-10.666667-157.866667-32-10.666667-4.266667-23.466667 0-27.733333 10.666667-4.266667 10.666667 0 23.466667 10.666667 27.733333 55.466667 23.466667 113.066667 34.133333 172.8 34.133334 247.466667 0 448-200.533333 448-448C960 264.533333 759.466667 64 512 64z"/>
</svg>