<?xml version="1.0" standalone="no"?><!DOCTYPE svg PUBLIC "-//W3C//DTD SVG 1.1//EN"
        "http://www.w3.org/Graphics/SVG/1.1/DTD/svg11.dtd">
<svg class="icon" width="200px" height="200.00px" viewBox="0 0 1024 1024" version="1.1"
     xmlns="http://www.w3.org/2000/svg">
    <path fill="#bfbfbf"
          d="M160 544c-17.664 0-32 14.304-32 32l0 320c0 17.696 14.336 32 32 32s32-14.304 32-32L192 576C192 558.304 177.664 544 160 544z"/>
    <path fill="#bfbfbf"
          d="M608 544c-17.696 0-32 14.304-32 32l0 320c0 17.696 14.304 32 32 32s32-14.304 32-32L640 576C640 558.304 625.696 544 608 544z"/>
    <path fill="#bfbfbf"
          d="M864 544c-17.696 0-32 14.304-32 32l0 320c0 17.696 14.304 32 32 32s32-14.304 32-32L896 576C896 558.304 881.696 544 864 544z"/>
    <path fill="#bfbfbf"
          d="M288 544c-17.664 0-32 14.304-32 32l0 224c0 17.696 14.336 32 32 32s32-14.304 32-32l0-224C320 558.304 305.664 544 288 544z"/>
    <path fill="#bfbfbf"
          d="M416 544c-17.664 0-32 14.304-32 32l0 224c0 17.696 14.336 32 32 32s32-14.304 32-32l0-224C448 558.304 433.664 544 416 544z"/>
    <path fill="#bfbfbf"
          d="M736 544c-17.696 0-32 14.304-32 32l0 224c0 17.696 14.304 32 32 32s32-14.304 32-32l0-224C768 558.304 753.696 544 736 544z"/>
    <path fill="#bfbfbf"
          d="M160 352c17.664 0 32-14.336 32-32L192 128c0-17.664-14.336-32-32-32S128 110.336 128 128l0 192C128 337.664 142.336 352 160 352z"/>
    <path fill="#bfbfbf"
          d="M288 352c17.664 0 32-14.336 32-32L320 128c0-17.664-14.336-32-32-32S256 110.336 256 128l0 192C256 337.664 270.336 352 288 352z"/>
    <path fill="#bfbfbf"
          d="M416 352c17.664 0 32-14.336 32-32L448 128c0-17.664-14.336-32-32-32s-32 14.336-32 32l0 192C384 337.664 398.336 352 416 352z"/>
    <path fill="#bfbfbf"
          d="M608 352c17.696 0 32-14.336 32-32L640 128c0-17.664-14.304-32-32-32s-32 14.336-32 32l0 192C576 337.664 590.304 352 608 352z"/>
    <path fill="#bfbfbf"
          d="M736 352c17.696 0 32-14.336 32-32L768 128c0-17.664-14.304-32-32-32s-32 14.336-32 32l0 192C704 337.664 718.304 352 736 352z"/>
    <path fill="#bfbfbf"
          d="M864 352c17.696 0 32-14.336 32-32L896 128c0-17.664-14.304-32-32-32s-32 14.336-32 32l0 192C832 337.664 846.304 352 864 352z"/>
    <path fill="#bfbfbf"
          d="M928 416 96 416c-17.664 0-32 14.336-32 32s14.336 32 32 32l832 0c17.696 0 32-14.336 32-32S945.696 416 928 416z"/>
</svg>