<?xml version="1.0" standalone="no"?><!DOCTYPE svg PUBLIC "-//W3C//DTD SVG 1.1//EN"
        "http://www.w3.org/Graphics/SVG/1.1/DTD/svg11.dtd">
<svg class="icon" width="200px" height="200.00px" viewBox="0 0 1024 1024" version="1.1"
     xmlns="http://www.w3.org/2000/svg">
    <path fill="#bfbfbf"
          d="M512.128 960.533333c-247.04 0-448-200.981333-448-448s200.96-448 448-448c247.018667 0 448 200.96 448 448S759.146667 960.533333 512.128 960.533333zM512.128 107.2c-223.509333 0-405.333333 181.824-405.333333 405.333333 0 223.509333 181.824 405.333333 405.333333 405.333333s405.333333-181.824 405.333333-405.333333C917.461333 289.024 735.616 107.2 512.128 107.2z"/>
    <path fill="#bfbfbf"
          d="M598.634667 768c-4.992 0-10.026667-1.749333-14.058667-5.290667-8.853333-7.765333-9.749333-21.248-1.984-30.101333 51.584-58.858667 80-137.216 80-220.608 0-83.456-28.416-161.792-80.042667-220.586667-7.765333-8.853333-6.890667-22.336 1.962667-30.101333 8.874667-7.744 22.314667-6.912 30.122667 1.962667 58.432 66.581333 90.624 154.922667 90.624 248.746667 0 93.76-32.170667 182.08-90.581333 248.725333C610.453333 765.546667 604.544 768 598.634667 768z"/>
    <path fill="#bfbfbf"
          d="M471.722667 703.296c-5.034667 0-10.112-1.770667-14.186667-5.397333-8.810667-7.829333-9.578667-21.333333-1.749333-30.122667 36.906667-41.450667 57.258667-96.768 57.258667-155.712 0-59.754667-20.757333-115.541333-58.474667-157.098667-7.914667-8.725333-7.253333-22.229333 1.472-30.144 8.746667-7.936 22.229333-7.253333 30.144 1.472 44.842667 49.429333 69.525333 115.392 69.525333 185.770667 0 69.418667-24.170667 134.805333-68.053333 184.085333C483.456 700.885333 477.610667 703.296 471.722667 703.296z"/>
    <path fill="#bfbfbf"
          d="M362.538667 631.744c-6.250667 0-12.48-2.752-16.682667-8.021333-7.338667-9.216-5.824-22.656 3.370667-29.973333 22.016-17.557333 34.645333-42.581333 34.645333-68.650667 0-26.090667-12.586667-51.114667-34.56-68.672-9.216-7.36-10.709333-20.778667-3.349333-29.973333 7.338667-9.216 20.8-10.709333 29.973333-3.349333 32.149333 25.685333 50.602667 62.869333 50.602667 101.994667 0 39.104-18.474667 76.309333-50.688 101.994667C371.904 630.229333 367.189333 631.744 362.538667 631.744z"/>
</svg>