<?xml version="1.0" standalone="no"?><!DOCTYPE svg PUBLIC "-//W3C//DTD SVG 1.1//EN"
        "http://www.w3.org/Graphics/SVG/1.1/DTD/svg11.dtd">
<svg class="icon" width="200px" height="199.42px" viewBox="0 0 1027 1024" version="1.1"
     xmlns="http://www.w3.org/2000/svg">
    <path fill="#bfbfbf"
          d="M32 832c-17.664 0-32-14.304-32-32L0 224c0-17.664 14.336-32 32-32s32 14.336 32 32l0 576C64 817.696 49.664 832 32 832z"/>
    <path fill="#bfbfbf"
          d="M448.704 832.256 160.96 832.256c-17.632 0-31.936-14.24-32-31.872L128 544.128C128 505.728 153.728 480 192 480l224 0L416 256.288 160 256C142.336 256 128 241.664 128 224s14.336-32 32-32l256 0c38.272 0 64 25.728 64 64l0 256c0 17.664-14.336 32-32 32L192.32 544l0.576 224.256 255.84 0c17.664 0 32 14.304 32 32S466.4 832.256 448.704 832.256z"/>
    <path fill="#bfbfbf"
          d="M577.408 832c-17.696 0-32-14.304-32-32L545.408 224c0-17.664 14.304-32 32-32s32 14.336 32 32l0 576C609.408 817.696 595.104 832 577.408 832z"/>
    <path fill="#bfbfbf"
          d="M994.112 832.256l-287.744 0c-17.632 0-31.936-14.24-32-31.872l-0.96-256.256c0-38.4 25.728-64.128 64-64.128l224 0L961.408 256.288l-256-0.288c-17.696 0-32-14.336-32-32s14.304-32 32-32l256 0c38.272 0 64 25.728 64 64l0 256c0 17.664-14.304 32-32 32l-255.68 0 0.576 224.256 255.84 0c17.696 0 32 14.304 32 32S1011.808 832.256 994.112 832.256z"/>
</svg>