<?xml version="1.0" standalone="no"?><!DOCTYPE svg PUBLIC "-//W3C//DTD SVG 1.1//EN"
        "http://www.w3.org/Graphics/SVG/1.1/DTD/svg11.dtd">
<svg class="icon" width="200px" height="200.00px" viewBox="0 0 1024 1024" version="1.1"
     xmlns="http://www.w3.org/2000/svg">
    <path fill="#bfbfbf"
          d="M152.576 353.12l-50.944 78.688 93.856 58.496c0 0 62.528 32.192 32.544 92.512C200.352 640 64 764.992 64 764.992l122.112 76.64c84.608-184.576 79.04-160 100.128-226.432 21.792-67.488 26.624-119.264-10.4-156.8C228.416 410.432 223.168 405.888 152.576 353.12zM219.36 323.488c44.384 0 80.352-32.384 80.352-72.32 0-40.192-35.968-72.672-80.352-72.672-44.736 0-80.448 32.512-80.448 72.672C138.944 291.136 174.624 323.488 219.36 323.488zM944.992 332.448c0 0-26.688-207.744-478.24-79.136 19.488-33.824 28.544-55.68 28.544-55.68l-112.736-31.936c0 0-45.536 149.632-126.784 219.264 0 0 78.72 45.76 77.92 44.448 22.528-22.688 42.848-45.824 60.096-68.192 18.144-8.064 35.488-15.424 52.352-22.368-21.056 37.888-54.464 94.56-88.288 130.432l47.424 41.888c0 0 32.48-31.424 67.84-69.184l40.288 0 0 69.824-157.184 0 0 55.872 157.184 0 0 133.696-5.984-0.256c-17.312-0.864-44.224-3.744-54.944-20.576-12.704-20.576-3.264-57.984-2.72-81.248l-108.608 0-3.904 2.24c0 0-39.84 179.424 114.688 175.488 144.576 3.936 227.488-40.736 267.296-71.488l15.84 59.488 89.152-37.632-60.32-148.576-72.416 22.688 13.344 50.816c-18.304 14.048-39.712 24.448-62.688 32.192l0-116.864 153.216 0 0-55.872-153.216 0 0-69.824 153.824 0 0-55.808-273.504 0c19.712-24.192 35.168-46.496 39.264-60.32l-47.808-13.12c204.704-74.048 318.72-61.248 317.824 59.936l0 318.816c0 0 12.032 109.44-112.512 101.696l-67.456-14.56-15.712 64.448c0 0 290.848 83.936 314.656-141.44C974.528 476.32 944.992 332.448 944.992 332.448z"/>
</svg>