<?xml version="1.0" standalone="no"?><!DOCTYPE svg PUBLIC "-//W3C//DTD SVG 1.1//EN"
        "http://www.w3.org/Graphics/SVG/1.1/DTD/svg11.dtd">
<svg class="icon" width="200px" height="200.00px" viewBox="0 0 1024 1024" version="1.1"
     xmlns="http://www.w3.org/2000/svg">
    <path fill="#bfbfbf"
          d="M554.666667 460.8v-64c0-17.066667-14.933333-32-32-32s-32 12.8-32 32v64c0 17.066667 14.933333 32 32 32s32-14.933333 32-32zM746.666667 460.8v-64c0-17.066667-14.933333-32-32-32s-32 12.8-32 32v64c0 17.066667 14.933333 32 32 32s32-14.933333 32-32z"/>
    <path fill="#bfbfbf"
          d="M512 64c-85.333333 0-166.4 23.466667-236.8 68.266667-38.4-44.8-93.866667-70.4-160-70.4-8.533333 0-14.933333 4.266667-19.2 10.666666-4.266667 6.4-4.266667 14.933333 0 21.333334 0 0 36.266667 57.6 44.8 145.066666 2.133333 10.666667 10.666667 19.2 21.333333 19.2h2.133334c12.8-2.133333 21.333333-10.666667 21.333333-23.466666-6.4-55.466667-21.333333-100.266667-32-128 42.666667 8.533333 78.933333 32 100.266667 66.133333 0 2.133333 2.133333 2.133333 2.133333 2.133333l2.133333 2.133334c2.133333 0 2.133333 2.133333 4.266667 2.133333s2.133333 2.133333 4.266667 2.133333h8.533333c2.133333 0 2.133333 0 4.266667-2.133333 2.133333 0 2.133333 0 4.266666-2.133333C349.866667 132.266667 428.8 106.666667 512 106.666667c224 0 405.333333 181.333333 405.333333 405.333333s-181.333333 405.333333-405.333333 405.333333S106.666667 736 106.666667 512c0-57.6 10.666667-113.066667 34.133333-164.266667 4.266667-10.666667 0-23.466667-10.666667-27.733333-10.666667-4.266667-23.466667 0-27.733333 10.666667C76.8 388.266667 64 450.133333 64 512c0 247.466667 200.533333 448 448 448s448-200.533333 448-448S759.466667 64 512 64z"/>
</svg>