<?xml version="1.0" standalone="no"?><!DOCTYPE svg PUBLIC "-//W3C//DTD SVG 1.1//EN"
        "http://www.w3.org/Graphics/SVG/1.1/DTD/svg11.dtd">
<svg class="icon" width="200px" height="200.00px" viewBox="0 0 1024 1024" version="1.1"
     xmlns="http://www.w3.org/2000/svg">
    <path fill="#bfbfbf"
          d="M846.933333 290.133333c-6.4-8.533333-21.333333-10.666667-29.866666-4.266666-8.533333 6.4-10.666667 21.333333-4.266667 29.866666 40.533333 55.466667 61.866667 128 61.866667 209.066667 0 51.2-10.666667 102.4-32 147.2-12.8-4.266667-27.733333-6.4-40.533334-6.4-81.066667 0-145.066667 59.733333-145.066666 132.266667 0 17.066667 4.266667 32 10.666666 46.933333-42.666667 19.2-85.333333 27.733333-132.266666 29.866667-12.8 0-21.333333 10.666667-21.333334 21.333333s10.666667 21.333333 21.333334 21.333333c59.733333-2.133333 117.333333-17.066667 170.666666-44.8 6.4-2.133333 8.533333-8.533333 10.666667-12.8 2.133333-6.4 0-12.8-2.133333-17.066666-8.533333-12.8-14.933333-29.866667-14.933334-44.8 0-49.066667 46.933333-89.6 102.4-89.6 14.933333 0 29.866667 2.133333 44.8 8.533333 10.666667 4.266667 21.333333 0 27.733334-10.666667 29.866667-57.6 44.8-119.466667 44.8-183.466666-2.133333-89.6-25.6-170.666667-72.533334-232.533334zM187.733333 676.266667C162.133333 625.066667 149.333333 576 149.333333 522.666667 149.333333 328.533333 307.2 170.666667 501.333333 170.666667c23.466667 0 51.2 2.133333 70.4 6.4 12.8 2.133333 23.466667-6.4 25.6-19.2 2.133333-10.666667-6.4-23.466667-17.066666-25.6-21.333333-4.266667-51.2-6.4-78.933334-6.4C283.733333 128 106.666667 305.066667 106.666667 522.666667c0 61.866667 12.8 117.333333 42.666666 174.933333 4.266667 6.4 10.666667 10.666667 19.2 10.666667 4.266667 0 6.4 0 10.666667-2.133334 10.666667-6.4 14.933333-19.2 8.533333-29.866666z"/>
    <path fill="#bfbfbf"
          d="M268.8 439.466667m-53.333333 0a53.333333 53.333333 0 1 0 106.666666 0 53.333333 53.333333 0 1 0-106.666666 0Z"/>
    <path fill="#bfbfbf"
          d="M360.533333 302.933333m-42.666666 0a42.666667 42.666667 0 1 0 85.333333 0 42.666667 42.666667 0 1 0-85.333333 0Z"/>
    <path fill="#bfbfbf" d="M480 228.266667m-32 0a32 32 0 1 0 64 0 32 32 0 1 0-64 0Z"/>
    <path fill="#bfbfbf"
          d="M804.266667 76.8c-21.333333-14.933333-46.933333-10.666667-64 10.666667L324.266667 627.2s0 2.133333-2.133334 2.133333c-8.533333 12.8-10.666667 29.866667-8.533333 44.8-36.266667 4.266667-87.466667 21.333333-98.133333 76.8-8.533333 40.533333 2.133333 61.866667 8.533333 76.8 4.266667 10.666667 4.266667 10.666667 0 19.2-14.933333 21.333333-36.266667 27.733333-36.266667 27.733334-8.533333 2.133333-14.933333 8.533333-17.066666 17.066666-2.133333 8.533333 2.133333 17.066667 8.533333 21.333334 32 21.333333 85.333333 49.066667 138.666667 49.066666 38.4 0 78.933333-12.8 110.933333-51.2 42.666667-51.2 40.533333-121.6 40.533333-147.2 12.8-4.266667 23.466667-14.933333 29.866667-25.6L821.333333 138.666667c10.666667-23.466667 4.266667-49.066667-17.066666-61.866667zM394.666667 881.066667c-46.933333 59.733333-119.466667 36.266667-160 14.933333 8.533333-6.4 17.066667-17.066667 25.6-27.733333 19.2-27.733333 10.666667-46.933333 4.266666-61.866667-6.4-12.8-10.666667-23.466667-6.4-49.066667 8.533333-38.4 55.466667-42.666667 70.4-42.666666L426.666667 768c0 21.333333 0 76.8-32 113.066667zM782.933333 119.466667l-320 595.2c-2.133333 4.266667-6.4 8.533333-12.8 10.666666-2.133333 0-6.4 2.133333-10.666666 0l-78.933334-49.066666c-4.266667-2.133333-4.266667-6.4-4.266666-8.533334 0-4.266667 0-10.666667 2.133333-14.933333L772.266667 113.066667c0-2.133333 4.266667-4.266667 8.533333-2.133334 4.266667 4.266667 2.133333 6.4 2.133333 8.533334z"/>
</svg>