<?xml version="1.0" standalone="no"?><!DOCTYPE svg PUBLIC "-//W3C//DTD SVG 1.1//EN"
        "http://www.w3.org/Graphics/SVG/1.1/DTD/svg11.dtd">
<svg class="icon" width="200px" height="200.00px" viewBox="0 0 1024 1024" version="1.1"
     xmlns="http://www.w3.org/2000/svg">
    <path fill="#bfbfbf"
          d="M747.2 362.624c-11.797333 0-21.333333 9.557333-21.333333 21.333333l0 106.666667-106.666667 0c-11.797333 0-21.333333 9.557333-21.333333 21.333333s9.536 21.333333 21.333333 21.333333l128 0c11.797333 0 21.333333-9.557333 21.333333-21.333333l0-128C768.533333 372.181333 758.997333 362.624 747.2 362.624z"/>
    <path fill="#bfbfbf"
          d="M747.2 618.624l-469.333333 0c-11.776 0-21.333333 9.536-21.333333 21.333333s9.557333 21.333333 21.333333 21.333333l469.333333 0c11.797333 0 21.333333-9.536 21.333333-21.333333S758.997333 618.624 747.2 618.624z"/>
    <path fill="#bfbfbf"
          d="M448.533333 533.290667l42.666667 0c11.776 0 21.333333-9.557333 21.333333-21.333333s-9.557333-21.333333-21.333333-21.333333l-42.666667 0c-11.776 0-21.333333 9.557333-21.333333 21.333333S436.757333 533.290667 448.533333 533.290667z"/>
    <path fill="#bfbfbf"
          d="M277.866667 533.290667l42.666667 0c11.776 0 21.333333-9.557333 21.333333-21.333333s-9.557333-21.333333-21.333333-21.333333l-42.666667 0c-11.776 0-21.333333 9.557333-21.333333 21.333333S266.090667 533.290667 277.866667 533.290667z"/>
    <path fill="#bfbfbf"
          d="M448.533333 405.290667l42.666667 0c11.776 0 21.333333-9.557333 21.333333-21.333333s-9.557333-21.333333-21.333333-21.333333l-42.666667 0c-11.776 0-21.333333 9.557333-21.333333 21.333333S436.757333 405.290667 448.533333 405.290667z"/>
    <path fill="#bfbfbf"
          d="M619.2 405.290667l42.688 0c11.797333 0 21.333333-9.557333 21.333333-21.333333s-9.536-21.333333-21.333333-21.333333l-42.688 0c-11.797333 0-21.333333 9.557333-21.333333 21.333333S607.424 405.290667 619.2 405.290667z"/>
    <path fill="#bfbfbf"
          d="M277.866667 405.290667l42.666667 0c11.776 0 21.333333-9.557333 21.333333-21.333333s-9.557333-21.333333-21.333333-21.333333l-42.666667 0c-11.776 0-21.333333 9.557333-21.333333 21.333333S266.090667 405.290667 277.866667 405.290667z"/>
    <path fill="#bfbfbf"
          d="M512.661333 63.445333c-247.04 0-448 200.96-448 447.978667 0 247.04 200.96 448.021333 448 448.021333 247.018667 0 448-200.981333 448-448.021333C960.661333 264.405333 759.68 63.445333 512.661333 63.445333zM512.661333 916.778667c-223.509333 0-405.333333-181.824-405.333333-405.354667 0-223.488 181.824-405.312 405.333333-405.312s405.333333 181.824 405.333333 405.312C917.994667 734.933333 736.170667 916.778667 512.661333 916.778667z"/>
</svg>