<?xml version="1.0" standalone="no"?><!DOCTYPE svg PUBLIC "-//W3C//DTD SVG 1.1//EN"
        "http://www.w3.org/Graphics/SVG/1.1/DTD/svg11.dtd">
<svg class="icon" width="200px" height="200.00px" viewBox="0 0 1024 1024" version="1.1"
     xmlns="http://www.w3.org/2000/svg">
    <path fill="#bfbfbf" d="M512 640m-128 0a128 128 0 1 0 256 0 128 128 0 1 0-256 0Z"/>
    <path fill="#bfbfbf"
          d="M745.6 377.6l83.2-144c3.2-3.2 6.4-9.6 6.4-16V64c0-9.6-3.2-16-9.6-22.4-9.6-9.6-9.6-9.6-630.4-9.6-9.6 0-19.2 3.2-22.4 9.6-6.4 6.4-9.6 12.8-9.6 22.4v153.6c0 6.4 0 9.6 3.2 16l92.8 166.4C198.4 460.8 160 547.2 160 640c0 195.2 156.8 352 352 352s352-156.8 352-352c0-105.6-44.8-198.4-118.4-262.4zM608 131.2c0-19.2 12.8-32 32-32s32 12.8 32 32V320c0 19.2-12.8 32-32 32s-32-12.8-32-32V131.2z m-288 0c0-19.2 12.8-32 32-32s32 12.8 32 32v192c0 19.2-12.8 32-32 32s-32-12.8-32-32v-192zM512 832c-105.6 0-192-86.4-192-192s86.4-192 192-192 192 86.4 192 192-86.4 192-192 192z"/>
</svg>