<?xml version="1.0" standalone="no"?><!DOCTYPE svg PUBLIC "-//W3C//DTD SVG 1.1//EN"
        "http://www.w3.org/Graphics/SVG/1.1/DTD/svg11.dtd">
<svg class="icon" width="200px" height="200.00px" viewBox="0 0 1024 1024" version="1.1"
     xmlns="http://www.w3.org/2000/svg">
    <path fill="#bfbfbf"
          d="M149.333333 384h725.333334c36.266667 0 64-27.733333 64-64v-6.4l-42.666667-136.533333C893.866667 149.333333 870.4 128 842.666667 128h-661.333334C153.6 128 130.133333 149.333333 128 177.066667l-42.666667 136.533333v6.4c0 36.266667 27.733333 64 64 64zM917.333333 853.333333h-42.666666V426.666667H533.333333v426.666666h-42.666666V426.666667H149.333333v426.666666H106.666667c-12.8 0-21.333333 8.533333-21.333334 21.333334s8.533333 21.333333 21.333334 21.333333h810.666666c12.8 0 21.333333-8.533333 21.333334-21.333333s-8.533333-21.333333-21.333334-21.333334z m-241.066666-155.733333c-4.266667 4.266667-8.533333 6.4-14.933334 6.4s-10.666667-2.133333-14.933333-6.4l-64-64c-8.533333-8.533333-8.533333-21.333333 0-29.866667s21.333333-8.533333 29.866667 0l64 64c8.533333 8.533333 8.533333 21.333333 0 29.866667z m85.333333-42.666667c-4.266667 4.266667-8.533333 6.4-14.933333 6.4s-10.666667-2.133333-14.933334-6.4l-128-128c-8.533333-8.533333-8.533333-21.333333 0-29.866666s21.333333-8.533333 29.866667 0l128 128c8.533333 8.533333 8.533333 21.333333 0 29.866666z"/>
</svg>