<?xml version="1.0" standalone="no"?><!DOCTYPE svg PUBLIC "-//W3C//DTD SVG 1.1//EN"
        "http://www.w3.org/Graphics/SVG/1.1/DTD/svg11.dtd">
<svg class="icon" width="200px" height="200.00px" viewBox="0 0 1024 1024" version="1.1"
     xmlns="http://www.w3.org/2000/svg">
    <path fill="#bfbfbf"
          d="M224 608c-52.928 0-96-43.072-96-96s43.072-96 96-96c52.928 0 96 43.072 96 96S276.928 608 224 608zM512 608c-52.928 0-96-43.072-96-96s43.072-96 96-96c52.928 0 96 43.072 96 96S564.928 608 512 608zM800 608c-52.928 0-96-43.072-96-96s43.072-96 96-96c52.928 0 96 43.072 96 96S852.928 608 800 608z"/>
</svg>