<?xml version="1.0" standalone="no"?><!DOCTYPE svg PUBLIC "-//W3C//DTD SVG 1.1//EN"
        "http://www.w3.org/Graphics/SVG/1.1/DTD/svg11.dtd">
<svg class="icon" width="200px" height="200.00px" viewBox="0 0 1024 1024" version="1.1"
     xmlns="http://www.w3.org/2000/svg">
    <path fill="#bfbfbf"
          d="M512 64C264.533333 64 64 264.533333 64 512s200.533333 448 448 448 448-200.533333 448-448S759.466667 64 512 64z m0 853.333333C288 917.333333 106.666667 736 106.666667 512S288 106.666667 512 106.666667s405.333333 181.333333 405.333333 405.333333-181.333333 405.333333-405.333333 405.333333z"/>
    <path fill="#bfbfbf"
          d="M665.6 456.533333L512 610.133333l-157.866667-155.733333c-8.533333-8.533333-21.333333-8.533333-29.866666 0-8.533333 8.533333-8.533333 21.333333 0 29.866667l172.8 170.666666c4.266667 4.266667 8.533333 6.4 14.933333 6.4 6.4 0 10.666667-2.133333 14.933333-6.4l168.533334-168.533333c8.533333-8.533333 8.533333-21.333333 0-29.866667-6.4-8.533333-21.333333-8.533333-29.866667 0z"/>
</svg>