<?xml version="1.0" standalone="no"?><!DOCTYPE svg PUBLIC "-//W3C//DTD SVG 1.1//EN"
        "http://www.w3.org/Graphics/SVG/1.1/DTD/svg11.dtd">
<svg class="icon" width="200px" height="200.00px" viewBox="0 0 1024 1024" version="1.1"
     xmlns="http://www.w3.org/2000/svg">
    <path fill="#bfbfbf"
          d="M407.466667 938.666667h-6.4c-32-8.533333-64-21.333333-93.866667-38.4-8.533333-4.266667-12.8-12.8-10.666667-21.333334l19.2-125.866666c-12.8-10.666667-23.466667-21.333333-34.133333-34.133334l-125.866667 19.2c-8.533333 2.133333-17.066667-2.133333-21.333333-10.666666-17.066667-29.866667-29.866667-59.733333-38.4-93.866667-2.133333-8.533333 0-17.066667 8.533333-23.466667l102.4-74.666666V512v-23.466667L106.666667 413.866667c-6.4-4.266667-10.666667-14.933333-8.533334-23.466667 8.533333-32 21.333333-64 38.4-93.866667 4.266667-8.533333 12.8-12.8 21.333334-10.666666l125.866666 19.2c10.666667-12.8 21.333333-23.466667 34.133334-34.133334L298.666667 147.2c-2.133333-8.533333 2.133333-17.066667 10.666666-21.333333 29.866667-17.066667 59.733333-29.866667 93.866667-38.4 8.533333-2.133333 17.066667 0 23.466667 8.533333l74.666666 102.4c17.066667-2.133333 32-2.133333 49.066667 0l74.666667-102.4c4.266667-6.4 14.933333-10.666667 23.466666-8.533333 32 8.533333 64 21.333333 93.866667 38.4 8.533333 4.266667 12.8 12.8 10.666667 21.333333l-19.2 125.866667c12.8 10.666667 23.466667 21.333333 34.133333 34.133333l125.866667-19.2c8.533333-2.133333 17.066667 2.133333 21.333333 10.666667 17.066667 29.866667 29.866667 59.733333 38.4 93.866666 2.133333 8.533333 0 17.066667-8.533333 23.466667L842.666667 490.666667v46.933333l102.4 74.666667c6.4 4.266667 10.666667 14.933333 8.533333 23.466666-8.533333 32-21.333333 64-38.4 93.866667-4.266667 8.533333-12.8 12.8-21.333333 10.666667l-125.866667-19.2c-10.666667 12.8-21.333333 23.466667-34.133333 34.133333l19.2 125.866667c2.133333 8.533333-2.133333 17.066667-10.666667 21.333333-29.866667 17.066667-59.733333 29.866667-93.866667 38.4-8.533333 2.133333-17.066667 0-23.466666-8.533333l-74.666667-102.4c-17.066667 2.133333-32 2.133333-49.066667 0L426.666667 932.266667c-6.4 4.266667-12.8 6.4-19.2 6.4z m149.333333-155.733334c6.4 0 12.8 4.266667 17.066667 8.533334l72.533333 100.266666c19.2-6.4 38.4-14.933333 57.6-23.466666l-17.066667-121.6c-2.133333-8.533333 2.133333-14.933333 8.533334-19.2 17.066667-12.8 32-27.733333 44.8-44.8 4.266667-6.4 12.8-8.533333 19.2-8.533334l121.6 19.2c8.533333-17.066667 17.066667-36.266667 23.466666-57.6l-100.266666-72.533333c-6.4-4.266667-8.533333-12.8-8.533334-19.2 2.133333-12.8 2.133333-21.333333 2.133334-32s0-19.2-2.133334-32c0-8.533333 2.133333-14.933333 8.533334-19.2l100.266666-72.533333c-6.4-19.2-14.933333-38.4-23.466666-57.6l-121.6 19.2c-8.533333 2.133333-14.933333-2.133333-19.2-8.533334-12.8-17.066667-27.733333-32-44.8-44.8-6.4-4.266667-8.533333-12.8-8.533334-19.2l17.066667-121.6c-19.2-8.533333-36.266667-17.066667-57.6-23.466666L576 230.4c-4.266667 6.4-12.8 8.533333-19.2 8.533333-23.466667-2.133333-40.533333-2.133333-64 0-8.533333 0-14.933333-2.133333-19.2-8.533333l-72.533333-100.266667c-19.2 6.4-38.4 14.933333-57.6 23.466667l19.2 121.6c2.133333 8.533333-2.133333 14.933333-8.533334 19.2-17.066667 12.8-32 27.733333-44.8 44.8-4.266667 6.4-12.8 8.533333-19.2 8.533333l-121.6-19.2c-8.533333 19.2-17.066667 36.266667-23.466666 57.6l100.266666 72.533334c6.4 4.266667 8.533333 12.8 8.533334 19.2-2.133333 10.666667-2.133333 21.333333-2.133334 32s0 19.2 2.133334 32c0 8.533333-2.133333 14.933333-8.533334 19.2l-100.266666 72.533333c6.4 19.2 14.933333 38.4 23.466666 57.6l121.6-19.2c8.533333-2.133333 14.933333 2.133333 19.2 8.533333 12.8 17.066667 27.733333 32 44.8 44.8 6.4 4.266667 8.533333 12.8 8.533334 19.2l-19.2 121.6c17.066667 8.533333 36.266667 17.066667 57.6 23.466667l72.533333-100.266667c4.266667-6.4 12.8-10.666667 19.2-8.533333 21.333333 2.133333 38.4 2.133333 64 0v2.133333z"/>
    <path fill="#bfbfbf"
          d="M509.866667 597.333333c-46.933333 0-85.333333-38.4-85.333334-85.333333s38.4-85.333333 85.333334-85.333333 85.333333 38.4 85.333333 85.333333-38.4 85.333333-85.333333 85.333333z m0-128c-23.466667 0-42.666667 19.2-42.666667 42.666667s19.2 42.666667 42.666667 42.666667 42.666667-19.2 42.666666-42.666667-19.2-42.666667-42.666666-42.666667z"/>
</svg>