<?xml version="1.0" standalone="no"?><!DOCTYPE svg PUBLIC "-//W3C//DTD SVG 1.1//EN"
        "http://www.w3.org/Graphics/SVG/1.1/DTD/svg11.dtd">
<svg class="icon" width="200px" height="200.00px" viewBox="0 0 1024 1024" version="1.1"
     xmlns="http://www.w3.org/2000/svg">
    <path fill="#bfbfbf"
          d="M512 85.333333C277.333333 85.333333 85.333333 277.333333 85.333333 512s192 426.666667 426.666667 426.666667 426.666667-192 426.666667-426.666667c0-236.8-192-426.666667-426.666667-426.666667z m0 810.666667c-211.2 0-384-172.8-384-384S300.8 128 512 128s384 172.8 384 384-172.8 384-384 384z"/>
    <path fill="#bfbfbf"
          d="M695.466667 509.866667l-256-164.266667c-10.666667-6.4-23.466667-4.266667-29.866667 6.4-2.133333 2.133333-4.266667 6.4-4.266667 10.666667v320c0 8.533333 4.266667 14.933333 10.666667 19.2 4.266667 2.133333 8.533333 2.133333 10.666667 2.133333 4.266667 0 8.533333 0 10.666666-2.133333l256-155.733334c6.4-4.266667 10.666667-10.666667 10.666667-17.066666 0-8.533333-2.133333-14.933333-8.533333-19.2zM448 644.266667V401.066667l194.133333 125.866666-194.133333 117.333334z"/>
</svg>