<?xml version="1.0" standalone="no"?><!DOCTYPE svg PUBLIC "-//W3C//DTD SVG 1.1//EN"
        "http://www.w3.org/Graphics/SVG/1.1/DTD/svg11.dtd">
<svg class="icon" width="200px" height="200.00px" viewBox="0 0 1024 1024" version="1.1"
     xmlns="http://www.w3.org/2000/svg">
    <path fill="#bfbfbf"
          d="M947.2 279.466667c-10.666667-4.266667-23.466667 2.133333-27.733333 12.8l-38.4 108.8C829.866667 230.4 672 106.666667 490.666667 106.666667 266.666667 106.666667 85.333333 288 85.333333 512s181.333333 405.333333 405.333334 405.333333c198.4 0 366.933333-142.933333 398.933333-337.066666 2.133333-10.666667-6.4-23.466667-17.066667-25.6-10.666667-2.133333-23.466667 6.4-25.6 17.066666C819.2 746.666667 667.733333 874.666667 490.666667 874.666667c-200.533333 0-362.666667-162.133333-362.666667-362.666667S290.133333 149.333333 490.666667 149.333333c170.666667 0 317.866667 119.466667 354.133333 283.733334l-108.8-46.933334c-10.666667-4.266667-23.466667 0-27.733333 10.666667-4.266667 10.666667 0 23.466667 10.666666 27.733333l149.333334 66.133334c2.133333 2.133333 6.4 2.133333 8.533333 2.133333 8.533333 0 17.066667-4.266667 19.2-12.8v-2.133333c2.133333-2.133333 2.133333-4.266667 4.266667-6.4l59.733333-166.4c2.133333-10.666667-2.133333-21.333333-12.8-25.6z"/>
</svg>