<?xml version="1.0" standalone="no"?><!DOCTYPE svg PUBLIC "-//W3C//DTD SVG 1.1//EN"
        "http://www.w3.org/Graphics/SVG/1.1/DTD/svg11.dtd">
<svg class="icon" width="200px" height="200.00px" viewBox="0 0 1024 1024" version="1.1"
     xmlns="http://www.w3.org/2000/svg">
    <path fill="#bfbfbf"
          d="M796.8 384c0-160-128-288-288-288s-288 128-288 288c0 108.8 57.6 201.6 147.2 249.6-121.6 48-214.4 153.6-240 288-3.2 16 6.4 35.2 25.6 38.4H160c16 0 28.8-9.6 32-25.6 28.8-150.4 160-259.2 313.6-262.4h6.4c156.8 0 284.8-131.2 284.8-288z m-512 0c0-124.8 99.2-224 224-224s224 99.2 224 224c0 121.6-99.2 220.8-220.8 224H502.4c-121.6-6.4-217.6-102.4-217.6-224zM857.6 672c-25.6 0-51.2 9.6-70.4 25.6l-12.8-9.6c-19.2-9.6-38.4-16-60.8-16-57.6 0-102.4 44.8-102.4 99.2 0 35.2 16 54.4 28.8 70.4 0 0 0 3.2 3.2 3.2l102.4 96c12.8 12.8 28.8 19.2 41.6 19.2 16 0 28.8-6.4 41.6-19.2l102.4-99.2c19.2-19.2 32-44.8 32-70.4 0-54.4-48-99.2-105.6-99.2z m28.8 124.8l-99.2 96-99.2-96c-9.6-12.8-12.8-16-12.8-25.6 0-19.2 19.2-35.2 38.4-35.2 9.6 0 16 3.2 22.4 6.4l35.2 22.4c12.8 9.6 28.8 6.4 38.4-3.2l19.2-16c6.4-6.4 16-9.6 28.8-9.6 22.4 0 38.4 16 38.4 35.2 3.2 9.6-3.2 19.2-9.6 25.6z"/>
</svg>