<?xml version="1.0" standalone="no"?><!DOCTYPE svg PUBLIC "-//W3C//DTD SVG 1.1//EN"
        "http://www.w3.org/Graphics/SVG/1.1/DTD/svg11.dtd">
<svg class="icon" width="200px" height="200.00px" viewBox="0 0 1024 1024" version="1.1"
     xmlns="http://www.w3.org/2000/svg">
    <path fill="#bfbfbf"
          d="M352 352l128 0 0 128-128 0 0-128ZM918.624 873.376l-145.664-145.664C829.632 660.768 864 574.368 864 480c0-211.744-172.256-384-384-384C268.256 96 96 268.256 96 480c0 211.744 172.256 384 384 384 94.368 0 180.768-34.368 247.712-91.04l145.664 145.664C879.616 924.864 887.808 928 896 928s16.384-3.136 22.624-9.376C931.136 906.112 931.136 885.888 918.624 873.376zM288 512l0-192c0-17.664 14.336-32 32-32l192 0c17.664 0 32 14.336 32 32l0 192c0 17.664-14.336 32-32 32l-192 0C302.336 544 288 529.664 288 512zM640 608c0 17.696-14.304 32-32 32l-160 0c-17.664 0-32-14.304-32-32s14.336-32 32-32l128 0 0-128c0-17.664 14.304-32 32-32s32 14.336 32 32L640 608z"/>
</svg>