<?xml version="1.0" standalone="no"?><!DOCTYPE svg PUBLIC "-//W3C//DTD SVG 1.1//EN"
        "http://www.w3.org/Graphics/SVG/1.1/DTD/svg11.dtd">
<svg class="icon" width="200px" height="200.00px" viewBox="0 0 1024 1024" version="1.1"
     xmlns="http://www.w3.org/2000/svg">
    <path fill="#bfbfbf"
          d="M512 85.333333C277.333333 85.333333 85.333333 277.333333 85.333333 512s192 426.666667 426.666667 426.666667 426.666667-192 426.666667-426.666667c0-236.8-192-426.666667-426.666667-426.666667z m181.333333 460.8l-256 155.733334c-2.133333 2.133333-6.4 2.133333-10.666666 2.133333s-6.4 0-10.666667-2.133333c-6.4-4.266667-10.666667-10.666667-10.666667-19.2V362.666667c0-4.266667 0-8.533333 4.266667-12.8 6.4-10.666667 19.2-12.8 29.866667-6.4l256 164.266666c6.4 4.266667 10.666667 10.666667 10.666666 19.2-2.133333 8.533333-6.4 14.933333-12.8 19.2z"/>
</svg>