<?xml version="1.0" standalone="no"?><!DOCTYPE svg PUBLIC "-//W3C//DTD SVG 1.1//EN"
        "http://www.w3.org/Graphics/SVG/1.1/DTD/svg11.dtd">
<svg class="icon" width="200px" height="200.00px" viewBox="0 0 1024 1024" version="1.1"
     xmlns="http://www.w3.org/2000/svg">
    <path fill="#bfbfbf"
          d="M746.666667 812.8c-12.8 0-21.333333 8.533333-21.333334 21.333333 0 34.133333-27.733333 61.866667-61.866666 61.866667H192c-34.133333 0-64-27.733333-64-61.866667V360.533333C128 326.4 157.866667 298.666667 192 298.666667c12.8 0 21.333333-8.533333 21.333333-21.333334s-8.533333-21.333333-21.333333-21.333333c-59.733333 0-106.666667 46.933333-106.666667 104.533333V832c0 59.733333 46.933333 106.666667 106.666667 106.666667h471.466667c57.6 0 104.533333-46.933333 104.533333-104.533334 0-12.8-8.533333-21.333333-21.333333-21.333333zM277.333333 768h128c12.8 0 21.333333-8.533333 21.333334-21.333333s-8.533333-21.333333-21.333334-21.333334h-76.8L725.333333 328.533333V405.333333c0 12.8 8.533333 21.333333 21.333334 21.333334s21.333333-8.533333 21.333333-21.333334v-128c0-12.8-8.533333-21.333333-21.333333-21.333333h-128c-12.8 0-21.333333 8.533333-21.333334 21.333333s8.533333 21.333333 21.333334 21.333334h74.666666L298.666667 693.333333V618.666667c0-12.8-8.533333-21.333333-21.333334-21.333334s-21.333333 8.533333-21.333333 21.333334v128c0 12.8 10.666667 21.333333 21.333333 21.333333z m448-469.333333zM834.133333 85.333333H362.666667c-59.733333 0-106.666667 46.933333-106.666667 104.533334v307.2c0 12.8 8.533333 21.333333 21.333333 21.333333s21.333333-8.533333 21.333334-21.333333V189.866667C298.666667 155.733333 328.533333 128 362.666667 128h471.466666C868.266667 128 896 155.733333 896 189.866667V661.333333c0 34.133333-27.733333 61.866667-61.866667 61.866667h-298.666666c-12.8 0-21.333333 8.533333-21.333334 21.333333s8.533333 21.333333 21.333334 21.333334h298.666666c57.6 0 104.533333-46.933333 104.533334-104.533334V189.866667C938.666667 132.266667 891.733333 85.333333 834.133333 85.333333z"/>
</svg>