<?xml version="1.0" standalone="no"?><!DOCTYPE svg PUBLIC "-//W3C//DTD SVG 1.1//EN"
        "http://www.w3.org/Graphics/SVG/1.1/DTD/svg11.dtd">
<svg class="icon" width="200px" height="200.00px" viewBox="0 0 1024 1024" version="1.1"
     xmlns="http://www.w3.org/2000/svg">
    <path fill="#bfbfbf"
          d="M777.6 384c0-160-128-288-288-288s-288 128-288 288c0 108.8 57.6 201.6 147.2 249.6-121.6 48-214.4 153.6-240 288-3.2 16 6.4 35.2 25.6 38.4h6.4c16 0 28.8-9.6 32-25.6 28.8-150.4 160-259.2 313.6-262.4h6.4c156.8 0 284.8-128 284.8-288z m-512 0c0-124.8 99.2-224 224-224s224 99.2 224 224c0 121.6-99.2 220.8-220.8 224H483.2c-121.6-3.2-217.6-102.4-217.6-224zM966.4 742.4c-3.2-12.8-12.8-19.2-25.6-22.4l-83.2-12.8-38.4-80c-6.4-12.8-16-19.2-28.8-19.2s-22.4 6.4-28.8 19.2l-38.4 80-83.2 12.8c-12.8 3.2-22.4 9.6-25.6 22.4-3.2 12.8 0 22.4 6.4 32l60.8 60.8-16 89.6c-3.2 12.8 3.2 25.6 12.8 32 9.6 6.4 22.4 6.4 35.2 3.2l73.6-41.6 73.6 41.6c6.4 3.2 9.6 3.2 16 3.2s12.8-3.2 19.2-6.4c9.6-6.4 16-19.2 12.8-32l-12.8-89.6 60.8-60.8c9.6-9.6 12.8-22.4 9.6-32z m-124.8 60.8c-6.4 6.4-9.6 16-9.6 28.8l6.4 38.4-32-16c-6.4-3.2-9.6-3.2-16-3.2s-9.6 0-16 3.2l-32 16 6.4-38.4c3.2-9.6 0-19.2-9.6-28.8l-28.8-28.8 38.4-6.4c9.6 0 19.2-9.6 25.6-19.2l16-32 16 32c3.2 9.6 12.8 16 25.6 19.2l38.4 6.4-28.8 28.8z"/>
</svg>