<?xml version="1.0" standalone="no"?><!DOCTYPE svg PUBLIC "-//W3C//DTD SVG 1.1//EN"
        "http://www.w3.org/Graphics/SVG/1.1/DTD/svg11.dtd">
<svg class="icon" width="200px" height="200.00px" viewBox="0 0 1024 1024" version="1.1"
     xmlns="http://www.w3.org/2000/svg">
    <path fill="#bfbfbf"
          d="M810.666667 625.066667c-38.4-53.333333-128-198.4-166.4-260.266667l-2.133334-2.133333 59.733334-134.4s0-2.133333 2.133333-4.266667c4.266667-17.066667 0-36.266667-12.8-46.933333-10.666667-8.533333-23.466667-10.666667-36.266667-4.266667-4.266667 2.133333-19.2-2.133333-29.866666-6.4h-2.133334V108.8c0-12.8-8.533333-21.333333-21.333333-21.333333s-21.333333 8.533333-21.333333 21.333333v51.2c-21.333333-2.133333-44.8 4.266667-68.266667 25.6-21.333333-17.066667-42.666667-25.6-59.733333-25.6V106.666667c0-12.8-8.533333-21.333333-21.333334-21.333334s-21.333333 8.533333-21.333333 21.333334v53.333333c-8.533333 2.133333-14.933333 4.266667-21.333333 8.533333-8.533333 4.266667-19.2 8.533333-23.466667 6.4-17.066667-8.533333-42.666667-4.266667-59.733333 27.733334-2.133333 6.4-4.266667 12.8 0 19.2l61.866666 145.066666c-2.133333 4.266667-2.133333 6.4-4.266666 10.666667-8.533333 25.6-19.2 66.133333-61.866667 121.6-2.133333 2.133333-168.533333 194.133333-145.066667 398.933333 0 6.4 4.266667 10.666667 8.533334 14.933334 10.666667 8.533333 36.266667 23.466667 68.266666 23.466666 17.066667 0 34.133333-4.266667 51.2-12.8 2.133333-2.133333 4.266667-2.133333 6.4 0 12.8 8.533333 38.4 12.8 53.333334 12.8 19.2 0 34.133333-4.266667 49.066666-14.933333 2.133333-2.133333 6.4-2.133333 8.533334 0 8.533333 4.266667 34.133333 17.066667 66.133333 17.066667 17.066667 0 32-4.266667 44.8-10.666667 2.133333-2.133333 4.266667-2.133333 4.266667-2.133333 2.133333 2.133333 27.733333 8.533333 55.466666 8.533333 21.333333 0 38.4-4.266667 51.2-12.8 2.133333-2.133333 4.266667-2.133333 8.533334 0 8.533333 2.133333 36.266667 12.8 64 12.8 19.2 0 32-4.266667 42.666666-10.666667 2.133333-2.133333 4.266667-2.133333 6.4-2.133333 0 0 25.6 6.4 55.466667 6.4 25.6 0 46.933333-4.266667 64-14.933333 6.4-4.266667 10.666667-10.666667 10.666667-19.2 0-40.533333-6.4-187.733333-64-268.8zM345.6 213.333333c19.2 8.533333 38.4 0 55.466667-6.4 27.733333-10.666667 53.333333-21.333333 96 21.333334 4.266667 4.266667 10.666667 6.4 17.066666 6.4 6.4 0 12.8-4.266667 14.933334-8.533334 21.333333-32 42.666667-27.733333 78.933333-17.066666 17.066667 6.4 34.133333 10.666667 51.2 6.4L603.733333 341.333333h-206.933333l-51.2-128c-2.133333 2.133333 0 2.133333 0 0z m454.4 674.133334c-23.466667 0-44.8-6.4-44.8-6.4-14.933333-4.266667-29.866667-2.133333-42.666667 6.4 0 0-4.266667 4.266667-19.2 4.266666-17.066667 0-38.4-4.266667-49.066666-8.533333-14.933333-6.4-32-4.266667-44.8 4.266667-6.4 4.266667-17.066667 6.4-27.733334 6.4-21.333333 0-40.533333-6.4-40.533333-6.4-12.8-4.266667-27.733333-4.266667-40.533333 4.266666-6.4 4.266667-14.933333 6.4-25.6 6.4-21.333333 0-42.666667-10.666667-44.8-12.8-17.066667-10.666667-38.4-8.533333-53.333334 2.133334-6.4 4.266667-14.933333 6.4-25.6 6.4-17.066667 0-34.133333-6.4-34.133333-8.533334-14.933333-6.4-32-6.4-44.8 0-10.666667 6.4-21.333333 8.533333-32 8.533334-14.933333 0-25.6-4.266667-34.133333-10.666667-14.933333-177.066667 134.4-354.133333 134.4-356.266667 0 0 2.133333-2.133333 2.133333-4.266666 46.933333-61.866667 59.733333-106.666667 68.266667-134.4 0-2.133333 0-2.133333 2.133333-4.266667H608l2.133333 2.133333c38.4 61.866667 128 206.933333 168.533334 262.4 36.266667 51.2 53.333333 155.733333 55.466666 232.533334-10.666667 4.266667-21.333333 6.4-34.133333 6.4z"/>
</svg>