<?xml version="1.0" standalone="no"?><!DOCTYPE svg PUBLIC "-//W3C//DTD SVG 1.1//EN"
        "http://www.w3.org/Graphics/SVG/1.1/DTD/svg11.dtd">
<svg class="icon" width="200px" height="200.00px" viewBox="0 0 1024 1024" version="1.1"
     xmlns="http://www.w3.org/2000/svg">
    <path fill="#bfbfbf"
          d="M541.866667 512l262.4-262.4c8.533333-8.533333 8.533333-21.333333 0-29.866667s-21.333333-8.533333-29.866667 0L512 482.133333 249.6 219.733333c-8.533333-8.533333-21.333333-8.533333-29.866667 0-8.533333 8.533333-8.533333 21.333333 0 29.866667L482.133333 512 219.733333 774.4c-8.533333 8.533333-8.533333 21.333333 0 29.866667 4.266667 4.266667 10.666667 6.4 14.933334 6.4s10.666667-2.133333 14.933333-6.4L512 544l260.266667 262.4c4.266667 4.266667 10.666667 6.4 14.933333 6.4 6.4 0 10.666667-2.133333 14.933333-6.4 8.533333-8.533333 8.533333-21.333333 0-29.866667L541.866667 512z"/>
</svg>