<?xml version="1.0" standalone="no"?><!DOCTYPE svg PUBLIC "-//W3C//DTD SVG 1.1//EN"
        "http://www.w3.org/Graphics/SVG/1.1/DTD/svg11.dtd">
<svg class="icon" width="200px" height="200.00px" viewBox="0 0 1024 1024" version="1.1"
     xmlns="http://www.w3.org/2000/svg">
    <path fill="#bfbfbf"
          d="M319.968 960c-5.92 0-11.904-1.664-17.184-4.992-12.672-8.064-18.016-23.84-12.896-37.952L402.304 608 160 608c-12.928 0-24.608-7.776-29.568-19.744s-2.208-25.728 6.944-34.88l480-480c12.512-12.512 32.736-12.512 45.248 0s12.512 32.736 0 45.248L237.248 544 448 544c10.432 0 20.224 5.088 26.208 13.664 6.016 8.544 7.424 19.456 3.872 29.28l-78.72 216.448L786.752 416 576 416c-17.696 0-32-14.336-32-32s14.304-32 32-32l288 0c12.928 0 24.64 7.808 29.568 19.744 4.96 11.968 2.208 25.728-6.944 34.88l-544 544C336.448 956.8 328.224 960 319.968 960z"/>
    <path fill="#bfbfbf"
          d="M954.08 913.952l-125.344-256c-0.736-1.504-1.984-2.464-2.944-3.808-1.376-1.984-2.56-4.064-4.384-5.728-1.952-1.76-4.256-2.848-6.528-4.096-1.312-0.672-2.272-1.76-3.68-2.272-0.128-0.064-0.288-0.032-0.416-0.064-2.944-1.056-6.016-1.28-9.152-1.472-1.024-0.032-2.048-0.48-3.104-0.448-1.888 0.096-3.68 0.896-5.568 1.344-2.208 0.512-4.512 0.736-6.528 1.728-0.192 0.064-0.384 0.032-0.544 0.128-1.568 0.736-2.592 2.048-3.968 3.04-1.92 1.344-3.936 2.496-5.568 4.288-1.728 1.92-2.784 4.16-3.968 6.368-0.736 1.344-1.856 2.368-2.4 3.84l-95.968 256c-6.176 16.544 2.176 34.976 18.752 41.184C696.512 959.328 700.288 960 704.032 960c12.928 0 25.152-7.904 29.984-20.768L750.176 896l123.84 0 22.56 46.048C902.144 953.408 913.536 960 925.376 960c4.704 0 9.504-1.024 14.016-3.264C955.296 948.96 961.856 929.824 954.08 913.952zM774.176 832l29.728-79.264L842.72 832 774.176 832z"/>
</svg>