<?xml version="1.0" standalone="no"?><!DOCTYPE svg PUBLIC "-//W3C//DTD SVG 1.1//EN"
        "http://www.w3.org/Graphics/SVG/1.1/DTD/svg11.dtd">
<svg class="icon" width="200px" height="200.00px" viewBox="0 0 1024 1024" version="1.1"
     xmlns="http://www.w3.org/2000/svg">
    <path fill="#bfbfbf"
          d="M576 810.666667H149.333333c-23.466667 0-42.666667-19.2-42.666666-42.666667V256c0-23.466667 19.2-42.666667 42.666666-42.666667h704c23.466667 0 42.666667 19.2 42.666667 42.666667v298.666667c0 12.8 8.533333 21.333333 21.333333 21.333333s21.333333-8.533333 21.333334-21.333333V256c0-46.933333-38.4-85.333333-85.333334-85.333333H149.333333c-46.933333 0-85.333333 38.4-85.333333 85.333333v512c0 46.933333 38.4 85.333333 85.333333 85.333333h426.666667c12.8 0 21.333333-8.533333 21.333333-21.333333s-8.533333-21.333333-21.333333-21.333333z"/>
    <path fill="#bfbfbf"
          d="M599.466667 341.333333H405.333333c-12.8 0-21.333333 8.533333-21.333333 21.333334s8.533333 21.333333 21.333333 21.333333h194.133334c12.8 0 21.333333-8.533333 21.333333-21.333333s-8.533333-21.333333-21.333333-21.333334zM322.133333 341.333333h-21.333333c-12.8 0-21.333333 8.533333-21.333333 21.333334s8.533333 21.333333 21.333333 21.333333h21.333333c12.8 0 21.333333-8.533333 21.333334-21.333333s-8.533333-21.333333-21.333334-21.333334zM599.466667 640H405.333333c-12.8 0-21.333333 8.533333-21.333333 21.333333s8.533333 21.333333 21.333333 21.333334h194.133334c12.8 0 21.333333-8.533333 21.333333-21.333334s-8.533333-21.333333-21.333333-21.333333zM300.8 637.866667c-12.8 0-21.333333 8.533333-21.333333 21.333333s8.533333 21.333333 21.333333 21.333333h21.333333c12.8 0 21.333333-8.533333 21.333334-21.333333s-8.533333-21.333333-21.333334-21.333333h-21.333333zM535.466667 509.866667c0-12.8-8.533333-21.333333-21.333334-21.333334H320c-12.8 0-21.333333 8.533333-21.333333 21.333334s8.533333 21.333333 21.333333 21.333333h194.133333c12.8 0 21.333333-8.533333 21.333334-21.333333zM211.2 488.533333c-12.8 0-21.333333 8.533333-21.333333 21.333334s8.533333 21.333333 21.333333 21.333333h21.333333c12.8 0 21.333333-8.533333 21.333334-21.333333s-8.533333-21.333333-21.333334-21.333334h-21.333333zM810.666667 595.2c-93.866667 0-170.666667 76.8-170.666667 170.666667s76.8 170.666667 170.666667 170.666666 170.666667-76.8 170.666666-170.666666-74.666667-170.666667-170.666666-170.666667z m0 298.666667c-70.4 0-128-57.6-128-128s57.6-128 128-128 128 57.6 128 128-55.466667 128-128 128z"/>
    <path fill="#bfbfbf"
          d="M859.733333 710.4L789.333333 780.8l-25.6-27.733333c-8.533333-8.533333-21.333333-8.533333-29.866666 0-8.533333 8.533333-8.533333 21.333333 0 29.866666l40.533333 42.666667c2.133333 2.133333 2.133333 2.133333 4.266667 2.133333l2.133333 2.133334c2.133333 2.133333 4.266667 2.133333 8.533333 2.133333 2.133333 0 6.4 0 8.533334-2.133333l2.133333-2.133334c2.133333 0 2.133333-2.133333 4.266667-2.133333l87.466666-87.466667c8.533333-8.533333 8.533333-21.333333 0-29.866666-8.533333-6.4-23.466667-6.4-32 2.133333z"/>
</svg>