<?xml version="1.0" standalone="no"?><!DOCTYPE svg PUBLIC "-//W3C//DTD SVG 1.1//EN"
        "http://www.w3.org/Graphics/SVG/1.1/DTD/svg11.dtd">
<svg class="icon" width="200px" height="200.00px" viewBox="0 0 1024 1024" version="1.1"
     xmlns="http://www.w3.org/2000/svg">
    <path fill="#bfbfbf"
          d="M576 160l-128 0c-17.664 0-32-14.336-32-32s14.336-32 32-32l128 0c17.696 0 32 14.336 32 32S593.696 160 576 160z"/>
    <path fill="#bfbfbf"
          d="M818.976 346.272l35.648-35.648c12.512-12.512 12.512-32.736 0-45.248s-32.736-12.512-45.248 0l-32.896 32.896C707.52 232.608 614.496 192 512 192 300.256 192 128 364.256 128 576c0 211.744 172.256 384 384 384 211.744 0 384-172.256 384-384C896 489.824 867.104 410.432 818.976 346.272zM544 894.368 544 864c0-17.696-14.336-32-32-32s-32 14.304-32 32l0 30.368C329.056 879.328 208.672 758.944 193.632 608L224 608c17.664 0 32-14.304 32-32s-14.336-32-32-32L193.632 544C208.672 393.056 329.056 272.672 480 257.632L480 288c0 17.664 14.336 32 32 32s32-14.336 32-32L544 257.632c150.944 15.072 271.328 135.424 286.368 286.368L800 544c-17.696 0-32 14.304-32 32s14.304 32 32 32l30.368 0C815.328 758.944 694.944 879.328 544 894.368z"/>
    <path fill="#bfbfbf"
          d="M652 423.008l-160 128c-13.824 11.072-16.032 31.2-4.992 44.992C493.344 603.904 502.624 608 512 608c7.008 0 14.08-2.272 19.968-7.008l160-128c13.792-11.04 16.032-31.168 4.992-44.96C685.952 414.208 665.856 411.936 652 423.008z"/>
</svg>