<?xml version="1.0" standalone="no"?><!DOCTYPE svg PUBLIC "-//W3C//DTD SVG 1.1//EN"
        "http://www.w3.org/Graphics/SVG/1.1/DTD/svg11.dtd">
<svg class="icon" width="200px" height="200.00px" viewBox="0 0 1024 1024" version="1.1"
     xmlns="http://www.w3.org/2000/svg">
    <path fill="#bfbfbf" d="M256 448m-64 0a2 2 0 1 0 128 0 2 2 0 1 0-128 0Z"/>
    <path fill="#bfbfbf"
          d="M714.688 256 181.312 256C116.64 256 64 308.64 64 373.312l0 405.376C64 843.36 116.64 896 181.312 896l533.376 0C779.36 896 832 843.36 832 778.688L832 373.312C832 308.64 779.36 256 714.688 256zM768 778.688C768 808.096 744.096 832 714.688 832L181.312 832C151.936 832 128 808.096 128 778.688L128 373.312C128 343.936 151.936 320 181.312 320l533.376 0C744.096 320 768 343.936 768 373.312L768 778.688z"/>
    <path fill="#bfbfbf"
          d="M842.688 128 256 128C238.336 128 224 142.336 224 160s14.336 32 32 32l586.688 0C872.096 192 896 215.936 896 245.312L896 640c0 17.696 14.304 32 32 32s32-14.304 32-32L960 245.312C960 180.64 907.36 128 842.688 128z"/>
    <path fill="#bfbfbf"
          d="M672.64 448.736c-129.056 0-143.936 72.672-152.832 116.096-7.2 35.168-10.4 39.968-28.64 42.88-34.976 5.568-44 0.192-58.912-8.8-15.456-9.312-36.672-22.08-77.952-23.168C227.616 573.12 194.112 723.84 192.704 730.24c-3.712 17.28 7.264 34.304 24.544 38.016 2.272 0.512 4.544 0.704 6.752 0.704 14.752 0 28-10.24 31.264-25.248 0.224-1.056 23.232-104.032 95.488-104.032 0.64 0 1.28 0 1.92 0.032 24.352 0.608 33.632 6.208 46.496 13.984 24.032 14.464 48.352 25.76 102.08 17.184 64.192-10.272 74.432-60.192 81.184-93.216 8.32-40.512 13.312-64.928 90.144-64.928 17.696 0 32-14.336 32-32S690.304 448.736 672.64 448.736z"/>
</svg>