<?xml version="1.0" standalone="no"?><!DOCTYPE svg PUBLIC "-//W3C//DTD SVG 1.1//EN"
        "http://www.w3.org/Graphics/SVG/1.1/DTD/svg11.dtd">
<svg class="icon" width="200px" height="200.00px" viewBox="0 0 1024 1024" version="1.1"
     xmlns="http://www.w3.org/2000/svg">
    <path fill="#bfbfbf"
          d="M979.2 512c0-2.133333 0-4.266667-2.133333-8.533333v-2.133334c0-2.133333 0-2.133333-2.133334-4.266666C891.733333 313.6 710.4 194.133333 512 194.133333c-198.4 0-379.733333 119.466667-465.066667 302.933334 0 2.133333-2.133333 2.133333-2.133333 4.266666v2.133334c-2.133333 4.266667-2.133333 6.4-2.133333 6.4v14.933333s0 6.4 2.133333 8.533333c0 2.133333 0 4.266667 2.133333 8.533334 0 2.133333 0 4.266667 2.133334 4.266666 85.333333 185.6 270.933333 309.333333 465.066666 309.333334 194.133333 0 379.733333-123.733333 462.933334-307.2 0-2.133333 2.133333-2.133333 2.133333-4.266667v-2.133333c2.133333-4.266667 2.133333-6.4 2.133333-6.4 0-2.133333 2.133333-6.4 2.133334-10.666667-2.133333-6.4-2.133333-10.666667-4.266667-12.8zM85.333333 529.066667z m853.333334-4.266667v4.266667c-78.933333 170.666667-249.6 283.733333-426.666667 283.733333S166.4 699.733333 87.466667 531.2v-2.133333-2.133334-4.266666-2.133334-2.133333-2.133333c78.933333-168.533333 245.333333-277.333333 424.533333-277.333334 181.333333 0 347.733333 108.8 424.533333 277.333334V522.666667c2.133333 0 2.133333 0 2.133334 2.133333z"/>
    <path fill="#bfbfbf"
          d="M512 384c-83.2 0-149.333333 66.133333-149.333333 149.333333s66.133333 149.333333 149.333333 149.333334 149.333333-66.133333 149.333333-149.333334-66.133333-149.333333-149.333333-149.333333z m0 256c-59.733333 0-106.666667-46.933333-106.666667-106.666667s46.933333-106.666667 106.666667-106.666666 106.666667 46.933333 106.666667 106.666666-46.933333 106.666667-106.666667 106.666667z"/>
</svg>