<?xml version="1.0" standalone="no"?><!DOCTYPE svg PUBLIC "-//W3C//DTD SVG 1.1//EN"
        "http://www.w3.org/Graphics/SVG/1.1/DTD/svg11.dtd">
<svg class="icon" width="200px" height="200.00px" viewBox="0 0 1024 1024" version="1.1"
     xmlns="http://www.w3.org/2000/svg">
    <path fill="#bfbfbf"
          d="M319.968 960c-5.92 0-11.904-1.664-17.184-4.992-12.672-8.064-18.016-23.84-12.896-37.952L402.304 608 160 608c-12.928 0-24.608-7.776-29.568-19.744s-2.208-25.728 6.944-34.88l480-480c12.512-12.512 32.736-12.512 45.248 0s12.512 32.736 0 45.248L237.248 544 448 544c10.432 0 20.224 5.088 26.208 13.664 6.016 8.544 7.424 19.456 3.872 29.28l-78.72 216.448L786.752 416 576 416c-17.696 0-32-14.336-32-32s14.304-32 32-32l288 0c12.928 0 24.64 7.808 29.568 19.744 4.96 11.968 2.208 25.728-6.944 34.88l-544 544C336.448 956.8 328.224 960 319.968 960z"/>
    <path fill="#bfbfbf"
          d="M786.176 672.128c-79.392 0-144 64.608-144 144s64.608 144 144 144 144-64.608 144-144S865.6 672.128 786.176 672.128zM866.176 816.128c0 11.168-2.336 21.792-6.464 31.456l-104.992-104.992c9.696-4.128 20.32-6.464 31.456-6.464C830.304 736.128 866.176 772 866.176 816.128zM706.176 816.128c0-9.408 1.952-18.272 4.896-26.656l101.76 101.76c-8.384 2.976-17.248 4.896-26.656 4.896C742.048 896.128 706.176 860.256 706.176 816.128z"/>
</svg>