<?xml version="1.0" standalone="no"?><!DOCTYPE svg PUBLIC "-//W3C//DTD SVG 1.1//EN"
        "http://www.w3.org/Graphics/SVG/1.1/DTD/svg11.dtd">
<svg class="icon" width="200px" height="200.00px" viewBox="0 0 1024 1024" version="1.1"
     xmlns="http://www.w3.org/2000/svg">
    <path d="M512 704c-106.666667 0-192-85.333333-192-192s85.333333-192 192-192 192 85.333333 192 192-85.333333 192-192 192z"
          fill="#FFFFFF"/>
    <path d="M838.4 552.533333c2.133333-12.8 2.133333-27.733333 2.133333-40.533333 0-14.933333-2.133333-27.733333-2.133333-42.666667l91.733333-70.4c8.533333-6.4 10.666667-17.066667 4.266667-27.733333l-87.466667-147.2c-4.266667-8.533333-17.066667-12.8-27.733333-8.533333l-108.8 42.666666c-23.466667-17.066667-46.933333-32-74.666667-42.666666L618.666667 102.4c-2.133333-10.666667-10.666667-17.066667-21.333334-17.066667h-174.933333c-10.666667 0-19.2 8.533333-21.333333 17.066667l-17.066667 113.066667c-27.733333 10.666667-51.2 25.6-74.666667 42.666666l-108.8-42.666666c-10.666667-4.266667-21.333333 0-27.733333 8.533333L85.333333 371.2c-6.4 8.533333-2.133333 21.333333 4.266667 27.733333L185.6 469.333333c-2.133333 14.933333-2.133333 27.733333-2.133333 42.666667s2.133333 27.733333 2.133333 40.533333l-91.733333 70.4c-8.533333 6.4-10.666667 17.066667-4.266667 27.733334l87.466667 147.2c4.266667 8.533333 17.066667 12.8 27.733333 8.533333l108.8-42.666667c23.466667 17.066667 46.933333 32 74.666667 42.666667l17.066666 113.066667c2.133333 10.666667 10.666667 17.066667 21.333334 17.066666h174.933333c10.666667 0 19.2-8.533333 21.333333-17.066666l17.066667-113.066667c27.733333-10.666667 51.2-25.6 74.666667-42.666667l108.8 42.666667c10.666667 4.266667 21.333333 0 27.733333-8.533333l87.466667-147.2c4.266667-8.533333 2.133333-21.333333-4.266667-27.733334l-96-70.4zM512 704c-106.666667 0-192-85.333333-192-192s85.333333-192 192-192 192 85.333333 192 192-85.333333 192-192 192z"
          fill="#868C94"/>
    <path d="M405.333333 512c0 42.666667 25.6 81.066667 66.133334 98.133333 40.533333 17.066667 85.333333 6.4 115.2-23.466666 29.866667-29.866667 40.533333-76.8 23.466666-115.2C593.066667 430.933333 554.666667 405.333333 512 405.333333c-59.733333 0-106.666667 46.933333-106.666667 106.666667z m0 0"
          fill="#103F91"/>
</svg>