<?xml version="1.0" standalone="no"?><!DOCTYPE svg PUBLIC "-//W3C//DTD SVG 1.1//EN"
        "http://www.w3.org/Graphics/SVG/1.1/DTD/svg11.dtd">
<svg class="icon" width="200px" height="200.00px" viewBox="0 0 1024 1024" version="1.1"
     xmlns="http://www.w3.org/2000/svg">
    <path d="M810.666667 85.333333H213.333333c-70.4 0-128 57.6-128 128v597.333334c0 70.4 57.6 128 128 128h597.333334c70.4 0 128-57.6 128-128V213.333333c0-70.4-57.6-128-128-128z"
          fill="#2B7CD3"/>
    <path d="M650.666667 614.4h-4.266667c-6.4-2.133333-12.8-4.266667-17.066667-4.266667l-6.4-2.133333c-32-12.8-51.2-29.866667-51.2-49.066667 0-8.533333 4.266667-14.933333 10.666667-23.466666l8.533333-8.533334c23.466667-27.733333 38.4-64 38.4-104.533333 0-78.933333-51.2-142.933333-115.2-142.933333-64 0-115.2 64-115.2 142.933333 0 44.8 17.066667 85.333333 44.8 113.066667l2.133334 2.133333c4.266667 6.4 10.666667 12.8 10.666666 23.466667 0 19.2-21.333333 38.4-57.6 49.066666h-4.266666c-4.266667 2.133333-8.533333 2.133333-12.8 4.266667-78.933333 23.466667-125.866667 68.266667-125.866667 117.333333 0 4.266667 2.133333 8.533333 4.266667 10.666667 2.133333 2.133333 6.4 4.266667 10.666666 4.266667H755.2c6.4-2.133333 12.8-6.4 12.8-14.933334 0-46.933333-44.8-91.733333-117.333333-117.333333z m-140.8 102.4L469.333333 665.6l40.533334-108.8 42.666666 108.8-42.666666 51.2z"
          fill="#FFFFFF"/>
</svg>