<?xml version="1.0" standalone="no"?><!DOCTYPE svg PUBLIC "-//W3C//DTD SVG 1.1//EN"
        "http://www.w3.org/Graphics/SVG/1.1/DTD/svg11.dtd">
<svg class="icon" width="200px" height="200.00px" viewBox="0 0 1024 1024" version="1.1"
     xmlns="http://www.w3.org/2000/svg">
    <path d="M757.333333 872.533333h-490.666666c-17.066667 0-32 14.933333-32 34.133334 0 17.066667 14.933333 32 32 32h492.8c17.066667 0 32-14.933333 32-34.133334 0-17.066667-14.933333-32-34.133334-32z"
          fill="#BD8C2F"/>
    <path d="M923.733333 326.4c-17.066667-25.6-44.8-40.533333-72.533333-40.533333-42.666667 0-78.933333 32-87.466667 74.666666-2.133333 6.4-2.133333 12.8-2.133333 19.2v17.066667c0 2.133333 0 4.266667 2.133333 6.4l-83.2 55.466667c-36.266667-70.4-70.4-140.8-106.666666-213.333334 2.133333-2.133333 2.133333-4.266667 4.266666-4.266666l2.133334-2.133334s2.133333-2.133333 2.133333-4.266666c2.133333-2.133333 2.133333-4.266667 4.266667-6.4l2.133333-2.133334s0-2.133333 2.133333-2.133333c0-2.133333 2.133333-2.133333 2.133334-4.266667s2.133333-4.266667 2.133333-6.4l2.133333-10.666666c0-2.133333 2.133333-4.266667 2.133334-6.4 2.133333-6.4 2.133333-12.8 2.133333-19.2C599.466667 128 561.066667 85.333333 512 85.333333s-87.466667 42.666667-87.466667 93.866667c0 6.4 0 12.8 2.133334 19.2 0 2.133333 0 4.266667 2.133333 6.4l2.133333 6.4c0 2.133333 2.133333 4.266667 2.133334 6.4 0 2.133333 2.133333 4.266667 2.133333 4.266667l2.133333 4.266666c2.133333 2.133333 2.133333 4.266667 4.266667 6.4 0 2.133333 2.133333 2.133333 2.133333 4.266667l2.133334 2.133333 2.133333 2.133334c2.133333 2.133333 2.133333 4.266667 4.266667 4.266666-36.266667 70.4-70.4 142.933333-106.666667 213.333334l-83.2-55.466667c0-2.133333 0-4.266667 2.133333-6.4v-2.133333-12.8c0-6.4 0-12.8-2.133333-19.2-8.533333-42.666667-44.8-74.666667-87.466667-74.666667-29.866667 0-57.6 14.933333-72.533333 40.533333-12.8 12.8-17.066667 29.866667-17.066667 49.066667v12.8c4.266667 29.866667 21.333333 55.466667 49.066667 70.4 2.133333 8.533333 4.266667 14.933333 6.4 23.466667l36.266667 136.533333c10.666667 42.666667 23.466667 85.333333 34.133333 128 8.533333 29.866667 23.466667 42.666667 53.333333 42.666667h494.933334c27.733333 0 44.8-12.8 53.333333-42.666667 12.8-44.8 23.466667-89.6 36.266667-134.4l40.533333-151.466667c25.6-12.8 44.8-40.533333 49.066667-70.4v-12.8c0-21.333333-4.266667-38.4-14.933334-53.333333zM196.266667 384v2.133333c-2.133333 2.133333-2.133333 4.266667-4.266667 6.4l-8.533333 12.8-14.933334-4.266666c-8.533333-2.133333-14.933333-8.533333-17.066666-17.066667-2.133333 0-2.133333-2.133333-2.133334-6.4 0-4.266667 0-6.4 2.133334-10.666667 4.266667-10.666667 12.8-17.066667 21.333333-17.066666 10.666667 0 21.333333 8.533333 23.466667 21.333333v6.4c2.133333 2.133333 2.133333 4.266667 0 6.4z m334.933333-189.866667c-2.133333 4.266667-6.4 6.4-10.666667 8.533334 0 0-6.4 4.266667-8.533333 4.266666-2.133333 0-8.533333-4.266667-8.533333-4.266666-4.266667-2.133333-8.533333-4.266667-10.666667-10.666667-2.133333 0-2.133333-2.133333-2.133333-4.266667v-2.133333c0-2.133333-2.133333-4.266667-2.133334-8.533333 0-14.933333 10.666667-25.6 23.466667-25.6s23.466667 12.8 23.466667 25.6c0 2.133333 0 6.4-2.133334 8.533333v2.133333c0 2.133333 0 4.266667-2.133333 6.4z m-177.066667 332.8z m471.466667-149.333333c0-4.266667 0-6.4 2.133333-10.666667 4.266667-10.666667 12.8-17.066667 21.333334-17.066666 10.666667 0 21.333333 8.533333 23.466666 21.333333v6.4c0 2.133333 0 6.4-2.133333 8.533333-2.133333 8.533333-10.666667 14.933333-17.066667 17.066667l-14.933333 4.266667-6.4-12.8c0-2.133333-2.133333-4.266667-4.266667-6.4 0-2.133333 0-2.133333-2.133333-4.266667v-6.4z"
          fill="#E7BE40"/>
    <path d="M576 512l49.066667 36.266667-89.6 134.4h-46.933334l-89.6-134.4L448 512l64 98.133333z" fill="#FFFFFF"/>
</svg>