<?xml version="1.0" standalone="no"?><!DOCTYPE svg PUBLIC "-//W3C//DTD SVG 1.1//EN"
        "http://www.w3.org/Graphics/SVG/1.1/DTD/svg11.dtd">
<svg class="icon" width="200px" height="200.00px" viewBox="0 0 1024 1024" version="1.1"
     xmlns="http://www.w3.org/2000/svg">
    <path d="M341.333333 682.666667c0-187.733333 153.6-341.333333 341.333334-341.333334 29.866667 0 57.6 4.266667 85.333333 10.666667V128c0-23.466667-19.2-42.666667-42.666667-42.666667H128c-23.466667 0-42.666667 19.2-42.666667 42.666667v725.333333c0 23.466667 19.2 42.666667 42.666667 42.666667h288c-46.933333-57.6-74.666667-132.266667-74.666667-213.333333z"
          fill="#E7BE40"/>
    <path d="M213.333333 213.333333h426.666667v64H213.333333zM213.333333 554.666667h85.333334v64h-85.333334z"
          fill="#FFE58F"/>
    <path d="M682.666667 682.666667m-256 0a256 256 0 1 0 512 0 256 256 0 1 0-512 0Z" fill="#DBA639"/>
    <path d="M817.066667 765.866667c4.266667 0 8.533333-2.133333 10.666666-6.4 2.133333-4.266667 4.266667-8.533333 4.266667-12.8l-6.4-17.066667c-2.133333-12.8-14.933333-23.466667-27.733333-23.466667h-76.8l-6.4-36.266666h-66.133334l-4.266666 36.266666h-76.8c-12.8 0-25.6 10.666667-27.733334 23.466667l-6.4 17.066667c-2.133333 4.266667 0 8.533333 2.133334 12.8 2.133333 4.266667 6.4 6.4 10.666666 6.4h270.933334z m0 0"
          fill="#FFFFFF"/>
    <path d="M682.666667 595.2m-81.066667 0a81.066667 81.066667 0 1 0 162.133333 0 81.066667 81.066667 0 1 0-162.133333 0Z"
          fill="#FFFFFF"/>
    <path d="M817.066667 810.666667H548.266667c-8.533333 0-14.933333-6.4-14.933334-14.933334 0-8.533333 6.4-14.933333 14.933334-14.933333h268.8c8.533333 0 14.933333 6.4 14.933333 14.933333 0 8.533333-6.4 14.933333-14.933333 14.933334z"
          fill="#FFFFFF"/>
    <path d="M518.4 384H213.333333v64h221.866667c23.466667-25.6 51.2-46.933333 83.2-64z" fill="#FFE58F"/>
</svg>