<?xml version="1.0" standalone="no"?><!DOCTYPE svg PUBLIC "-//W3C//DTD SVG 1.1//EN"
        "http://www.w3.org/Graphics/SVG/1.1/DTD/svg11.dtd">
<svg class="icon" width="200px" height="200.00px" viewBox="0 0 1024 1024" version="1.1"
     xmlns="http://www.w3.org/2000/svg">
    <path d="M832 938.666667H234.666667c-46.933333 0-85.333333-38.4-85.333334-85.333334V170.666667c0-46.933333 38.4-85.333333 85.333334-85.333334h597.333333c46.933333 0 85.333333 38.4 85.333333 85.333334v682.666666c0 46.933333-38.4 85.333333-85.333333 85.333334z"
          fill="#FF7A45"/>
    <path d="M320 938.666667h-85.333333c-46.933333 0-85.333333-38.4-85.333334-85.333334V170.666667c0-46.933333 38.4-85.333333 85.333334-85.333334h85.333333v853.333334z"
          fill="#C43E1C"/>
    <path d="M618.666667 448m-106.666667 0a106.666667 106.666667 0 1 0 213.333333 0 106.666667 106.666667 0 1 0-213.333333 0Z"
          fill="#C43E1C"/>
    <path d="M810.666667 725.333333v-32c0-25.6-14.933333-49.066667-40.533334-61.866666-29.866667-14.933333-81.066667-34.133333-151.466666-34.133334s-123.733333 19.2-151.466667 32c-23.466667 12.8-40.533333 36.266667-40.533333 59.733334V725.333333h384z"
          fill="#C43E1C"/>
    <path d="M93.866667 405.333333h151.466666c19.2 0 29.866667-12.8 29.866667-32s-10.666667-32-27.733333-32H93.866667c-17.066667 0-29.866667 12.8-29.866667 32S76.8 405.333333 93.866667 405.333333zM93.866667 682.666667h151.466666c19.2 0 29.866667-12.8 29.866667-32s-10.666667-32-27.733333-32H93.866667c-17.066667 0-29.866667 12.8-29.866667 32S76.8 682.666667 93.866667 682.666667z"
          fill="#FF8F6B"/>
</svg>