<?xml version="1.0" standalone="no"?><!DOCTYPE svg PUBLIC "-//W3C//DTD SVG 1.1//EN"
        "http://www.w3.org/Graphics/SVG/1.1/DTD/svg11.dtd">
<svg class="icon" width="200px" height="200.00px" viewBox="0 0 1024 1024" version="1.1"
     xmlns="http://www.w3.org/2000/svg">
    <path d="M616.533333 428.8c12.8 0 23.466667-10.666667 23.466667-21.333333 0-12.8-10.666667-21.333333-23.466667-21.333334h-46.933333l55.466667-49.066666c8.533333-8.533333 8.533333-23.466667 0-32-6.4-4.266667-12.8-6.4-19.2-6.4-6.4 0-12.8 2.133333-17.066667 6.4l-78.933333 72.533333-74.666667-68.266667c-4.266667-4.266667-10.666667-6.4-17.066667-6.4-6.4 0-12.8 2.133333-17.066666 6.4-4.266667 4.266667-6.4 10.666667-6.4 14.933334 0 6.4 2.133333 10.666667 6.4 14.933333l49.066666 44.8h-42.666666c-8.533333 0-17.066667 4.266667-21.333334 10.666667-4.266667 6.4-4.266667 14.933333 0 21.333333 4.266667 6.4 12.8 10.666667 21.333334 10.666667h81.066666v36.266666h-81.066666c-8.533333 0-17.066667 4.266667-21.333334 10.666667-4.266667 6.4-4.266667 14.933333 0 21.333333 4.266667 6.4 12.8 10.666667 21.333334 10.666667h81.066666v64c0 8.533333 4.266667 14.933333 12.8 19.2 8.533333 4.266667 17.066667 4.266667 23.466667 0 8.533333-4.266667 12.8-10.666667 12.8-19.2v-64h78.933333c12.8 0 23.466667-10.666667 23.466667-21.333333 0-12.8-10.666667-21.333333-23.466667-21.333334h-78.933333V426.666667h78.933333z"
          fill="#41A5EE"/>
    <path d="M795.733333 87.466667c-2.133333 0-2.133333 2.133333-4.266666 2.133333-6.4 6.4-49.066667 44.8-55.466667 51.2-4.266667 4.266667-8.533333 4.266667-12.8 4.266667s-8.533333-2.133333-12.8-4.266667c-6.4-6.4-40.533333-44.8-46.933333-51.2-2.133333-2.133333-8.533333-4.266667-12.8-4.266667-4.266667 0-8.533333 2.133333-12.8 4.266667-6.4 6.4-49.066667 44.8-55.466667 51.2-4.266667 4.266667-8.533333 4.266667-12.8 4.266667s-8.533333-2.133333-12.8-4.266667c-6.4-6.4-40.533333-44.8-46.933333-51.2-2.133333-2.133333-6.4-4.266667-12.8-4.266667-4.266667 0-8.533333 2.133333-12.8 4.266667-6.4 6.4-40.533333 44.8-46.933334 51.2-4.266667 4.266667-8.533333 4.266667-12.8 4.266667-4.266667 0-8.533333-2.133333-12.8-4.266667-6.4-6.4-40.533333-44.8-46.933333-51.2-2.133333-2.133333-6.4-4.266667-10.666667-4.266667s-8.533333 2.133333-12.8 4.266667c-6.4 6.4-40.533333 44.8-46.933333 51.2-4.266667 4.266667-8.533333 4.266667-12.8 4.266667-4.266667 0-8.533333-2.133333-12.8-4.266667-6.4-6.4-38.4-44.8-46.933333-51.2C204.8 98.133333 192 117.333333 192 138.666667V725.333333h81.066667V228.266667c2.133333 2.133333 6.4 4.266667 10.666666 4.266666s8.533333-2.133333 12.8-4.266666c6.4-6.4 40.533333-44.8 46.933334-51.2 2.133333-4.266667 6.4-6.4 10.666666-6.4s8.533333 2.133333 12.8 4.266666c6.4 6.4 40.533333 44.8 46.933334 51.2 4.266667 4.266667 8.533333 4.266667 12.8 4.266667 4.266667 0 8.533333-2.133333 12.8-4.266667 6.4-6.4 40.533333-44.8 46.933333-51.2 2.133333-2.133333 6.4-4.266667 10.666667-4.266666s8.533333 2.133333 12.8 4.266666c6.4 6.4 40.533333 44.8 46.933333 51.2 4.266667 4.266667 8.533333 4.266667 12.8 4.266667s8.533333-2.133333 12.8-4.266667c6.4-6.4 49.066667-44.8 55.466667-51.2 4.266667-2.133333 8.533333-4.266667 12.8-4.266666 4.266667 0 8.533333 2.133333 12.8 4.266666 6.4 6.4 40.533333 44.8 46.933333 51.2 4.266667 4.266667 8.533333 4.266667 12.8 4.266667s8.533333-2.133333 12.8-4.266667c2.133333-2.133333 8.533333-8.533333 17.066667-14.933333v512H832V138.666667c0-23.466667-14.933333-42.666667-36.266667-51.2z"
          fill="#2B7CD3"/>
    <path d="M213.333333 768h597.333334l42.666666 170.666667 85.333334-2.133334-2.133334-426.666666c0-29.866667-23.466667-53.333333-53.333333-53.333334h-128v213.333334l-490.666667 2.133333v-213.333333h-128C108.8 458.666667 85.333333 482.133333 85.333333 512l2.133334 426.666667 85.333333-2.133334L213.333333 768z"
          fill="#2B7CD3"/>
    <path d="M288 864m-32 0a32 32 0 1 0 64 0 32 32 0 1 0-64 0Z" fill="#185ABD"/>
    <path d="M437.333333 864m-32 0a32 32 0 1 0 64 0 32 32 0 1 0-64 0Z" fill="#185ABD"/>
    <path d="M586.666667 864m-32 0a32 32 0 1 0 64 0 32 32 0 1 0-64 0Z" fill="#185ABD"/>
    <path d="M736 864m-32 0a32 32 0 1 0 64 0 32 32 0 1 0-64 0Z" fill="#185ABD"/>
</svg>