<?xml version="1.0" standalone="no"?><!DOCTYPE svg PUBLIC "-//W3C//DTD SVG 1.1//EN"
        "http://www.w3.org/Graphics/SVG/1.1/DTD/svg11.dtd">
<svg class="icon" width="200px" height="200.00px" viewBox="0 0 1024 1024" version="1.1"
     xmlns="http://www.w3.org/2000/svg">
    <path d="M938.666667 896H85.333333c-23.466667 0-42.666667-19.2-42.666666-42.666667V170.666667c0-23.466667 19.2-42.666667 42.666666-42.666667h853.333334c23.466667 0 42.666667 19.2 42.666666 42.666667v682.666666c0 23.466667-19.2 42.666667-42.666666 42.666667z"
          fill="#41A5EE"/>
    <path d="M693.333333 441.6c-57.6 0-104.533333-44.8-104.533333-102.4s46.933333-102.4 104.533333-102.4 104.533333 44.8 104.533334 102.4-46.933333 102.4-104.533334 102.4z"
          fill="#F3F3F3"/>
    <path d="M142.933333 896H704l-61.866667-108.8c4.266667 0 6.4 0 10.666667-2.133333 8.533333-4.266667 10.666667-14.933333 6.4-23.466667L437.333333 388.266667c-4.266667-6.4-8.533333-8.533333-14.933333-8.533334-6.4 0-12.8 4.266667-14.933333 8.533334L106.666667 887.466667c0 2.133333-2.133333 6.4-2.133334 8.533333h38.4z"
          fill="#185ABD"/>
    <path d="M900.266667 896c0-2.133333 0-6.4-2.133334-8.533333l-147.2-245.333334c-4.266667-6.4-8.533333-8.533333-14.933333-8.533333-6.4 0-12.8 4.266667-14.933333 8.533333L576 887.466667c-2.133333 2.133333-2.133333 6.4-2.133333 8.533333h326.4z"
          fill="#2B7CD3"/>
</svg>