<?xml version="1.0" standalone="no"?><!DOCTYPE svg PUBLIC "-//W3C//DTD SVG 1.1//EN"
        "http://www.w3.org/Graphics/SVG/1.1/DTD/svg11.dtd">
<svg class="icon" width="200px" height="200.00px" viewBox="0 0 1024 1024" version="1.1"
     xmlns="http://www.w3.org/2000/svg">
    <path d="M262.4 981.333333h550.4c46.933333 0 83.2-36.266667 83.2-83.2v-320H128v268.8c0 74.666667 59.733333 134.4 134.4 134.4z"
          fill="#B8C6F2"/>
    <path d="M635.733333 981.333333H211.2C164.266667 981.333333 128 945.066667 128 898.133333V125.866667C128 78.933333 164.266667 42.666667 211.2 42.666667h597.333333C859.733333 42.666667 896 78.933333 896 125.866667v597.333333L635.733333 981.333333z"
          fill="#7B83EB"/>
    <path d="M637.866667 981.333333v-194.133333c0-34.133333 27.733333-64 64-64H896L637.866667 981.333333z m0 0"
          fill="#3D48A8"/>
    <path d="M294.4 646.4h433.066667c19.2 0 34.133333-12.8 34.133333-34.133333 0-19.2-12.8-34.133333-34.133333-34.133334H294.4c-19.2 0-34.133333 12.8-34.133333 34.133334 2.133333 21.333333 14.933333 34.133333 34.133333 34.133333z"
          fill="#FFFFFF" opacity=".75"/>
    <path d="M561.066667 477.866667h166.4c19.2 0 34.133333-12.8 34.133333-34.133334 0-19.2-12.8-34.133333-34.133333-34.133333h-166.4c-19.2 0-34.133333 12.8-34.133334 34.133333 2.133333 21.333333 14.933333 34.133333 34.133334 34.133334zM294.4 477.866667h134.4c19.2 0 34.133333-12.8 34.133333-34.133334V277.333333c0-19.2-12.8-34.133333-34.133333-34.133333h-134.4c-19.2 0-34.133333 12.8-34.133333 34.133333v168.533334c2.133333 19.2 14.933333 32 34.133333 32z m0 0M561.066667 311.466667h166.4c19.2 0 34.133333-12.8 34.133333-34.133334s-12.8-34.133333-34.133333-34.133333h-166.4c-19.2 0-34.133333 12.8-34.133334 34.133333s14.933333 34.133333 34.133334 34.133334z m0 0"
          fill="#FFFFFF"/>
</svg>