<?xml version="1.0" standalone="no"?><!DOCTYPE svg PUBLIC "-//W3C//DTD SVG 1.1//EN"
        "http://www.w3.org/Graphics/SVG/1.1/DTD/svg11.dtd">
<svg class="icon" width="200px" height="200.00px" viewBox="0 0 1024 1024" version="1.1"
     xmlns="http://www.w3.org/2000/svg">
    <path d="M846.933333 320v305.066667c0 66.133333-55.466667 121.6-121.6 121.6H206.933333v29.866666c0 51.2 40.533333 91.733333 91.733334 91.733334h503.466666L938.666667 960V411.733333c0-51.2-40.533333-91.733333-91.733334-91.733333z m0 0"
          fill="#FF8F6B"/>
    <path d="M221.866667 684.8L85.333333 776.533333V198.4C85.333333 147.2 125.866667 106.666667 177.066667 106.666667h518.4c51.2 0 91.733333 40.533333 91.733333 91.733333v396.8c0 51.2-40.533333 91.733333-91.733333 91.733333H221.866667z"
          fill="#D35230"/>
    <path d="M177.066667 396.8c0 17.066667 8.533333 32 23.466666 40.533333 14.933333 8.533333 32 8.533333 44.8 0 14.933333-8.533333 23.466667-23.466667 23.466667-40.533333 0-17.066667-8.533333-32-23.466667-40.533333-14.933333-8.533333-32-8.533333-44.8 0-14.933333 8.533333-23.466667 23.466667-23.466666 40.533333z m0 0M390.4 396.8c0 17.066667 8.533333 32 23.466667 40.533333 14.933333 8.533333 32 8.533333 44.8 0 14.933333-8.533333 23.466667-23.466667 23.466666-40.533333 0-17.066667-8.533333-32-23.466666-40.533333-14.933333-8.533333-32-8.533333-44.8 0-14.933333 8.533333-23.466667 23.466667-23.466667 40.533333z m0 0M603.733333 396.8c0 17.066667 8.533333 32 23.466667 40.533333 14.933333 8.533333 32 8.533333 44.8 0 14.933333-8.533333 23.466667-23.466667 23.466667-40.533333 0-17.066667-8.533333-32-23.466667-40.533333-14.933333-8.533333-32-8.533333-44.8 0-14.933333 8.533333-23.466667 23.466667-23.466667 40.533333z m0 0"
          fill="#FFFFFF" opacity=".95"/>
</svg>