<?xml version="1.0" standalone="no"?><!DOCTYPE svg PUBLIC "-//W3C//DTD SVG 1.1//EN"
        "http://www.w3.org/Graphics/SVG/1.1/DTD/svg11.dtd">
<svg class="icon" width="200px" height="200.00px" viewBox="0 0 1024 1024" version="1.1"
     xmlns="http://www.w3.org/2000/svg">
    <path d="M915.2 874.666667H108.8C72.533333 874.666667 42.666667 844.8 42.666667 810.666667v-160c0-36.266667 29.866667-64 66.133333-64h804.266667c36.266667 0 66.133333 29.866667 66.133333 64V810.666667c2.133333 34.133333-27.733333 64-64 64z m0 0"
          fill="#C43E1C"/>
    <path d="M710.4 170.666667v128H313.6V170.666667h396.8m0-64H313.6c-36.266667 0-66.133333 29.866667-66.133333 64v128c0 36.266667 29.866667 64 66.133333 64h396.8c36.266667 0 66.133333-29.866667 66.133333-64V170.666667c2.133333-34.133333-29.866667-64-66.133333-64z m0 0"
          fill="#595959"/>
    <path d="M915.2 234.666667H108.8C72.533333 234.666667 42.666667 262.4 42.666667 298.666667v384c0 36.266667 29.866667 64 66.133333 64h804.266667c36.266667 0 66.133333-29.866667 66.133333-64V298.666667c2.133333-36.266667-27.733333-64-64-64z"
          fill="#FF7A45"/>
    <path d="M646.4 524.8c0 17.066667-14.933333 32-34.133333 32h-200.533334c-19.2 0-34.133333-14.933333-34.133333-32s14.933333-32 34.133333-32h200.533334c19.2 0 34.133333 12.8 34.133333 32z"
          fill="#FFFFFF"/>
</svg>