<?xml version="1.0" standalone="no"?><!DOCTYPE svg PUBLIC "-//W3C//DTD SVG 1.1//EN"
        "http://www.w3.org/Graphics/SVG/1.1/DTD/svg11.dtd">
<svg class="icon" width="200px" height="200.00px" viewBox="0 0 1024 1024" version="1.1"
     xmlns="http://www.w3.org/2000/svg">
    <path d="M789.333333 733.866667c72.533333-2.133333 138.666667-32 189.866667-78.933334 2.133333-10.666667 2.133333-21.333333 2.133333-32 0-93.866667-53.333333-172.8-128-204.8L778.666667 512 704 418.133333c-23.466667 10.666667-66.133333 44.8-66.133333 44.8S789.333333 746.666667 789.333333 733.866667z"
          fill="#185ABD"/>
    <path d="M369.066667 294.4c0 78.933333 64 145.066667 142.933333 145.066667s142.933333-64 142.933333-145.066667c0-78.933333-64-145.066667-142.933333-145.066667s-142.933333 64-142.933333 145.066667z m0 0"
          fill="#41A5EE"/>
    <path d="M130.133333 288c0 64 51.2 117.333333 115.2 117.333333 64 0 115.2-51.2 115.2-117.333333 0-64-51.2-117.333333-115.2-117.333333-64 2.133333-115.2 53.333333-115.2 117.333333z m0 0"
          fill="#2B7CD3"/>
    <path d="M665.6 288c0 40.533333 21.333333 78.933333 57.6 100.266667 36.266667 21.333333 78.933333 21.333333 115.2 0 36.266667-21.333333 57.6-59.733333 57.6-100.266667 0-40.533333-21.333333-78.933333-57.6-100.266667-36.266667-21.333333-78.933333-21.333333-115.2 0-36.266667 21.333333-57.6 59.733333-57.6 100.266667z m0 0"
          fill="#185ABD"/>
    <path d="M384 462.933333c-19.2-19.2-40.533333-36.266667-66.133333-46.933333L245.333333 512 170.666667 418.133333c-74.666667 32-128 110.933333-128 204.8 0 10.666667 0 21.333333 2.133333 32 51.2 46.933333 117.333333 76.8 189.866667 78.933334h8.533333c76.8 0 145.066667-29.866667 200.533333-81.066667 2.133333-10.666667 2.133333-21.333333 2.133334-32 0-61.866667-23.466667-117.333333-61.866667-157.866667z"
          fill="#2B7CD3"/>
    <path d="M789.333333 733.866667z" fill="#3E8BF8"/>
    <path d="M789.333333 723.2v-2.133333c0-108.8-53.333333-204.8-132.266666-258.133334 0 0-32-19.2-40.533334-23.466666h-2.133333l-100.266667 125.866666-100.266666-125.866666h-2.133334c-8.533333 4.266667-40.533333 23.466667-40.533333 23.466666-78.933333 53.333333-132.266667 149.333333-132.266667 258.133334v42.666666C313.6 834.133333 407.466667 874.666667 512 874.666667h4.266667c104.533333 0 200.533333-40.533333 273.066666-110.933334v-40.533333z"
          fill="#41A5EE"/>
</svg>