<?xml version="1.0" standalone="no"?><!DOCTYPE svg PUBLIC "-//W3C//DTD SVG 1.1//EN"
        "http://www.w3.org/Graphics/SVG/1.1/DTD/svg11.dtd">
<svg class="icon" width="200px" height="200.00px" viewBox="0 0 1024 1024" version="1.1"
     xmlns="http://www.w3.org/2000/svg">
    <path d="M938.666667 832H85.333333c-23.466667 0-42.666667-19.2-42.666666-42.666667V192c0-23.466667 19.2-42.666667 42.666666-42.666667h853.333334c23.466667 0 42.666667 19.2 42.666666 42.666667v597.333333c0 23.466667-19.2 42.666667-42.666666 42.666667z"
          fill="#7B83EB"/>
    <path d="M512 362.666667m-106.666667 0a106.666667 106.666667 0 1 0 213.333334 0 106.666667 106.666667 0 1 0-213.333334 0Z"
          fill="#FFFFFF"/>
    <path d="M128 682.666667h128v85.333333H128zM341.333333 682.666667h128v85.333333h-128zM554.666667 682.666667h128v85.333333h-128zM768 682.666667h128v85.333333h-128z"
          fill="#4B53BC"/>
    <path d="M245.333333 874.666667h512v42.666666h-512z" fill="#5059C9"/>
    <path d="M704 597.333333c-4.266667-21.333333-17.066667-40.533333-38.4-53.333333-32-12.8-83.2-32-153.6-32-70.4 0-123.733333 19.2-151.466667 32-21.333333 10.666667-36.266667 32-38.4 53.333333H704z"
          fill="#FFFFFF"/>
</svg>