<?xml version="1.0" standalone="no"?><!DOCTYPE svg PUBLIC "-//W3C//DTD SVG 1.1//EN"
        "http://www.w3.org/Graphics/SVG/1.1/DTD/svg11.dtd">
<svg class="icon" width="200px" height="200.00px" viewBox="0 0 1024 1024" version="1.1"
     xmlns="http://www.w3.org/2000/svg">
    <path d="M526.933333 85.333333h57.6v179.2h68.266667c2.133333-36.266667-12.8-91.733333 29.866667-106.666666 59.733333-6.4 119.466667 0 181.333333-4.266667 23.466667 2.133333 53.333333-6.4 72.533333 14.933333 2.133333 14.933333 2.133333 29.866667 2.133334 44.8v407.466667c0 19.2-2.133333 36.266667-6.4 53.333333-29.866667 10.666667-59.733333 4.266667-89.6 6.4-2.133333 44.8 4.266667 91.733333-2.133334 136.533334-8.533333 23.466667-34.133333 21.333333-53.333333 23.466666h-200.533333V938.666667h-59.733334c-147.2-27.733333-292.266667-53.333333-439.466666-78.933334V164.266667C232.533333 138.666667 379.733333 113.066667 526.933333 85.333333z m0 0"
          fill="#185ABD"/>
    <path d="M697.6 187.733333c70.4-6.4 140.8-2.133333 211.2-2.133333v456.533333h-66.133333V283.733333c-44.8-36.266667-106.666667-53.333333-145.066667-96z m0 0"
          fill="#FFFFFF"/>
    <path d="M584.533333 294.4h221.866667V810.666667H584.533333v-59.733334H746.666667v-40.533333h-162.133334V661.333333H746.666667v-40.533333h-162.133334v-49.066667H746.666667v-40.533333h-162.133334v-51.2H746.666667v-136.533333h-162.133334v-49.066667zM424.533333 369.066667h-196.266666c-17.066667 0-29.866667 12.8-29.866667 29.866666v224c0 17.066667 12.8 29.866667 29.866667 29.866667h196.266666c8.533333 0 14.933333-2.133333 21.333334-8.533333 6.4-6.4 8.533333-12.8 8.533333-21.333334V398.933333c0-14.933333-12.8-29.866667-29.866667-29.866666z"
          fill="#FFFFFF"/>
    <path d="M258.133333 428.8h74.666667c6.4 0 12.8 6.4 12.8 12.8s-6.4 12.8-12.8 12.8h-74.666667c-6.4 0-12.8-6.4-12.8-12.8s4.266667-12.8 12.8-12.8zM394.666667 595.2H256c-6.4 0-12.8-6.4-12.8-12.8s6.4-12.8 12.8-12.8h138.666667c6.4 0 12.8 6.4 12.8 12.8 0 8.533333-4.266667 12.8-12.8 12.8zM394.666667 524.8H256c-6.4 0-12.8-6.4-12.8-12.8s6.4-12.8 12.8-12.8h138.666667c6.4 0 12.8 6.4 12.8 12.8 0 8.533333-4.266667 12.8-12.8 12.8z"
          fill="#41A5EE"/>
</svg>