<?xml version="1.0" standalone="no"?><!DOCTYPE svg PUBLIC "-//W3C//DTD SVG 1.1//EN"
        "http://www.w3.org/Graphics/SVG/1.1/DTD/svg11.dtd">
<svg class="icon" width="200px" height="200.00px" viewBox="0 0 1024 1024" version="1.1"
     xmlns="http://www.w3.org/2000/svg">
    <path d="M810.666667 981.333333H213.333333c-46.933333 0-85.333333-38.4-85.333333-85.333333v-128h768v128c0 46.933333-38.4 85.333333-85.333333 85.333333z"
          fill="#BD8C2F"/>
    <path d="M128 554.666667h768v213.333333H128z" fill="#DBA639"/>
    <path d="M128 341.333333h768v213.333334H128z" fill="#E7BE40"/>
    <path d="M896 341.333333H128v-128c0-46.933333 38.4-85.333333 85.333333-85.333333h597.333334c46.933333 0 85.333333 38.4 85.333333 85.333333v128z"
          fill="#F7D348"/>
    <path d="M640 981.333333H213.333333c-46.933333 0-85.333333-38.4-85.333333-85.333333V213.333333c0-46.933333 38.4-85.333333 85.333333-85.333333h426.666667v853.333333z"
          fill="#F7D348"/>
    <path d="M650.666667 256h-277.333334c-40.533333 0-74.666667-29.866667-74.666666-68.266667V110.933333C298.666667 72.533333 332.8 42.666667 373.333333 42.666667h277.333334C691.2 42.666667 725.333333 72.533333 725.333333 110.933333v76.8c0 38.4-34.133333 68.266667-74.666666 68.266667z"
          fill="#B7712E"/>
    <path d="M373.333333 106.666667c-6.4 0-10.666667 4.266667-10.666666 8.533333v68.266667c0 4.266667 4.266667 8.533333 10.666666 8.533333h277.333334c6.4 0 10.666667-4.266667 10.666666-8.533333V115.2c0-4.266667-4.266667-8.533333-10.666666-8.533333h-277.333334zM484.266667 362.666667h-202.666667c-14.933333 0-27.733333 14.933333-27.733333 32s12.8 32 27.733333 32h202.666667c14.933333 0 25.6-14.933333 25.6-32 2.133333-17.066667-8.533333-32-25.6-32zM484.266667 554.666667h-202.666667c-14.933333 0-27.733333 14.933333-27.733333 32s12.8 32 27.733333 32h202.666667c14.933333 0 25.6-14.933333 25.6-32 2.133333-17.066667-8.533333-32-25.6-32zM484.266667 768h-202.666667c-14.933333 0-27.733333 14.933333-27.733333 32s12.8 32 27.733333 32h202.666667c14.933333 0 25.6-14.933333 25.6-32 2.133333-17.066667-8.533333-32-25.6-32z"
          fill="#FFFFFF"/>
</svg>