<?xml version="1.0" standalone="no"?><!DOCTYPE svg PUBLIC "-//W3C//DTD SVG 1.1//EN"
        "http://www.w3.org/Graphics/SVG/1.1/DTD/svg11.dtd">
<svg class="icon" width="200px" height="200.00px" viewBox="0 0 1024 1024" version="1.1"
     xmlns="http://www.w3.org/2000/svg">
    <path d="M407.466667 439.466667H115.2c-17.066667 0-29.866667-12.8-29.866667-29.866667V115.2C85.333333 98.133333 98.133333 85.333333 115.2 85.333333h292.266667c17.066667 0 29.866667 12.8 29.866666 29.866667v294.4c-2.133333 17.066667-14.933333 29.866667-29.866666 29.866667z m0 0"
          fill="#185ABD"/>
    <path d="M844.8 439.466667H552.533333c-17.066667 0-29.866667-12.8-29.866666-29.866667V115.2c0-17.066667 12.8-29.866667 29.866666-29.866667h292.266667c17.066667 0 29.866667 12.8 29.866667 29.866667v294.4c0 17.066667-12.8 29.866667-29.866667 29.866667z m0 0M407.466667 876.8H115.2c-17.066667 0-29.866667-12.8-29.866667-29.866667V552.533333c0-17.066667 12.8-29.866667 29.866667-29.866666h292.266667c17.066667 0 29.866667 12.8 29.866666 29.866666v294.4c-2.133333 17.066667-14.933333 29.866667-29.866666 29.866667z m0 0"
          fill="#41A5EE"/>
    <path d="M934.4 896l-93.866667-93.866667c53.333333-72.533333 46.933333-174.933333-17.066666-238.933333-36.266667-36.266667-83.2-53.333333-130.133334-53.333333-46.933333 0-93.866667 17.066667-130.133333 53.333333-72.533333 72.533333-70.4 189.866667 0 262.4 36.266667 36.266667 83.2 53.333333 130.133333 53.333333 38.4 0 74.666667-12.8 106.666667-36.266666l93.866667 93.866666c4.266667 4.266667 12.8 4.266667 17.066666 0l23.466667-23.466666c6.4-6.4 6.4-12.8 0-17.066667z m-326.4-115.2c-49.066667-49.066667-49.066667-128 0-177.066667 23.466667-23.466667 55.466667-36.266667 87.466667-36.266666 34.133333 0 64 12.8 87.466666 36.266666 49.066667 49.066667 49.066667 128 0 177.066667-23.466667 23.466667-55.466667 36.266667-87.466666 36.266667-34.133333 0-64-12.8-87.466667-36.266667z m0 0"
          fill="#185ABD"/>
</svg>