<?xml version="1.0" standalone="no"?><!DOCTYPE svg PUBLIC "-//W3C//DTD SVG 1.1//EN"
        "http://www.w3.org/Graphics/SVG/1.1/DTD/svg11.dtd">
<svg class="icon" width="200px" height="200.00px" viewBox="0 0 1024 1024" version="1.1"
     xmlns="http://www.w3.org/2000/svg">
    <path d="M625.066667 315.733333H398.933333c-68.266667 0-121.6 34.133333-164.266666 85.333334h556.8c-44.8-51.2-98.133333-85.333333-166.4-85.333334z"
          fill="#F7D348"/>
    <path d="M93.866667 742.4h838.4c-8.533333-40.533333-23.466667-104.533333-46.933334-170.666667H140.8c-25.6 66.133333-40.533333 130.133333-46.933333 170.666667z"
          fill="#DBA639"/>
    <path d="M883.2 571.733333c-21.333333-59.733333-53.333333-123.733333-93.866667-170.666666H232.533333C192 448 162.133333 512 140.8 571.733333h742.4z"
          fill="#E7BE40"/>
    <path d="M642.133333 70.4c-74.666667-2.133333-91.733333 49.066667-145.066666 49.066667-55.466667 0-81.066667-40.533333-149.333334-49.066667-66.133333-8.533333-78.933333 34.133333-78.933333 74.666667 0 0 17.066667 46.933333 44.8 85.333333 19.2 27.733333 44.8 51.2 72.533333 51.2h215.466667c27.733333 0 53.333333-23.466667 72.533333-51.2 27.733333-38.4 44.8-85.333333 44.8-85.333333 2.133333-42.666667-2.133333-72.533333-76.8-74.666667z"
          fill="#BD8C2F"/>
    <path d="M930.133333 742.4H93.866667C87.466667 770.133333 85.333333 789.333333 85.333333 789.333333c0 14.933333 2.133333 29.866667 8.533334 42.666667 6.4 14.933333 14.933333 29.866667 25.6 42.666667 21.333333 23.466667 51.2 38.4 83.2 38.4h618.666666c32 0 61.866667-14.933333 83.2-38.4 10.666667-12.8 21.333333-27.733333 25.6-42.666667 6.4-14.933333 8.533333-27.733333 8.533334-42.666667 0 0-2.133333-19.2-8.533334-46.933333z"
          fill="#B7712E"/>
    <path d="M635.733333 661.333333c12.8 0 25.6 10.666667 25.6 21.333334 0 12.8-10.666667 21.333333-25.6 21.333333h-100.266666v57.6c0 12.8-10.666667 21.333333-25.6 21.333333-12.8 0-25.6-10.666667-25.6-21.333333V704H384c-12.8 0-25.6-10.666667-25.6-21.333333 0-12.8 10.666667-21.333333 25.6-21.333334h100.266667v-27.733333H384c-12.8 0-25.6-10.666667-25.6-21.333333 0-12.8 10.666667-21.333333 25.6-21.333334h68.266667l-70.4-110.933333c-6.4-10.666667-2.133333-23.466667 8.533333-29.866667 12.8-6.4 27.733333-2.133333 34.133333 8.533334l83.2 134.4h4.266667l83.2-134.4c6.4-10.666667 21.333333-14.933333 34.133333-8.533334 12.8 6.4 14.933333 19.2 8.533334 29.866667l-70.4 110.933333h64c12.8 0 25.6 10.666667 25.6 21.333334s-10.666667 21.333333-25.6 21.333333h-100.266667V661.333333h104.533333z"
          fill="#FFFFFF"/>
</svg>