<?xml version="1.0" standalone="no"?><!DOCTYPE svg PUBLIC "-//W3C//DTD SVG 1.1//EN"
        "http://www.w3.org/Graphics/SVG/1.1/DTD/svg11.dtd">
<svg class="icon" width="200px" height="200.00px" viewBox="0 0 1024 1024" version="1.1"
     xmlns="http://www.w3.org/2000/svg">
    <path d="M211.2 533.333333h106.666667v106.666667h-106.666667zM211.2 682.666667h106.666667v106.666666h-106.666667zM360.533333 533.333333h106.666667v106.666667h-106.666667z"
          fill="#0B544A"/>
    <path d="M110.933333 85.333333h800c17.066667 0 27.733333 8.533333 27.733334 23.466667V320H85.333333V108.8C85.333333 93.866667 96 85.333333 110.933333 85.333333z"
          fill="#1BBAA8"/>
    <path d="M934.4 896l-93.866667-93.866667c53.333333-72.533333 46.933333-174.933333-17.066666-238.933333-36.266667-36.266667-83.2-53.333333-130.133334-53.333333-46.933333 0-93.866667 17.066667-130.133333 53.333333-72.533333 72.533333-70.4 189.866667 0 262.4 36.266667 36.266667 83.2 53.333333 130.133333 53.333333 38.4 0 74.666667-12.8 106.666667-36.266666l93.866667 93.866666c4.266667 4.266667 12.8 4.266667 17.066666 0l23.466667-23.466666c6.4-6.4 6.4-12.8 0-17.066667z m-326.4-115.2c-49.066667-49.066667-49.066667-128 0-177.066667 23.466667-23.466667 55.466667-36.266667 87.466667-36.266666 34.133333 0 64 12.8 87.466666 36.266666 49.066667 49.066667 49.066667 128 0 177.066667-23.466667 23.466667-55.466667 36.266667-87.466666 36.266667-34.133333 0-64-12.8-87.466667-36.266667z m0 0"
          fill="#099080"/>
    <path d="M149.333333 874.666667V469.333333h725.333334v42.666667h64v-106.666667H85.333333v533.333334h424.533334v-64z"
          fill="#1BBAA8"/>
</svg>