<?xml version="1.0" standalone="no"?><!DOCTYPE svg PUBLIC "-//W3C//DTD SVG 1.1//EN"
        "http://www.w3.org/Graphics/SVG/1.1/DTD/svg11.dtd">
<svg class="icon" width="200px" height="200.00px" viewBox="0 0 1024 1024" version="1.1"
     xmlns="http://www.w3.org/2000/svg">
    <path d="M576 917.333333h-42.666667c-12.8 0-21.333333-8.533333-21.333333-21.333333V597.333333c0-12.8 8.533333-21.333333 21.333333-21.333333h42.666667c12.8 0 21.333333 8.533333 21.333333 21.333333v298.666667c0 12.8-10.666667 21.333333-21.333333 21.333333zM305.066667 170.666667c-108.8 0-196.266667 87.466667-196.266667 194.133333V682.666667h394.666667V364.8c0-106.666667-89.6-194.133333-198.4-194.133333z m0 0"
          fill="#185ABD"/>
    <path d="M526.933333 597.333333H245.333333c-23.466667 0-42.666667-19.2-42.666666-42.666666v-172.8c0-23.466667 19.2-42.666667 42.666666-42.666667h279.466667c23.466667 0 42.666667 19.2 42.666667 42.666667V554.666667c2.133333 23.466667-17.066667 42.666667-40.533334 42.666666z m0 0"
          fill="#D2E4FF"/>
    <path d="M569.6 384c0-12.8-4.266667-23.466667-12.8-32-8.533333-8.533333-19.2-12.8-32-12.8H249.6c-25.6 0-44.8 21.333333-44.8 44.8v8.533333l166.4 87.466667c10.666667 6.4 23.466667 6.4 34.133333 0l166.4-87.466667V384z m0 0"
          fill="#FFFFFF"/>
    <path d="M721.066667 170.666667h-405.333334c104.533333 4.266667 187.733333 89.6 187.733334 194.133333V682.666667h388.266666c25.6 0 46.933333-21.333333 46.933334-46.933334V388.266667C938.666667 268.8 840.533333 170.666667 721.066667 170.666667z m0 0M110.933333 682.666667l-23.466666 108.8C76.8 838.4 113.066667 874.666667 164.266667 874.666667h204.8c51.2 0 102.4-36.266667 110.933333-83.2l21.333333-108.8H110.933333z m0 0"
          fill="#41A5EE"/>
    <path d="M872.533333 128h-128c-12.8 0-21.333333-8.533333-21.333333-21.333333V85.333333c0-12.8 8.533333-21.333333 21.333333-21.333333h128c12.8 0 21.333333 8.533333 21.333334 21.333333v21.333334c0 12.8-10.666667 21.333333-21.333334 21.333333z"
          fill="#C43E1C"/>
    <path d="M744.533333 405.333333c-10.666667 0-21.333333-8.533333-21.333333-21.333333V85.333333c0-10.666667 8.533333-21.333333 21.333333-21.333333 10.666667 0 21.333333 8.533333 21.333334 21.333333v298.666667c0 12.8-8.533333 21.333333-21.333334 21.333333z"
          fill="#C43E1C"/>
    <path d="M723.2 384a42.666667 42.666667 0 1 0 85.333333 0 42.666667 42.666667 0 1 0-85.333333 0Z" fill="#D35230"/>
    <path d="M851.2 618.666667h-21.333333c-12.8 0-21.333333-8.533333-21.333334-21.333334v-21.333333c0-12.8 8.533333-21.333333 21.333334-21.333333h21.333333c12.8 0 21.333333 8.533333 21.333333 21.333333v21.333333c0 12.8-8.533333 21.333333-21.333333 21.333334z"
          fill="#FFFFFF"/>
</svg>