<?xml version="1.0" standalone="no"?><!DOCTYPE svg PUBLIC "-//W3C//DTD SVG 1.1//EN"
        "http://www.w3.org/Graphics/SVG/1.1/DTD/svg11.dtd">
<svg class="icon" width="200px" height="200.00px" viewBox="0 0 1024 1024" version="1.1"
     xmlns="http://www.w3.org/2000/svg">
    <path d="M896 896H85.333333c-23.466667 0-42.666667-19.2-42.666666-42.666667V170.666667c0-23.466667 19.2-42.666667 42.666666-42.666667h768c23.466667 0 42.666667 19.2 42.666667 42.666667v725.333333z"
          fill="#AE4BD5"/>
    <path d="M789.333333 341.333333H149.333333c-12.8 0-21.333333-8.533333-21.333333-21.333333v-42.666667c0-12.8 8.533333-21.333333 21.333333-21.333333h640c12.8 0 21.333333 8.533333 21.333334 21.333333v42.666667c0 12.8-8.533333 21.333333-21.333334 21.333333zM362.666667 682.666667H149.333333c-12.8 0-21.333333-8.533333-21.333333-21.333334V448c0-12.8 8.533333-21.333333 21.333333-21.333333h213.333334c12.8 0 21.333333 8.533333 21.333333 21.333333v213.333333c0 12.8-8.533333 21.333333-21.333333 21.333334zM810.666667 490.666667H554.666667v-42.666667c0-12.8 8.533333-21.333333 21.333333-21.333333h213.333333c12.8 0 21.333333 8.533333 21.333334 21.333333v42.666667z"
          fill="#FFFFFF"/>
    <path d="M554.666667 490.666667h256v64H554.666667z" fill="#CA64EA"/>
    <path d="M789.333333 618.666667H576c-12.8 0-21.333333-8.533333-21.333333-21.333334v-42.666666h256v42.666666c0 12.8-8.533333 21.333333-21.333334 21.333334z"
          fill="#9332BF"/>
    <path d="M938.666667 896h-42.666667V256h42.666667c23.466667 0 42.666667 19.2 42.666666 42.666667v554.666666c0 23.466667-19.2 42.666667-42.666666 42.666667z"
          fill="#7719AA"/>
</svg>