<?xml version="1.0" standalone="no"?><!DOCTYPE svg PUBLIC "-//W3C//DTD SVG 1.1//EN"
        "http://www.w3.org/Graphics/SVG/1.1/DTD/svg11.dtd">
<svg class="icon" width="200px" height="200.00px" viewBox="0 0 1024 1024" version="1.1"
     xmlns="http://www.w3.org/2000/svg">
    <path d="M981.333333 266.666667v418.133333c-2.133333 32-27.733333 57.6-59.733333 55.466667H294.4c-19.2 2.133333-36.266667-6.4-46.933333-21.333334-10.666667-14.933333-14.933333-34.133333-10.666667-51.2l100.266667-290.133333H98.133333c-29.866667 2.133333-53.333333-21.333333-55.466666-49.066667v-149.333333C44.8 149.333333 68.266667 125.866667 98.133333 128h296.533334c21.333333 0 40.533333 10.666667 49.066666 27.733333l29.866667 55.466667h448c32-2.133333 57.6 23.466667 59.733333 55.466667z m0 0"
          fill="#185ABD"/>
    <path d="M87.466667 298.666667h849.066666c29.866667 0 44.8 14.933333 44.8 44.8V853.333333c0 29.866667-14.933333 44.8-44.8 44.8H87.466667C57.6 896 42.666667 881.066667 42.666667 851.2V343.466667c0-29.866667 14.933333-44.8 44.8-44.8z"
          fill="#41A5EE"/>
    <path d="M533.333333 454.4l34.133334 68.266667 76.8 10.666666c8.533333 2.133333 17.066667 8.533333 19.2 17.066667 2.133333 8.533333 0 19.2-6.4 25.6l-55.466667 53.333333 12.8 74.666667c2.133333 8.533333-2.133333 19.2-8.533333 23.466667-8.533333 6.4-17.066667 6.4-25.6 2.133333L512 693.333333l-66.133333 36.266667c-8.533333 4.266667-17.066667 4.266667-25.6-2.133333-6.4-6.4-10.666667-14.933333-8.533334-23.466667l12.8-74.666667-55.466666-53.333333c-6.4-6.4-8.533333-17.066667-6.4-25.6 2.133333-8.533333 10.666667-14.933333 19.2-17.066667l74.666666-10.666666 34.133334-68.266667c4.266667-8.533333 12.8-14.933333 21.333333-14.933333 10.666667 0 19.2 6.4 21.333333 14.933333z m0 0"
          fill="#FFFFFF" opacity=".75"/>
</svg>