<?xml version="1.0" standalone="no"?><!DOCTYPE svg PUBLIC "-//W3C//DTD SVG 1.1//EN"
        "http://www.w3.org/Graphics/SVG/1.1/DTD/svg11.dtd">
<svg class="icon" width="200px" height="200.00px" viewBox="0 0 1024 1024" version="1.1"
     xmlns="http://www.w3.org/2000/svg">
    <path d="M936.533333 388.266667c-2.133333-21.333333-12.8-40.533333-29.866666-51.2L552.533333 76.8c-23.466667-17.066667-57.6-17.066667-81.066666 0L115.2 337.066667c-17.066667 12.8-27.733333 32-29.866667 51.2l437.333334 249.6 413.866666-249.6z"
          fill="#103F91"/>
    <path d="M213.333333 320h597.333334v512H213.333333z" fill="#FFFFFF"/>
    <path d="M384 475.733333h-57.6c-8.533333 0-14.933333-6.4-14.933333-14.933333v-57.6c0-8.533333 6.4-14.933333 14.933333-14.933333H384c8.533333 0 14.933333 6.4 14.933333 14.933333v57.6c-2.133333 8.533333-8.533333 14.933333-14.933333 14.933333z m0 0M595.2 418.133333h-140.8c-8.533333 0-14.933333-6.4-14.933333-14.933333 0-8.533333 6.4-14.933333 14.933333-14.933333h140.8c8.533333 0 14.933333 6.4 14.933333 14.933333 0 8.533333-6.4 14.933333-14.933333 14.933333z m85.333333 57.6H454.4c-8.533333 0-14.933333-6.4-14.933333-14.933333 0-8.533333 6.4-14.933333 14.933333-14.933333h226.133333c8.533333 0 14.933333 6.4 14.933334 14.933333-2.133333 8.533333-8.533333 14.933333-14.933334 14.933333z m0 0"
          fill="#41A5EE"/>
    <path d="M908.8 857.6L522.666667 637.866667 85.333333 388.266667v460.8c2.133333 66.133333 12.8 68.266667 85.333334 68.266666h697.6c51.2 0 66.133333-4.266667 68.266666-44.8l-27.733333-14.933333z"
          fill="#2B7CD3"/>
    <path d="M936.533333 388.266667L522.666667 637.866667l386.133333 219.733333 27.733333 14.933333c0-10.666667 2.133333-23.466667 2.133334-40.533333V396.8c0-2.133333-2.133333-6.4-2.133334-8.533333z"
          fill="#41A5EE"/>
</svg>