<?xml version="1.0" standalone="no"?><!DOCTYPE svg PUBLIC "-//W3C//DTD SVG 1.1//EN"
        "http://www.w3.org/Graphics/SVG/1.1/DTD/svg11.dtd">
<svg class="icon" width="200px" height="200.00px" viewBox="0 0 1024 1024" version="1.1"
     xmlns="http://www.w3.org/2000/svg">
    <path d="M795.733333 292.266667L588.8 85.333333H85.333333v810.666667h725.333334V307.2l-14.933334-14.933333z m-200.533333-140.8l147.2 145.066666h-147.2V151.466667z"
          fill="#41A5EE"/>
    <path d="M213.333333 682.666667h170.666667v42.666666h-170.666667zM213.333333 554.666667h170.666667v42.666666h-170.666667zM445.866667 302.933333c12.8 0 23.466667-10.666667 23.466666-21.333333 0-12.8-10.666667-21.333333-23.466666-21.333333h-46.933334l55.466667-49.066667c8.533333-8.533333 8.533333-23.466667 0-32-6.4-6.4-12.8-8.533333-19.2-8.533333-6.4 0-12.8 2.133333-17.066667 6.4l-78.933333 72.533333-74.666667-68.266667c-4.266667-4.266667-10.666667-6.4-17.066666-6.4-6.4 0-12.8 2.133333-17.066667 6.4-4.266667 4.266667-6.4 10.666667-6.4 14.933334 0 6.4 2.133333 10.666667 6.4 14.933333l49.066667 44.8h-42.666667c-8.533333 0-17.066667 4.266667-21.333333 10.666667-4.266667 6.4-4.266667 14.933333 0 21.333333 4.266667 6.4 12.8 10.666667 21.333333 10.666667h81.066667v36.266666h-81.066667c-8.533333 0-17.066667 4.266667-21.333333 10.666667-4.266667 6.4-4.266667 14.933333 0 21.333333 4.266667 6.4 12.8 10.666667 21.333333 10.666667h81.066667v64c0 8.533333 4.266667 14.933333 12.8 19.2 8.533333 4.266667 17.066667 4.266667 23.466666 0 8.533333-4.266667 12.8-10.666667 12.8-19.2v-64h78.933334c12.8 0 23.466667-10.666667 23.466666-21.333333 0-12.8-10.666667-21.333333-23.466666-21.333334h-78.933334V298.666667h78.933334z"
          fill="#91D5FF"/>
    <path d="M595.2 296.533333h147.2l-147.2-145.066666z" fill="#FFFFFF"/>
    <path d="M490.666667 426.666667h384c36.266667 0 64 27.733333 64 64v384c0 36.266667-27.733333 64-64 64H490.666667c-36.266667 0-64-27.733333-64-64V490.666667c0-36.266667 27.733333-64 64-64z m0 0"
          fill="#185ABD"/>
    <path d="M554.666667 857.6c-6.4 0-12.8-2.133333-17.066667-6.4-8.533333-8.533333-8.533333-25.6 0-34.133333l256-256c8.533333-8.533333 25.6-8.533333 34.133333 0 8.533333 8.533333 8.533333 25.6 0 34.133333l-256 256c-4.266667 2.133333-10.666667 6.4-17.066666 6.4z m0 0M851.2 834.133333h-128c-12.8 0-23.466667-10.666667-23.466667-23.466666 0-12.8 10.666667-23.466667 23.466667-23.466667h128c12.8 0 23.466667 10.666667 23.466667 23.466667 0 12.8-10.666667 23.466667-23.466667 23.466666zM642.133333 620.8h-128c-12.8 0-23.466667-10.666667-23.466666-23.466667 0-12.8 10.666667-23.466667 23.466666-23.466666h128c12.8 0 23.466667 10.666667 23.466667 23.466666 0 12.8-10.666667 23.466667-23.466667 23.466667z"
          fill="#FFFFFF"/>
    <path d="M576 686.933333c-12.8 0-23.466667-10.666667-23.466667-23.466666v-128c0-12.8 10.666667-23.466667 23.466667-23.466667 12.8 0 23.466667 10.666667 23.466667 23.466667v128c0 12.8-10.666667 23.466667-23.466667 23.466666z m0 0"
          fill="#FFFFFF"/>
</svg>