<?xml version="1.0" standalone="no"?><!DOCTYPE svg PUBLIC "-//W3C//DTD SVG 1.1//EN"
        "http://www.w3.org/Graphics/SVG/1.1/DTD/svg11.dtd">
<svg class="icon" width="200px" height="200.00px" viewBox="0 0 1024 1024" version="1.1"
     xmlns="http://www.w3.org/2000/svg">
    <path d="M262.4 42.666667h501.333333C836.266667 42.666667 896 102.4 896 177.066667v669.866666c0 74.666667-59.733333 134.4-134.4 134.4H262.4C187.733333 981.333333 128 921.6 128 846.933333V177.066667C128 102.4 187.733333 42.666667 262.4 42.666667z"
          fill="#B5F5EC"/>
    <path d="M228.266667 42.666667h567.466666C853.333333 42.666667 896 85.333333 896 142.933333v569.6l-119.466667 130.133334-130.133333 138.666666H228.266667C170.666667 981.333333 128 938.666667 128 881.066667V142.933333C128 85.333333 170.666667 42.666667 228.266667 42.666667z m0 0"
          fill="#099080"/>
    <path d="M228.266667 42.666667h567.466666C853.333333 42.666667 896 85.333333 896 142.933333v569.6h-166.4c-46.933333 0-83.2 36.266667-83.2 83.2V981.333333H228.266667C170.666667 981.333333 128 938.666667 128 881.066667V142.933333C128 85.333333 170.666667 42.666667 228.266667 42.666667z"
          fill="#1BBAA8"/>
    <path d="M285.866667 695.466667h450.133333c12.8 0 27.733333-10.666667 27.733333-27.733334 0-12.8-10.666667-27.733333-27.733333-27.733333H285.866667c-12.8 0-27.733333 10.666667-27.733334 27.733333 4.266667 19.2 12.8 27.733333 27.733334 27.733334z m0-132.266667h450.133333c12.8 0 27.733333-10.666667 27.733333-27.733333 0-12.8-10.666667-27.733333-27.733333-27.733334H285.866667c-12.8 0-27.733333 10.666667-27.733334 27.733334 4.266667 17.066667 12.8 27.733333 27.733334 27.733333z m0 0"
          fill="#FFFFFF" opacity=".75"/>
    <path d="M590.933333 260.266667c-19.2-19.2-46.933333-29.866667-83.2-29.866667h-83.2v224h83.2c36.266667 0 64-10.666667 83.2-29.866667 17.066667-19.2 27.733333-46.933333 27.733334-81.066666-2.133333-36.266667-10.666667-64-27.733334-83.2z m-121.6 8.533333h32c25.6 0 42.666667 6.4 55.466667 17.066667 10.666667 10.666667 17.066667 29.866667 17.066667 55.466666 0 25.6-6.4 42.666667-17.066667 55.466667-10.666667 10.666667-29.866667 17.066667-55.466667 17.066667H469.333333v-145.066667z"
          fill="#FFFFFF"/>
</svg>