<?xml version="1.0" standalone="no"?><!DOCTYPE svg PUBLIC "-//W3C//DTD SVG 1.1//EN"
        "http://www.w3.org/Graphics/SVG/1.1/DTD/svg11.dtd">
<svg class="icon" width="200px" height="200.00px" viewBox="0 0 1024 1024" version="1.1"
     xmlns="http://www.w3.org/2000/svg">
    <path d="M78.7456 69.1712m194.2016 0l486.2976 0q194.2016 0 194.2016 194.2016l0 486.2976q0 194.2016-194.2016 194.2016l-486.2976 0q-194.2016 0-194.2016-194.2016l0-486.2976q0-194.2016 194.2016-194.2016Z"
          fill="#F6648C"/>
    <path d="M517.632 180.8384a319.744 319.744 0 1 0 187.3408 578.816 25.6 25.6 0 0 0-30.0032-41.472 268.1344 268.1344 0 1 1 86.2208-104.3968 25.6 25.6 0 0 0 46.4384 21.6064 319.8464 319.8464 0 0 0-289.9968-454.5536z"
          fill="#FFFFFF"/>
    <path d="M365.312 547.84a25.6 25.6 0 0 0-11.52 34.3552 183.04 183.04 0 0 0 325.376 4.4032 25.6 25.6 0 1 0-45.1584-24.1152 131.84 131.84 0 0 1-234.3936-3.1744 25.6 25.6 0 0 0-34.304-11.4688z"
          fill="#FFFFFF"/>
    <path d="M418.4576 396.3904m-33.536 0a33.536 33.536 0 1 0 67.072 0 33.536 33.536 0 1 0-67.072 0Z" fill="#FFFFFF"/>
    <path d="M614.8608 396.3904m-33.536 0a33.536 33.536 0 1 0 67.072 0 33.536 33.536 0 1 0-67.072 0Z" fill="#FFFFFF"/>
</svg>