<?xml version="1.0" standalone="no"?><!DOCTYPE svg PUBLIC "-//W3C//DTD SVG 1.1//EN"
        "http://www.w3.org/Graphics/SVG/1.1/DTD/svg11.dtd">
<svg class="icon" width="200px" height="200.00px" viewBox="0 0 1024 1024" version="1.1"
     xmlns="http://www.w3.org/2000/svg">
    <path d="M80.7424 75.6224m194.2016 0l486.2976 0q194.2016 0 194.2016 194.2016l0 486.2976q0 194.2016-194.2016 194.2016l-486.2976 0q-194.2016 0-194.2016-194.2016l0-486.2976q0-194.2016 194.2016-194.2016Z"
          fill="#F78748"/>
    <path d="M402.5856 370.3808v156.5184a25.6 25.6 0 0 0 51.2 0V370.3808a25.6 25.6 0 0 0-51.2 0z" fill="#F7F8F8"/>
    <path d="M839.68 452.7616a121.9072 121.9072 0 0 0-95.8464-118.9376v-92.16a68.2496 68.2496 0 0 0-94.5152-62.976L424.6528 272.2816H323.072a114.2272 114.2272 0 0 0-114.0736 114.0736v128.512a114.2272 114.2272 0 0 0 114.0736 114.0736h106.7008a25.6 25.6 0 0 0 0-51.2H323.072a62.976 62.976 0 0 1-62.8736-62.8736v-128.512A62.976 62.976 0 0 1 323.072 323.4816h106.7008a25.9072 25.9072 0 0 0 9.8304-1.9456l229.376-95.5392a17.1008 17.1008 0 0 1 23.6544 15.7184v424.3968a17.1008 17.1008 0 0 1-24.0128 15.36l-124.3136-55.3472a25.6 25.6 0 0 0-20.8384 46.7456l124.3136 55.3984a68.3008 68.3008 0 0 0 96.0512-62.3616v-94.1568A121.9072 121.9072 0 0 0 839.68 452.7616z m-96.0512 65.6384V387.1744a70.4 70.4 0 0 1 0 131.2256z"
          fill="#F7F8F8"/>
    <path d="M463.1552 680.192a25.6 25.6 0 1 0-47.9744 17.8688l21.504 57.7536a28.3648 28.3648 0 0 1-53.1456 19.8144l-35.84-96.7168a25.6 25.6 0 0 0-47.9744 17.8688l35.84 96.6656a79.5648 79.5648 0 0 0 149.0944-55.5008z"
          fill="#F7F8F8"/>
</svg>