<?xml version="1.0" standalone="no"?><!DOCTYPE svg PUBLIC "-//W3C//DTD SVG 1.1//EN"
        "http://www.w3.org/Graphics/SVG/1.1/DTD/svg11.dtd">
<svg class="icon" width="200px" height="200.00px" viewBox="0 0 1024 1024" version="1.1"
     xmlns="http://www.w3.org/2000/svg">
    <path d="M595.8656 358.5536l-55.296-44.5952 189.1328-234.7008 152.3712-28.5696 13.1072 69.8368-126.6176 23.7568-172.6976 214.272z"
          fill="#6CCE25"/>
    <path d="M765.696 335.9232a287.7952 287.7952 0 0 0-558.7968 0l-10.8032 44.032h580.4544z" fill="#ACED7A"/>
    <path d="M136.5504 312.32v183.296h65.2288L266.24 971.3152h446.976l64.3072-475.8528h66.56V312.32z m447.6928 329.5744c-61.44 0-113.6128-22.9888-150.0672-39.0144-49.152-21.6064-108.1344 8.2944-108.6976 8.6016l-33.28-62.7712c3.584-1.8944 89.4976-46.5408 170.5984-10.8544 66.2528 29.184 126.976 50.3296 199.68 14.0288l31.7952 63.5392a242.7904 242.7904 0 0 1-110.0288 26.3168z"
          fill="#6CCE25"/>
</svg>