<?xml version="1.0" standalone="no"?><!DOCTYPE svg PUBLIC "-//W3C//DTD SVG 1.1//EN"
        "http://www.w3.org/Graphics/SVG/1.1/DTD/svg11.dtd">
<svg class="icon" width="200px" height="200.00px" viewBox="0 0 1024 1024" version="1.1"
     xmlns="http://www.w3.org/2000/svg">
    <path d="M74.0864 75.3152m194.2016 0l486.2976 0q194.2016 0 194.2016 194.2016l0 486.2976q0 194.2016-194.2016 194.2016l-486.2976 0q-194.2016 0-194.2016-194.2016l0-486.2976q0-194.2016 194.2016-194.2016Z"
          fill="#6FA7FF"/>
    <path d="M519.5264 852.736a77.7728 77.7728 0 0 1-42.24-12.544C332.8 746.3936 235.52 591.616 235.52 455.0656a281.6 281.6 0 1 1 563.2 0c0 69.0688-19.5584 136.8064-58.1632 201.3696a25.6 25.6 0 1 1-43.9296-26.2656c33.792-56.32 50.8928-115.4048 50.8928-175.104a230.4 230.4 0 1 0-460.8 0c0 119.9104 87.808 257.4336 218.4704 342.1696a27.0848 27.0848 0 0 0 30.0544-0.768 663.9616 663.9616 0 0 0 87.04-72.704 25.6 25.6 0 0 1 36.1984 36.1984 711.68 711.68 0 0 1-94.0032 78.3872 78.2848 78.2848 0 0 1-44.9536 14.3872z"
          fill="#F7F8F8"/>
    <path d="M517.12 584.0384a122.5728 122.5728 0 1 1 122.368-122.5216 122.88 122.88 0 0 1-122.368 122.5216z m0-193.8944a71.3728 71.3728 0 1 0 71.168 71.3728A71.424 71.424 0 0 0 517.12 390.144z"
          fill="#F7F8F8"/>
</svg>