<?xml version="1.0" standalone="no"?><!DOCTYPE svg PUBLIC "-//W3C//DTD SVG 1.1//EN"
        "http://www.w3.org/Graphics/SVG/1.1/DTD/svg11.dtd">
<svg class="icon" width="200px" height="200.00px" viewBox="0 0 1024 1024" version="1.1"
     xmlns="http://www.w3.org/2000/svg">
    <path d="M72.3456 69.1712m194.2016 0l486.2976 0q194.2016 0 194.2016 194.2016l0 486.2976q0 194.2016-194.2016 194.2016l-486.2976 0q-194.2016 0-194.2016-194.2016l0-486.2976q0-194.2016 194.2016-194.2016Z"
          fill="#6FA7FF"/>
    <path d="M510.0032 846.336a335.4624 335.4624 0 1 1 335.4624-335.5136A332.1344 332.1344 0 0 1 814.08 652.288a25.6 25.6 0 0 1-46.3872-21.6064 284.5184 284.5184 0 1 0-91.2896 110.5408 25.6 25.6 0 0 1 30.0032 41.472 332.8 332.8 0 0 1-196.4032 63.6416z"
          fill="#F7F8F8"/>
    <path d="M386.2528 659.0464a25.6 25.6 0 0 1-24.2176-33.8944l62.6176-182.6304a25.6 25.6 0 0 1 15.9744-15.9232l184.8832-62.6176a25.6 25.6 0 0 1 32.512 32.2048l-59.648 181.9136a25.6 25.6 0 0 1-16.128 16.2816L394.24 657.7152a24.9856 24.9856 0 0 1-7.9872 1.3312zM468.992 471.04l-41.6768 121.5488 126.4128-42.5984 39.68-121.088z"
          fill="#F7F8F8"/>
</svg>