<?xml version="1.0" standalone="no"?><!DOCTYPE svg PUBLIC "-//W3C//DTD SVG 1.1//EN"
        "http://www.w3.org/Graphics/SVG/1.1/DTD/svg11.dtd">
<svg class="icon" width="200px" height="200.00px" viewBox="0 0 1024 1024" version="1.1"
     xmlns="http://www.w3.org/2000/svg">
    <path d="M240.4864 94.8736h71.68v501.1968h-71.68zM490.6496 415.2832l37.8368 516.2496h374.4256l43.264-516.2496H490.6496z"
          fill="#00A0E9"/>
    <path d="M717.6192 659.6608a129.9456 129.9456 0 0 1-129.792-129.792v-9.6768h71.68v9.6768a58.112 58.112 0 1 0 116.224 0v-9.6768h71.68v9.6768a129.9456 129.9456 0 0 1-129.792 129.792z"
          fill="#FFFFFF"/>
    <path d="M463.104 702.6688a187.2896 187.2896 0 0 0-373.76 1.536l-15.36 229.0176h406.4768z" fill="#97D8FF"/>
    <path d="M139.52 672.3072h268.6464v71.68H139.52zM182.1696 895.86176l4.90496-113.7152 71.61344 3.09248-4.90496 113.71008zM296.91392 785.14176l71.61344-3.08736 4.90496 113.7152-71.61344 3.08736z"
          fill="#FFFFFF"/>
</svg>