<?xml version="1.0" standalone="no"?><!DOCTYPE svg PUBLIC "-//W3C//DTD SVG 1.1//EN"
        "http://www.w3.org/Graphics/SVG/1.1/DTD/svg11.dtd">
<svg class="icon" width="200px" height="200.00px" viewBox="0 0 1024 1024" version="1.1"
     xmlns="http://www.w3.org/2000/svg">
    <path d="M78.6944 79.9232m194.2016 0l486.2976 0q194.2016 0 194.2016 194.2016l0 486.2976q0 194.2016-194.2016 194.2016l-486.2976 0q-194.2016 0-194.2016-194.2016l0-486.2976q0-194.2016 194.2016-194.2016Z"
          fill="#F78748"/>
    <path d="M306.1248 827.2896a73.4208 73.4208 0 0 1-73.472-73.472V355.0208A146.944 146.944 0 0 1 379.392 208.2816h286.72a146.944 146.944 0 0 1 146.7392 146.7392v398.7968A73.4208 73.4208 0 0 1 697.0368 814.08l-37.8368-26.4704a25.6 25.6 0 0 1 29.3888-41.9328l37.8368 26.5216a22.2208 22.2208 0 0 0 35.0208-18.2272V355.0208a95.6416 95.6416 0 0 0-95.5392-95.5392h-286.72a95.6416 95.6416 0 0 0-95.3344 95.5392v398.7968a22.2208 22.2208 0 0 0 35.0208 18.2272l161.5872-113.3568a73.7792 73.7792 0 0 1 84.3776 0l32.256 23.2448a25.6 25.6 0 1 1-29.9008 41.5744l-32.0512-23.04a22.1184 22.1184 0 0 0-25.2928 0L348.16 814.08a72.96 72.96 0 0 1-42.0352 13.2096z"
          fill="#F7F8F8"/>
    <path d="M630.784 415.9488H414.72a25.6 25.6 0 0 1 0-51.2h216.064a25.6 25.6 0 0 1 0 51.2z" fill="#F7F8F8"/>
</svg>