<?xml version="1.0" standalone="no"?><!DOCTYPE svg PUBLIC "-//W3C//DTD SVG 1.1//EN"
        "http://www.w3.org/Graphics/SVG/1.1/DTD/svg11.dtd">
<svg class="icon" width="200px" height="200.00px" viewBox="0 0 1024 1024" version="1.1"
     xmlns="http://www.w3.org/2000/svg">
    <path d="M81.408 73.5232m194.2016 0l486.2976 0q194.2016 0 194.2016 194.2016l0 486.2976q0 194.2016-194.2016 194.2016l-486.2976 0q-194.2016 0-194.2016-194.2016l0-486.2976q0-194.2016 194.2016-194.2016Z"
          fill="#F6648C"/>
    <path d="M702.6688 487.9872a145.7664 145.7664 0 1 1 137.3184-194.304 148.48 148.48 0 0 1 8.0384 39.1168 25.6 25.6 0 1 1-51.2 3.2768 95.6928 95.6928 0 0 0-5.12-25.6 94.5664 94.5664 0 1 0-57.7024 120.6272 95.6416 95.6416 0 0 0 18.3296-8.7552 25.6 25.6 0 0 1 26.88 43.5712 146.432 146.432 0 0 1-76.544 21.8112zM414.72 487.936H318.8736A100.352 100.352 0 0 1 218.624 387.6864V300.032A100.4032 100.4032 0 0 1 318.8736 199.68H414.72a100.4032 100.4032 0 0 1 100.2496 100.352v87.6544A100.4032 100.4032 0 0 1 414.72 487.936zM318.8736 250.88a49.152 49.152 0 0 0-49.0496 49.152v87.6544a49.1008 49.1008 0 0 0 49.0496 49.0496H414.72a49.152 49.152 0 0 0 49.1008-49.0496V300.032A49.152 49.152 0 0 0 414.72 250.88zM414.72 819.9168H318.8736a100.352 100.352 0 0 1-100.2496-100.2496v-87.6544a100.4032 100.4032 0 0 1 100.2496-100.3008H414.72a100.4032 100.4032 0 0 1 100.3008 100.3008v87.6544A100.4032 100.4032 0 0 1 414.72 819.9168z m-95.8464-237.0048a49.152 49.152 0 0 0-49.0496 49.1008v87.6544a49.1008 49.1008 0 0 0 49.0496 49.0496H414.72a49.152 49.152 0 0 0 49.1008-49.0496v-87.6544a49.152 49.152 0 0 0-49.1008-49.1008zM750.4384 819.9168h-95.7952a100.4032 100.4032 0 0 1-100.3008-100.2496v-87.6544a100.4032 100.4032 0 0 1 100.3008-100.3008h95.7952a100.4032 100.4032 0 0 1 100.2496 100.3008v87.6544a100.352 100.352 0 0 1-100.2496 100.2496z m-95.7952-237.0048a49.152 49.152 0 0 0-49.1008 49.1008v87.6544a49.152 49.152 0 0 0 49.1008 49.0496h95.7952a49.1008 49.1008 0 0 0 49.0496-49.0496v-87.6544a49.152 49.152 0 0 0-49.0496-49.1008z"
          fill="#F7F8F8"/>
</svg>