<?xml version="1.0" standalone="no"?><!DOCTYPE svg PUBLIC "-//W3C//DTD SVG 1.1//EN"
        "http://www.w3.org/Graphics/SVG/1.1/DTD/svg11.dtd">
<svg class="icon" width="200px" height="200.00px" viewBox="0 0 1024 1024" version="1.1"
     xmlns="http://www.w3.org/2000/svg">
    <path d="M930.4576 698.5728h-98.4064v-71.68h26.7264V168.7552H351.1808v34.7648h-71.68V97.0752h650.9568v601.4976z"
          fill="#AECDFF"/>
    <path d="M91.7504 225.28v594.7904h244.1728L450.56 936.96l123.6992-117.0432h223.8464V225.28z m355.4816 507.648a43.776 43.776 0 1 1 43.776-43.776 43.776 43.776 0 0 1-43.776 43.6736z m46.4384-153.6a17.5616 17.5616 0 0 0-10.5984 16.3328v17.1008h-71.68v-17.3056A89.0368 89.0368 0 0 1 465.92 512.9728a48.896 48.896 0 1 0-52.1728-80.7424 48.384 48.384 0 0 0-15.36 35.84h-71.68a121.0368 121.0368 0 0 1 37.9904-87.8592 120.576 120.576 0 1 1 129.024 199.1168z"
          fill="#4D8DFF"/>
</svg>