<?xml version="1.0" standalone="no"?><!DOCTYPE svg PUBLIC "-//W3C//DTD SVG 1.1//EN"
        "http://www.w3.org/Graphics/SVG/1.1/DTD/svg11.dtd">
<svg class="icon" width="200px" height="200.00px" viewBox="0 0 1024 1024" version="1.1"
     xmlns="http://www.w3.org/2000/svg">
    <path d="M840.96 526.7456H149.9648v419.8912h728.2176v-419.8912h-37.2224z" fill="#97D8FF"/>
    <path d="M624.64 629.76a116.0704 116.0704 0 0 0-109.7216 78.6432H298.24v130.7648h74.3936v-56.32h29.952v56.32h74.3936v-56.32h37.9392A115.8656 115.8656 0 1 0 624.64 629.76z m0 157.3376a41.472 41.472 0 1 1 41.472-41.472 41.5232 41.5232 0 0 1-41.472 41.5744z"
          fill="#FFFFFF"/>
    <path d="M557.1584 75.1616H469.8112L65.792 472.6272v91.3408h894.464V481.1776l-403.0976-406.016z" fill="#00A0FE"/>
</svg>