<?xml version="1.0" standalone="no"?><!DOCTYPE svg PUBLIC "-//W3C//DTD SVG 1.1//EN"
        "http://www.w3.org/Graphics/SVG/1.1/DTD/svg11.dtd">
<svg class="icon" width="200px" height="200.00px" viewBox="0 0 1024 1024" version="1.1"
     xmlns="http://www.w3.org/2000/svg">
    <path d="M80.0768 75.3152m194.2016 0l486.2976 0q194.2016 0 194.2016 194.2016l0 486.2976q0 194.2016-194.2016 194.2016l-486.2976 0q-194.2016 0-194.2016-194.2016l0-486.2976q0-194.2016 194.2016-194.2016Z"
          fill="#A46FFF"/>
    <path d="M689.2032 823.6032H355.2768a147.1488 147.1488 0 0 1-146.9952-146.9952V351.7952A147.2 147.2 0 0 1 355.2768 204.8h206.336a25.6 25.6 0 0 1 0 51.2h-206.336a95.9488 95.9488 0 0 0-95.7952 95.7952v324.8128a95.8976 95.8976 0 0 0 95.7952 95.7952h333.9264a95.8976 95.8976 0 0 0 95.7952-95.7952V442.5216a25.6 25.6 0 0 1 51.2 0v234.0864a147.1488 147.1488 0 0 1-146.9952 146.9952z"
          fill="#F7F8F8"/>
    <path d="M522.24 638.6176a25.6 25.6 0 0 1-25.6-25.6v-70.6048c0-135.2192 85.6576-216.1152 242.8416-231.5776-27.4432-28.5696-51.6096-54.4768-51.968-54.8352a25.6 25.6 0 1 1 37.4272-34.9184c0.512 0.5632 53.0432 56.832 90.7776 94.5664a25.6 25.6 0 0 1-18.1248 43.6736c-165.7344 0-249.7536 61.44-249.7536 183.0912v70.6048a25.6 25.6 0 0 1-25.6 25.6z"
          fill="#F7F8F8"/>
</svg>