<?xml version="1.0" standalone="no"?><!DOCTYPE svg PUBLIC "-//W3C//DTD SVG 1.1//EN"
        "http://www.w3.org/Graphics/SVG/1.1/DTD/svg11.dtd">
<svg class="icon" width="200px" height="200.00px" viewBox="0 0 1024 1024" version="1.1"
     xmlns="http://www.w3.org/2000/svg">
    <path d="M80.1792 75.3152m194.2016 0l486.2976 0q194.2016 0 194.2016 194.2016l0 486.2976q0 194.2016-194.2016 194.2016l-486.2976 0q-194.2016 0-194.2016-194.2016l0-486.2976q0-194.2016 194.2016-194.2016Z"
          fill="#FC5656"/>
    <path d="M794.9312 415.0784a25.6 25.6 0 0 0-45.824 22.784 249.4976 249.4976 0 0 1 25.0368 87.04H270.336a253.184 253.184 0 0 1 419.84-163.84 25.6 25.6 0 0 0 34.048-38.5024A303.5648 303.5648 0 0 0 547.84 247.1424v-19.6608a25.6 25.6 0 0 0-51.2 0v19.712a304.6912 304.6912 0 0 0-278.784 303.2064 25.6 25.6 0 0 0 25.6 25.6H496.64v196.608a75.4688 75.4688 0 1 0 150.8864 0v-13.1584a25.6 25.6 0 0 0-51.2 0v13.1584a24.2688 24.2688 0 1 1-48.4864 0v-196.608h253.184a25.6 25.6 0 0 0 25.6-25.6 300.7488 300.7488 0 0 0-31.6928-135.3216z"
          fill="#F7F8F8"/>
    <path d="M447.8976 353.28A209.152 209.152 0 0 0 347.648 467.8656a25.6 25.6 0 0 0 48.3328 16.896 159.0784 159.0784 0 0 1 73.5744-84.9408A25.6 25.6 0 0 0 447.8976 353.28z"
          fill="#F7F8F8"/>
</svg>