<?xml version="1.0" standalone="no"?><!DOCTYPE svg PUBLIC "-//W3C//DTD SVG 1.1//EN"
        "http://www.w3.org/Graphics/SVG/1.1/DTD/svg11.dtd">
<svg class="icon" width="200px" height="200.00px" viewBox="0 0 1024 1024" version="1.1"
     xmlns="http://www.w3.org/2000/svg">
    <path d="M78.336 70.5024m194.2016 0l486.2976 0q194.2016 0 194.2016 194.2016l0 486.2976q0 194.2016-194.2016 194.2016l-486.2976 0q-194.2016 0-194.2016-194.2016l0-486.2976q0-194.2016 194.2016-194.2016Z"
          fill="#4FE8CB"/>
    <path d="M722.7392 623.1552A104.0384 104.0384 0 1 0 826.7776 727.04a104.0896 104.0896 0 0 0-104.0384-103.8848z m0 156.8256A52.8384 52.8384 0 1 1 775.5776 727.04a52.8384 52.8384 0 0 1-52.8384 52.9408zM595.8656 631.3472l-138.24-75.3152a122.88 122.88 0 0 0 0.256-78.9504l190.5664-105.2672a103.7824 103.7824 0 0 0 135.424 11.6736 25.6 25.6 0 0 0-30.1056-41.4208 52.2752 52.2752 0 0 1-31.0272 10.24 52.8384 52.8384 0 1 1 52.8384-52.8384 25.6 25.6 0 1 0 51.2 0A104.0384 104.0384 0 1 0 622.6944 327.68L431.616 433.0496a122.88 122.88 0 1 0-0.6144 166.8608l140.4416 76.3904a24.832 24.832 0 0 0 12.1856 3.1232 25.6 25.6 0 0 0 12.2368-48.0768z m-254.464-43.6736a71.68 71.68 0 1 1 71.68-71.68 71.68 71.68 0 0 1-71.68 71.68z"
          fill="#F7F8F8"/>
</svg>