<?xml version="1.0" standalone="no"?><!DOCTYPE svg PUBLIC "-//W3C//DTD SVG 1.1//EN"
        "http://www.w3.org/Graphics/SVG/1.1/DTD/svg11.dtd">
<svg class="icon" width="200px" height="200.00px" viewBox="0 0 1024 1024" version="1.1"
     xmlns="http://www.w3.org/2000/svg">
    <path d="M75.9296 70.5024m194.2016 0l486.2976 0q194.2016 0 194.2016 194.2016l0 486.2976q0 194.2016-194.2016 194.2016l-486.2976 0q-194.2016 0-194.2016-194.2016l0-486.2976q0-194.2016 194.2016-194.2016Z"
          fill="#F78748"/>
    <path d="M514.048 168.4992a341.8624 341.8624 0 1 0 200.2944 618.8544 25.6 25.6 0 1 0-30.0032-41.472 289.8944 289.8944 0 1 1 93.3376-112.9984 25.6 25.6 0 0 0 46.4384 21.6064 342.0672 342.0672 0 0 0-310.0672-485.9904z"
          fill="#F7F8F8"/>
    <path d="M477.44 510.3616a33.6384 33.6384 0 1 0 33.5872-33.6384 33.5872 33.5872 0 0 0-33.5872 33.6384zM346.624 510.3616a33.6384 33.6384 0 1 0 33.6384-33.6384 33.6384 33.6384 0 0 0-33.6384 33.6384zM608.2048 510.3616a33.6384 33.6384 0 1 0 33.6384-33.6384 33.6384 33.6384 0 0 0-33.6384 33.6384z"
          fill="#F7F8F8"/>
</svg>