<?xml version="1.0" standalone="no"?><!DOCTYPE svg PUBLIC "-//W3C//DTD SVG 1.1//EN"
        "http://www.w3.org/Graphics/SVG/1.1/DTD/svg11.dtd">
<svg class="icon" width="200px" height="200.00px" viewBox="0 0 1024 1024" version="1.1"
     xmlns="http://www.w3.org/2000/svg">
    <path d="M118.3232 690.9952h789.248v225.2288H118.3232z" fill="#FF9432"/>
    <path d="M516.5056 648.2432c-61.7984 0-85.4016-33.6384-101.0176-55.9104-12.288-17.5104-16.0256-22.8352-35.2768-22.8352-16.7936 0-22.8352 5.9904-37.8368 23.2448-17.4592 20.0704-43.8272 50.3808-99.1744 50.3808-99.5328 0-131.8912-79.4112-133.12-82.7904l66.56-26.2656v-0.512c1.6896 3.8912 17.8176 37.888 66.56 37.888 22.6816 0 30.1568-8.6016 45.1072-25.6 17.5616-20.48 41.6256-47.872 92.16-47.872 56.32 0 79.0528 32.1024 93.952 53.3504 12.5952 17.9712 17.8176 25.6 42.3424 25.6 23.3472 0 27.0848-5.12 38.144-21.248 14.3872-20.48 35.84-51.712 96.3584-51.712h1.8944c52.6848 0 76.4416 25.6 93.7472 44.6976 14.1312 15.36 21.248 23.1424 46.6432 23.1424 47.5136 0 57.2928-31.232 58.7776-37.4784v0.6144l70.3488 13.824c-6.4 32.768-41.6256 94.72-128.9728 94.72-56.8832 0-82.4832-27.8528-99.4304-46.08-13.568-14.7456-19.7632-21.504-41.3184-21.504-24.1664-0.3072-27.9552 5.12-39.0656 21.0432-14.848 20.0704-36.6592 51.3024-97.3824 51.3024z"
          fill="#FECC87"/>
    <path d="M903.8848 412.8256a322.56 322.56 0 0 0-55.3472-153.9584c-47.104-68.8128-144.1792-150.784-339.2512-150.784S218.7264 190.3616 173.3632 259.4304a315.5968 315.5968 0 0 0-51.2 154.368l-0.512 36.352h783.8208zM312.9856 352.3584l-68.1472-22.1696c1.28-3.9936 32.768-98.816 149.9136-119.9104l12.6976 70.5536c-73.5744 13.2608-93.6448 69.1712-94.464 71.5264z"
          fill="#FF9432"/>
</svg>