<?xml version="1.0" standalone="no"?><!DOCTYPE svg PUBLIC "-//W3C//DTD SVG 1.1//EN"
        "http://www.w3.org/Graphics/SVG/1.1/DTD/svg11.dtd">
<svg class="icon" width="200px" height="200.00px" viewBox="0 0 1024 1024" version="1.1"
     xmlns="http://www.w3.org/2000/svg">
    <path d="M75.0592 79.9232m194.2016 0l486.2976 0q194.2016 0 194.2016 194.2016l0 486.2976q0 194.2016-194.2016 194.2016l-486.2976 0q-194.2016 0-194.2016-194.2016l0-486.2976q0-194.2016 194.2016-194.2016Z"
          fill="#6FA7FF"/>
    <path d="M834.56 724.736a25.6 25.6 0 1 0-51.2 2.6112 59.3408 59.3408 0 0 1-59.2384 62.2592h-410.624a59.2384 59.2384 0 0 1-59.1872-62.2592L270.848 399.36a59.2384 59.2384 0 0 1 59.1872-56.32h13.9264v60.8768a25.6 25.6 0 0 0 51.2 0V351.8976c0-2.9696 0-5.888 0.3584-8.8064h247.3472c0 2.9184 0.3584 5.8368 0.3584 8.8064v52.0192a25.6 25.6 0 1 0 51.2 0V351.8976c0-2.9696 0-5.888-0.256-8.8064h13.9776a59.2384 59.2384 0 0 1 59.1872 56.32l8.192 162.7648a25.6 25.6 0 0 0 51.2-2.56l-8.192-162.816a110.4384 110.4384 0 0 0-110.592-104.96h-24.32a175.2576 175.2576 0 0 0-329.2672 0h-24.32a110.3872 110.3872 0 0 0-110.336 104.96l-16.5376 327.936a110.5408 110.5408 0 0 0 110.336 116.0704h410.9312A110.4384 110.4384 0 0 0 834.56 724.736z m-315.8016-496.64A124.0064 124.0064 0 0 1 627.456 291.84H410.4704a124.16 124.16 0 0 1 108.4928-63.9488z"
          fill="#F7F8F8"/>
    <path d="M628.5824 650.24H409.6a25.6 25.6 0 1 0 0 51.2h219.2384a25.6 25.6 0 0 0 0-51.2z" fill="#F7F8F8"/>
</svg>