<?xml version="1.0" standalone="no"?><!DOCTYPE svg PUBLIC "-//W3C//DTD SVG 1.1//EN"
        "http://www.w3.org/Graphics/SVG/1.1/DTD/svg11.dtd">
<svg class="icon" width="200px" height="200.00px" viewBox="0 0 1024 1024" version="1.1"
     xmlns="http://www.w3.org/2000/svg">
    <path d="M81.7664 79.9232m194.2016 0l486.2976 0q194.2016 0 194.2016 194.2016l0 486.2976q0 194.2016-194.2016 194.2016l-486.2976 0q-194.2016 0-194.2016-194.2016l0-486.2976q0-194.2016 194.2016-194.2016Z"
          fill="#4FE8CB"/>
    <path d="M792.2688 431.0528a25.6 25.6 0 0 0 25.6-25.6v-27.136A118.6816 118.6816 0 0 0 747.52 269.9264l-176.9472-78.1824a118.4768 118.4768 0 0 0-95.8976 0L297.9328 269.9264a118.6304 118.6304 0 0 0-70.5536 108.3904v253.7984A118.8864 118.8864 0 0 0 286.72 734.72l176.7936 102.0416a118.8352 118.8352 0 0 0 118.4768 0l176.7424-102.0416a118.784 118.784 0 0 0 59.2384-102.4v-101.0176a25.6 25.6 0 1 0-51.2 0v100.8128a67.3792 67.3792 0 0 1-33.6384 58.2656l-176.7424 102.0416a67.4816 67.4816 0 0 1-67.2768 0L312.32 690.3808a67.4816 67.4816 0 0 1-33.6384-58.2656V378.3168a67.2768 67.2768 0 0 1 40.0896-61.44l176.64-78.336a67.6864 67.6864 0 0 1 54.4768 0l176.7424 78.2336a67.328 67.328 0 0 1 40.0384 61.44v27.136a25.6 25.6 0 0 0 25.6 25.7024z"
          fill="#F7F8F8"/>
    <path d="M526.6944 631.296a25.6 25.6 0 0 0 25.6-25.6v-60.3136h60.3136a25.6 25.6 0 0 0 0-51.2h-60.3136V433.8688a25.6 25.6 0 0 0-51.2 0v60.3136H440.7808a25.6 25.6 0 0 0 0 51.2h60.3136v60.3136a25.6 25.6 0 0 0 25.6 25.6z"
          fill="#F7F8F8"/>
</svg>