<?xml version="1.0" standalone="no"?><!DOCTYPE svg PUBLIC "-//W3C//DTD SVG 1.1//EN"
        "http://www.w3.org/Graphics/SVG/1.1/DTD/svg11.dtd">
<svg class="icon" width="200px" height="200.00px" viewBox="0 0 1024 1024" version="1.1"
     xmlns="http://www.w3.org/2000/svg">
    <path d="M79.6672 69.1712m194.2016 0l486.2976 0q194.2016 0 194.2016 194.2016l0 486.2976q0 194.2016-194.2016 194.2016l-486.2976 0q-194.2016 0-194.2016-194.2016l0-486.2976q0-194.2016 194.2016-194.2016Z"
          fill="#A46FFF"/>
    <path d="M391.0144 487.0144H292.9664A86.2208 86.2208 0 0 1 206.848 400.8448V302.7968a86.2208 86.2208 0 0 1 86.1184-86.1184h98.048a86.2208 86.2208 0 0 1 86.1184 86.1184v98.048a86.2208 86.2208 0 0 1-86.1184 86.1696zM292.9664 266.24a36.4544 36.4544 0 0 0-36.4544 36.4544v98.1504a36.5056 36.5056 0 0 0 36.4544 36.5056h98.048a36.5568 36.5568 0 0 0 36.5056-36.5056V302.7968A36.5056 36.5056 0 0 0 391.0144 266.24zM391.0144 803.84H292.9664a86.1696 86.1696 0 0 1-86.1184-85.9136v-98.048a86.1696 86.1696 0 0 1 86.1184-86.1184h98.048a86.1696 86.1696 0 0 1 86.1184 86.1184v98.048A86.1696 86.1696 0 0 1 391.0144 803.84z m-98.048-220.672a36.5056 36.5056 0 0 0-36.4544 36.5056v98.048a36.4544 36.4544 0 0 0 36.4544 36.4544h98.048a36.5056 36.5056 0 0 0 36.5056-36.4544v-97.8432a36.5568 36.5568 0 0 0-36.5056-36.5056zM724.2752 487.0144h-98.048a86.2208 86.2208 0 0 1-86.1184-86.1696V302.7968a86.2208 86.2208 0 0 1 86.1184-86.1184h98.048a86.2208 86.2208 0 0 1 86.1184 86.1184v98.048a86.2208 86.2208 0 0 1-86.1184 86.1696zM626.2272 266.24a36.5056 36.5056 0 0 0-36.5056 36.4544v98.1504a36.5568 36.5568 0 0 0 36.5056 36.5056h98.048a36.5056 36.5056 0 0 0 36.4544-36.5056V302.7968a36.4544 36.4544 0 0 0-36.4544-36.5568zM564.8896 790.9376a24.7808 24.7808 0 0 1-24.7808-24.7808v-198.656a24.832 24.832 0 1 1 49.6128 0v198.656a24.832 24.832 0 0 1-24.832 24.7808zM673.2288 790.9376a24.832 24.832 0 0 1-24.832-24.7808v-198.656a24.832 24.832 0 1 1 49.664 0v198.656a24.832 24.832 0 0 1-24.832 24.7808zM785.5616 790.9376a24.832 24.832 0 0 1-24.832-24.7808v-198.656a24.832 24.832 0 1 1 49.664 0v198.656a24.832 24.832 0 0 1-24.832 24.7808z"
          fill="#F7F8F8"/>
</svg>