<?xml version="1.0" standalone="no"?><!DOCTYPE svg PUBLIC "-//W3C//DTD SVG 1.1//EN"
        "http://www.w3.org/Graphics/SVG/1.1/DTD/svg11.dtd">
<svg class="icon" width="200px" height="200.00px" viewBox="0 0 1024 1024" version="1.1"
     xmlns="http://www.w3.org/2000/svg">
    <path d="M46.0288 820.5824H980.992v76.4928H46.0288z" fill="#FECC87"/>
    <path d="M949.3504 687.5648c0.4608-8.2944 0.768-16.5376 0.768-24.7808a436.5824 436.5824 0 0 0-313.2416-418.2016 127.3856 127.3856 0 0 0 0.9728-15.36 123.648 123.648 0 1 0-247.2448 0 127.3856 127.3856 0 0 0 0.9728 15.36 436.5312 436.5312 0 0 0-313.2928 418.2016c0 8.2432 0.3584 16.4864 0.8192 24.7808H46.08v76.4928h934.912v-76.4928zM311.7568 584.8576l-72.2944-25.088C293.0176 405.5552 409.6 393.6768 414.72 393.2672l6.656 76.2368h0.5632c-3.072 0.256-73.7792 9.9328-110.1824 115.3536z"
          fill="#FF7F00"/>
</svg>