<?xml version="1.0" standalone="no"?><!DOCTYPE svg PUBLIC "-//W3C//DTD SVG 1.1//EN"
        "http://www.w3.org/Graphics/SVG/1.1/DTD/svg11.dtd">
<svg class="icon" width="200px" height="200.00px" viewBox="0 0 1024 1024" version="1.1"
     xmlns="http://www.w3.org/2000/svg">
    <path d="M74.6496 73.5232m194.2016 0l486.2976 0q194.2016 0 194.2016 194.2016l0 486.2976q0 194.2016-194.2016 194.2016l-486.2976 0q-194.2016 0-194.2016-194.2016l0-486.2976q0-194.2016 194.2016-194.2016Z"
          fill="#6FA7FF"/>
    <path d="M512.3584 855.7568A120.6272 120.6272 0 0 1 451.84 839.68l-181.6576-104.96A121.3952 121.3952 0 0 1 209.6128 629.76V368.9984A121.1392 121.1392 0 0 1 281.6 258.304l181.76-80.4352a121.3952 121.3952 0 0 1 97.9968 0l181.6576 80.4352a121.1392 121.1392 0 0 1 72.0896 110.6944v27.904a25.6 25.6 0 0 1-51.2 0v-27.904a69.9392 69.9392 0 0 0-41.6256-63.8976l-181.6576-80.384a70.0928 70.0928 0 0 0-56.32 0l-181.8624 80.384a69.9392 69.9392 0 0 0-41.6256 63.8976v261.12a70.0928 70.0928 0 0 0 34.9696 60.5184l181.6576 104.8576a69.9904 69.9904 0 0 0 69.8368 0l181.7088-104.8576A70.144 70.144 0 0 0 763.904 629.76v-103.5264a25.6 25.6 0 0 1 51.2 0V629.76a121.4464 121.4464 0 0 1-60.5184 104.8576L572.8768 839.68a120.6272 120.6272 0 0 1-60.5184 16.0768z"
          fill="#F7F8F8"/>
    <path d="M496.3328 632.0128a58.4704 58.4704 0 0 1-40.96-16.7424l-75.8784-74.3424a25.6 25.6 0 1 1 35.84-36.608L491.2128 578.56a7.424 7.424 0 0 0 5.888 2.0992 7.3216 7.3216 0 0 0 5.12-3.1744l109.3632-158.72a25.6 25.6 0 1 1 42.1376 29.0816l-109.3632 158.72a58.368 58.368 0 0 1-42.5984 25.1392 51.2 51.2 0 0 1-5.4272 0.3072z"
          fill="#F7F8F8"/>
</svg>