<?xml version="1.0" standalone="no"?><!DOCTYPE svg PUBLIC "-//W3C//DTD SVG 1.1//EN"
        "http://www.w3.org/Graphics/SVG/1.1/DTD/svg11.dtd">
<svg class="icon" width="200px" height="200.00px" viewBox="0 0 1024 1024" version="1.1"
     xmlns="http://www.w3.org/2000/svg">
    <path d="M82.688 73.5232m194.2016 0l486.2976 0q194.2016 0 194.2016 194.2016l0 486.2976q0 194.2016-194.2016 194.2016l-486.2976 0q-194.2016 0-194.2016-194.2016l0-486.2976q0-194.2016 194.2016-194.2016Z"
          fill="#FC5656"/>
    <path d="M416.3072 471.7056a107.52 107.52 0 0 0 211.4048-4.7104 422.2976 422.2976 0 0 0 152.6272-80.0768 25.6 25.6 0 0 0 38.3488-22.1184v-40.6528a146.2784 146.2784 0 0 0-146.1248-146.1248H370.7904a146.3296 146.3296 0 0 0-146.176 146.1248v380.928a146.3808 146.3808 0 0 0 146.176 146.176h301.7728a146.3296 146.3296 0 0 0 146.1248-146.176v-194.56a25.6 25.6 0 0 0-51.2 0v194.56a95.0784 95.0784 0 0 1-94.9248 94.976H370.7904a95.0784 95.0784 0 0 1-94.976-94.976V409.6a422.4 422.4 0 0 0 140.4928 62.1056zM521.6256 506.88a56.32 56.32 0 1 1 56.32-56.32 56.32 56.32 0 0 1-56.32 56.32zM370.7904 229.2224h301.7728a95.0272 95.0272 0 0 1 94.9248 94.9248v5.9904l-0.5632 0.4096a370.4832 370.4832 0 0 1-144.0768 84.48 107.52 107.52 0 0 0-203.9808 4.8128 370.4832 370.4832 0 0 1-143.0528-74.1376v-21.5552a95.0272 95.0272 0 0 1 94.976-94.9248z"
          fill="#F7F8F8"/>
</svg>