<?xml version="1.0" standalone="no"?><!DOCTYPE svg PUBLIC "-//W3C//DTD SVG 1.1//EN"
        "http://www.w3.org/Graphics/SVG/1.1/DTD/svg11.dtd">
<svg class="icon" width="200px" height="200.00px" viewBox="0 0 1024 1024" version="1.1"
     xmlns="http://www.w3.org/2000/svg">
    <path d="M514.5088 69.8368a444.2624 444.2624 0 1 0 444.2624 444.2624 444.7232 444.7232 0 0 0-444.2624-444.2624z m112.9984 446.6176h-82.5856v35.84h82.5856v71.68h-82.5856v37.376h-71.68v-37.376H390.656v-71.68h82.5856v-35.84H390.656v-71.68h44.9536l-35.072-38.2464 52.8384-48.4352 53.0432 57.8048 49.7664-59.904 55.1424 46.08-35.84 42.9568h51.8656z"
          fill="#F79321"/>
    <path d="M514.5088 834.56a320.6144 320.6144 0 0 1-320.256-320.256v-58.368L332.8 525.7728l-32.256 64-26.88-13.5168a249.1392 249.1392 0 0 0 240.64 186.4192 246.528 246.528 0 0 0 178.176-75.2128l51.2 50.0224A317.8496 317.8496 0 0 1 514.5088 834.56zM834.56 569.9072L686.08 501.76l29.7984-65.2288 40.0896 18.3296a248.6272 248.6272 0 0 0-414.2592-119.4496L291.84 283.8528a320.3072 320.3072 0 0 1 542.72 230.4z"
          fill="#FECC87"/>
</svg>