<?xml version="1.0" standalone="no"?><!DOCTYPE svg PUBLIC "-//W3C//DTD SVG 1.1//EN"
        "http://www.w3.org/Graphics/SVG/1.1/DTD/svg11.dtd">
<svg class="icon" width="200px" height="200.00px" viewBox="0 0 1024 1024" version="1.1"
     xmlns="http://www.w3.org/2000/svg">
    <path d="M77.8752 79.9232m194.2016 0l486.2976 0q194.2016 0 194.2016 194.2016l0 486.2976q0 194.2016-194.2016 194.2016l-486.2976 0q-194.2016 0-194.2016-194.2016l0-486.2976q0-194.2016 194.2016-194.2016Z"
          fill="#A46FFF"/>
    <path d="M686.08 838.144H344.3712A150.016 150.016 0 0 1 194.56 688.2816V355.8912a150.016 150.016 0 0 1 149.8112-149.8112h194.9184a25.6 25.6 0 0 1 0 51.2H344.3712A98.7648 98.7648 0 0 0 245.76 355.8912v332.3904a98.7648 98.7648 0 0 0 98.6112 98.6624H686.08a98.7648 98.7648 0 0 0 98.6624-98.6624V436.5824a25.6 25.6 0 0 1 51.2 0v251.6992A150.016 150.016 0 0 1 686.08 838.144z"
          fill="#F7F8F8"/>
    <path d="M530.8928 568.6272a25.6 25.6 0 0 1-20.48-41.2672l215.6032-278.4768a25.6 25.6 0 0 1 40.4992 31.3856l-215.6544 278.4256a25.6 25.6 0 0 1-19.968 9.9328zM630.016 699.1872h-237.056a25.6 25.6 0 0 1 0-51.2h237.056a25.6 25.6 0 1 1 0 51.2z"
          fill="#F7F8F8"/>
</svg>