<?xml version="1.0" standalone="no"?><!DOCTYPE svg PUBLIC "-//W3C//DTD SVG 1.1//EN"
        "http://www.w3.org/Graphics/SVG/1.1/DTD/svg11.dtd">
<svg class="icon" width="200px" height="200.00px" viewBox="0 0 1024 1024" version="1.1"
     xmlns="http://www.w3.org/2000/svg">
    <path d="M77.3632 78.7968m194.2016 0l486.2976 0q194.2016 0 194.2016 194.2016l0 486.2976q0 194.2016-194.2016 194.2016l-486.2976 0q-194.2016 0-194.2016-194.2016l0-486.2976q0-194.2016 194.2016-194.2016Z"
          fill="#F78748"/>
    <path d="M786.8416 757.0432H429.5168a93.2352 93.2352 0 0 1-92.5696-79.2064L276.48 290.56a30.72 30.72 0 0 0-30.4128-26.0608h-22.3744a25.6 25.6 0 0 1 0-51.2h22.3232a81.5616 81.5616 0 0 1 80.9984 69.376l60.5184 387.2256a42.24 42.24 0 0 0 41.984 35.84h357.3248a25.6 25.6 0 0 1 0 51.2z"
          fill="#FFFFFF"/>
    <path d="M454.1952 640a25.6 25.6 0 0 1-1.5872-51.2l288.8704-18.1248a18.7392 18.7392 0 0 0 17.3568-15.36l33.2288-195.4304a18.7392 18.7392 0 0 0-18.4832-21.9136H412.0576a25.6 25.6 0 0 1 0-51.2h361.5232a69.9904 69.9904 0 0 1 68.9664 81.92l-33.28 195.3792a69.632 69.632 0 0 1-64.5632 58.112L455.68 640z"
          fill="#FFFFFF"/>
    <path d="M407.3472 821.8624m-34.9184 0a34.9184 34.9184 0 1 0 69.8368 0 34.9184 34.9184 0 1 0-69.8368 0Z"
          fill="#FFFFFF"/>
    <path d="M738.1504 821.8624m-34.9184 0a34.9184 34.9184 0 1 0 69.8368 0 34.9184 34.9184 0 1 0-69.8368 0Z"
          fill="#FFFFFF"/>
</svg>