<?xml version="1.0" standalone="no"?><!DOCTYPE svg PUBLIC "-//W3C//DTD SVG 1.1//EN"
        "http://www.w3.org/Graphics/SVG/1.1/DTD/svg11.dtd">
<svg class="icon" width="200px" height="200.00px" viewBox="0 0 1024 1024" version="1.1"
     xmlns="http://www.w3.org/2000/svg">
    <path d="M75.9808 75.3152m194.2016 0l486.2976 0q194.2016 0 194.2016 194.2016l0 486.2976q0 194.2016-194.2016 194.2016l-486.2976 0q-194.2016 0-194.2016-194.2016l0-486.2976q0-194.2016 194.2016-194.2016Z"
          fill="#6FA7FF"/>
    <path d="M850.8928 392.4992a50.3296 50.3296 0 0 0-32.4608-47.3088l-279.6544-107.776a51.2 51.2 0 0 0-35.84 0l-289.024 107.52a50.7392 50.7392 0 0 0 0 95.0272l64.1024 24.0128a14.592 14.592 0 0 0 0 1.4848v237.0048a102.656 102.656 0 0 0 102.4 102.4h286.0032a102.656 102.656 0 0 0 102.4-102.4v-168.96a25.6 25.6 0 0 0-51.2 0v168.96a51.2 51.2 0 0 1-51.2 51.2H380.3648a51.2 51.2 0 0 1-51.2-51.2V483.0208L502.784 547.84a51.5072 51.5072 0 0 0 17.7152 3.1744 50.6368 50.6368 0 0 0 18.2272-3.3792l261.12-100.5568V588.8a25.6 25.6 0 1 0 51.2 0V403.3536a30.72 30.72 0 0 0-0.4096-4.352 54.7328 54.7328 0 0 0 0.256-6.5024z m-330.1888 107.52l-287.7952-107.52 287.4368-107.52 278.4768 107.52z"
          fill="#F7F8F8"/>
</svg>