<?xml version="1.0" standalone="no"?><!DOCTYPE svg PUBLIC "-//W3C//DTD SVG 1.1//EN"
        "http://www.w3.org/Graphics/SVG/1.1/DTD/svg11.dtd">
<svg class="icon" width="200px" height="200.00px" viewBox="0 0 1024 1024" version="1.1"
     xmlns="http://www.w3.org/2000/svg">
    <path d="M78.336 70.5024m194.2016 0l486.2976 0q194.2016 0 194.2016 194.2016l0 486.2976q0 194.2016-194.2016 194.2016l-486.2976 0q-194.2016 0-194.2016-194.2016l0-486.2976q0-194.2016 194.2016-194.2016Z"
          fill="#FC5656"/>
    <path d="M520.0896 175.104a322.56 322.56 0 1 0 0 645.12h244.0704a25.6 25.6 0 0 0 20.8896-40.3968L732.16 704.5632a25.6 25.6 0 0 0-41.7792 29.6448l24.5248 34.56h-194.56a270.7968 270.7968 0 1 1 262.9632-204.4928 25.6 25.6 0 1 0 49.6128 12.544 322.56 322.56 0 0 0-312.32-401.7152z"
          fill="#F7F8F8"/>
    <path d="M641.4848 495.6672a25.6 25.6 0 0 0 0-51.2h-61.696L619.8272 384a25.6 25.6 0 1 0-42.7008-28.2112l-53.8112 81.2032L452.608 353.28a25.6 25.6 0 0 0-39.168 33.024l49.152 58.2144h-56.32a25.6 25.6 0 0 0 0 51.2h92.16v49.3056h-92.16a25.6 25.6 0 0 0 0 51.2h92.16v48.5376a25.6 25.6 0 1 0 51.2 0v-48.5376h92.16a25.6 25.6 0 0 0 0-51.2h-92.16v-49.3568z"
          fill="#F7F8F8"/>
</svg>