<?xml version="1.0" standalone="no"?><!DOCTYPE svg PUBLIC "-//W3C//DTD SVG 1.1//EN"
        "http://www.w3.org/Graphics/SVG/1.1/DTD/svg11.dtd">
<svg class="icon" width="200px" height="200.00px" viewBox="0 0 1024 1024" version="1.1"
     xmlns="http://www.w3.org/2000/svg">
    <path d="M592.0256 550.0416c-21.5552-2.1504-47.872 16.7936-55.3472 23.6544l-23.8592 21.6576-24.0128-21.0944c-5.12-4.1472-22.9376-18.2784-44.9536-18.2784-12.1856 0-23.3472 0.5632-36.4032 13.2608a50.7904 50.7904 0 0 0-11.008 29.0816c0.8704 41.5744 69.7344 103.5264 116.224 146.176 34.304-30.72 69.5296-63.5392 92.16-95.3856 36.1984-50.5856 22.2208-72.6016 15.9232-81.3056-11.4688-15.9232-22.2208-17.0496-28.7232-17.7664z"
          fill="#97D8FF"/>
    <path d="M844.8 389.7856l-623.0016-5.12v-0.1536h-71.68v558.08H880.64v-552.96z m-181.4016 301.056c-32.256 45.056-81.0496 87.9616-124.16 125.8496l-27.2384 23.7056-23.5008-21.1968c-78.2336-69.9904-161.8944-150.8864-163.4816-225.28a96.256 96.256 0 0 1 30.2592-72.3456c55.04-53.6576 117.0944-40.6528 156.3136-18.4832 20.48-13.1072 52.1216-27.904 87.04-24.4224 21.6576 2.0992 52.992 12.288 79.36 48.6912 23.4496 32.3584 39.9872 87.04-14.6944 163.4816z"
          fill="#97D8FF"/>
    <path d="M93.696 424.5504l839.0144-1.7408v-46.8992l-419.4304-309.6064L93.696 380.8256v43.7248z" fill="#00A0FE"/>
</svg>