<?xml version="1.0" standalone="no"?><!DOCTYPE svg PUBLIC "-//W3C//DTD SVG 1.1//EN"
        "http://www.w3.org/Graphics/SVG/1.1/DTD/svg11.dtd">
<svg class="icon" width="200px" height="200.00px" viewBox="0 0 1024 1024" version="1.1"
     xmlns="http://www.w3.org/2000/svg">
    <path d="M74.6496 78.7968m194.2016 0l486.2976 0q194.2016 0 194.2016 194.2016l0 486.2976q0 194.2016-194.2016 194.2016l-486.2976 0q-194.2016 0-194.2016-194.2016l0-486.2976q0-194.2016 194.2016-194.2016Z"
          fill="#F6CC4F"/>
    <path d="M719.2064 830.7712H422.5536a24.6272 24.6272 0 0 1 0-49.2544h296.6528a25.1904 25.1904 0 0 0 24.3712-20.48l56.32-260.1472a39.9872 39.9872 0 0 0-7.8848-33.792 35.84 35.84 0 0 0-28.4672-13.824h-185.856a24.6272 24.6272 0 0 1-22.528-34.4576c48.0256-110.1312 31.3344-155.5456 21.8624-169.9328a39.424 39.424 0 0 0-33.8944-18.4832c-19.5072 0-27.2896 19.2512-36.4032 59.7504-1.2288 5.376-2.3552 10.496-3.5328 15.0528C470.3232 431.104 386.816 476.16 319.5392 476.16h-49.3056A25.1392 25.1392 0 0 0 245.76 501.76v254.0544a25.1392 25.1392 0 0 0 24.4224 25.6h45.7728a24.6272 24.6272 0 0 1 0 49.2544h-45.7216a74.3936 74.3936 0 0 1-73.6256-74.9056V501.76a74.4448 74.4448 0 0 1 73.6256-75.0592h49.3056C343.04 426.7008 423.1168 417.0752 455.68 292.864c1.024-4.0448 2.048-8.6016 3.1232-13.4144 7.7312-34.304 22.1184-98.2016 84.4288-98.2016a88.32 88.32 0 0 1 75.1104 40.6528c18.8416 28.8256 32 83.2-4.1472 182.1184h149.248a85.4528 85.4528 0 0 1 66.56 32.1024 89.088 89.088 0 0 1 17.7152 75.0592l-56.32 260.1984a75.008 75.008 0 0 1-72.192 59.392z"
          fill="#F7F8F8"/>
    <path d="M330.2912 734.3104a24.576 24.576 0 0 1-24.576-24.6272v-149.8624a24.6272 24.6272 0 1 1 49.2032 0v149.8624a24.6272 24.6272 0 0 1-24.6272 24.6272z"
          fill="#F7F8F8"/>
</svg>