<?xml version="1.0" standalone="no"?><!DOCTYPE svg PUBLIC "-//W3C//DTD SVG 1.1//EN"
        "http://www.w3.org/Graphics/SVG/1.1/DTD/svg11.dtd">
<svg class="icon" width="200px" height="200.00px" viewBox="0 0 1024 1024" version="1.1"
     xmlns="http://www.w3.org/2000/svg">
    <path d="M380.8768 346.368A121.2928 121.2928 0 1 0 259.584 225.28a121.4464 121.4464 0 0 0 121.2928 121.088zM637.952 346.368A121.2928 121.2928 0 1 0 516.6592 225.28a121.3952 121.3952 0 0 0 121.2928 121.088zM832.6144 303.3088a121.2928 121.2928 0 1 0 121.2928 121.2928 121.4464 121.4464 0 0 0-121.2928-121.2928zM304.4864 424.6016a121.2928 121.2928 0 1 0-121.2416 121.2928 121.3952 121.3952 0 0 0 121.2416-121.2928z"
          fill="#CBBCFD"/>
    <path d="M868.1984 755.0976a186.5216 186.5216 0 0 0-131.84-188.2624A101.376 101.376 0 0 1 674.56 512a186.2656 186.2656 0 0 0-338.9952 2.2528 111.0528 111.0528 0 0 1-61.44 57.2416A186.2656 186.2656 0 1 0 457.9328 890.88a87.04 87.04 0 0 1 54.1696-18.944 86.6816 86.6816 0 0 1 54.1184 18.944 186.2144 186.2144 0 0 0 302.08-135.7312z"
          fill="#987EFB"/>
    <path d="M621.1584 831.5904c-113.2032-97.28-211.3024-5.12-215.4496-1.3312l-49.664-51.6608c51.2-49.2032 182.1696-112.64 311.808-1.3824z"
          fill="#FFFFFF"/>
</svg>