<?xml version="1.0" standalone="no"?><!DOCTYPE svg PUBLIC "-//W3C//DTD SVG 1.1//EN"
        "http://www.w3.org/Graphics/SVG/1.1/DTD/svg11.dtd">
<svg class="icon" width="200px" height="200.00px" viewBox="0 0 1024 1024" version="1.1"
     xmlns="http://www.w3.org/2000/svg">
    <path d="M74.9568 79.9232m194.2016 0l486.2976 0q194.2016 0 194.2016 194.2016l0 486.2976q0 194.2016-194.2016 194.2016l-486.2976 0q-194.2016 0-194.2016-194.2016l0-486.2976q0-194.2016 194.2016-194.2016Z"
          fill="#F6648C"/>
    <path d="M700.416 216.8832H316.0576c-70.6048 0-128 62.4128-128 139.1104v322.56c0 76.8 57.3952 139.1104 128 139.1104h229.12a25.6 25.6 0 0 0 0-51.2H316.0576c-42.3424 0-76.8-39.424-76.8-87.9104v-322.56c0-48.4864 34.4576-87.9104 76.8-87.9104h384.3584c42.3424 0 76.8 39.424 76.8 87.9104v131.584a25.6 25.6 0 1 0 51.2 0v-131.584c0-76.6976-57.4464-139.1104-128-139.1104z"
          fill="#F7F8F8"/>
    <path d="M640.8704 387.5328a25.6 25.6 0 0 0-25.6-25.6H349.5936a25.6 25.6 0 0 0 0 51.2h265.6768a25.6 25.6 0 0 0 25.6-25.6zM349.5936 506.88a25.6 25.6 0 0 0 0 51.2h112.64a25.6 25.6 0 0 0 0-51.2zM766.4128 712.3968a138.9056 138.9056 0 1 0-106.9056 50.0736c4.0448 0 8.1408 0 12.2368-0.5632a138.24 138.24 0 0 0 55.296-16.8448l42.24 50.0224a25.6 25.6 0 1 0 39.1168-33.024z m-99.1232-1.4848a87.7568 87.7568 0 1 1-15.36-174.7968c2.6112 0 5.12-0.3584 7.7312-0.3584a87.7568 87.7568 0 0 1 7.6288 175.1552z"
          fill="#F7F8F8"/>
</svg>