<?xml version="1.0" standalone="no"?><!DOCTYPE svg PUBLIC "-//W3C//DTD SVG 1.1//EN"
        "http://www.w3.org/Graphics/SVG/1.1/DTD/svg11.dtd">
<svg class="icon" width="200px" height="200.00px" viewBox="0 0 1024 1024" version="1.1"
     xmlns="http://www.w3.org/2000/svg">
    <path d="M77.4144 70.5024m194.2016 0l486.2976 0q194.2016 0 194.2016 194.2016l0 486.2976q0 194.2016-194.2016 194.2016l-486.2976 0q-194.2016 0-194.2016-194.2016l0-486.2976q0-194.2016 194.2016-194.2016Z"
          fill="#4FE8CB"/>
    <path d="M585.984 838.6048a25.6 25.6 0 0 1-25.6-25.6v-262.9632a61.44 61.44 0 0 1 13.7216-38.656l175.7184-218.5216a9.7792 9.7792 0 0 0 1.4336-10.9568 13.056 13.056 0 0 0-12.288-7.168H275.456a13.056 13.056 0 0 0-12.3392 7.2704 9.9328 9.9328 0 0 0 1.6384 11.1104l181.3504 214.7328A61.8496 61.8496 0 0 1 460.8 547.84v160.6656a25.6 25.6 0 0 1-51.2 0V547.84a10.24 10.24 0 0 0-2.56-6.8096L225.6384 326.144a61.0816 61.0816 0 0 1-8.9088-65.6896 63.7952 63.7952 0 0 1 58.7264-36.9152h463.5136a64.1024 64.1024 0 0 1 58.4704 36.2496 61.0816 61.0816 0 0 1-7.7312 65.1776l-175.7184 218.4704a10.496 10.496 0 0 0-2.4064 6.6048v262.9632a25.6 25.6 0 0 1-25.6 25.6z"
          fill="#F7F8F8"/>
    <path d="M757.76 659.0976h-99.328a25.6 25.6 0 0 1 0-51.2H757.76a25.6 25.6 0 0 1 0 51.2zM757.76 762.4192h-99.328a25.6 25.6 0 0 1 0-51.2H757.76a25.6 25.6 0 0 1 0 51.2z"
          fill="#F7F8F8"/>
</svg>