<?xml version="1.0" standalone="no"?><!DOCTYPE svg PUBLIC "-//W3C//DTD SVG 1.1//EN"
        "http://www.w3.org/Graphics/SVG/1.1/DTD/svg11.dtd">
<svg class="icon" width="200px" height="200.00px" viewBox="0 0 1024 1024" version="1.1"
     xmlns="http://www.w3.org/2000/svg">
    <path d="M79.3088 70.5024m194.2016 0l486.2976 0q194.2016 0 194.2016 194.2016l0 486.2976q0 194.2016-194.2016 194.2016l-486.2976 0q-194.2016 0-194.2016-194.2016l0-486.2976q0-194.2016 194.2016-194.2016Z"
          fill="#F6648C"/>
    <path d="M522.5984 846.08A337.92 337.92 0 1 1 829.44 650.24a25.6 25.6 0 0 1-46.4384-21.6064 284.5184 284.5184 0 0 0 26.6752-121.0368 287.0784 287.0784 0 1 0-118.8864 232.6528 25.6 25.6 0 0 1 30.0544 41.472 335.8208 335.8208 0 0 1-198.2464 64.3584z"
          fill="#F7F8F8"/>
    <path d="M522.5984 691.9168a25.6 25.6 0 0 1-25.6-25.6v-219.648a25.6 25.6 0 0 1 51.2 0v219.648a25.6 25.6 0 0 1-25.6 25.6zM522.5984 387.1232a25.6 25.6 0 0 1-25.6-25.6v-14.9504a25.6 25.6 0 0 1 51.2 0v14.9504a25.6 25.6 0 0 1-25.6 25.6z"
          fill="#F7F8F8"/>
</svg>