<?xml version="1.0" standalone="no"?><!DOCTYPE svg PUBLIC "-//W3C//DTD SVG 1.1//EN"
        "http://www.w3.org/Graphics/SVG/1.1/DTD/svg11.dtd">
<svg class="icon" width="200px" height="200.00px" viewBox="0 0 1024 1024" version="1.1"
     xmlns="http://www.w3.org/2000/svg">
    <path d="M72.8064 75.3152m194.2016 0l486.2976 0q194.2016 0 194.2016 194.2016l0 486.2976q0 194.2016-194.2016 194.2016l-486.2976 0q-194.2016 0-194.2016-194.2016l0-486.2976q0-194.2016 194.2016-194.2016Z"
          fill="#A46FFF"/>
    <path d="M793.088 832.3072H512a316.8768 316.8768 0 1 1 269.4656-149.9136 25.6 25.6 0 1 1-43.4688-27.0336A265.8816 265.8816 0 1 0 512 781.1072h281.088a25.6 25.6 0 1 1 0 51.2z"
          fill="#F7F8F8"/>
    <path d="M512 462.2848a76.288 76.288 0 1 1 76.288-76.288 76.3904 76.3904 0 0 1-76.288 76.288z m0-101.376a25.088 25.088 0 1 0 25.088 25.088 25.1392 25.1392 0 0 0-25.088-25.088zM512 719.0528a76.288 76.288 0 1 1 76.288-76.288 76.3904 76.3904 0 0 1-76.288 76.288z m0-101.3248a25.088 25.088 0 1 0 25.088 25.0368 25.088 25.088 0 0 0-25.088-25.0368zM640.4096 590.6432A76.288 76.288 0 1 1 716.8 514.4064a76.3392 76.3392 0 0 1-76.3904 76.2368z m0-101.3248a25.088 25.088 0 1 0 25.0368 25.088 25.1392 25.1392 0 0 0-25.0368-25.088zM383.5904 590.6432a76.288 76.288 0 1 1 76.288-76.2368 76.3392 76.3392 0 0 1-76.288 76.2368z m0-101.3248a25.088 25.088 0 1 0 25.088 25.088 25.088 25.088 0 0 0-25.088-25.088z"
          fill="#F7F8F8"/>
</svg>