<?xml version="1.0" standalone="no"?><!DOCTYPE svg PUBLIC "-//W3C//DTD SVG 1.1//EN"
        "http://www.w3.org/Graphics/SVG/1.1/DTD/svg11.dtd">
<svg class="icon" width="200px" height="200.00px" viewBox="0 0 1024 1024" version="1.1"
     xmlns="http://www.w3.org/2000/svg">
    <path d="M864.7168 343.3472a105.8816 105.8816 0 0 1-70.0928-27.3408c-30.72-28.3136-44.7488-80.4352-2.048-128l53.3504 47.872c-13.6192 15.36-8.6016 22.016-2.8672 27.2384 9.0112 8.2944 25.0368 11.9296 32.1536 4.3008 32.512-34.2528-4.608-73.2672-8.96-77.6192l-17.2544-17.3056 40.3456-92.16 65.6384 28.7744-21.7088 49.6128c28.5696 40.96 44.6976 104.6528-5.888 157.9008a84.0192 84.0192 0 0 1-62.6688 26.7264z"
          fill="#96BBFF"/>
    <path d="M885.76 778.24l-110.4896-49.7152-11.4176-128-102.0416-40.448C745.984 506.88 817.152 488.0384 818.2272 487.7312l24.064-6.0416L855.04 368.64l-134.9632-48.64 36.2496-120.6784-54.2208-71.0144-18.8416 0.9216a698.5216 698.5216 0 0 0-177.408 37.12l0.4096-1.7408-179.6096-37.7856L219.5456 266.24 89.7024 375.0912l-21.1968 118.528 133.12 227.7376c20.736 54.7328 64.9216 128 138.24 171.6224 60.8256 36.4032 163.5328 64.1536 311.0912-5.4784a1252.7104 1252.7104 0 0 0 220.4672 52.2752l50.0224 6.2464zM555.2128 254.0032a41.2672 41.2672 0 1 1-41.2672 41.2672 41.2672 41.2672 0 0 1 41.2672-41.2672z m-213.9136 381.2864a106.9056 106.9056 0 0 1-65.3824-21.8624L261.12 602.2656l0.6144-18.688C265.6256 454.9632 359.5776 415.232 363.52 413.5936l27.0336 66.56h0.512c-2.048 0.8704-45.056 20.48-55.6544 83.0976 36.4032 5.4784 82.8928-37.888 83.456-38.4l49.92 51.2c-27.2896 26.4704-76.7488 59.2384-127.488 59.2384zM428.6976 496.64l-6.144-5.12-3.4816-7.0656c-30.72-61.44-20.7872-136.3456-20.48-139.4688l35.5328 4.864 35.5328 4.7616c0 0.512-6.2976 50.1248 10.24 90.7264a111.2576 111.2576 0 0 0 63.3344 18.0224l5.9904 71.68c-1.3312 0-4.7104 0.3584-9.6256 0.3584A179.8144 179.8144 0 0 1 428.6976 496.64z m161.3824 265.472c-60.4672-0.6656-88.7296-13.568-94.464-25.6-5.12-10.6496 3.6864-29.1328 9.5232-35.84l1.5872-1.8432a602.8288 602.8288 0 0 1 125.3888-118.8352z"
          fill="#3A77FF"/>
</svg>