<?xml version="1.0" standalone="no"?><!DOCTYPE svg PUBLIC "-//W3C//DTD SVG 1.1//EN"
        "http://www.w3.org/Graphics/SVG/1.1/DTD/svg11.dtd">
<svg class="icon" width="200px" height="200.00px" viewBox="0 0 1024 1024" version="1.1"
     xmlns="http://www.w3.org/2000/svg">
    <path d="M801.2288 113.5616A93.696 93.696 0 0 0 682.752 102.4a93.5424 93.5424 0 0 0-118.4256 143.36l11.3152 11.3152 107.1104 93.1328 105.3184-91.3408 13.1584-13.1072a93.696 93.696 0 0 0 0-132.1984z"
          fill="#F37F7E"/>
    <path d="M407.6032 941.6192A330.8544 330.8544 0 1 1 527.0528 302.08l-40.3456 104.2432a218.9312 218.9312 0 1 0 128.3584 133.6832l105.7792-35.84a331.1104 331.1104 0 0 1-313.2416 437.6576z"
          fill="#F5564D"/>
    <path d="M696.6272 943.36l-8.8576-111.36a174.8992 174.8992 0 1 0-165.7856-87.04l-96.768 55.808a286.72 286.72 0 1 1 271.36 142.6432z"
          fill="#F37F7E"/>
</svg>